<svg xmlns="http://www.w3.org/2000/svg" xmlns:xlink="http://www.w3.org/1999/xlink" fill="none" version="1.1" width="40" height="40" viewBox="0 0 40 40"><g style="mix-blend-mode:passthrough"><g style="mix-blend-mode:passthrough"><rect x="0" y="0" width="40" height="40" rx="4" fill="#2C8CF0" fill-opacity="1"/></g><g><path d="M23.392699999999998,29.6754L23.392699999999998,34L29.6963,28.7225L24.4188,28.7225C23.9058,28.7225,23.392699999999998,29.1623,23.392699999999998,29.6754ZM28.6702,8.418849999999999L8.95288,8.418849999999999C8.439791,8.418849999999999,8,9.00524,8,9.51832L8,33.120400000000004C8,33.6335,8.366492,34,8.879581,34L22.439799999999998,34L22.439799999999998,28.7225C22.439799999999998,28.2094,22.9529,27.6963,23.392699999999998,27.6963L29.6963,27.6963L29.6963,9.37173C29.6963,8.93194,29.1832,8.34555,28.6702,8.418849999999999ZM12.5445,26.3037C11.88482,26.3037,11.37173,25.7906,11.37173,25.1309C11.37173,24.4712,11.88482,23.9581,12.5445,23.9581C13.20419,23.9581,13.717279999999999,24.4712,13.717279999999999,25.1309C13.717279999999999,25.7173,13.20419,26.3037,12.5445,26.3037ZM12.5445,20.9529C11.88482,20.9529,11.37173,20.439799999999998,11.37173,19.780099999999997C11.37173,19.1204,11.88482,18.607300000000002,12.5445,18.607300000000002C13.20419,18.607300000000002,13.717279999999999,19.1204,13.717279999999999,19.780099999999997C13.717279999999999,20.439799999999998,13.20419,20.9529,12.5445,20.9529ZM12.5445,15.67539C11.88482,15.67539,11.37173,15.1623,11.37173,14.50262C11.37173,13.842929999999999,11.88482,13.32984,12.5445,13.32984C13.20419,13.32984,13.717279999999999,13.842929999999999,13.717279999999999,14.50262C13.717279999999999,15.089,13.20419,15.67539,12.5445,15.67539ZM25.2984,25.2775C25.2984,25.5707,25.0785,25.7906,24.7853,25.7906L16.13613,25.7906C15.842929999999999,25.7906,15.62304,25.5707,15.62304,25.2775L15.62304,24.7644C15.62304,24.4712,15.842929999999999,24.2513,16.13613,24.2513L24.7853,24.2513C25.0785,24.2513,25.2984,24.4712,25.2984,24.7644L25.2984,25.2775ZM25.2984,20C25.2984,20.2932,25.0785,20.5131,24.7853,20.5131L16.13613,20.5131C15.842929999999999,20.5131,15.62304,20.2932,15.62304,20L15.62304,19.4869C15.62304,19.1937,15.842929999999999,18.9738,16.13613,18.9738L24.7853,18.9738C25.0785,18.9738,25.2984,19.1937,25.2984,19.4869L25.2984,20ZM25.2984,14.72251C25.2984,15.01571,25.0785,15.2356,24.7853,15.2356L16.13613,15.2356C15.842929999999999,15.2356,15.62304,15.01571,15.62304,14.72251L15.62304,14.20942C15.62304,13.916229999999999,15.842929999999999,13.69633,16.13613,13.69633L24.7853,13.69633C25.0785,13.69633,25.2984,13.916229999999999,25.2984,14.20942L25.2984,14.72251ZM31.2356,6L11.15183,6C10.418849999999999,6,9.90576,6.732984,9.90576,7.46597L29.6963,7.46597C30.2094,7.46597,30.6492,7.9790600000000005,30.6492,8.418849999999999L30.6492,26.3037C31.3822,26.3037,32.1152,25.8639,32.1152,25.1309L32.1152,6.879581C32.0419,6.366492,31.6754,6,31.2356,6Z" fill="#FFFFFF" fill-opacity="1"/></g></g></svg>