<?xml version="1.0" standalone="no"?><!DOCTYPE svg PUBLIC "-//W3C//DTD SVG 1.1//EN" "http://www.w3.org/Graphics/SVG/1.1/DTD/svg11.dtd"><svg t="1660554506831" class="icon" viewBox="0 0 1024 1024" version="1.1" xmlns="http://www.w3.org/2000/svg" p-id="3378" xmlns:xlink="http://www.w3.org/1999/xlink" width="200" height="200"><defs><style type="text/css"></style></defs><path d="M959.716928 554.950208M532.429285 958.838931M64.446801 594.626859M270.969435 57.464783" p-id="3379" fill="#ffffff"></path><path d="M583.719438 385.762901C664.377456 493.897713 810.145377 538.433022 810.145377 538.433022 799.252283 351.240643 687.435615 259.769348 510.411829 258.869862 298.641681 257.789251 175.627996 429.173596 222.010373 597.866646 222.00935 597.866646 580.769246 462.953957 583.719438 385.762901z" p-id="3380" fill="#ffffff"></path><path d="M843.843874 721.201649c65.939805-16.944927 114.865097-15.887852 114.865097-150.871149 0-65.013713-38.867216-120.714316-93.980441-144.029324C824.128857 272.551466 697.718819 116.236328 507.890402 111.958908c-6.053879-0.135076-12.062733-0.157589-18.004049 0-183.887101 4.724605-309.892933 146.908908-324.069817 311.821865-58.44511 21.626553-102.44216 79.103616-100.462063 146.549727 4.432962 151.456481 66.321498 153.863297 148.712997 155.550729l0-293.098431c1.732457-125.304867 124.495432-264.293385 293.822932-264.293385 168.313404 0 261.415848 130.999566 302.464753 247.369947l0 301.380048c-8.28264 19.399839-30.449499 41.206494-70.936609 80.296791-52.819996 50.971905-128.907928 77.414137-128.907928 77.414137-8.844435 1.867534-15.078417 13.68365-12.603039 23.76424 2.475378 10.082636 13.253862 16.136515 21.605064 12.242835 0 0 80.274278-26.195615 140.430356-84.256986C819.492256 769.20392 843.640236 721.763444 843.843874 721.201649z" p-id="3381" fill="#ffffff"></path><path d="M375.327224 624.215758m-37.46631 0a36.613 36.613 0 1 0 74.93262 0 36.613 36.613 0 1 0-74.93262 0Z" p-id="3382" fill="#ffffff"></path><path d="M657.294131 624.215758m-37.46631 0a36.613 36.613 0 1 0 74.93262 0 36.613 36.613 0 1 0-74.93262 0Z" p-id="3383" fill="#ffffff"></path></svg>