<svg xmlns="http://www.w3.org/2000/svg" xmlns:xlink="http://www.w3.org/1999/xlink" fill="none" version="1.1" width="16" height="16" viewBox="0 0 16 16"><defs><clipPath id="master_svg0_906_05731"><rect x="0" y="0" width="16" height="16" rx="0"/></clipPath><filter id="master_svg1_906_07309" filterUnits="objectBoundingBox" color-interpolation-filters="sRGB" x="-0.5" y="0" width="10.999999046325684" height="11.003594398498535"><feFlood flood-opacity="0" result="BackgroundImageFix"/><feColorMatrix in="SourceAlpha" type="matrix" values="0 0 0 0 0 0 0 0 0 0 0 0 0 0 0 0 0 0 127 0"/><feOffset dy="0.5" dx="-0.5"/><feGaussianBlur stdDeviation="0"/><feColorMatrix type="matrix" values="0 0 0 0 0 0 0 0 0 0 0 0 0 0 0 0 0 0 0.30000001192092896 0"/><feBlend mode="normal" in2="BackgroundImageFix" result="effect1_dropShadow"/><feBlend mode="normal" in="SourceGraphic" in2="effect1_dropShadow" result="shape"/></filter></defs><g style="mix-blend-mode:passthrough" clip-path="url(#master_svg0_906_05731)"><rect x="0" y="0" width="16" height="16" rx="0" fill="#FFFFFF" fill-opacity="1"/><g style="mix-blend-mode:passthrough"><g style="mix-blend-mode:passthrough"><rect x="0" y="0" width="16" height="16" rx="2" fill="#86909C" fill-opacity="1"/></g><g style="mix-blend-mode:passthrough" transform="matrix(-1,0,0,1,26.5,0)" filter="url(#master_svg1_906_07309)"><g><path d="M15.043137853050231,11.724365213012696C14.806444853050232,11.997185213012695,14.756237453050232,12.384875213012695,14.906860153050232,12.715135213012696C15.057482853050232,13.045385213012695,15.387418853050232,13.253595213012694,15.746044853050233,13.253595213012694L18.823052853050232,13.253595213012694L19.755482853050232,13.253595213012694L22.82532285305023,13.253595213012694C23.183942853050233,13.253595213012694,23.513882853050234,13.045385213012695,23.66450285305023,12.715125213012696C23.815122853050234,12.384875213012695,23.76492285305023,11.997185213012695,23.52822285305023,11.724365213012696L21.204332853050232,9.010515213012695C20.64487285305023,9.347951213012696,19.985002853050233,9.541797213012696,19.28209285305023,9.548977213012694C18.60788285305023,9.548977213012694,17.948002853050234,9.362310213012695,17.367032853050233,9.010515213012695L15.043137853050231,11.724365213012696Z" fill="#FFFFFF" fill-opacity="1"/></g><g transform="matrix(-1,0,0,1,39.83148384094238,0)"><path d="M19.91984629047119,11.740625862731934C19.91187156047119,11.761685862731934,19.91568712967119,11.785495862731933,19.929817820471193,11.802865862731934L20.67766492047119,12.710405862731934C20.68881792047119,12.724635862731933,20.70579792047119,12.732785862731934,20.72364392047119,12.732465862731933C20.74026192047119,12.732465862731933,20.75743492047119,12.725675862731933,20.76906792047119,12.710405862731934L21.51691192047119,11.803425862731935C21.53131192047119,11.786235862731933,21.535541920471193,11.762455862731933,21.52799192047119,11.741195862731933L20.780146920471193,9.658487262731933C20.77211992047119,9.633703162731933,20.74919492047119,9.617175017731933,20.723642920471192,9.617750321431934C20.69849792047119,9.617671559631933,20.676148920471192,9.634105762731934,20.66824692047119,9.658487262731933L19.91984629047119,11.740625862731934Z" fill="#86909C" fill-opacity="1"/></g><g><path d="M16.197992086410522,5.84436C16.197404044410522,7.55374,17.578412086410523,8.93979,19.282172086410522,8.93979C20.98593208641052,8.93979,22.36694208641052,7.55374,22.366352086410522,5.84436C22.366352086410522,4.13539,20.985522086410523,2.75,19.282172086410522,2.75C17.57883208641052,2.75,16.197992086410522,4.13539,16.197992086410522,5.84436Z" fill="#FFFFFF" fill-opacity="1"/></g><g><path d="M16.40591,9.513081962738037L16.40591,8.077184962738038C16.40591,7.868979962738037,16.23377,7.696671962738037,16.02576,7.696671962738037L13.630143,7.696671962738037C13.42214,7.696671962738037,13.25,7.868979962738037,13.25,8.077184962738038L13.25,12.873081962738038C13.25,13.081291962738037,13.42214,13.253591962738037,13.630143,13.253591962738037L14.82795,13.253591962738037C14.66299,13.145901962738037,14.52671,12.987951962738038,14.44064,12.801291962738038C14.26132,12.406411962738037,14.32588,11.946931962738038,14.60561,11.616671962738037L16.40591,9.513081962738037ZM13.787939,8.708981962738036C13.787939,8.551030962738038,13.917044,8.421799962738037,14.07484,8.421799962738037L15.50934,8.421799962738037C15.66714,8.421799962738037,15.796240000000001,8.551030962738038,15.796240000000001,8.708981962738036C15.796240000000001,8.866931962738038,15.66714,8.996161962738038,15.50934,8.996161962738038L14.074839,8.996161962738038C13.917044,9.003341962738038,13.787939,8.874111962738038,13.787939,8.708981962738036ZM14.07484,9.958211962738037C13.917044,9.958211962738037,13.787939,9.828981962738037,13.787939,9.671031962738038C13.787939,9.513081962738037,13.917044,9.383851962738037,14.07484,9.383851962738037L15.50934,9.383851962738037C15.66714,9.383851962738037,15.796240000000001,9.513081962738037,15.796240000000001,9.671031962738038C15.796240000000001,9.828981962738037,15.66714,9.958211962738037,15.50934,9.958211962738037L14.07484,9.958211962738037Z" fill="#FFFFFF" fill-opacity="1"/></g></g></g></g></svg>