<svg xmlns="http://www.w3.org/2000/svg" xmlns:xlink="http://www.w3.org/1999/xlink" fill="none" version="1.1" width="16" height="16" viewBox="0 0 16 16"><defs><clipPath id="master_svg0_961_21464"><rect x="0" y="0" width="16" height="16" rx="0"/></clipPath><filter id="master_svg1_961_21470" filterUnits="objectBoundingBox" color-interpolation-filters="sRGB" x="0" y="0" width="10.499876022338867" height="10.5"><feFlood flood-opacity="0" result="BackgroundImageFix"/><feColorMatrix in="SourceAlpha" type="matrix" values="0 0 0 0 0 0 0 0 0 0 0 0 0 0 0 0 0 0 127 0"/><feOffset dy="0.5" dx="0.5"/><feGaussianBlur stdDeviation="0"/><feColorMatrix type="matrix" values="0 0 0 0 0.5254902243614197 0 0 0 0 0.5647059082984924 0 0 0 0 0.6117647290229797 0 0 0 1 0"/><feBlend mode="normal" in2="BackgroundImageFix" result="effect1_dropShadow"/><feBlend mode="normal" in="SourceGraphic" in2="effect1_dropShadow" result="shape"/></filter></defs><g style="mix-blend-mode:passthrough" clip-path="url(#master_svg0_961_21464)"><rect x="0" y="0" width="16" height="16" rx="0" fill="#FFFFFF" fill-opacity="1"/><g style="mix-blend-mode:passthrough"><g style="mix-blend-mode:passthrough"><rect x="0" y="0" width="16" height="16" rx="2" fill="#B0B7BF" fill-opacity="1"/></g></g><g filter="url(#master_svg1_961_21470)"><path d="M9.71867,7.21882C9.71867,7.39167,9.57902,7.53132,9.40617,7.53132L6.59371,7.53132C6.50777,7.53132,6.4296500000000005,7.49616,6.37301,7.43952C6.31637,7.38288,6.28121,7.30476,6.28121,7.21882C6.28121,6.62606,6.581989999999999,6.10262,7.03804,5.794029999999999C6.67281,5.50791,6.43746,5.0626,6.43746,4.5626C6.43746,3.70617,7.12593,3.0108657,7.97943,3.000123633C8.836839999999999,2.9893816,9.54875,3.679803,9.56242,4.53721C9.570229999999999,5.04795,9.33391,5.503019999999999,8.961839999999999,5.794029999999999C9.190349999999999,5.94833,9.3798,6.1563300000000005,9.51164,6.3995C9.64347,6.64363,9.71867,6.92195,9.71867,7.21882ZM12.99988,12.6875C12.99988,12.86035,12.86023,13,12.68738,13L9.87492,13C9.788979999999999,13,9.71085,12.96484,9.654209999999999,12.9082C9.59758,12.85156,9.56242,12.77344,9.56242,12.6875C9.56242,12.09474,9.863199999999999,11.57131,10.31925,11.26272C9.95401,10.97659,9.71867,10.531279999999999,9.71867,10.03129C9.71867,9.17485,10.40714,8.47955,11.26064,8.468810000000001C12.11805,8.45806,12.82996,9.148489999999999,12.84363,10.0059C12.85144,10.51663,12.61512,10.9717,12.24305,11.26272C12.47156,11.41701,12.66101,11.62502,12.79285,11.86818C12.92468,12.11232,12.99988,12.39063,12.99988,12.6875ZM6.43746,12.6875C6.43746,12.86035,6.29781,13,6.12496,13L3.312496,13C3.22656,13,3.1484360000000002,12.96484,3.0917958,12.9082C3.0351558,12.85156,3.0000000119209,12.77344,3.0000000119209,12.6875C3.0000000119209,12.09474,3.300778,11.57131,3.756827,11.26272C3.391597,10.97659,3.156248,10.531279999999999,3.156248,10.03129C3.156248,9.17485,3.844716,8.47955,4.69822,8.468810000000001C5.55563,8.45806,6.26754,9.148489999999999,6.28121,10.0059C6.28902,10.51663,6.0527,10.9717,5.68063,11.26272C5.90914,11.41701,6.09859,11.62502,6.23043,11.86818C6.36226,12.11232,6.43746,12.39063,6.43746,12.6875ZM9.20402,10.03129C9.14641,10.13187,9.040939999999999,10.187529999999999,8.93352,10.187529999999999C8.880790000000001,10.187529999999999,8.827079999999999,10.173860000000001,8.77727,10.14554L7.99994,9.69731L7.2226,10.14554C7.07319,10.231480000000001,6.8817900000000005,10.1807,6.79585,10.03129C6.76753,9.98246,6.7538599999999995,9.92875,6.7538599999999995,9.87504C6.7538599999999995,9.766639999999999,6.80952,9.66215,6.9101099999999995,9.60454L7.68744,9.1563L7.68744,8.312560000000001C7.68744,8.139710000000001,7.82709,8.000060000000001,7.99994,8.000060000000001C8.08587,8.000060000000001,8.164,8.035219999999999,8.22064,8.09186C8.277280000000001,8.1485,8.312429999999999,8.22662,8.312429999999999,8.312560000000001L8.312429999999999,9.15532L9.08977,9.60356C9.239180000000001,9.690470000000001,9.28996,9.88187,9.20402,10.03129Z" fill="#FFFFFF" fill-opacity="1"/></g></g></svg>