<?xml version="1.0" standalone="no"?><!DOCTYPE svg PUBLIC "-//W3C//DTD SVG 1.1//EN" "http://www.w3.org/Graphics/SVG/1.1/DTD/svg11.dtd"><svg t="1660554425475" class="icon" viewBox="0 0 1024 1024" version="1.1" xmlns="http://www.w3.org/2000/svg" p-id="1057" xmlns:xlink="http://www.w3.org/1999/xlink" width="200" height="200"><defs><style type="text/css"></style></defs><path d="M877.1584 511.8976h-20.4288c-0.256-0.3072-0.5632-0.6656-0.8704-0.9728l-62.5664-62.5152a26.76736 26.76736 0 0 0-23.9104-38.8096h-0.1536c-14.7456 0.1024-26.624 12.032-26.624 26.7776 0 4.9664 1.3312 9.6256 3.6864 13.568l-61.9008 61.952h-21.5552c-26.9312 0-48.7424 16.5888-48.7424 37.0688v188.9792c0 20.4288 21.8112 37.0176 48.7424 37.0176h214.3232c26.9312 0 48.7424-16.5888 48.7424-37.0176v-188.9792c0-20.48-21.8112-37.0688-48.7424-37.0688z m-107.8784 0h-36.6592l36.6592-36.6592 1.3312-1.3312 37.9904 37.9904h-39.3216z" fill="#F56566" opacity=".5" p-id="1058"></path><path d="M769.2288 409.6c-0.7168-42.496-46.2336-76.8-102.3488-76.8h-42.9568c-0.6144-0.7168-1.1776-1.3824-1.8432-2.048L490.6496 199.3216A56.28928 56.28928 0 0 0 440.32 117.76c-31.1296 0-56.32 25.1904-56.32 56.32 0 10.4448 2.8672 20.1728 7.8336 28.5184L261.632 332.8h-45.312c-56.576 0-102.4 34.8672-102.4 77.8752v397.2096c0 43.008 45.824 77.8752 102.4 77.8752h450.56c56.576 0 102.4-34.8672 102.4-77.8752V410.6752c0-0.3584 0-0.7168-0.0512-1.0752zM442.88 252.928L522.752 332.8H363.008l79.872-79.872z m-7.936 458.496A35.62496 35.62496 0 0 1 409.6 721.92H276.48c-19.8144 0-35.84-16.0256-35.84-35.84s16.0256-35.84 35.84-35.84h133.12c19.8144 0 35.84 16.0256 35.84 35.84 0 9.9328-3.9936 18.8416-10.496 25.344z m143.36-143.36A35.62496 35.62496 0 0 1 552.96 578.56H276.48c-19.8144 0-35.84-16.0256-35.84-35.84s16.0256-35.84 35.84-35.84h276.48c19.8144 0 35.84 16.0256 35.84 35.84 0 9.9328-3.9936 18.8416-10.496 25.344z" fill="#F56566" p-id="1059"></path></svg>