<svg xmlns="http://www.w3.org/2000/svg" xmlns:xlink="http://www.w3.org/1999/xlink" fill="none" version="1.1" width="40" height="40" viewBox="0 0 40 40"><g><g><g><rect x="0" y="0" width="40" height="40" rx="4" fill="#0052CC" fill-opacity="1"/></g><g><g><g><path d="M26.435999850988388,6L9.871579850988388,6C8.841530850988388,6,7.999999850988388,6.841042,7.999999850988388,7.87109L7.999999850988388,32.1289C7.999999850988388,33.159,8.841530850988388,34,9.871579850988388,34L30.643599850988387,34C31.67359985098839,34,32.51509985098839,33.159,32.51509985098839,32.1289L32.51509985098839,12.0791L26.435999850988388,6Z" fill="#FFFFFF" fill-opacity="1"/></g><g><path d="M26.43651247024536,10.20725C26.43651247024536,11.23731,27.277962470245363,12.078759999999999,28.308012470245362,12.078759999999999L32.515272470245364,12.078759999999999L26.43651247024536,6L26.43651247024536,10.20725Z" fill="#267DFF" fill-opacity="1"/></g><g><path d="M20.02689666213989,30.4890096875L7.999996662139893,30.4892596875L7.999996662139893,23.8154296875L20.012396662139892,23.8154296875C20.578196662139895,23.8154296875,21.042496662139893,24.2506626875,21.042496662139893,24.7874506875L21.042496662139893,29.5024796875C21.056996662139895,30.0537696875,20.592696662139893,30.488999687499998,20.02689666213989,30.4890096875Z" fill="#D5E8FC" fill-opacity="1"/></g><g><path d="M10.253386761581421,29.3315409375Q10.652237761581421,28.8951509375,10.91735576158142,28.4869209375Q11.182469761581421,28.0786809375,11.342009761581421,27.6516809375L10.811777761581421,27.3701409375Q10.75077676158142,27.5812909375,10.67100676158142,27.7924509375L9.999999761581421,27.7924509375Q10.47861976158142,26.4926709375,10.61000676158142,25.1084225375L11.262239761581421,25.1084225375Q11.234089761581421,25.4181179375,11.215319761581421,25.5682739375L12.252329761581422,25.5682739375Q12.252329761581422,26.412900937499998,12.156139761581422,27.0393309375Q12.059939761581422,27.6657609375,11.80889976158142,28.2264909375Q11.55785976158142,28.7872309375,11.093319761581421,29.3315409375L10.253386761581421,29.3315409375ZM11.51562976158142,27.0510609375Q11.60478976158142,26.6522109375,11.63293976158142,26.1782809375L11.093319761581421,26.1782809375Q11.037009761581421,26.5114409375,10.976009761581421,26.7648209375L11.51562976158142,27.0510609375ZM12.61833976158142,25.1084225375L13.22833976158142,25.1084225375L13.22833976158142,29.3315409375L12.61833976158142,29.3315409375L12.61833976158142,25.1084225375ZM13.95565976158142,25.9014309375Q14.27942976158142,27.1214409375,14.32165976158142,28.4446909375L13.753889761581421,28.4446909375Q13.711649761581421,27.1730609375,13.34564976158142,25.9014309375L13.95565976158142,25.9014309375ZM17.334149761581422,25.9201999375L17.03383976158142,25.9201999375L17.03383976158142,25.3383479375L17.50776976158142,25.3383479375L17.58284976158142,25.0849609375L18.18346976158142,25.0849609375L18.10838976158142,25.3383479375L18.962399761581423,25.3383479375L18.962399761581423,25.9201999375L17.89253976158142,25.9201999375L17.72361976158142,26.5114409375L17.92538976158142,26.5114409375L17.92538976158142,26.0985109375L18.44154976158142,26.0985109375L18.44154976158142,26.5114409375L18.915479761581423,26.5114409375L18.915479761581423,27.0745209375L18.42277976158142,27.0745209375L18.42277976158142,27.5343709375L19.00932976158142,27.5343709375L19.00932976158142,28.0974509375L18.42277976158142,28.0974509375L18.42277976158142,28.5948409375L17.83623976158142,28.5948409375L17.83623976158142,28.0974509375L17.03383976158142,28.0974509375L17.03383976158142,27.5343709375L17.83623976158142,27.5343709375L17.83623976158142,27.0745209375L16.991609761581422,27.0745209375L17.334149761581422,25.9201999375ZM14.692359761581422,26.6569009375Q14.917589761581421,25.8873539375,14.931669761581421,25.1084225375L15.53697976158142,25.1084225375L15.52289976158142,25.4603499375L16.07190976158142,25.4603499375L16.07190976158142,26.0422019375L15.46189976158142,26.0422019375Q15.443129761581421,26.1970509375,15.40559976158142,26.356590937500002L16.00621976158142,26.356590937500002L16.00621976158142,26.9290609375L15.70120976158142,26.9290609375L15.70120976158142,27.3419809375L16.07190976158142,27.3419809375L16.07190976158142,27.9144509375L15.70120976158142,27.9144509375L15.70120976158142,28.5854609375L16.06721976158142,28.4963009375L16.06721976158142,29.1016209375L15.124049761581421,29.3315409375L15.124049761581421,27.9144509375L14.786199761581422,27.9144509375L14.786199761581422,27.3419809375L15.124049761581421,27.3419809375L15.124049761581421,26.9290609375L14.926979761581421,26.9290609375L14.926979761581421,26.6569009375L14.692359761581422,26.6569009375ZM16.02967976158142,29.3315409375Q16.222069761581423,28.7121509375,16.29244976158142,28.2218009375Q16.36283976158142,27.7314509375,16.37221976158142,27.0557509375L16.10944976158142,27.0557509375L16.10944976158142,26.4457409375L16.954069761581422,26.4457409375Q16.94937976158142,27.1496009375,16.928269761581422,27.5836409375Q16.907149761581422,28.0176809375,16.846149761581422,28.4259209375Q16.991609761581422,28.5666909375,17.174609761581422,28.6300409375Q17.35761976158142,28.6933809375,17.61569976158142,28.6933809375L19.05624976158142,28.6933809375L19.05624976158142,29.2846209375L17.61569976158142,29.2846209375Q17.305999761581422,29.2846209375,17.099539761581422,29.2259709375Q16.893069761581422,29.167310937499998,16.733529761581423,29.026540937500002L16.658449761581423,29.3315409375L16.02967976158142,29.3315409375ZM16.75229976158142,25.1084225375L16.939999761581422,26.1266609375L16.381609761581423,26.1266609375L16.19390976158142,25.1084225375L16.75229976158142,25.1084225375Z" fill="#0052CC" fill-opacity="1"/></g><g><path d="M19.6034987310791,16.35850686630249L17.3547887310791,18.60721686630249L15.874998731079101,17.09840686630249L18.123698731079102,14.84969686630249L17.731988731079102,14.48700686630249C17.5288787310791,14.28389686630249,17.195198731079103,14.28389686630249,16.977588731079102,14.48700686630249L14.743389731079102,16.72120686630249C14.540280831079102,16.92431686630249,14.540280831079102,17.25798686630249,14.743389731079102,17.475606866302492L16.992098731079103,19.72431686630249C17.195198731079103,19.92741686630249,17.5288787310791,19.92741686630249,17.7464987310791,19.72431686630249L19.9951987310791,17.475606866302492C20.198308731079102,17.27249686630249,20.198308731079102,16.93881686630249,19.9951987310791,16.72120686630249L19.6034987310791,16.35850686630249ZM23.723698731079104,12.992706866302491L21.4749987310791,10.74400186630249C21.3734387310791,10.64244766630249,21.242868731079103,10.58441686630249,21.097798731079102,10.58441686630249C20.952718731079102,10.58441686630249,20.822148731079103,10.642448266302491,20.7205887310791,10.74400186630249L18.486398731079102,12.992706866302491C18.3848387310791,13.09425686630249,18.3268087310791,13.22482686630249,18.3268087310791,13.36990686630249C18.3268087310791,13.51498686630249,18.3848387310791,13.64555686630249,18.486398731079102,13.74710686630249L19.2262887310791,14.48700686630249L18.8635987310791,14.12431686630249L21.1122987310791,11.87560686630249L22.606598731079103,13.36990686630249L20.357898731079104,15.60410686630249L20.735098731079102,15.98130686630249C20.9382087310791,16.18441686630249,21.271888731079102,16.18441686630249,21.489498731079102,15.98130686630249L23.7382087310791,13.73260686630249C23.926808731079102,13.529496866302491,23.926808731079102,13.19581686630249,23.723698731079104,12.992706866302491ZM17.731988731079102,16.72120686630249C17.9350987310791,16.92431686630249,18.268778731079102,16.92431686630249,18.486398731079102,16.72120686630249L20.735098731079102,14.48700686630249C20.8656687310791,14.35643686630249,20.9236987310791,14.15332686630249,20.8656687310791,13.97923686630249C20.822148731079103,13.79063686630249,20.677068731079103,13.66006686630249,20.488468731079102,13.602036866302491C20.2998687310791,13.54399686630249,20.1112687310791,13.602036866302491,19.9806987310791,13.73260686630249L19.240798731079103,14.48700686630249L18.8635987310791,14.86420686630249L17.7464987310791,15.98130686630249C17.5288787310791,16.18441686630249,17.5288787310791,16.51809686630249,17.731988731079102,16.72120686630249Z" fill="#0052CC" fill-opacity="1"/></g></g></g></g></g></svg>