<svg xmlns="http://www.w3.org/2000/svg" xmlns:xlink="http://www.w3.org/1999/xlink" fill="none" version="1.1" width="40" height="40" viewBox="0 0 40 40"><g style="mix-blend-mode:passthrough"><g style="mix-blend-mode:passthrough"><rect x="0" y="0" width="40" height="40" rx="4" fill="#2C8CF0" fill-opacity="1"/></g><g><path d="M26.5007,18.083680190734864C28.0593,18.112150190734866,29.338,16.856550190734865,29.338,15.297770190734862C29.338,13.738990190734864,28.0593,12.483400190734862,26.5007,12.511860190734863C24.982,12.539600190734863,23.7652,13.778740190734863,23.7652,15.297770190734862C23.7652,16.816810190734863,24.982,18.055950190734862,26.5007,18.083680190734864ZM31.3742,8.800000190734863L8.62579,8.800000190734863C7.720133,8.800000190734863,7,9.537012190734863,7,10.442670190734864L7,29.438500190734864C7,30.344200190734863,7.720133,31.08120019073486,8.62579,31.08120019073486L31.3742,31.08120019073486C32.2798,31.08120019073486,33,30.344200190734863,33,29.438500190734864L33,10.442670190734864C33,9.537012190734863,32.2798,8.800000446153863,31.3742,8.800000190734863ZM25.3927,20.27190019073486C25.2088,20.050000190734863,24.9379,19.918700190734864,24.6498,19.911800190734866C24.3542,19.911800190734866,24.1459,20.050700190734865,23.9068,20.242200190734863L22.8216,21.159700190734863C22.595399999999998,21.32240019073486,22.4149,21.432500190734864,22.155,21.432500190734864C21.920099999999998,21.433900190734864,21.6928,21.349300190734866,21.516199999999998,21.19440019073486C21.4311,21.116900190734864,21.3478,21.037500190734864,21.266199999999998,20.95640019073486L18.1445,17.579770190734862C17.900100000000002,17.300650190734864,17.5465,17.141390190734864,17.1754,17.143290190734863C16.78658,17.143290190734863,16.4265,17.335740190734864,16.20034,17.596620190734864L8.85691,26.450800190734864L8.85691,11.336400190734864C8.91445,10.941590190734864,9.22196,10.656910190734862,9.61675,10.656910190734862L30.3763,10.656910190734862C30.777,10.656910190734862,31.1014,10.953490190734863,31.1252,11.353260190734863L31.1421,26.462700190734864L25.3907,20.27190019073486L25.3927,20.27190019073486Z" fill="#FFFFFF" fill-opacity="1"/></g></g></svg>