<svg xmlns="http://www.w3.org/2000/svg" xmlns:xlink="http://www.w3.org/1999/xlink" fill="none" version="1.1" width="16" height="16" viewBox="0 0 16 16"><defs><clipPath id="master_svg0_906_05461"><rect x="0" y="0" width="16" height="16" rx="0"/></clipPath><mask id="master_svg1_906_05467"><g style="mix-blend-mode:passthrough"><rect x="0.00000762939453125" y="0.0000457763671875" width="16" height="16" rx="2" fill="#FFFFFF" fill-opacity="1"/></g></mask><filter id="master_svg2_906_05469" filterUnits="objectBoundingBox" color-interpolation-filters="sRGB" x="0" y="0" width="3.926659107208252" height="3.926659107208252"><feFlood flood-opacity="0" result="BackgroundImageFix"/><feColorMatrix in="SourceAlpha" type="matrix" values="0 0 0 0 0 0 0 0 0 0 0 0 0 0 0 0 0 0 127 0"/><feOffset dy="0.5" dx="0.5"/><feGaussianBlur stdDeviation="0"/><feColorMatrix type="matrix" values="0 0 0 0 0 0 0 0 0 0 0 0 0 0 0 0 0 0 0.3019607961177826 0"/><feBlend mode="normal" in2="BackgroundImageFix" result="effect1_dropShadow"/><feBlend mode="normal" in="SourceGraphic" in2="effect1_dropShadow" result="shape"/></filter></defs><g style="mix-blend-mode:passthrough" clip-path="url(#master_svg0_906_05461)"><rect x="0" y="0" width="16" height="16" rx="0" fill="#FFFFFF" fill-opacity="1"/><g style="mix-blend-mode:passthrough"><g style="mix-blend-mode:passthrough"><g style="mix-blend-mode:passthrough"><rect x="0.00000762939453125" y="0.0000457763671875" width="16" height="16" rx="2" fill="#86909C" fill-opacity="1"/></g><g style="mix-blend-mode:passthrough" mask="url(#master_svg1_906_05467)"><g><path d="M0.00000762939453125,11.61003L0.00000762939453125,16L16.00000762939453,16L16.00000762939453,10.54296L12.86230762939453,8.296443C12.34100762939453,7.9011857,11.490007629394531,7.9011857,10.970707629394532,8.296443L5.984017629394531,12.07716L3.6287376293945313,10.29304C3.1074076293945314,9.897780000000001,2.2563776293945312,9.897780000000001,1.7370976293945313,10.29304L0.00000762939453125,11.61003Z" fill="#DBDEE2" fill-opacity="1"/></g><g filter="url(#master_svg2_906_05469)"><path d="M2.2808685302734375,4.0013396435546875C2.2808685302734375,4.9475896435546876,3.0479525302734376,5.7146696435546875,3.9941985302734375,5.7146696435546875C4.9404485302734376,5.7146696435546875,5.7075285302734375,4.9475896435546876,5.7075285302734375,4.0013396435546875C5.7075285302734375,3.0550936435546876,4.9404485302734376,2.2880096435546875,3.9941985302734375,2.2880096435546875C3.0479525302734376,2.2880096435546875,2.2808685302734375,3.0550936435546876,2.2808685302734375,4.0013396435546875Z" fill="#FFFFFF" fill-opacity="1"/></g></g></g></g></g></svg>