<svg xmlns="http://www.w3.org/2000/svg" xmlns:xlink="http://www.w3.org/1999/xlink" fill="none" version="1.1" width="16" height="16" viewBox="0 0 16 16"><defs><clipPath id="master_svg0_906_05692"><rect x="0" y="0" width="16" height="16" rx="0"/></clipPath><filter id="master_svg1_906_05513" filterUnits="objectBoundingBox" color-interpolation-filters="sRGB" x="0" y="0" width="10.500000953674316" height="10.500000953674316"><feFlood flood-opacity="0" result="BackgroundImageFix"/><feColorMatrix in="SourceAlpha" type="matrix" values="0 0 0 0 0 0 0 0 0 0 0 0 0 0 0 0 0 0 127 0"/><feOffset dy="0.5" dx="0.5"/><feGaussianBlur stdDeviation="0"/><feColorMatrix type="matrix" values="0 0 0 0 0 0 0 0 0 0 0 0 0 0 0 0 0 0 0.3019607961177826 0"/><feBlend mode="normal" in2="BackgroundImageFix" result="effect1_dropShadow"/><feBlend mode="normal" in="SourceGraphic" in2="effect1_dropShadow" result="shape"/></filter></defs><g style="mix-blend-mode:passthrough" clip-path="url(#master_svg0_906_05692)"><rect x="0" y="0" width="16" height="16" rx="0" fill="#FFFFFF" fill-opacity="1"/><g><path d="M2,0L14,0C15.1046,0,16,0.895431,16,2L16,14C16,15.1046,15.1046,16,14,16L2,16C0.895431,16,0,15.1046,0,14L0,2C0,0.895431,0.895431,0,2,0" fill="#86909C" fill-opacity="1"/></g><g><path d="M6.25507986,12.62744C6.24520976,12.653500000000001,6.2499321869,12.68298,6.2674214,12.70447L7.19301,13.82771C7.206814,13.845320000000001,7.227831,13.85541,7.249917,13.85502C7.27049,13.85502,7.29174,13.84661,7.30614,13.82771L8.23173,12.705169999999999C8.24955,12.68389,8.25479,12.65446,8.24544,12.62814L7.31985,10.0504369C7.30992,10.0197623,7.28154,9.999305858,7.249916,10.0000178951C7.218794,9.9999204138,7.191135,10.0202606,7.181355,10.0504369L6.25507986,12.62744Z" fill="#86909C" fill-opacity="1"/></g><g filter="url(#master_svg1_906_05513)"><path d="M9,3L12,3C12.55229,3,13,3.447715,13,4L13,7C13,7.55229,12.55229,8,12,8L8,8L8,4C8,3.447715,8.44772,3,9,3M4,8L8,8L8,12C8,12.55229,7.55229,13,7,13L4,13C3.447715,13,3,12.55229,3,12L3,9C3,8.44772,3.447715,8,4,8" fill="#FFFFFF" fill-opacity="1"/></g></g></svg>