<svg xmlns="http://www.w3.org/2000/svg" xmlns:xlink="http://www.w3.org/1999/xlink" fill="none" version="1.1" width="16" height="16" viewBox="0 0 16 16"><defs><clipPath id="master_svg0_961_21441"><rect x="0" y="0" width="16" height="16" rx="0"/></clipPath><filter id="master_svg1_961_21445" filterUnits="objectBoundingBox" color-interpolation-filters="sRGB" x="0" y="0" width="10.500000953674316" height="10.500000953674316"><feFlood flood-opacity="0" result="BackgroundImageFix"/><feColorMatrix in="SourceAlpha" type="matrix" values="0 0 0 0 0 0 0 0 0 0 0 0 0 0 0 0 0 0 127 0"/><feOffset dy="0.5" dx="0.5"/><feGaussianBlur stdDeviation="0"/><feColorMatrix type="matrix" values="0 0 0 0 0.5254902243614197 0 0 0 0 0.5647059082984924 0 0 0 0 0.6117647290229797 0 0 0 1 0"/><feBlend mode="normal" in2="BackgroundImageFix" result="effect1_dropShadow"/><feBlend mode="normal" in="SourceGraphic" in2="effect1_dropShadow" result="shape"/></filter></defs><g style="mix-blend-mode:passthrough" clip-path="url(#master_svg0_961_21441)"><rect x="0" y="0" width="16" height="16" rx="0" fill="#FFFFFF" fill-opacity="1"/><g><path d="M2,0L14,0C15.1046,0,16,0.895431,16,2L16,14C16,15.1046,15.1046,16,14,16L2,16C0.895431,16,0,15.1046,0,14L0,2C0,0.895431,0.895431,0,2,0" fill="#B0B7BF" fill-opacity="1"/></g><g filter="url(#master_svg1_961_21445)"><path d="M9,3L12,3C12.55229,3,13,3.447715,13,4L13,7C13,7.55229,12.55229,8,12,8L8,8L8,4C8,3.447715,8.44772,3,9,3M4,8L8,8L8,12C8,12.55229,7.55229,13,7,13L4,13C3.447715,13,3,12.55229,3,12L3,9C3,8.44772,3.447715,8,4,8" fill="#FFFFFF" fill-opacity="1"/></g></g></svg>