<?xml version="1.0" standalone="no"?><!DOCTYPE svg PUBLIC "-//W3C//DTD SVG 1.1//EN" "http://www.w3.org/Graphics/SVG/1.1/DTD/svg11.dtd"><svg t="1660554460461" class="icon" viewBox="0 0 1024 1024" version="1.1" xmlns="http://www.w3.org/2000/svg" p-id="1218" xmlns:xlink="http://www.w3.org/1999/xlink" width="200" height="200"><defs><style type="text/css"></style></defs><path d="M885.1968 433.2032h-39.6288v-40.96c0-9.6256-7.7824-17.4592-17.408-17.4592h-0.6656c-9.6256 0-17.4592 7.8336-17.4592 17.4592v40.96H733.9008v-40.96c0-9.6256-7.7824-17.4592-17.4592-17.4592h-0.6144c-9.6256 0-17.4592 7.8336-17.4592 17.4592v40.96h-40.8576c-28.6208 0-51.7632 20.48-51.7632 45.7216v233.3696c0 25.2928 23.1424 45.7728 51.7632 45.7728h227.6864c28.6208 0 51.7632-20.48 51.7632-45.7728V478.9248c0-25.2416-23.1424-45.7216-51.7632-45.7216z" fill="#4B81EE" opacity=".5" p-id="1219"></path><path d="M667.5968 241.92h-79.7184V159.5392c0-19.4048-15.7696-35.1744-35.1744-35.1744h-1.28c-19.4048 0-35.1232 15.7696-35.1232 35.1744v82.3808H363.008V159.5392c0-19.4048-15.7184-35.1744-35.1232-35.1744h-1.28c-19.4048 0-35.1232 15.7696-35.1232 35.1744v82.3808H209.152c-57.5488 0-104.192 41.216-104.192 92.1088v469.8624c0 50.8928 46.6432 92.1088 104.192 92.1088h458.4448c57.6 0 104.2432-41.216 104.2432-92.1088V334.0288c0-50.8928-46.6432-92.1088-104.2432-92.1088z m-355.4304 461.4144c0 19.4048-15.7696 35.1744-35.1232 35.1744h-1.3312c-19.3536 0-35.1232-15.7696-35.1232-35.1744v-1.28c0-19.4048 15.7696-35.1232 35.1232-35.1232h1.3312c19.3536 0 35.1232 15.7184 35.1232 35.1232v1.28z m0-120.32c0 19.4048-15.7696 35.1744-35.1232 35.1744h-1.3312c-19.3536 0-35.1232-15.7696-35.1232-35.1744v-1.28c0-19.4048 15.7696-35.1232 35.1232-35.1232h1.3312c19.3536 0 35.1232 15.7184 35.1232 35.1232v1.28z m0-120.32c0 19.4048-15.7696 35.1744-35.1232 35.1744h-1.3312c-19.3536 0-35.1232-15.7696-35.1232-35.1744v-1.28c0-19.4048 15.7696-35.1232 35.1232-35.1232h1.3312c19.3536 0 35.1232 15.7184 35.1232 35.1232v1.28z m275.968 240.6912c0 19.3536-15.7184 35.1232-35.1232 35.1232H388.1984c-19.4048 0-35.1232-15.7696-35.1232-35.1232v-1.3312c0-19.3536 15.7184-35.1232 35.1232-35.1232h164.8128c19.4048 0 35.1232 15.7696 35.1232 35.1232v1.3312z m0-120.32c0 19.3536-15.7184 35.1232-35.1232 35.1232H388.1984c-19.4048 0-35.1232-15.7696-35.1232-35.1232v-1.3312c0-19.3536 15.7184-35.1232 35.1232-35.1232h164.8128c19.4048 0 35.1232 15.7696 35.1232 35.1232v1.3312z m0-120.32c0 19.3536-15.7184 35.1232-35.1232 35.1232H388.1984c-19.4048 0-35.1232-15.7696-35.1232-35.1232v-1.3312c0-19.3536 15.7184-35.1232 35.1232-35.1232h164.8128c19.4048 0 35.1232 15.7696 35.1232 35.1232v1.3312z" fill="#4B81EE" p-id="1220"></path></svg>