<svg xmlns="http://www.w3.org/2000/svg" xmlns:xlink="http://www.w3.org/1999/xlink" fill="none" version="1.1" width="24" height="24" viewBox="0 0 24 24"><defs><filter id="master_svg0_1_340" filterUnits="objectBoundingBox" color-interpolation-filters="sRGB" x="0" y="0" width="3.100000001490116" height="4.04559288173914"><feFlood flood-opacity="0" result="BackgroundImageFix"/><feColorMatrix in="SourceAlpha" type="matrix" values="0 0 0 0 0 0 0 0 0 0 0 0 0 0 0 0 0 0 127 0"/><feOffset dy="0.10000000149011612" dx="0.10000000149011612"/><feGaussianBlur stdDeviation="0"/><feColorMatrix type="matrix" values="0 0 0 0 0 0 0 0 0 0 0 0 0 0 0 0 0 0 0.3019607961177826 0"/><feBlend mode="normal" in2="BackgroundImageFix" result="effect1_dropShadow"/><feBlend mode="normal" in="SourceGraphic" in2="effect1_dropShadow" result="shape"/></filter></defs><g style="mix-blend-mode:passthrough"><g style="mix-blend-mode:passthrough"><g><path d="M14.70700771484375,20.95546396484375L6.91639771484375,22.47656396484375C5.74217771484375,22.70626396484375,4.60545771484375,21.93986396484375,4.37576771484375,20.76556396484375L1.89608111484375,8.05545396484375C1.66639371484375,6.88123396484375,2.43279971484375,5.74452396484375,3.60701771484375,5.51483396484375L11.39764771484375,3.99373766484375C12.57190771484375,3.76404996484375,13.70860771484375,4.53045596484375,13.93830771484375,5.7046739648437494L16.42030771484375,18.41486396484375C16.64530771484375,19.58906396484375,15.88120771484375,20.72576396484375,14.70700771484375,20.95546396484375Z" fill="#FFAA44" fill-opacity="1"/></g><g><path d="M18.67504150390625,22.200010546875L6.77813150390625,21.210910546875C5.58751150390625,21.112510546875,4.70157380390625,20.064810546875,4.80001129390625,18.874210546875L6.07735150390625,3.503900546875C6.17579150390625,2.313280546875,7.22345150390625,1.427343046875,8.41407150390625,1.525780566875L20.31094150390625,2.514842546875C21.50154150390625,2.613280546875,22.38754150390625,3.660940546875,22.28904150390625,4.851560546875L21.01174150390625,20.221910546875C20.91094150390625,21.412510546875,19.86564150390625,22.298410546875,18.67504150390625,22.200010546875Z" fill="#07C160" fill-opacity="1"/></g><g><path d="M19.659425634765626,3.04217321484375L8.967195634765625,2.15389190484375C8.167985634765625,2.08826691484375,7.420324634765625,2.36951721484375,6.871886904765625,2.87107921484375C6.785168134765625,6.75702021484375,9.738295634765624,10.08749021484375,13.664075634765625,10.41561021484375C17.589825634765624,10.74374021484375,21.053925634765626,7.94295021484375,21.607025634765627,4.09686021484375C21.147625634765625,3.51092021484375,20.458625634765625,3.1077982148437497,19.659425634765626,3.04217321484375Z" fill="#FF920F" fill-opacity="1"/></g><g><path d="M19.706228417968752,2.4632542090013025L9.01639841796875,1.5749734090013028C8.21718841796875,1.5093484090013027,7.00000001796875,1.5000217090013028,6.92109048796875,2.2921612090013026C6.83202801796875,6.178100209001303,9.785148417968749,9.508570209001302,13.71093841796875,9.836690209001302C17.636728417968747,10.164820209001302,21.10072841796875,7.364040209001303,21.65392841796875,3.5156002090013025C21.19682841796875,2.932000209001303,20.50542841796875,2.528879209001303,19.706228417968752,2.4632542090013025Z" fill="#FFAA44" fill-opacity="1"/></g><g><path d="M10.155407905578613,9.803470737609864C10.155406990051613,11.728270737609863,11.715767905578613,13.288620737609863,13.640567905578614,13.288620737609863C15.565357905578614,13.288620737609863,17.12571790557861,11.728270737609863,17.12571790557861,9.803470737609864C17.12571790557861,7.8786707376098635,15.565357905578614,6.318310737609863,13.640567905578614,6.318310737609863C11.715767905578613,6.318310737609863,10.155406990051613,7.8786707376098635,10.155407905578613,9.803470737609864Z" fill="#F7554D" fill-opacity="1"/></g><g><path d="M10,9.48686C9.999059753,11.412320000000001,11.55969,12.97372,13.48516,12.97372C15.41062,12.97371,16.97125,11.412320000000001,16.970309999999998,9.48686C16.97125,7.56139,15.41062,6,13.48516,6C11.55969,6,9.999058838,7.5614,10,9.48686Z" fill="#FF7E71" fill-opacity="1"/></g><g style="mix-blend-mode:passthrough" transform="matrix(0.971602737903595,0.23661819100379944,-0.23661819100379944,0.971602737903595,2.1296022087335587,-2.7447479218244553)" filter="url(#master_svg0_1_340)"><path d="M15.29539,9.47278L14.45897,9.51468L14.47494,9.83349L15.31136,9.79158L15.33783,10.319939999999999L14.50142,10.36185L14.55382,11.40781L13.79979,11.44559L13.74739,10.39962L12.910968,10.44153L12.884497,9.913170000000001L13.72091,9.87126L13.70494,9.55246L12.868525,9.59436L12.842054,9.06601L13.53519,9.03128L12.5,7.650301L13.304179,7.610011L14.03602,8.67042L14.07363,8.66854L14.719100000000001,7.5391232L15.5,7.5L14.58116,8.97888L15.26892,8.944420000000001L15.29539,9.47278Z" fill="#FFFFFF" fill-opacity="1"/></g></g></g></svg>