<svg xmlns="http://www.w3.org/2000/svg" xmlns:xlink="http://www.w3.org/1999/xlink" fill="none" version="1.1" width="18" height="18" viewBox="48 0 18 18"><g style="mix-blend-mode:passthrough"><g><g style="mix-blend-mode:passthrough"><path d="M2.52734,8.57L5.69531,8.57L5.69531,5.85906L5.62109,5.85906Q4.21875,7.59344,1.0625,8.73797L0.605469,7.96844Q3.46094,7.13641,4.89062,5.85906L1.17969,5.85906L1.17969,5.07L5.69531,5.07L5.69531,3.96453L6.53516,3.96453L6.53516,5.07L11.0469,5.07L11.0469,5.85906L7.36328,5.85906Q8.71875,7.18328,11.5508,7.945L11.1797,8.72625Q7.92578,7.61687,6.60547,5.85906L6.53516,5.85906L6.53516,8.57L9.69141,8.57L9.69141,12.8395L2.52734,12.8395L2.52734,8.57ZM8.85156,12.07L8.85156,11.07L3.36719,11.07L3.36719,12.07L8.85156,12.07ZM3.36719,10.32391L8.85156,10.32391L8.85156,9.33562L3.36719,9.33562L3.36719,10.32391ZM0.941406,13.82L11.25,13.82L11.25,14.6247L0.941406,14.6247L0.941406,13.82ZM13.4336,6.32L17.2383,6.32L17.6094,5.46844Q15.8438,5.57781,13.793,5.57781L13.543,4.82Q18.6562,4.82,22.0156,4.13641L22.4102,4.82Q20.7422,5.19891,18.4375,5.37859Q18.3047,5.77703,18.0898,6.32L22.5547,6.32L22.5547,7.06609L17.7422,7.06609Q17.5977,7.32781,17.2852,7.80437L23.25,7.80437L23.25,8.57L16.7578,8.57Q16.3984,9.02703,16.0977,9.35906L22.0508,9.35906L22.0508,15.07L21.2227,15.07L21.2227,14.5309L15.7969,14.5309L15.7969,15.07L14.9688,15.07L14.9688,10.5075Q13.9844,11.4098,12.9414,12.1286L12.4727,11.3786Q14.4531,10.04656,15.7109,8.57L12.7852,8.57L12.7852,7.80437L16.3125,7.80437Q16.6133,7.41375,16.8398,7.06609L13.4336,7.06609L13.4336,6.32ZM15.7969,11.57L15.7969,12.32L21.2227,12.32L21.2227,11.57L15.7969,11.57ZM21.2227,10.85906L21.2227,10.07L15.7969,10.07L15.7969,10.85906L21.2227,10.85906ZM15.7969,13.0309L15.7969,13.82L21.2227,13.82L21.2227,13.0309L15.7969,13.0309ZM30.3086,4.02703Q32.5508,6.3825,35.5273,7.76141L35.0977,8.52703Q32.1211,7.08953,29.9961,4.80828Q28.0391,6.98016,24.8477,8.58953L24.4297,7.83172Q27.5859,6.30828,29.6836,4.02703L30.3086,4.02703ZM26.6484,7.82L33.3438,7.82L33.3438,8.648119999999999L30.4414,8.648119999999999L30.4414,10.76141L33.9062,10.76141L33.9062,11.5895L30.4414,11.5895L30.4414,13.8083L35,13.8083L35,14.6598L25.0039,14.6598L25.0039,13.8083L29.5508,13.8083L29.5508,11.5895L26.0703,11.5895L26.0703,10.76141L29.5508,10.76141L29.5508,8.648119999999999L26.6484,8.648119999999999L26.6484,7.82ZM43.1719,4.6793700000000005L46.8984,4.6793700000000005L46.8984,5.30047Q46.3828,7.1325,45.7695,8.7575Q47.043,10.52312,47.0547,11.6598Q47.0547,12.6208,46.625,13.0231Q46.1602,13.4294,44.7891,13.4294L44.5469,12.5583Q45.1406,12.6052,45.3008,12.6052Q45.918,12.57,46.0898,12.3942Q46.25,12.1794,46.2617,11.6481Q46.2383,10.53875,44.9492,8.7575Q45.5078,7.32,46.0312,5.445L44,5.445L44,15.07L43.1719,15.07L43.1719,4.6793700000000005ZM36.75,5.25359L39.1875,5.25359Q39,4.60516,38.8164,4.16375L39.6914,4.01922Q39.8594,4.51141,40.0508,5.25359L42.4414,5.25359L42.4414,6.07L36.75,6.07L36.75,5.25359ZM36.5234,8.48016L38.1445,8.48016Q37.8477,7.61687,37.3984,6.79656L38.1797,6.51531Q38.5898,7.26141,38.9609,8.48016L40.2578,8.48016Q40.7617,7.51141,41.1211,6.43328L41.9258,6.70281Q41.5547,7.68328,41.1094,8.48016L42.5,8.48016L42.5,9.32L36.5234,9.32L36.5234,8.48016ZM41.9492,10.32L41.9492,14.82L41.1211,14.82L41.1211,14.1247L38.0234,14.1247L38.0234,14.8434L37.1836,14.8434L37.1836,10.32L41.9492,10.32ZM38.0234,13.32L41.1211,13.32L41.1211,11.113L38.0234,11.113L38.0234,13.32Z" fill="#B5B8C0" fill-opacity="1"/><path d="M22.5547,6.80437L22.5547,6.32L18.0898,6.32Q18.1417,6.18887,18.1889,6.06609Q18.2758,5.83953,18.3465,5.64176Q18.396,5.50313,18.4375,5.37859Q18.5955,5.36627,18.7505,5.35302Q18.9357,5.33718,19.1167,5.32Q20.3437,5.20353,21.3742,5.0256Q21.7856,4.95457,22.1657,4.87374Q22.2896,4.84739,22.4102,4.82L22.0156,4.13641Q20.6903,4.40609,19.092,4.56939Q18.379,4.64223,17.6116,4.6939Q16.1951,4.789289999999999,14.5935,4.81252Q14.1989,4.818239999999999,13.793,4.81959Q13.6685,4.82,13.543,4.82L13.7079,5.32L13.793,5.57781Q15.2115,5.57781,16.4937,5.52548Q16.8719,5.51004,17.2383,5.49005Q17.289,5.48728,17.3396,5.48442Q17.4753,5.47674,17.6094,5.46844L17.5073,5.70274L17.3489,6.06609L17.2383,6.32L13.4336,6.32L13.4336,7.06609L16.8398,7.06609Q16.7589,7.19032,16.6685,7.32Q16.583,7.44254,16.4891,7.57Q16.4043,7.68518,16.3125,7.80437L12.7852,7.80437L12.7852,8.57L15.7109,8.57Q15.6107,8.68765,15.5059,8.804369999999999Q15.3861,8.93779,15.2604,9.07Q15.038,9.30375,14.7969,9.53376Q14.7779,9.55189,14.7587,9.57Q14.3361,9.97022,13.8566,10.35906Q13.2155,10.87899,12.4727,11.3786L12.9414,12.1286Q12.9536,12.1202,12.9658,12.1118Q13.3624,11.8374,13.7506,11.5365Q13.86,11.4517,13.9688,11.3647Q14.3878,11.0297,14.7969,10.66325Q14.8486,10.61692,14.9003,10.57Q14.9346,10.53883,14.9688,10.5075L14.9688,15.07L15.7969,15.07L15.7969,14.5309L21.2227,14.5309L21.2227,15.07L22.0508,15.07L22.0508,9.35906L16.0977,9.35906Q16.2193,9.22476,16.3506,9.07Q16.4575,8.94396,16.5707,8.804369999999999Q16.6622,8.69163,16.7578,8.57L23.25,8.57L23.25,7.80437L17.2852,7.80437Q17.3668,7.6799,17.437,7.57Q17.5241,7.43369,17.5935,7.32Q17.6823,7.17458,17.7422,7.06609L22.5547,7.06609L22.5547,6.80437ZM36.75,5.25359L36.75,6.07L42.4414,6.07L42.4414,5.25359L40.0508,5.25359Q40.0266,5.15993,40.0028,5.07Q39.8381,4.44919,39.6914,4.01922L38.8164,4.16375Q38.8347,4.20768,38.853,4.25359Q38.862,4.27627,38.8709,4.29922Q39.0011,4.63286,39.1332,5.07Q39.1413,5.09654,39.149,5.12237Q39.1682,5.18682,39.1875,5.25359L36.75,5.25359ZM26.0703,10.76141L26.0703,11.5895L29.5508,11.5895L29.5508,13.8083L25.0039,13.8083L25.0039,14.6598L35,14.6598L35,13.8083L30.4414,13.8083L30.4414,11.5895L33.9062,11.5895L33.9062,10.76141L30.4414,10.76141L30.4414,8.648119999999999L33.3438,8.648119999999999L33.3438,7.82L26.6484,7.82L26.6484,8.648119999999999L29.5508,8.648119999999999L29.5508,10.76141L26.0703,10.76141ZM36.5234,8.48016L36.5234,9.32L42.5,9.32L42.5,8.48016L41.1094,8.48016Q41.1536,8.401,41.1971,8.32Q41.3748,7.98924,41.5403,7.6283Q41.5739,7.55491,41.6071,7.48016Q41.6962,7.27963,41.7816,7.07Q41.855,6.88973,41.9258,6.70281L41.1211,6.43328L41.1072,6.47475Q41.0056,6.77673,40.8926,7.07Q40.6438,7.71587,40.3398,8.32Q40.2993,8.40045,40.2578,8.48016L38.9609,8.48016Q38.9362,8.39898,38.9114,8.32Q38.6881,7.61064,38.4509,7.07Q38.3175,6.76599,38.1797,6.51531L37.3984,6.79656Q37.4296,6.8535,37.4602,6.91086Q37.5025,6.99036,37.5433,7.07Q37.6477,7.27374,37.7429,7.48016Q37.7934,7.58976,37.8413,7.69995Q37.9747,8.00709,38.088,8.32Q38.117,8.39997,38.1445,8.48016L36.5234,8.48016ZM37.1836,14.8434L38.0234,14.8434L38.0234,14.1247L41.1211,14.1247L41.1211,14.82L41.9492,14.82L41.9492,10.32L37.1836,10.32L37.1836,14.8434ZM38.0234,13.1247L38.0234,13.32L41.1211,13.32L41.1211,11.113L38.0234,11.113L38.0234,13.1247ZM43.1719,10.32L43.1719,15.07L44,15.07L44,5.445L46.0312,5.445Q45.9982,5.56338,45.9652,5.67937Q45.8535,6.07198,45.7401,6.445Q45.3782,7.6362,45,8.625720000000001Q44.9746,8.692070000000001,44.9492,8.7575Q44.9749,8.792919999999999,45,8.8281Q46.2387,10.56082,46.2617,11.6481Q46.25,12.1794,46.0898,12.3942Q46.0861,12.3981,46.0821,12.4019Q46.0721,12.4114,46.0607,12.4205Q45.9237,12.5301,45.5902,12.5776Q45.4604,12.5961,45.3008,12.6052Q45.214,12.6052,45,12.5914Q44.9067,12.5854,44.7891,12.5768Q44.6787,12.5687,44.5469,12.5583L44.7891,13.4294Q44.8973,13.4294,45,13.4268Q46.1969,13.3973,46.625,13.0231Q47.0547,12.6208,47.0547,11.6598Q47.0437,10.59816,45.9321,8.98784Q45.8536,8.87405,45.7695,8.7575Q45.8399,8.57106,45.909,8.3818Q46.3794,7.09375,46.7901,5.67937Q46.8448,5.49111,46.8984,5.30047L46.8984,4.6793700000000005L43.1719,4.6793700000000005L43.1719,10.32ZM34.6311,7.31518Q34.4865,7.23802,34.3438,7.15833Q34.0502,6.99443,33.7645,6.82Q31.8606,5.65746,30.3086,4.02703L29.6836,4.02703Q28.2328,5.60475,26.2758,6.82Q25.9683,7.01089,25.6484,7.19283Q25.4859,7.28528,25.3201,7.37545Q24.8996,7.60405,24.4585,7.81779Q24.4439,7.82487,24.4297,7.83172L24.8477,8.58953Q25.2583,8.38247,25.6484,8.16609Q26.7902,7.53291,27.757,6.82Q28.5934,6.20324,29.2989,5.52679Q29.5553,5.28085,29.7945,5.02703Q29.817,5.00316,29.8393,4.97921Q29.9187,4.89418,29.9961,4.80828Q30.0769,4.89506,30.159,4.98067Q30.1814,5.00397,30.2037,5.02703Q30.447,5.27868,30.701,5.51965Q31.433,6.214,32.2541,6.82Q33.2353,7.5441,34.3438,8.142050000000001Q34.7136,8.341560000000001,35.0977,8.52703L35.5234,7.76837L35.5273,7.76141Q35.5254,7.7605,35.5234,7.7596Q35.5009,7.74913,35.4784,7.73864Q35.047,7.53721,34.6311,7.31518ZM15.7969,10.35906L15.7969,10.85906L21.2227,10.85906L21.2227,10.07L15.7969,10.07L15.7969,10.35906ZM15.9688,11.57L15.7969,11.57L15.7969,12.32L21.2227,12.32L21.2227,11.57L15.9688,11.57ZM15.9688,13.0309L15.7969,13.0309L15.7969,13.82L21.2227,13.82L21.2227,13.0309L15.9688,13.0309ZM7.94938,5.85906L11.0469,5.85906L11.0469,5.07L6.53516,5.07L6.53516,3.96453L5.69531,3.96453L5.69531,5.07L1.17969,5.07L1.17969,5.85906L4.89062,5.85906Q4.79609,5.94353,4.69531,6.02605Q4.66839,6.04809,4.64102,6.07Q4.11621,6.49008,3.42778,6.85906Q2.71317,7.24206,1.82227,7.57Q1.70415,7.61348,1.58297,7.65598Q1.55528,7.66569,1.52734,7.67538Q1.16079,7.80252,0.766214,7.92091Q0.686391,7.94486,0.605469,7.96844L1.0625,8.73797Q1.29988,8.65189,1.52734,8.562470000000001Q2.68059,8.10912,3.57881,7.57Q4.14288,7.23144,4.60637,6.85906Q4.65131,6.82296,4.69531,6.78652Q4.79541,6.70365,4.89062,6.61912Q5.19068,6.35273,5.44211,6.07Q5.4895,6.01672,5.53516,5.96285Q5.57892,5.91122,5.62109,5.85906L5.69531,5.85906L5.69531,8.57L2.52734,8.57L2.52734,12.8395L9.69141,12.8395L9.69141,8.57L6.53516,8.57L6.53516,5.85906L6.60547,5.85906Q6.64932,5.91745,6.69531,5.97512Q6.73334,6.0228,6.77282,6.07Q7.03572,6.38425,7.36328,6.67682Q7.44711,6.7517,7.53516,6.82514Q7.55553,6.84213,7.57615,6.85906Q8.03162,7.23311,8.5979,7.57Q9.50309,8.108509999999999,10.6914,8.55207Q10.9298,8.64107,11.1797,8.72625L11.5508,7.945Q11.5027,7.93206,11.4549,7.91894Q11.0584,7.80999,10.6914,7.68982Q10.6364,7.67182,10.5821,7.65358Q10.4597,7.61243,10.3406,7.57Q9.44449,7.25076,8.73861,6.85906Q8.0838,6.49571,7.59268,6.07Q7.56364,6.04483,7.53516,6.01943Q7.44644,5.9403,7.36328,5.85906L7.94938,5.85906ZM3.52734,9.33562L3.36719,9.33562L3.36719,10.32391L8.85156,10.32391L8.85156,9.33562L3.52734,9.33562ZM8.69141,11.07L3.36719,11.07L3.36719,12.07L8.85156,12.07L8.85156,11.07L8.69141,11.07ZM0.941406,13.82L0.941406,14.6247L11.25,14.6247L11.25,13.82L0.941406,13.82Z" fill-rule="evenodd" fill="#999999" fill-opacity="1"/></g><g style="mix-blend-mode:passthrough"><g><rect x="48" y="0" width="18" height="18" rx="0" fill="#FFFFFF" fill-opacity="0.009999999776482582"/><path d="M64.47862247924805,4.853553L59.978625479248045,9.35355L59.62507247924805,9L59.978625479248045,8.64645L64.47862247924805,13.14645Q64.51344247924804,13.18127,64.54080247924804,13.22221Q64.56816247924804,13.26316,64.58701247924805,13.30866Q64.60585247924804,13.35415,64.61546247924805,13.40245Q64.62507247924805,13.45075,64.62507247924805,13.5Q64.62507247924805,13.54924,64.61546247924805,13.59754Q64.60585247924804,13.64584,64.58701247924805,13.69134Q64.56816247924804,13.73684,64.54080247924804,13.77778Q64.51344247924804,13.81873,64.47862247924805,13.85355Q64.44380247924805,13.88838,64.40285247924805,13.91573Q64.36191247924805,13.94309,64.31641247924804,13.96194Q64.27091247924804,13.98078,64.22261247924804,13.99039Q64.17431247924804,14,64.12507247924805,14Q64.07582247924805,14,64.02752247924805,13.99039Q63.979222479248044,13.98078,63.93373247924805,13.96194Q63.888232479248046,13.94309,63.847282479248044,13.91573Q63.806342479248045,13.88838,63.77152247924805,13.85355L59.27151947924805,9.35355Q59.23669747924804,9.31873,59.20933747924805,9.27778Q59.181978479248045,9.23684,59.16313247924805,9.19134Q59.14428747924805,9.14584,59.13467947924805,9.09754Q59.12507247924805,9.049240000000001,59.12507247924805,9Q59.12507247924805,8.95075,59.13467947924805,8.90245Q59.14428747924805,8.85415,59.16313247924805,8.80866Q59.181978479248045,8.76316,59.20933747924805,8.72221Q59.23669747924804,8.68127,59.27151947924805,8.64645L63.77152247924805,4.146447Q63.806342479248045,4.111625,63.847282479248044,4.084265Q63.888232479248046,4.056906,63.93373247924805,4.03806Q63.979222479248044,4.019215,64.02752247924805,4.009607Q64.07582247924805,4,64.12507247924805,4Q64.17431247924804,4,64.22261247924804,4.009607Q64.27091247924804,4.019215,64.31641247924804,4.03806Q64.36191247924805,4.056906,64.40285247924805,4.084265Q64.44380247924805,4.111625,64.47862247924805,4.146447Q64.51344247924804,4.181269,64.54080247924804,4.222215Q64.56816247924804,4.263161,64.58701247924805,4.308658Q64.60585247924804,4.354155,64.61546247924805,4.4024549Q64.62507247924805,4.4507543,64.62507247924805,4.5Q64.62507247924805,4.5492457,64.61546247924805,4.5975451Q64.60585247924804,4.645845,64.58701247924805,4.691342Q64.56816247924804,4.736839,64.54080247924804,4.777785Q64.51344247924804,4.818731,64.47862247924805,4.853553ZM64.62507247924805,4.5Q64.62507247924805,4.5492457,64.61546247924805,4.5975451Q64.60585247924804,4.645845,64.58701247924805,4.691342Q64.56816247924804,4.736839,64.54080247924804,4.777785Q64.51344247924804,4.818731,64.47862247924805,4.853553Q64.44380247924805,4.888375,64.40285247924805,4.915735Q64.36191247924805,4.943094,64.31641247924804,4.96194Q64.27091247924804,4.980785,64.22262247924805,4.990393Q64.17432247924805,5,64.12507247924805,5Q64.07582247924805,5,64.02752247924805,4.990393Q63.979222479248044,4.980785,63.93373247924805,4.96194Q63.888232479248046,4.943094,63.847282479248044,4.915735Q63.806342479248045,4.888375,63.77152247924805,4.853553Q63.73669247924805,4.818731,63.70933247924805,4.777785Q63.68198247924805,4.736839,63.66313247924805,4.691342Q63.64428247924805,4.645845,63.63468247924805,4.5975451Q63.62507247924805,4.5492457,63.62507247924805,4.5Q63.62507247924805,4.4507543,63.63468247924805,4.4024549Q63.64428247924805,4.354155,63.66313247924805,4.308658Q63.68198247924805,4.263161,63.70933247924805,4.222215Q63.73669247924805,4.181269,63.77152247924805,4.146447Q63.806342479248045,4.111625,63.847282479248044,4.084265Q63.888232479248046,4.056906,63.93373247924805,4.03806Q63.979222479248044,4.019215,64.02752247924805,4.009607Q64.07582247924805,4,64.12507247924805,4Q64.17432247924805,4,64.22262247924805,4.009607Q64.27091247924804,4.019215,64.31641247924804,4.03806Q64.36191247924805,4.056906,64.40285247924805,4.084265Q64.44380247924805,4.111625,64.47862247924805,4.146447Q64.51344247924804,4.181269,64.54080247924804,4.222215Q64.56816247924804,4.263161,64.58701247924805,4.308658Q64.60585247924804,4.354155,64.61546247924805,4.4024549Q64.62507247924805,4.4507543,64.62507247924805,4.5ZM64.62507247924805,13.5Q64.62507247924805,13.54924,64.61546247924805,13.59754Q64.60585247924804,13.64584,64.58701247924805,13.69134Q64.56816247924804,13.73684,64.54080247924804,13.77778Q64.51344247924804,13.81873,64.47862247924805,13.85355Q64.44380247924805,13.88837,64.40285247924805,13.91573Q64.36191247924805,13.94309,64.31641247924804,13.96194Q64.27091247924804,13.98078,64.22262247924805,13.99039Q64.17432247924805,14,64.12507247924805,14Q64.07582247924805,14,64.02752247924805,13.99039Q63.979222479248044,13.98078,63.93373247924805,13.96194Q63.888232479248046,13.94309,63.847282479248044,13.91573Q63.806342479248045,13.88837,63.77152247924805,13.85355Q63.73669247924805,13.81873,63.70933247924805,13.77778Q63.68198247924805,13.73684,63.66313247924805,13.69134Q63.64428247924805,13.64584,63.63468247924805,13.59754Q63.62507247924805,13.54924,63.62507247924805,13.5Q63.62507247924805,13.45075,63.63468247924805,13.40245Q63.64428247924805,13.35415,63.66313247924805,13.30866Q63.68198247924805,13.26316,63.70933247924805,13.22221Q63.73669247924805,13.18127,63.77152247924805,13.14645Q63.806342479248045,13.11162,63.847282479248044,13.08426Q63.888232479248046,13.0569,63.93373247924805,13.03806Q63.979222479248044,13.01921,64.02752247924805,13.00961Q64.07582247924805,13,64.12507247924805,13Q64.17432247924805,13,64.22262247924805,13.00961Q64.27091247924804,13.01921,64.31641247924804,13.03806Q64.36191247924805,13.0569,64.40285247924805,13.08426Q64.44380247924805,13.11162,64.47862247924805,13.14645Q64.51344247924804,13.18127,64.54080247924804,13.22221Q64.56816247924804,13.26316,64.58701247924805,13.30866Q64.60585247924804,13.35415,64.61546247924805,13.40245Q64.62507247924805,13.45075,64.62507247924805,13.5Z" transform="matrix(-1,0,0,1,119.2501449584961,0)" fill="#999999" fill-opacity="1"/></g></g></g></g></svg>