<?xml version="1.0" standalone="no"?><!DOCTYPE svg PUBLIC "-//W3C//DTD SVG 1.1//EN" "http://www.w3.org/Graphics/SVG/1.1/DTD/svg11.dtd"><svg t="1669355887591" class="icon" viewBox="0 0 1024 1024" version="1.1" xmlns="http://www.w3.org/2000/svg" p-id="3504" xmlns:xlink="http://www.w3.org/1999/xlink" width="200" height="200"><path d="M510.285824 138.8288c-155.982848 0-282.402816 123.766784-282.402816 276.484096 0 152.695808 126.419968 276.481024 282.402816 276.481024 155.984896 0 282.404864-123.785216 282.404864-276.481024C792.690688 262.595584 666.27072 138.8288 510.285824 138.8288zM184.190976 521.439232 184.190976 266.1888c-3.576832 0-7.117824 0.146432-10.620928 0.422912C231.441408 140.980224 360.333312 53.48864 510.32576 53.48864c149.994496 0 278.888448 87.491584 336.756736 213.124096-3.503104-0.277504-7.044096-0.423936-10.619904-0.423936l0 255.251456c72.029184 0 130.461696-57.148416 130.461696-127.624192 0-47.863808-26.952704-89.56928-66.807808-111.413248C844.032 124.427264 690.925568 10.96192 510.32576 10.96192c-180.59264 0-333.696 113.458176-389.783552 271.427584-39.868416 21.839872-66.812928 63.553536-66.812928 111.425536C53.72928 464.29184 112.118784 521.439232 184.190976 521.439232zM792.09472 667.769856C718.30016 735.195136 619.231232 776.481792 510.285824 776.481792c-108.742656 0-207.647744-41.135104-281.398272-108.338176C96.897024 734.637056 10.24 852.989952 10.24 1013.766144l1003.52 0C1013.76 852.68992 925.481984 734.195712 792.09472 667.769856z" p-id="3505" fill="#8a8a8a"></path></svg>