<svg xmlns="http://www.w3.org/2000/svg" xmlns:xlink="http://www.w3.org/1999/xlink" fill="none" version="1.1" width="80" height="80" viewBox="0 0 80 80"><defs><clipPath id="master_svg0_146_8823"><rect x="0" y="0" width="80" height="80" rx="8"/></clipPath></defs><g style="mix-blend-mode:passthrough" clip-path="url(#master_svg0_146_8823)"><rect x="0" y="0" width="80" height="80" rx="8" fill="#347AFF" fill-opacity="1"/><g style="mix-blend-mode:passthrough"><g style="opacity:0.5;"><path d="M21.7852253125,21.8134996875L15.708036312499999,37.1065296875C15.4955147125,37.6412296875,15.5397527125,38.2439296875,15.8280843125,38.741929687500004L29.4647953125,62.3617296875C29.9831953125,63.2605296875,31.1320953125,63.5690296875,32.030995312499996,63.0507296875L54.3911953125,50.1412296875C55.2903953125,49.6221296875,55.5981953125,48.4721296875,55.0783953125,47.5732296875L41.4416953125,23.9534796875C41.1548953125,23.4548596875,40.6554953125,23.1150796875,40.0863953125,23.0313696875L23.8034153125,20.6478190875C22.9418553125,20.5218376875,22.1066153125,21.0042626875,21.7852253125,21.8134996875Z" fill="#FFFFFF" fill-opacity="1"/></g><g><path d="M28.23302109375,17.23664L22.08797609375,34.1512C21.89659609375,34.673100000000005,21.94879049375,35.250699999999995,22.22716209375,35.7327L37.76022109375,62.6372C38.27932109375,63.5354,39.428021093750004,63.843,40.32652109375,63.3244L64.19332109375,49.5451C65.09152109375,49.026,65.39912109375,47.877300000000005,64.88052109374999,46.9788L49.34742109375,20.07429C49.07022109375,19.59333,48.59442109375,19.2596,48.04782109375,19.16262L30.32776109375,16.0292106C29.42890109375,15.869351,28.545211093749998,16.378721,28.23302109375,17.23664Z" fill="#FFFFFF" fill-opacity="1"/></g><g><path d="M32.61083984375,27.8309953125C32.61083984375,30.233185312499998,34.55819984375,32.1805453125,36.96038984375,32.1805453125C39.36257984375,32.1805453125,41.30992984375,30.233185312499998,41.30992984375,27.8309953125C41.30992984375,25.4288053125,39.36257984375,23.4814453125,36.96038984375,23.4814453125C34.55819984375,23.4814453125,32.61083984375,25.4288053125,32.61083984375,27.8309953125Z" fill="#8CB4FF" fill-opacity="1"/></g></g></g></svg>