<svg xmlns="http://www.w3.org/2000/svg" xmlns:xlink="http://www.w3.org/1999/xlink" fill="none" version="1.1" width="80" height="80" viewBox="0 0 80 80"><defs><clipPath id="master_svg0_146_8840"><rect x="0" y="0" width="80" height="80" rx="8"/></clipPath></defs><g style="mix-blend-mode:passthrough" clip-path="url(#master_svg0_146_8840)"><rect x="0" y="0" width="80" height="80" rx="8" fill="#347AFF" fill-opacity="1"/><g style="mix-blend-mode:passthrough"><g style="opacity:0.5;"><path d="M31.76815859375,63.618534374999996L26.17878859375,64.408334375C25.44973859375,64.52983437500001,24.78143859375,63.983034375,24.65993859375,63.254034375L22.10826289375,45.878344375C21.98675459375,45.149294375,22.53354159375,44.480998375,23.26258859375,44.359490375L28.85196859375,43.569687475C29.58101859375,43.448178375,30.24930859375,43.994966375,30.370818593750002,44.724014375L32.92250859375,62.099734375C33.04400859375,62.828734374999996,32.49720859375,63.497034375,31.76815859375,63.618534374999996Z" fill="#FFFFFF" fill-opacity="1"/></g><g><path d="M61.84076996765137,60.3654L34.07616996765137,49.6727L34.07616996765137,25.857100000000003L61.84076996765137,15.164364C63.35966996765137,14.556823,64.99996996765137,15.71115,64.99996996765137,17.35151L64.99996996765137,58.1175C64.99996996765137,59.8186,63.35966996765137,60.9122,61.84076996765137,60.3654Z" fill="#FFFFFF" fill-opacity="1"/></g><g style="opacity:0.800000011920929;"><path d="M34.016,49.6738181930542L16.70111,49.6738181930542C15.789803,49.6738181930542,15,48.9448181930542,15,47.9727181930542L15,27.6808381930542C15,26.6480211930542,15.789803,25.8582181930542,16.82262,25.8582181930542L34.016,25.8582181930542Q34.0768,25.8582181930542,34.0768,25.9189724930542L34.0768,49.6130181930542L34.016,49.6738181930542Z" fill="#FFFFFF" fill-opacity="1"/></g><g><path d="M40.578073501586914,42.26221217041016L40.578073501586914,33.57433217041016C40.578073501586914,32.176982170410156,41.671643501586914,31.083412170410156,43.06899350158692,31.083412170410156C44.46633350158692,31.083412170410156,45.559903501586916,32.176982170410156,45.559903501586916,33.57433217041016L45.559903501586916,42.26221217041016C45.559903501586916,43.65951217041015,44.46633350158692,44.753112170410155,43.06899350158692,44.753112170410155C41.671643501586914,44.753112170410155,40.578073501586914,43.59871217041015,40.578073501586914,42.26221217041016Z" fill="#8CB4FF" fill-opacity="1"/></g></g></g></svg>