<svg xmlns="http://www.w3.org/2000/svg" xmlns:xlink="http://www.w3.org/1999/xlink" fill="none" version="1.1" width="44" height="44" viewBox="0 0 44 44"><defs><filter id="master_svg1_132_6455" filterUnits="userSpaceOnUse" color-interpolation-filters="sRGB" x="24.52001953125" y="23.583251953125" width="19.826560974121094" height="19.826560974121094"><feFlood flood-opacity="0" result="BackgroundImageFix"/><feBlend mode="normal" in="SourceGraphic" in2="BackgroundImageFix" result="shape"/><feGaussianBlur in="BackgroundImage" stdDeviation="4.488280296325684"/><feComposite in2="SourceAlpha" operator="in" result="effect1_foregroundBlur"/><feBlend mode="normal" in="SourceGraphic" in2="effect1_foregroundBlur" result="shape"/></filter><linearGradient x1="0.5" y1="0" x2="0.5" y2="1" id="master_svg2_17_0043"><stop offset="0%" stop-color="#00D695" stop-opacity="1"/><stop offset="100%" stop-color="#00D695" stop-opacity="0.10000000149011612"/></linearGradient><linearGradient x1="0.9054054021835327" y1="1.0000001192092896" x2="0.5027027130126953" y2="0.05913979187607765" id="master_svg3_17_0045"><stop offset="0%" stop-color="#FFFFFF" stop-opacity="1"/><stop offset="100%" stop-color="#FFFFFF" stop-opacity="0"/></linearGradient></defs><clipPath id="master_svg0_132_6060"><rect x="8" y="9" width="28" height="28" rx="0"/></clipPath><g style="mix-blend-mode:passthrough"><g><g style="mix-blend-mode:passthrough"><g><g style="mix-blend-mode:passthrough"><rect x="0" y="0" width="44" height="44" rx="8" fill="#ECF5FF" fill-opacity="1"/></g><g clip-path="url(#master_svg0_132_6060)"><g><path d="M29.96248779296875,22.300147265625C30.19578779296875,22.008447265625,30.45828779296875,21.716747265625,30.74998779296875,21.395947265625C31.04168779296875,21.075117265625,31.30418779296875,20.666777265625,31.53748779296875,20.229277265625C31.77078779296875,19.791777265625,31.88748779296875,19.179277265625,31.88748779296875,18.450117265625C31.88748779296875,18.100107265625,31.85828779296875,17.691777265625,31.77078779296875,17.254277265625C31.68328779296875,16.816777265625,31.53748779296875,16.408447265625,31.30418779296875,16.029277265624998C31.07078779296875,15.650117265625,30.72078779296875,15.329277265625,30.25418779296875,15.095947265625C29.78748779296875,14.833447265625,29.17498779296875,14.716777265625,28.41668779296875,14.716777265625C28.06668779296875,14.716777265625,27.68748779296875,14.862617265625,27.24998779296875,15.154277265625L27.33748779296875,15.854277265625C27.36668779296875,16.087607265625,27.36668779296875,16.320947265625,27.36668779296875,16.554277265625C27.36668779296875,17.604277265625,27.27918779296875,18.537607265625,27.10418779296875,19.325117265625C26.92918779296875,20.112607265625,26.72498779296875,20.783447265625,26.46248779296875,21.366777265625C26.75418779296875,21.745947265625,27.01668779296875,22.066747265625,27.27918779296875,22.358447265625C27.42498779296875,22.533447265625,27.54168779296875,22.708447265625,27.59998779296875,22.883447265625C28.29998779296875,22.620947265625,29.05828779296875,22.475147265625,29.84578779296875,22.475147265625C29.87498779296875,22.416747265625,29.93328779296875,22.358447265625,29.96248779296875,22.300147265625ZM23.51668779296875,27.083447265625C23.37081779296875,26.995947265625,23.254157792968748,26.908447265625,23.13748779296875,26.791747265625C22.845817792968752,26.529247265625,22.670817792968748,26.237647265625,22.670817792968748,25.887647265625C22.670817792968748,25.450147265625,22.75831779296875,25.041747265625,22.90415779296875,24.691747265625C23.04998779296875,24.341747265625,23.254157792968748,23.991747265625,23.48748779296875,23.670947265625C23.72078779296875,23.320947265625,23.95418779296875,22.970947265625,24.21668779296875,22.620947265625C24.47918779296875,22.241747265625,24.71248779296875,21.833447265625,24.94578779296875,21.366777265625C25.17918779296875,20.900117265625,25.35418779296875,20.345947265625,25.52918779296875,19.704277265625002C25.67498779296875,19.062617265625,25.76248779296875,18.304277265625,25.76248779296875,17.429277265625C25.76248779296875,16.787617265625002,25.70418779296875,16.116777265625,25.61668779296875,15.416777265625C25.52918779296875,14.745947265625,25.29578779296875,14.104277265625,24.94578779296875,13.550117265625C24.59578779296875,12.995947265625,24.07078779296875,12.529281265625,23.39998779296875,12.150114265625C22.69998779296875,11.800114265625,21.76665779296875,11.595947265625,20.57081779296875,11.595947265625C19.14165779296875,11.595947265625,18.09165779296875,12.120947265625,17.42081779296875,13.200117265625C16.74998779296875,14.279277265625,16.39998779296875,15.708447265625,16.39998779296875,17.545947265625C16.39998779296875,18.391777265625,16.48748779296875,19.120947265625,16.63331779296875,19.762617265625C16.77915779296875,20.404277265624998,16.98331779296875,20.958447265625,17.21665779296875,21.454277265625002C17.44998779296875,21.950147265625,17.71248779296875,22.387647265625,18.00415779296875,22.766747265625C18.295817792968748,23.145947265625,18.52915779296875,23.525147265625,18.79165779296875,23.845947265625C19.054157792968752,24.166747265625,19.22915779296875,24.516747265625,19.37498779296875,24.837647265625C19.52081779296875,25.158447265625,19.608317792968748,25.508447265625,19.608317792968748,25.887647265625C19.608317792968748,26.266747265625,19.46248779296875,26.587647265625,19.14164779296875,26.850147265625C18.84998779296875,27.112647265625,18.47081779296875,27.375147265625,18.00414779296875,27.608447265625C17.53748779296875,27.841747265625,17.04165779296875,28.045947265625,16.51665779296875,28.250147265625C15.99165779296875,28.454247265625,15.49581779296875,28.687647265625,15.02915779296875,28.920947265625C14.56248779296875,29.154247265625,14.18332079296875,29.445947265625,13.89165379296875,29.737647265625C13.59998779296875,30.029247265625,13.42498779296875,30.408447265625,13.42498779296875,30.816747265625C13.42498779296875,31.079247265625,13.57082179296875,31.341747265625,13.89165379296875,31.604247265625C14.21248779296875,31.866747265625,14.67915779296875,32.100147265625,15.29165779296875,32.304247265625C15.90415779296875,32.508447265625,16.66248779296875,32.683447265625,17.56665779296875,32.800147265625C18.47081779296875,32.916747265625,19.52081779296875,32.975147265625,20.68748779296875,32.975147265625C21.70831779296875,32.975147265625,22.72915779296875,32.916747265625,23.72078779296875,32.800147265625C23.86668779296875,32.770947265625,24.04168779296875,32.770947265625,24.18748779296875,32.741747265625C23.51668779296875,31.691747265625,23.13748779296875,30.466747265625,23.13748779296875,29.154247265625C23.19581779296875,28.425147265625,23.31248779296875,27.725147265625,23.51668779296875,27.083447265625Z" fill="#0079DE" fill-opacity="1"/><path d="M15.991676103515626,26.879052734375C16.400006103515626,26.704052734375,16.750006103515624,26.499852734375,17.012506103515626,26.324852734375C17.275006103515626,26.120752734375,17.420836103515626,25.887352734375,17.420836103515626,25.566552734375C17.420836103515626,25.391552734375,17.420836103515626,25.245752734375,17.391676103515625,25.187352734375C17.100006103515625,25.012352734375,16.808336103515625,24.866552734375,16.429176103515626,24.720752734375C16.050006103515624,24.574882734375002,15.729176103515625,24.429052734375,15.408336103515625,24.283222734375002C15.087506103515626,24.137382734375002,14.825006103515625,23.991552734375,14.591676103515624,23.845722734375002C14.358336103515626,23.699882734375002,14.241676103515626,23.495722734375,14.241676103515626,23.291552734375C14.241676103515626,22.912382734375,14.358336103515626,22.562382734375,14.562506103515625,22.270722734375C14.766676103515625,21.979052734375,15.000006103515625,21.687382734375,15.262506103515625,21.337382734374998C15.000006103515625,20.812382734375,14.795836103515626,20.199882734375,14.620836103515625,19.470722734375002C14.445836103515624,18.741552734375,14.358336103515626,17.866552734375,14.358336103515626,16.845722734375C14.358336103515626,16.204052734375,14.416676103515625,15.591552734375,14.504176103515626,15.008218734375C14.125006103515625,14.804052734375,13.629176103515626,14.716552734375,13.016676103515625,14.716552734375C12.579176103515625,14.716552734375,12.200006103515625,14.833218734375,11.850006103515625,15.037386734375C11.529176103515624,15.241552734375,11.266676103515625,15.533219734375,11.033336103515625,15.883222734375C10.829176103515625,16.233222734375,10.654176103515624,16.670722734375,10.566676103515626,17.137382734375C10.450006103515625,17.604052734375,10.420836103515626,18.099882734375,10.420836103515626,18.624882734375C10.420836103515626,19.324882734375,10.508336103515624,19.908222734375002,10.712506103515626,20.345722734375002C10.916676103515625,20.783222734375002,11.120836103515625,21.191552734375,11.354176103515625,21.512382734375C11.587506103515626,21.833222734375,11.820836103515624,22.154052734375,11.995836103515625,22.416552734375C12.200006103515625,22.679052734375,12.287506103515625,22.970722734375002,12.287506103515625,23.262382734375002C12.287506103515625,23.554052734375,12.112506103515624,23.816552734375,11.733336103515626,24.020722734375C11.383336103515624,24.224882734375,10.975006103515625,24.399882734374998,10.537506103515625,24.574882734375002C10.100006103515625,24.749852734375,9.720839103515624,24.954052734375,9.341673103515625,25.158252734375C8.991673103515625,25.362352734375,8.787506103515625,25.654052734375,8.787506103515625,26.004052734375C8.787506103515625,26.295752734375,8.875006103515625,26.587352734375,9.050006103515624,26.879052734375C9.225006103515625,27.170752734375,9.487506103515624,27.433252734375,9.837506103515626,27.666552734375C10.187506103515625,27.899852734375,10.595836103515625,28.074852734375,11.091676103515624,28.220752734375C11.587506103515626,28.366552734375,12.170836103515626,28.424852734375,12.841676103515624,28.424852734375L13.308336103515625,28.424852734375C13.687506103515625,28.045752734375,14.125006103515625,27.724852734375,14.620836103515625,27.491552734375C15.116676103515626,27.258252734375,15.583336103515624,27.083252734375,15.991676103515626,26.879052734375Z" fill="#0079DE" fill-opacity="1"/><g style="mix-blend-mode:passthrough"><ellipse cx="29.94498920440674" cy="29.008252143859863" rx="5.425000190734863" ry="5.425000190734863" fill="#0079DE" fill-opacity="1"/></g><g filter="url(#master_svg1_132_6455)" style="mix-blend-mode:passthrough"><ellipse cx="29.945019721984863" cy="29.008252143859863" rx="5.425000190734863" ry="5.425000190734863" fill="url(#master_svg2_17_0043)" fill-opacity="1"/><ellipse cx="29.945019721984863" cy="29.008252143859863" rx="5.375000189989805" ry="5.375000189989805" stroke="url(#master_svg3_17_0045)" fill-opacity="0" stroke-width="0.10000000149011612" fill="none" stroke-dasharray=""/></g><path d="M27.0053989375,29.65420671875L26.7617342875,27.82429671875C26.7130652375,27.46246671875,27.0343039375,27.15654671875,27.4036859375,27.21295671875L29.2266659375,27.49014671875C29.3445859375,27.50776671875,29.4528759375,27.56179671875,29.5371059375,27.64400671875L32.5778059375,30.612036718749998C32.7971059375,30.82564671875,32.7971059375,31.17243671875,32.5778059375,31.386046718750002L30.9930859375,32.93289671875C30.774245937499998,33.14694671875,30.4189559375,33.14694671875,30.2001159375,32.93289671875L27.1648339375,29.97015671875C27.0774419375,29.88488671875,27.0213869375,29.77380671875,27.0053989375,29.65420671875ZM28.3831559375,28.83791671875C28.6019659375,28.62433671875,28.6019659375,28.27806671875,28.3831559375,28.06448671875C28.1643559375,27.85091671875,27.8096059375,27.85091671875,27.5907969375,28.06448671875C27.3719549375,28.27808671875,27.3718809375,28.62438671875,27.5906329375,28.83807671875C27.8093859375,29.05175671875,28.1641659375,29.05194671875,28.3831559375,28.83849671875L28.3831559375,28.83791671875ZM27.9758459375,26.85296571875L27.9505759375,26.66386671875C27.9023559375,26.30226171875,28.2234259375,25.99679441875,28.5925359375,26.05311367875L30.4155059375,26.33030171875C30.5334259375,26.34791971875,30.6417259375,26.40194771875,30.7259559375,26.48357771875L33.7666559375,29.45218671875C33.9859459375,29.66579671875,33.9859459375,30.01259671875,33.7666559375,30.22620671875L32.9742859375,30.99962671875C33.1931859375,30.78608671875,33.1931859375,30.43974671875,32.9742859375,30.22620671875L29.9335959375,27.25700671875C29.8495559375,27.17515671875,29.7410559375,27.12147671875,29.6237459375,27.10372671875L27.9752459375,26.85296571875L27.9758459375,26.85296571875Z" fill="#FFFFFF" fill-opacity="1"/></g></g></g></g></g></g></svg>