<svg xmlns="http://www.w3.org/2000/svg" xmlns:xlink="http://www.w3.org/1999/xlink" fill="none" version="1.1" width="22" height="22" viewBox="0 0 22 22"><clipPath id="master_svg0_56_1840"><rect x="0" y="0" width="22" height="22" rx="0"/></clipPath><g style="mix-blend-mode:passthrough"><g><g clip-path="url(#master_svg0_56_1840)"><g><path d="M18.25,10.999986494140625L18.25,3.666656494140625Q18.25,3.568165094140625,18.269215,3.471566494140625Q18.288429999999998,3.374967494140625,18.326121,3.283973494140625Q18.363812,3.192978494140625,18.41853,3.111086494140625Q18.473249,3.029193494140625,18.542893,2.959549494140625Q18.612537,2.889905494140625,18.69443,2.835186494140625Q18.776322,2.7804684941406252,18.867317,2.742777494140625Q18.958311,2.705086494140625,19.05491,2.685871494140625Q19.1515086,2.666656494140625,19.25,2.666656494140625Q19.3484914,2.666656494140625,19.44509,2.685871494140625Q19.541689,2.705086494140625,19.632683,2.742777494140625Q19.723678,2.7804684941406252,19.80557,2.835186494140625Q19.887463,2.889905494140625,19.957107,2.959549494140625Q20.026751,3.029193494140625,20.08147,3.111086494140625Q20.136188,3.192978494140625,20.173879,3.283973494140625Q20.211570000000002,3.374967494140625,20.230785,3.471566494140625Q20.25,3.568165094140625,20.25,3.666656494140625L20.25,10.999986494140625Q20.25,11.098476494140625,20.230785,11.195076494140626Q20.211570000000002,11.291676494140624,20.173879,11.382676494140625Q20.136188,11.473666494140625,20.08147,11.555556494140625Q20.026751,11.637456494140626,19.957107,11.707096494140625Q19.887463,11.776736494140625,19.80557,11.831456494140625Q19.723678,11.886176494140624,19.632683,11.923866494140626Q19.541689,11.961556494140625,19.44509,11.980776494140626Q19.3484914,11.999986494140625,19.25,11.999986494140625Q19.1515086,11.999986494140625,19.05491,11.980776494140626Q18.958311,11.961556494140625,18.867317,11.923866494140626Q18.776322,11.886176494140624,18.69443,11.831456494140625Q18.612537,11.776736494140625,18.542893,11.707096494140625Q18.473249,11.637456494140626,18.41853,11.555556494140625Q18.363812,11.473666494140625,18.326121,11.382676494140625Q18.288429999999998,11.291676494140624,18.269215,11.195076494140626Q18.25,11.098476494140625,18.25,10.999986494140625ZM20.25,10.999986494140625Q20.25,11.098486494140625,20.230785,11.195076494140626Q20.211570000000002,11.291676494140624,20.173879,11.382676494140625Q20.136188,11.473666494140625,20.08147,11.555556494140625Q20.026751,11.637456494140626,19.957107,11.707096494140625Q19.887463,11.776736494140625,19.80557,11.831456494140625Q19.723678,11.886176494140624,19.632683,11.923866494140626Q19.541689,11.961556494140625,19.44509,11.980776494140626Q19.3484914,11.999986494140625,19.25,11.999986494140625Q19.1515086,11.999986494140625,19.05491,11.980776494140626Q18.958311,11.961556494140625,18.867317,11.923866494140626Q18.776322,11.886176494140624,18.69443,11.831456494140625Q18.612537,11.776736494140625,18.542893,11.707096494140625Q18.473249,11.637456494140626,18.41853,11.555556494140625Q18.363812,11.473666494140625,18.326121,11.382676494140625Q18.288429999999998,11.291676494140624,18.269215,11.195076494140626Q18.25,11.098486494140625,18.25,10.999986494140625Q18.25,10.901496494140625,18.269215,10.804896494140625Q18.288429999999998,10.708296494140626,18.326121,10.617306494140625Q18.363812,10.526316494140625,18.41853,10.444416494140626Q18.473249,10.362526494140624,18.542893,10.292886494140625Q18.612537,10.223236494140625,18.69443,10.168516494140626Q18.776322,10.113796494140626,18.867317,10.076106494140625Q18.958311,10.038416494140625,19.05491,10.019206494140626Q19.1515086,9.999986494140625,19.25,9.999986494140625Q19.3484914,9.999986494140625,19.44509,10.019206494140626Q19.541689,10.038416494140625,19.632683,10.076106494140625Q19.723678,10.113796494140626,19.80557,10.168516494140626Q19.887463,10.223236494140625,19.957107,10.292886494140625Q20.026751,10.362526494140624,20.08147,10.444416494140626Q20.136188,10.526316494140625,20.173879,10.617306494140625Q20.211570000000002,10.708296494140626,20.230785,10.804896494140625Q20.25,10.901496494140625,20.25,10.999986494140625ZM20.25,3.666656494140625Q20.25,3.765147894140625,20.230785,3.861746494140625Q20.211570000000002,3.958345494140625,20.173879,4.049339494140625Q20.136188,4.140334494140625,20.08147,4.222226494140625Q20.026751,4.304119494140625,19.957107,4.373763494140625Q19.887463,4.443407494140625,19.80557,4.498126494140625Q19.723678,4.552844494140625,19.632683,4.590535494140625Q19.541689,4.628226494140625,19.44509,4.647441494140625Q19.3484914,4.666656494140625,19.25,4.666656494140625Q19.1515086,4.666656494140625,19.05491,4.647441494140625Q18.958311,4.628226494140625,18.867317,4.590535494140625Q18.776322,4.552844494140625,18.69443,4.498126494140625Q18.612537,4.443407494140625,18.542893,4.373763494140625Q18.473249,4.304119494140625,18.41853,4.222226494140625Q18.363812,4.140334494140625,18.326121,4.049339494140625Q18.288429999999998,3.958345494140625,18.269215,3.861746494140625Q18.25,3.765147894140625,18.25,3.666656494140625Q18.25,3.568165094140625,18.269215,3.471566494140625Q18.288429999999998,3.374967494140625,18.326121,3.283973494140625Q18.363812,3.192978494140625,18.41853,3.111086494140625Q18.473249,3.029193494140625,18.542893,2.959549494140625Q18.612537,2.889905494140625,18.69443,2.835186494140625Q18.776322,2.7804684941406252,18.867317,2.742777494140625Q18.958311,2.705086494140625,19.05491,2.685871494140625Q19.1515086,2.666656494140625,19.25,2.666656494140625Q19.3484914,2.666656494140625,19.44509,2.685871494140625Q19.541689,2.705086494140625,19.632683,2.742777494140625Q19.723678,2.7804684941406252,19.80557,2.835186494140625Q19.887463,2.889905494140625,19.957107,2.959549494140625Q20.026751,3.029193494140625,20.08147,3.111086494140625Q20.136188,3.192978494140625,20.173879,3.283973494140625Q20.211570000000002,3.374967494140625,20.230785,3.471566494140625Q20.25,3.568165094140625,20.25,3.666656494140625Z" fill="#CCCCCC" fill-opacity="1"/><path d="M1.75,18.33333L1.75,11Q1.75,10.9015086,1.769215,10.80491Q1.78843,10.708311,1.826121,10.617317Q1.863812,10.526322,1.91853,10.44443Q1.973249,10.362537,2.042893,10.292893Q2.112537,10.223249,2.19443,10.16853Q2.276322,10.113812,2.367317,10.076121Q2.458311,10.03843,2.55491,10.019214999999999Q2.6515086,10,2.75,10Q2.8484914,10,2.94509,10.019214999999999Q3.041689,10.03843,3.132683,10.076121Q3.223678,10.113812,3.30557,10.16853Q3.387463,10.223249,3.457107,10.292893Q3.526751,10.362537,3.58147,10.44443Q3.6361879999999998,10.526322,3.673879,10.617317Q3.71157,10.708311,3.730785,10.80491Q3.75,10.9015086,3.75,11L3.75,18.33333Q3.75,18.431820000000002,3.730785,18.52842Q3.71157,18.62502,3.673879,18.71602Q3.6361879999999998,18.80701,3.58147,18.8889Q3.526751,18.9708,3.457107,19.04044Q3.387463,19.11008,3.30557,19.1648Q3.223678,19.21952,3.132683,19.25721Q3.041689,19.2949,2.94509,19.314120000000003Q2.8484914,19.33333,2.75,19.33333Q2.6515086,19.33333,2.55491,19.314120000000003Q2.458311,19.2949,2.367317,19.25721Q2.276322,19.21952,2.19443,19.1648Q2.112537,19.11008,2.042893,19.04044Q1.973249,18.9708,1.91853,18.8889Q1.863812,18.80701,1.826121,18.71602Q1.78843,18.62502,1.769215,18.52842Q1.75,18.431820000000002,1.75,18.33333ZM3.75,18.33333Q3.75,18.431829999999998,3.730785,18.52842Q3.71157,18.62502,3.673879,18.71602Q3.6361879999999998,18.80701,3.58147,18.8889Q3.526751,18.9708,3.457107,19.04044Q3.387463,19.11008,3.30557,19.1648Q3.223678,19.21952,3.132683,19.25721Q3.041689,19.2949,2.94509,19.314120000000003Q2.8484914,19.33333,2.75,19.33333Q2.6515086,19.33333,2.55491,19.314120000000003Q2.458311,19.2949,2.367317,19.25721Q2.276322,19.21952,2.19443,19.1648Q2.112537,19.11008,2.042893,19.04044Q1.973249,18.9708,1.91853,18.8889Q1.863812,18.80701,1.826121,18.71602Q1.78843,18.62502,1.769215,18.52842Q1.75,18.431829999999998,1.75,18.33333Q1.75,18.23484,1.769215,18.13824Q1.78843,18.04164,1.826121,17.95065Q1.863812,17.859659999999998,1.91853,17.77776Q1.973249,17.69587,2.042893,17.62623Q2.112537,17.55658,2.19443,17.50186Q2.276322,17.44714,2.367317,17.40945Q2.458311,17.371760000000002,2.55491,17.35255Q2.6515086,17.33333,2.75,17.33333Q2.8484914,17.33333,2.94509,17.35255Q3.041689,17.371760000000002,3.132683,17.40945Q3.223678,17.44714,3.30557,17.50186Q3.387463,17.55658,3.457107,17.62623Q3.526751,17.69587,3.58147,17.77776Q3.6361879999999998,17.859659999999998,3.673879,17.95065Q3.71157,18.04164,3.730785,18.13824Q3.75,18.23484,3.75,18.33333ZM3.75,11Q3.75,11.0984914,3.730785,11.19509Q3.71157,11.291689,3.673879,11.382683Q3.6361879999999998,11.473678,3.58147,11.55557Q3.526751,11.637463,3.457107,11.707107Q3.387463,11.776751,3.30557,11.83147Q3.223678,11.886188,3.132683,11.923879Q3.041689,11.96157,2.94509,11.980785000000001Q2.8484914,12,2.75,12Q2.6515086,12,2.55491,11.980785000000001Q2.458311,11.96157,2.367317,11.923879Q2.276322,11.886188,2.19443,11.83147Q2.112537,11.776751,2.042893,11.707107Q1.973249,11.637463,1.91853,11.55557Q1.863812,11.473678,1.826121,11.382683Q1.78843,11.291689,1.769215,11.19509Q1.75,11.0984914,1.75,11Q1.75,10.9015086,1.769215,10.80491Q1.78843,10.708311,1.826121,10.617317Q1.863812,10.526322,1.91853,10.44443Q1.973249,10.362537,2.042893,10.292893Q2.112537,10.223249,2.19443,10.16853Q2.276322,10.113812,2.367317,10.076121Q2.458311,10.03843,2.55491,10.019214999999999Q2.6515086,10,2.75,10Q2.8484914,10,2.94509,10.019214999999999Q3.041689,10.03843,3.132683,10.076121Q3.223678,10.113812,3.30557,10.16853Q3.387463,10.223249,3.457107,10.292893Q3.526751,10.362537,3.58147,10.44443Q3.6361879999999998,10.526322,3.673879,10.617317Q3.71157,10.708311,3.730785,10.80491Q3.75,10.9015086,3.75,11Z" fill="#CCCCCC" fill-opacity="1"/><path d="M17.2501,17.47589Q14.6353,20,11,20Q9.169450000000001,20,7.49657,19.29243Q5.8813200000000005,18.60923,4.6360399999999995,17.36396Q3.39077,16.11868,2.7075748,14.50343Q2,12.83054,2,11Q2,10.9261315,2.014411,10.853682Q2.028822,10.781233,2.05709,10.712987Q2.085359,10.644742,2.126398,10.583322Q2.167437,10.521903,2.21967,10.46967Q2.271903,10.417437,2.333322,10.376398Q2.394742,10.335359,2.462987,10.30709Q2.531233,10.278822,2.603682,10.264410999999999Q2.6761315,10.25,2.75,10.25Q2.8238685,10.25,2.896318,10.264410999999999Q2.968767,10.278822,3.037013,10.30709Q3.105258,10.335359,3.166678,10.376398Q3.228097,10.417437,3.28033,10.46967Q3.332563,10.521903,3.373602,10.583322Q3.414641,10.644742,3.44291,10.712987Q3.471178,10.781233,3.485589,10.853682Q3.5,10.9261315,3.5,11Q3.5,14.10659,5.6967,16.3033Q7.89341,18.5,11,18.5Q14.0294,18.5,16.2083,16.39668Q16.261400000000002,16.34538,16.3236,16.30543Q16.3857,16.26548,16.4544,16.238419999999998Q16.5232,16.21136,16.5958,16.19823Q16.6685,16.1851,16.7424,16.1864Q16.8163,16.18771,16.8884,16.20339Q16.9606,16.219079999999998,17.028399999999998,16.24855Q17.0961,16.278019999999998,17.1568,16.32013Q17.2175,16.36225,17.2688,16.415399999999998Q17.3201,16.46854,17.36,16.53068Q17.4,16.59281,17.427,16.66155Q17.4541,16.73028,17.4672,16.802970000000002Q17.4804,16.87566,17.479,16.94952Q17.4777,17.02338,17.4621,17.09556Q17.4464,17.167740000000002,17.4169,17.23548Q17.3874,17.30322,17.3453,17.3639Q17.3032,17.424590000000002,17.2501,17.47589ZM17.4792,16.93629Q17.4792,17.01016,17.4648,17.08261Q17.4503,17.15505,17.4221,17.223300000000002Q17.3938,17.29154,17.352800000000002,17.35296Q17.311700000000002,17.41438,17.2595,17.46662Q17.2073,17.51885,17.1458,17.55989Q17.084400000000002,17.600929999999998,17.016199999999998,17.6292Q16.9479,17.65747,16.875500000000002,17.67188Q16.803,17.68629,16.7292,17.68629Q16.6553,17.68629,16.5828,17.67188Q16.5104,17.65747,16.4422,17.6292Q16.3739,17.600929999999998,16.3125,17.55989Q16.2511,17.51885,16.1988,17.46662Q16.1466,17.41438,16.105600000000003,17.35296Q16.064500000000002,17.29154,16.0363,17.223300000000002Q16.008,17.15505,15.9936,17.0826Q15.9792,17.01016,15.9792,16.93629Q15.9792,16.86242,15.9936,16.78997Q16.008,16.71752,16.0363,16.64927Q16.064500000000002,16.58103,16.105600000000003,16.51961Q16.1466,16.458190000000002,16.1988,16.40596Q16.2511,16.35372,16.3125,16.31268Q16.3739,16.27165,16.4422,16.243380000000002Q16.5104,16.21511,16.5828,16.2007Q16.6553,16.18629,16.7292,16.18629Q16.803,16.18629,16.875500000000002,16.2007Q16.9479,16.21511,17.016199999999998,16.243380000000002Q17.084400000000002,16.27165,17.1458,16.31269Q17.2073,16.35372,17.2595,16.40596Q17.311700000000002,16.458190000000002,17.352800000000002,16.51961Q17.3938,16.58103,17.4221,16.64927Q17.4503,16.71752,17.4648,16.78997Q17.4792,16.86242,17.4792,16.93629ZM3.5,11Q3.5,11.0738685,3.485589,11.146318Q3.471178,11.218767,3.44291,11.287013Q3.414641,11.355258,3.373602,11.416678Q3.332563,11.478097,3.28033,11.53033Q3.228097,11.582563,3.166678,11.623602Q3.105258,11.664641,3.037013,11.69291Q2.968767,11.721178,2.896318,11.735589000000001Q2.8238685,11.75,2.75,11.75Q2.6761315,11.75,2.603682,11.735589000000001Q2.531233,11.721178,2.462987,11.69291Q2.394742,11.664641,2.333322,11.623602Q2.271903,11.582563,2.21967,11.53033Q2.167437,11.478097,2.126398,11.416678Q2.085359,11.355258,2.05709,11.287013Q2.028822,11.218767,2.014411,11.146318Q2,11.0738685,2,11Q2,10.9261315,2.014411,10.853682Q2.028822,10.781233,2.05709,10.712987Q2.085359,10.644742,2.126398,10.583322Q2.167437,10.521903,2.21967,10.46967Q2.271903,10.417437,2.333322,10.376398Q2.394742,10.335359,2.462987,10.30709Q2.531233,10.278822,2.603682,10.264410999999999Q2.6761315,10.25,2.75,10.25Q2.8238685,10.25,2.896318,10.264410999999999Q2.968767,10.278822,3.037013,10.30709Q3.105258,10.335359,3.166678,10.376398Q3.228097,10.417437,3.28033,10.46967Q3.332563,10.521903,3.373602,10.583322Q3.414641,10.644742,3.44291,10.712987Q3.471178,10.781233,3.485589,10.853682Q3.5,10.9261315,3.5,11Z" fill="#CCCCCC" fill-opacity="1"/><path d="M4.52436584375,4.7499400000000005Q5.77582484375,3.453542,7.42226484375,2.739504Q9.12741484375,2,11.00025484375,2Q12.830794843749999,2,14.50368484375,2.7075745Q16.11896484375,3.390771,17.36416484375,4.6360399999999995Q18.60946484375,5.8813200000000005,19.29266484375,7.49657Q20.00026484375,9.16946,20.00026484375,11Q20.00026484375,11.07387,19.98586484375,11.14632Q19.97146484375,11.21877,19.94316484375,11.28701Q19.91486484375,11.35526,19.87386484375,11.41668Q19.83276484375,11.4781,19.78056484375,11.53033Q19.72836484375,11.58256,19.66696484375,11.6236Q19.60546484375,11.66464,19.537264843750002,11.69291Q19.469064843749997,11.72118,19.39656484375,11.73559Q19.324164843749998,11.75,19.25026484375,11.75Q19.17636484375,11.75,19.10396484375,11.73559Q19.03146484375,11.72118,18.96326484375,11.69291Q18.89496484375,11.66464,18.83356484375,11.6236Q18.772164843749998,11.58256,18.71996484375,11.53033Q18.66766484375,11.4781,18.62666484375,11.41668Q18.58556484375,11.35526,18.55736484375,11.28701Q18.52906484375,11.21877,18.514664843749998,11.14632Q18.50026484375,11.07387,18.50026484375,11Q18.50026484375,7.89341,16.30356484375,5.6967Q14.10684484375,3.5,11.00025484375,3.5Q7.8158548437499995,3.5,5.60356384375,5.791729999999999Q5.55226084375,5.84487,5.49157384375,5.88699Q5.43088784375,5.92911,5.36315184375,5.95857Q5.29541484375,5.98804,5.22323084375,6.00373Q5.15104744375,6.019410000000001,5.07719034375,6.02072Q5.00333334375,6.0220199999999995,4.93064084375,6.00889Q4.85794884375,5.995760000000001,4.78921584375,5.9687Q4.72048184375,5.94164,4.65834884375,5.90169Q4.59621484375,5.86174,4.5430688437499995,5.81043Q4.48992284375,5.75913,4.44780784375,5.69844Q4.40569184375,5.63776,4.37622384375,5.5700199999999995Q4.34675684375,5.50228,4.33107084375,5.4300999999999995Q4.31538384375,5.35792,4.31408184375,5.28406Q4.31277884375,5.2102,4.32590984375,5.13751Q4.33904184375,5.06482,4.36610184375,4.99608Q4.39316184375,4.927350000000001,4.43311184375,4.86522Q4.47306184375,4.80308,4.52436584375,4.7499400000000005ZM5.81396484375,5.27083Q5.81396484375,5.3447,5.79955384375,5.4171499999999995Q5.78514284375,5.489599999999999,5.75687484375,5.55785Q5.72860584375,5.62609,5.68756684375,5.68751Q5.64652784375,5.74893,5.59429484375,5.801159999999999Q5.54206184375,5.853400000000001,5.48064284375,5.8944399999999995Q5.41922284375,5.9354700000000005,5.35097784375,5.96374Q5.28273184375,5.9920100000000005,5.21028284375,6.00642Q5.13783334375,6.02083,5.06396484375,6.02083Q4.99009634375,6.02083,4.91764684375,6.00642Q4.84519784375,5.9920100000000005,4.77695184375,5.96374Q4.70870684375,5.9354700000000005,4.64728684375,5.8944399999999995Q4.58586784375,5.853400000000001,4.53363484375,5.801159999999999Q4.48140184375,5.74893,4.44036284375,5.68751Q4.39932384375,5.62609,4.37105484375,5.55785Q4.34278684375,5.489599999999999,4.32837584375,5.4171499999999995Q4.31396484375,5.3447,4.31396484375,5.27083Q4.31396484375,5.19696,4.32837584375,5.12452Q4.34278684375,5.0520700000000005,4.37105484375,4.98382Q4.39932384375,4.91558,4.44036284375,4.85416Q4.48140184375,4.79274,4.53363484375,4.7405Q4.58586784375,4.68827,4.64728684375,4.64723Q4.70870684375,4.60619,4.77695184375,4.57792Q4.84519784375,4.54966,4.91764684375,4.53524Q4.99009634375,4.52083,5.06396484375,4.52083Q5.13783334375,4.52083,5.21028284375,4.53524Q5.28273184375,4.54966,5.35097784375,4.57792Q5.41922284375,4.60619,5.48064284375,4.64723Q5.54206184375,4.68827,5.59429484375,4.7405Q5.64652784375,4.79274,5.68756684375,4.85416Q5.72860584375,4.91558,5.75687484375,4.98382Q5.78514284375,5.0520700000000005,5.79955384375,5.12452Q5.81396484375,5.19696,5.81396484375,5.27083ZM20.00026484375,11Q20.00026484375,11.07387,19.98586484375,11.14632Q19.97146484375,11.21877,19.94316484375,11.28701Q19.91486484375,11.35526,19.87386484375,11.41668Q19.83276484375,11.4781,19.78056484375,11.53033Q19.72836484375,11.58256,19.66696484375,11.6236Q19.60546484375,11.66464,19.537264843750002,11.69291Q19.469064843749997,11.72118,19.39656484375,11.73559Q19.324164843749998,11.75,19.25026484375,11.75Q19.17636484375,11.75,19.10396484375,11.73559Q19.03146484375,11.72118,18.96326484375,11.69291Q18.89496484375,11.66464,18.83356484375,11.6236Q18.772164843749998,11.58256,18.71996484375,11.53033Q18.66766484375,11.4781,18.62666484375,11.41668Q18.58556484375,11.35526,18.55736484375,11.28701Q18.52906484375,11.21877,18.514664843749998,11.14632Q18.50026484375,11.07387,18.50026484375,11Q18.50026484375,10.92613,18.514664843749998,10.85368Q18.52906484375,10.78123,18.55736484375,10.71299Q18.58556484375,10.644739999999999,18.62666484375,10.58332Q18.66766484375,10.521899999999999,18.71996484375,10.46967Q18.772164843749998,10.41744,18.83356484375,10.3764Q18.89496484375,10.33536,18.96326484375,10.307089999999999Q19.03146484375,10.27882,19.10396484375,10.26441Q19.17636484375,10.25,19.25026484375,10.25Q19.324164843749998,10.25,19.39656484375,10.26441Q19.469064843749997,10.27882,19.537264843750002,10.307089999999999Q19.60546484375,10.33536,19.66696484375,10.3764Q19.72836484375,10.41744,19.78056484375,10.46967Q19.83276484375,10.521899999999999,19.87386484375,10.58332Q19.91486484375,10.644739999999999,19.94316484375,10.71299Q19.97146484375,10.78123,19.98586484375,10.85368Q20.00026484375,10.92613,20.00026484375,11Z" fill="#CCCCCC" fill-opacity="1"/></g></g></g></g></svg>