<svg xmlns="http://www.w3.org/2000/svg" xmlns:xlink="http://www.w3.org/1999/xlink" fill="none" version="1.1" width="44" height="44" viewBox="0 0 44 44"><defs><filter id="master_svg1_132_6477" filterUnits="userSpaceOnUse" color-interpolation-filters="sRGB" x="10.75" y="21.887451171875" width="30.060585021972656" height="18.92308521270752"><feFlood flood-opacity="0" result="BackgroundImageFix"/><feBlend mode="normal" in="SourceGraphic" in2="BackgroundImageFix" result="shape"/><feGaussianBlur in="BackgroundImage" stdDeviation="4.030292510986328"/><feComposite in2="SourceAlpha" operator="in" result="effect1_foregroundBlur"/><feBlend mode="normal" in="SourceGraphic" in2="effect1_foregroundBlur" result="shape"/></filter><linearGradient x1="0.5" y1="0" x2="0.5" y2="1" id="master_svg2_17_0043"><stop offset="0%" stop-color="#00D695" stop-opacity="1"/><stop offset="100%" stop-color="#00D695" stop-opacity="0.10000000149011612"/></linearGradient></defs><clipPath id="master_svg0_132_4495"><rect x="8" y="8" width="28" height="28" rx="0"/></clipPath><g style="mix-blend-mode:passthrough"><g><g style="mix-blend-mode:passthrough"><g><g style="mix-blend-mode:passthrough"><rect x="0" y="0" width="44" height="44" rx="8" fill="#ECF5FF" fill-opacity="1"/></g><g clip-path="url(#master_svg0_132_4495)"><g><path d="M16.750000435965,15.749532734375C16.749046544,18.511622734375,18.9879,20.751302734375003,21.75,20.751302734375003C24.5121,20.751302734375003,26.750999999999998,18.511622734375,26.75,15.749532734375C26.750999999999998,12.987432734375,24.5121,10.747802734375,21.75,10.747802734375C18.9879,10.747803061349,16.749046108,12.987432734375,16.750000435965,15.749532734375Z" fill="#0079DE" fill-opacity="1"/><path d="M23.1717,22.211467171875L22.384999999999998,22.998261171875C22.0343,23.348931171875,21.4657,23.348931171875,21.115000000000002,22.998261171875L20.32826,22.211467171875C20.12473,22.007941171875,19.83224,21.912472971875,19.55017,21.969777771875C14.81592,22.931581171875,11.184696,26.934181171875,10.7863323,31.849611171875C10.74627172,32.343951171875,11.15203,32.749951171875,11.647959,32.749951171875L31.852,32.749951171875C32.348,32.749951171875,32.753699999999995,32.343951171875,32.7137,31.849611171875C32.3153,26.934181171875,28.6841,22.931581171875,23.9498,21.969777871875C23.6678,21.912472971875,23.3753,22.007941171875,23.1717,22.211467171875M21.1155,30.543981171875L20.259050000000002,29.687571171875C20.018610000000002,29.447131171875,19.9346,29.091501171875,20.04205,28.768881171875L20.8979,26.199211171875C21.1706,25.380191171875,22.3291,25.380271171875002,22.6018,26.199321171875L23.457900000000002,28.771011171875C23.5654,29.093801171875,23.4812,29.449591171875,23.2405,29.690001171875L22.384999999999998,30.544401171875002C22.0342,30.894681171875,21.466,30.894501171875,21.1155,30.543981171875" fill="#0079DE" fill-opacity="1"/><g filter="url(#master_svg1_132_6477)" style="mix-blend-mode:passthrough"><path d="M23.1717,22.211467171875L22.384999999999998,22.998261171875C22.0343,23.348931171875,21.4657,23.348931171875,21.115000000000002,22.998261171875L20.32826,22.211467171875C20.12473,22.007941171875,19.83224,21.912472971875,19.55017,21.969777771875C14.81592,22.931581171875,11.184696,26.934181171875,10.7863323,31.849611171875C10.74627172,32.343951171875,11.15203,32.749951171875,11.647959,32.749951171875L31.852,32.749951171875C32.348,32.749951171875,32.753699999999995,32.343951171875,32.7137,31.849611171875C32.3153,26.934181171875,28.6841,22.931581171875,23.9498,21.969777871875C23.6678,21.912472971875,23.3753,22.007941171875,23.1717,22.211467171875M21.1155,30.543981171875L20.259050000000002,29.687571171875C20.018610000000002,29.447131171875,19.9346,29.091501171875,20.04205,28.768881171875L20.8979,26.199211171875C21.1706,25.380191171875,22.3291,25.380271171875002,22.6018,26.199321171875L23.457900000000002,28.771011171875C23.5654,29.093801171875,23.4812,29.449591171875,23.2405,29.690001171875L22.384999999999998,30.544401171875002C22.0342,30.894681171875,21.466,30.894501171875,21.1155,30.543981171875" fill="url(#master_svg2_17_0043)" fill-opacity="1"/></g></g></g></g></g></g></g></svg>