<svg xmlns="http://www.w3.org/2000/svg" xmlns:xlink="http://www.w3.org/1999/xlink" fill="none" version="1.1" width="16" height="16" viewBox="0 0 16 16"><clipPath id="master_svg0_110_4032"><rect x="0.25" y="1" width="15" height="15" rx="0"/></clipPath><g style="mix-blend-mode:passthrough"><g><g style="mix-blend-mode:passthrough"><g><g clip-path="url(#master_svg0_110_4032)"><g><rect x="0.25" y="1" width="15" height="15" rx="0" fill="#FFFFFF" fill-opacity="0.009999999776482582"/><path d="M10.546875,2.379261L13.359375,2.379261Q13.409735,2.379261,13.459135,2.389087Q13.508535,2.398913,13.555064999999999,2.418187Q13.601595,2.43746,13.643475,2.465442Q13.685345,2.493423,13.720965,2.529036Q13.756575,2.56465,13.784555000000001,2.606527Q13.812535,2.648404,13.831815,2.694935Q13.851085,2.741466,13.860915,2.7908629Q13.870735,2.8402601,13.870735,2.890625L13.870735,5.703135Q13.870735,5.7535050000000005,13.860915,5.8028949999999995Q13.851085,5.852295,13.831815,5.898825Q13.812535,5.945355,13.784555000000001,5.987235Q13.756575,6.029115,13.720965,6.064725Q13.685345,6.100334999999999,13.643475,6.128325Q13.601595,6.156305,13.555064999999999,6.175575Q13.508535,6.194845,13.459135,6.204675Q13.409735,6.214505,13.359375,6.214505Q13.309004999999999,6.214505,13.259615,6.204675Q13.210215,6.194845,13.163685000000001,6.175575Q13.117155,6.156305,13.075275,6.128325Q13.033395,6.100334999999999,12.997785,6.064725Q12.962175,6.029115,12.934194999999999,5.987235Q12.906215,5.945355,12.886935,5.898825Q12.867665,5.852295,12.857835,5.8028949999999995Q12.848015,5.7535050000000005,12.848015,5.703135L12.848015,2.890625L13.359375,2.890625L13.359375,3.401989L10.546875,3.401989Q10.4965101,3.401989,10.4471129,3.392163Q10.397716,3.382337,10.351185,3.363063Q10.304654,3.34379,10.262777,3.315808Q10.2209,3.287827,10.185286,3.252214Q10.149673,3.2166,10.121692,3.174723Q10.09371,3.132846,10.074437,3.086315Q10.055163,3.039784,10.045337,2.9903871Q10.035511,2.9409899,10.035511,2.890625Q10.035511,2.8402601,10.045337,2.7908629Q10.055163,2.741466,10.074437,2.694935Q10.09371,2.648404,10.121692,2.606527Q10.149673,2.56465,10.185286,2.529036Q10.2209,2.493423,10.262777,2.465442Q10.304654,2.43746,10.351185,2.418187Q10.397716,2.398913,10.4471129,2.389087Q10.4965101,2.379261,10.546875,2.379261ZM11.056875,2.890625Q11.056875,2.9408556,11.047075,2.990121Q11.037276,3.039386,11.018054,3.085794Q10.998831,3.1322010000000002,10.970924,3.173966Q10.943018,3.215731,10.907499,3.251249Q10.871981,3.286768,10.830216,3.314674Q10.788451,3.342581,10.742044,3.361803Q10.695636,3.381026,10.646371,3.390825Q10.5971056,3.400625,10.546875,3.400625Q10.4966444,3.400625,10.447379,3.390825Q10.398114,3.381026,10.351706,3.3618040000000002Q10.305299,3.342581,10.263534,3.314674Q10.221769,3.286768,10.186251,3.251249Q10.150732,3.215731,10.122826,3.173966Q10.094919,3.1322010000000002,10.075697,3.085794Q10.056474,3.039386,10.046675,2.990121Q10.036875,2.9408556,10.036875,2.890625Q10.036875,2.8403944,10.046675,2.791129Q10.056474,2.741864,10.075696,2.695456Q10.094919,2.6490489999999998,10.122826,2.607284Q10.150732,2.565519,10.186251,2.530001Q10.221769,2.494482,10.263534,2.466576Q10.305299,2.438669,10.351706,2.419447Q10.398114,2.400224,10.447379,2.390425Q10.4966444,2.380625,10.546875,2.380625Q10.5971056,2.380625,10.646371,2.390425Q10.695636,2.400224,10.742044,2.4194459999999998Q10.788451,2.438669,10.830216,2.466576Q10.871981,2.494482,10.907499,2.530001Q10.943018,2.565519,10.970924,2.607284Q10.998831,2.6490489999999998,11.018053,2.695456Q11.037276,2.741864,11.047075,2.791129Q11.056875,2.8403944,11.056875,2.890625ZM13.869375,5.703135Q13.869375,5.7533650000000005,13.859575,5.802635Q13.849775000000001,5.851895,13.830555,5.898305000000001Q13.811335,5.944715,13.783425,5.986475Q13.755514999999999,6.028245,13.719995,6.063765Q13.684485,6.0992750000000004,13.642714999999999,6.127185Q13.600954999999999,6.155095,13.554545000000001,6.174315Q13.508135,6.193535,13.458874999999999,6.203335Q13.409604999999999,6.213134999999999,13.359375,6.213134999999999Q13.309145000000001,6.213134999999999,13.259875000000001,6.203335Q13.210615,6.193535,13.164204999999999,6.174315Q13.117795000000001,6.155095,13.076035000000001,6.127185Q13.034265,6.0992750000000004,12.998755,6.063765Q12.963235000000001,6.028245,12.935325,5.986475Q12.907415,5.944715,12.888195,5.898305000000001Q12.868974999999999,5.851895,12.859175,5.802635Q12.849375,5.7533650000000005,12.849375,5.703135Q12.849375,5.6529050000000005,12.859175,5.603645Q12.868974999999999,5.554375,12.888195,5.507965Q12.907415,5.461565,12.935325,5.419795000000001Q12.963235000000001,5.378035000000001,12.998755,5.342515000000001Q13.034265,5.306995000000001,13.076035000000001,5.279085Q13.117795000000001,5.2511849999999995,13.164204999999999,5.231955Q13.210615,5.212735,13.259875000000001,5.202935Q13.309145000000001,5.193135,13.359375,5.193135Q13.409604999999999,5.193135,13.458874999999999,5.202935Q13.508135,5.212735,13.554545000000001,5.231955Q13.600954999999999,5.2511849999999995,13.642714999999999,5.279085Q13.684485,5.306995000000001,13.719995,5.342515000000001Q13.755514999999999,5.378035000000001,13.783425,5.419795000000001Q13.811335,5.461565,13.830555,5.507965Q13.849775000000001,5.554375,13.859575,5.603645Q13.869375,5.6529050000000005,13.869375,5.703135Z" fill="#0079DE" fill-opacity="1"/><path d="M3.865890390625,7.049504140625Q2.734264390625,8.181124140625,2.734264390625,9.781494140625Q2.734264390625,11.381874140625001,3.865900390625,12.513514140625Q4.9975203906250005,13.645134140625,6.597900390625,13.645134140625Q8.198280390625001,13.645134140625,9.329910390624999,12.513514140625Q10.461540390625,11.381884140625,10.461540390625,9.781514140625Q10.461540390625,8.181134140625,9.329900390625,7.049504140625Q8.198280390625001,5.917858140625,6.597900390625,5.917858140625Q4.9975203906250005,5.917858140625,3.865900390625,7.049504140625L3.865890390625,7.049504140625ZM3.142714390625,6.326330140625Q4.5738903906249995,4.895130140625,6.597900390625,4.895130140625Q8.621910390625,4.895130140625,10.053080390625,6.3263261406249995Q11.484260390625,7.7575041406250005,11.484260390625,9.781514140625Q11.484260390625,11.805514140625,10.053080390625,13.236694140625Q8.621910390625,14.667864140625,6.597900390625,14.667864140625Q4.5738903906249995,14.667864140625,3.142715390625,13.236694140625Q1.711536390625,11.805494140625001,1.711536390625,9.781494140625Q1.711536390625,7.7575041406250005,3.1427183906250002,6.3263261406249995L3.142714390625,6.326330140625Z" fill="#0079DE" fill-opacity="1"/><path d="M13.09646,3.877459140625L9.986587,6.987299140625Q9.950973,7.022919140625,9.909096,7.050899140625Q9.867219,7.078879140625,9.820688,7.098149140625Q9.774157,7.117429140625,9.7247596,7.1272491406250005Q9.6753624,7.137079140625,9.62499745116,7.137079140625Q9.5746325,7.137079140625,9.5252354,7.1272491406250005Q9.475838,7.117419140625,9.429307,7.098149140625Q9.382776,7.078879140625,9.340899,7.050899140625Q9.299023,7.022909140625,9.26341,6.987299140625Q9.227796,6.951689140625,9.199815,6.909809140625001Q9.171834,6.867929140625,9.152561,6.821399140625Q9.133287,6.774869140625,9.123462,6.725469140625Q9.113636,6.676079140625,9.113636,6.625709140625Q9.113637,6.575349140625001,9.123463,6.525949140625Q9.133289,6.476549140625,9.152563,6.430019140624999Q9.171837,6.3834891406250005,9.199818,6.341609140625Q9.2278,6.299739140625,9.263413,6.2641191406250005L12.37329,3.154279140625Q12.4089,3.118665140625,12.45078,3.090684140625Q12.49266,3.062703140625,12.53919,3.043430140625Q12.58572,3.024156140625,12.635110000000001,3.014331140625Q12.68451,3.004505140625,12.73488,3.004505140625Q12.78524,3.0045061406249998,12.83464,3.014332140625Q12.88404,3.024158140625,12.93057,3.043432140625Q12.9771,3.062706140625,13.01897,3.090687140625Q13.06085,3.1186691406250002,13.09647,3.154282140625Q13.13208,3.189896140625,13.16006,3.231773140625Q13.18804,3.273650140625,13.20731,3.320181140625Q13.22659,3.366712140625,13.23641,3.416109540625Q13.24624,3.465506740625,13.24624,3.515871689465Q13.24624,3.566236640625,13.23641,3.615633740625Q13.22659,3.665031140625,13.20731,3.711562140625Q13.18804,3.758093140625,13.16006,3.799970140625Q13.13207,3.841846140625,13.09646,3.877459140625ZM13.24487,3.515869140625Q13.24487,3.566099740625,13.23507,3.615365140625Q13.22528,3.664630140625,13.20605,3.711038140625Q13.18683,3.7574451406250002,13.15892,3.799210140625Q13.13102,3.840975140625,13.0955,3.876493140625Q13.05998,3.912012140625,13.01821,3.939918140625Q12.97645,3.967825140625,12.93004,3.987047140625Q12.88364,4.006270140625,12.83437,4.0160691406249995Q12.78511,4.025869140625,12.73487,4.025869140625Q12.68464,4.025869140625,12.63538,4.0160691406249995Q12.58611,4.006270140625,12.53971,3.9870481406250002Q12.4933,3.967825140625,12.45153,3.939918140625Q12.40977,3.912012140625,12.37425,3.876493140625Q12.33873,3.840975140625,12.31082,3.799210140625Q12.28292,3.7574451406250002,12.2637,3.711038140625Q12.24447,3.664630140625,12.23467,3.615365140625Q12.22487,3.566099740625,12.22487,3.515869140625Q12.22487,3.465638540625,12.23467,3.416373140625Q12.24447,3.367108140625,12.2637,3.320700140625Q12.28292,3.2742931406249998,12.31083,3.232528140625Q12.33873,3.190763140625,12.37425,3.155245140625Q12.40977,3.119726140625,12.45153,3.091820140625Q12.4933,3.063913140625,12.53971,3.044691140625Q12.58611,3.025468140625,12.63538,3.015669140625Q12.68464,3.005869140625,12.73487,3.005869140625Q12.78511,3.005869140625,12.83437,3.015669140625Q12.88364,3.025468140625,12.93004,3.0446901406249998Q12.97645,3.063913140625,13.01821,3.091820140625Q13.05998,3.119726140625,13.0955,3.155245140625Q13.13102,3.190763140625,13.15892,3.232528140625Q13.18683,3.2742931406249998,13.20605,3.320700140625Q13.22528,3.367108140625,13.23507,3.416373140625Q13.24487,3.465638540625,13.24487,3.515869140625ZM10.135,6.625709140625Q10.135,6.675939140625,10.1252,6.725209140625Q10.115401,6.7744691406249995,10.096179,6.820879140624999Q10.076956,6.867289140625,10.049049,6.909049140625Q10.021143,6.950819140625001,9.985624,6.986339140625001Q9.950106,7.021859140625001,9.908341,7.0497591406249995Q9.866576,7.077669140625,9.820169,7.0968891406250005Q9.773761,7.116109140624999,9.724496,7.125909140625Q9.6752306,7.135709140625,9.625,7.135709140625Q9.5747694,7.135709140625,9.525504,7.125909140625Q9.476239,7.116109140624999,9.429831,7.0968891406250005Q9.383424,7.077669140625,9.341659,7.0497591406249995Q9.299894,7.021859140625001,9.264376,6.986339140625001Q9.228857,6.950819140625001,9.200951,6.909049140625Q9.173044,6.867289140625,9.153822,6.820879140624999Q9.134599,6.7744691406249995,9.1248,6.725209140625Q9.115,6.675939140625,9.115,6.625709140625Q9.115,6.575479140625,9.1248,6.526219140625Q9.134599,6.476949140625,9.153821,6.430539140625Q9.173044,6.384139140625,9.200951,6.342369140624999Q9.228857,6.300609140625,9.264376,6.265089140625Q9.299894,6.229569140624999,9.341659,6.201659140625Q9.383424,6.173759140625,9.429831,6.154539140624999Q9.476239,6.135309140625,9.525504,6.125509140625001Q9.5747694,6.115709140625,9.625,6.115709140625Q9.6752306,6.115709140625,9.724496,6.125509140625001Q9.773761,6.135309140625,9.820169,6.154529140625Q9.866576,6.173759140625,9.908341,6.201659140625Q9.950106,6.229569140624999,9.985624,6.265089140625Q10.021143,6.300609140625,10.049049,6.342369140624999Q10.076956,6.384139140625,10.096178,6.430539140625Q10.115401,6.476949140625,10.1252,6.526219140625Q10.135,6.575479140625,10.135,6.625709140625Z" fill="#0079DE" fill-opacity="1"/></g></g></g></g></g></g></svg>