<svg xmlns="http://www.w3.org/2000/svg" xmlns:xlink="http://www.w3.org/1999/xlink" fill="none" version="1.1" width="100" height="100" viewBox="0 0 100 100"><defs><mask id="master_svg1_110_3889"><rect x="0" y="-0.125" width="100" height="100" rx="0" fill="#FFFFFF" fill-opacity="1"/></mask><linearGradient x1="1.4458807706832886" y1="0.9879999756813049" x2="0.29515957832336426" y2="1" id="master_svg2_48_2358"><stop offset="0%" stop-color="#E0E5EF" stop-opacity="0"/><stop offset="100%" stop-color="#E0E5EF" stop-opacity="1"/></linearGradient><linearGradient x1="1.4458807706832886" y1="0.9879999756813049" x2="0.29515957832336426" y2="1" id="master_svg3_48_2358"><stop offset="0%" stop-color="#E0E5EF" stop-opacity="0"/><stop offset="100%" stop-color="#E0E5EF" stop-opacity="1"/></linearGradient><linearGradient x1="1.4458807706832886" y1="0.9879999756813049" x2="0.29515957832336426" y2="1" id="master_svg4_48_2358"><stop offset="0%" stop-color="#E0E5EF" stop-opacity="0"/><stop offset="100%" stop-color="#E0E5EF" stop-opacity="1"/></linearGradient><linearGradient x1="0.40830326080322266" y1="0.4488910436630249" x2="0.40830326080322266" y2="0" id="master_svg5_48_2406"><stop offset="0%" stop-color="#E8EBF1" stop-opacity="0.10000000149011612"/><stop offset="100%" stop-color="#477ED6" stop-opacity="1"/></linearGradient><linearGradient x1="0.5" y1="1.261823058128357" x2="0.5099999904632568" y2="-0.20096860826015472" id="master_svg6_48_2456"><stop offset="0%" stop-color="#3A90D6" stop-opacity="1"/><stop offset="100%" stop-color="#9AB7F5" stop-opacity="1"/></linearGradient><linearGradient x1="0.5" y1="1.261823058128357" x2="0.5099999904632568" y2="-0.20096860826015472" id="master_svg7_48_2443"><stop offset="0%" stop-color="#1E85D9" stop-opacity="1"/><stop offset="100%" stop-color="#D3DEF5" stop-opacity="1"/></linearGradient><linearGradient x1="0.5" y1="1" x2="0.5099999904632568" y2="-0.11225798726081848" id="master_svg8_48_2446"><stop offset="0%" stop-color="#2E95E8" stop-opacity="1"/><stop offset="100%" stop-color="#E7EAF0" stop-opacity="1"/></linearGradient><linearGradient x1="0.5" y1="1" x2="0.5099999904632568" y2="-0.11225798726081848" id="master_svg9_48_2388"><stop offset="0%" stop-color="#0079DE" stop-opacity="1"/><stop offset="100%" stop-color="#E7EAF0" stop-opacity="1"/></linearGradient><linearGradient x1="0.5" y1="1.261823058128357" x2="0.5099999904632568" y2="-0.20096860826015472" id="master_svga_48_2453"><stop offset="0%" stop-color="#2388DB" stop-opacity="1"/><stop offset="100%" stop-color="#C9D6F0" stop-opacity="1"/></linearGradient><linearGradient x1="0.5" y1="1.261823058128357" x2="0.5099999904632568" y2="-0.20096860826015472" id="master_svgb_48_2450"><stop offset="0%" stop-color="#4DA4EB" stop-opacity="1"/><stop offset="100%" stop-color="#BECCEB" stop-opacity="1"/></linearGradient><linearGradient x1="1.0929325819015503" y1="1" x2="0.09177931398153305" y2="0" id="master_svgc_48_2426"><stop offset="0%" stop-color="#A2ABB9" stop-opacity="1"/><stop offset="100%" stop-color="#E7EAF0" stop-opacity="1"/></linearGradient><linearGradient x1="1.0929325819015503" y1="1" x2="0.09177931398153305" y2="0" id="master_svgd_48_2426"><stop offset="0%" stop-color="#A2ABB9" stop-opacity="1"/><stop offset="100%" stop-color="#E7EAF0" stop-opacity="1"/></linearGradient><linearGradient x1="0" y1="1" x2="1" y2="0.041184231638908386" id="master_svge_48_2430"><stop offset="0%" stop-color="#A2ABB9" stop-opacity="1"/><stop offset="100%" stop-color="#E4E7EE" stop-opacity="1"/></linearGradient><linearGradient x1="-0.0844229906797409" y1="1" x2="1" y2="0.20408885180950165" id="master_svgf_48_2433"><stop offset="0%" stop-color="#A2ABB9" stop-opacity="1"/><stop offset="100%" stop-color="#E7EAF0" stop-opacity="1"/></linearGradient><linearGradient x1="0" y1="1" x2="1" y2="0" id="master_svgg_48_2420"><stop offset="0%" stop-color="#A2ABB9" stop-opacity="1"/><stop offset="100%" stop-color="#E7EAF0" stop-opacity="1"/></linearGradient><linearGradient x1="0.08415277302265167" y1="0.9717057943344116" x2="1.0203032493591309" y2="-0.09466772526502609" id="master_svgh_48_2417"><stop offset="0%" stop-color="#C0C7D2" stop-opacity="1"/><stop offset="100%" stop-color="#A2ABB9" stop-opacity="1"/></linearGradient><linearGradient x1="0.08415277302265167" y1="0.9717057943344116" x2="1.0203032493591309" y2="-0.09466772526502609" id="master_svgi_48_2417"><stop offset="0%" stop-color="#C0C7D2" stop-opacity="1"/><stop offset="100%" stop-color="#A2ABB9" stop-opacity="1"/></linearGradient><linearGradient x1="0.08415277302265167" y1="0.9717057943344116" x2="1.0203032493591309" y2="-0.09466772526502609" id="master_svgj_48_2417"><stop offset="0%" stop-color="#C0C7D2" stop-opacity="1"/><stop offset="100%" stop-color="#A2ABB9" stop-opacity="1"/></linearGradient><linearGradient x1="0" y1="1" x2="1" y2="0" id="master_svgk_48_2436"><stop offset="0%" stop-color="#909AA9" stop-opacity="1"/><stop offset="100%" stop-color="#C0C7D2" stop-opacity="1"/></linearGradient><linearGradient x1="1.257321834564209" y1="1" x2="0" y2="-0.08946135640144348" id="master_svgl_48_2423"><stop offset="0%" stop-color="#909AA9" stop-opacity="1"/><stop offset="100%" stop-color="#C0C7D2" stop-opacity="1"/></linearGradient><linearGradient x1="0" y1="1" x2="1" y2="0" id="master_svgm_48_2436"><stop offset="0%" stop-color="#909AA9" stop-opacity="1"/><stop offset="100%" stop-color="#C0C7D2" stop-opacity="1"/></linearGradient></defs><clipPath id="master_svg0_110_3886"><rect x="0" y="0" width="100" height="100" rx="0"/></clipPath><g style="mix-blend-mode:passthrough"><g><g style="mix-blend-mode:passthrough"><g><g clip-path="url(#master_svg0_110_3886)"><g><g mask="url(#master_svg1_110_3889)"><g><g style="opacity:0.6000000238418579;"><path d="M86.97979609375,49.54161298828125C86.97979609375,48.32761298828125,86.92019609375,47.12731298828125,86.80349609375,45.94351298828125L92.66649609375,45.94351298828125C94.13979609375,45.94351298828125,95.33319609375,44.75011298828125,95.33319609375,43.27681298828125L95.33319609375,43.12851298828125C95.33319609375,41.87961298828125,94.47569609375,40.83181298828125,93.31719609375,40.54161298828125L82.00019609375,40.54161298828125C80.52679609375,40.54161298828125,79.33349609375,39.34831298828125,79.33349609375,37.87501298828125L79.33349609375,37.04161298828125C79.33349609375,35.56831298828125,80.52679609375,34.37501298828125,82.00019609375,34.37501298828125L85.29049609375,34.37501298828125C85.66719609375,34.26701298828125,86.01419609375,34.064612988281255,86.29679609375,33.78211298828125C86.73519609375,33.34381298828125,86.98019609375,32.75051298828125,86.98019609375,32.13211298828125L86.98019609375,32.002112988281255C86.98019609375,30.71381298828125,85.93519609375,29.66881298828125,84.64679609375,29.66881298828125L81.06999609375,29.66881298828125C79.92069609375,27.90691298828125,78.62299609375,26.24771298828125,77.19449609375,24.70831298828125L69.66679609375,24.70831298828125C68.47019609374999,24.70831298828125,67.50019609374999,23.73831298828125,67.50019609374999,22.54164298828125L67.50019609374999,22.37498298828125C67.50019609374999,21.17831298828125,68.47019609374999,20.20831298828125,69.66679609375,20.20831298828125L72.19269609375,20.20831298828125C65.90769609374999,15.50221298828125,58.06529609375,12.70831298828125,49.56149609375,12.70831298828125C45.23229609375,12.70831298828125,41.07469609375,13.43235798828125,37.20669609375,14.76413298828125L23.14149609375,14.76413298828125C21.39319609375,14.76413298828125,19.97479609375,16.18246298828125,19.97479609375,17.93079298828125L19.97479609375,18.10746298828125C19.97479609375,18.947462988281252,20.30819609375,19.752462988281252,20.90149609375,20.34746298828125C21.49649609375,20.940792988281252,22.30149609375,21.274132988281252,23.14149609375,21.274132988281252L25.57319609375,21.274132988281252C25.53229609375,21.30766298828125,25.49169609375,21.34128298828125,25.45119609375,21.37498298828125L30.33349609375,21.37498298828125C30.77519609375,21.37498298828125,31.20019609375,21.54998298828125,31.51179609375,21.86331298828125C31.82519609375,22.17498298828125,32.00019609375,22.599982988281248,32.00019609375,23.04161298828125C32.00019609375,23.48331298828125,31.82519609375,23.90831298828125,31.51179609375,24.220012988281248C31.20019609375,24.53331298828125,30.77519609375,24.70831298828125,30.33349609375,24.70831298828125L9.22902609375,24.70831298828125C6.77846609375,24.84881298828125,4.83349609375,26.881612988281248,4.83349609375,29.36721298828125L4.83349609375,29.62711298828125C4.83349609375,30.86551298828125,5.32516309375,32.05211298828125,6.20016609375,32.92711298828125C7.07516609375,33.80211298828125,8.261826093749999,34.293812988281246,9.50016609375,34.293812988281246L15.49089609375,34.293812988281246C13.34091609375,38.94031298828125,12.143116093749999,44.10351298828125,12.143116093749999,49.54161298828125C12.143116093749999,50.11581298828125,12.15646609375,50.68701298828125,12.18287609375,51.25481298828125L8.80932609375,51.25481298828125C8.35432609375,51.25481298828125,7.91932609375,51.43481298828125,7.59766609375,51.75651298828125C7.27599609375,52.07811298828125,7.09599609375,52.51311298828125,7.09599609375,52.96811298828125C7.09599609375,53.42311298828125,7.27599609375,53.85811298828125,7.59766609375,54.17981298828125C7.91932609375,54.50151298828125,8.35432609375,54.68151298828125,8.80932609375,54.68151298828125L12.50467609375,54.68151298828125C12.505946093750001,54.69051298828125,12.50721609375,54.69931298828125,12.50849609375,54.70831298828125L14.00016609375,54.70831298828125C15.19679609375,54.70831298828125,16.16679609375,55.67831298828125,16.16679609375,56.87501298828125L16.16679609375,57.04161298828125C16.16679609375,58.23831298828125,15.19679609375,59.20831298828125,14.00016609375,59.20831298828125L12.26881609375,59.20831298828125C12.14004609375,59.25961298828125,12.021966093749999,59.33701298828125,11.92266609375,59.43711298828125C11.72932609375,59.62881298828125,11.62099609375,59.89051298828125,11.62099609375,60.16381298828125C11.62099609375,60.73051298828125,12.08266609375,61.19051298828125,12.64932609375,61.19051298828125L14.05366609375,61.19051298828125C19.006796093749998,75.82281298828124,33.034996093749996,86.37501298828126,49.56149609375,86.37501298828126C70.22319609375,86.37501298828126,86.97979609375,69.88161298828125,86.97979609375,49.54161298828125Z" fill-rule="evenodd" fill="#F3F3FA" fill-opacity="1"/></g><g><path d="M29.376826093749997,67.29498298828125C29.61182609375,67.19831298828124,29.80182609375,67.04331298828126,29.946826093749998,66.83331298828125C30.093496093749998,66.62498298828125,30.16682609375,66.38331298828125,30.16682609375,66.10998298828125L30.136826093750003,65.92164298828125L30.078496093749997,65.68831298828125C30.05016609375,65.59998298828125,30.025166093750002,65.51664298828125,30.00516609375,65.43831298828125L29.75682609375,64.94331298828125C29.80516609375,64.76664298828125,29.83016609375,64.60164298828126,29.83016609375,64.44664298828125C29.83016609375,64.06664298828125,29.72349609375,63.72998298828125,29.50849609375,63.438312988281254C29.29349609375,63.14664298828125,29.02016609375,62.94164298828125,28.68849609375,62.82331298828125L26.84516609375,59.21664298828125C26.70849609375,58.91331298828125,26.50016609375,58.66997998828125,26.22349609375,58.48497998828125C25.94516609375,58.29997968828125,25.63016609375,58.20831298828125,25.28016609375,58.20831298828125C24.88016609375,58.20831298828125,24.55349609375,58.32997998828125,24.29849609375,58.57331298828125C24.045166093749998,58.81664598828125,23.82682609375,59.10831298828125,23.64016609375,59.44998298828125L23.62516609375,59.44998298828125L21.32849609375,63.70164298828125C21.17182909375,63.83664298828125,21.04349609375,63.99831298828125,20.941829093750002,64.18331298828124C20.83849609375,64.36831298828125,20.77682909375,64.56831298828125,20.75849609375,64.78164298828125L20.39182939375,65.62998298828126C20.37349609375,65.67831298828125,20.35849609375,65.72664298828126,20.34849609375,65.77498298828125Q20.33349609375,65.87831298828125,20.33349609375,65.93664298828125C20.33349609375,66.27664298828125,20.44016309375,66.57164298828125,20.65516309375,66.81998298828125C20.87016309375,67.06831298828125,21.13849609375,67.23164298828125,21.46016609375,67.30831298828124L23.11349609375,67.39664298828126C23.19182609375,67.53331298828125,23.29182609375,67.63998298828125,23.41349609375,67.71831298828126C23.53516609375,67.79664298828125,23.68016609375,67.83498298828125,23.84516609375,67.83498298828125C24.05016609375,67.83498298828125,24.23516609375,67.76164298828125,24.40182609375,67.61498298828126L24.40182609375,69.85001298828125C24.40182609375,70.49331298828125,24.39682609375,71.00831298828125,24.38682609375,71.39161298828125C24.37682609375,71.77661298828124,24.36682609375,72.08161298828125,24.35682609375,72.30661298828124L24.31349609375,72.87501298828126L26.420166093749998,72.87501298828126C26.391826093749998,72.55331298828125,26.36682609375,72.21831298828126,26.34682609375,71.86661298828125C26.32849609375,71.57501298828124,26.31182609375,71.24501298828125,26.29682609375,70.88001298828125C26.28182609375,70.51501298828126,26.275166093750002,70.15331298828124,26.275166093750002,69.79161298828124L26.275166093750002,67.35331298828125L28.55682609375,67.32331298828124L28.83516609375,67.32331298828124C28.93349609375,67.32331298828124,29.02016609375,67.31998298828125,29.09849609375,67.30831298828124C29.196826093749998,67.30831298828124,29.28849609375,67.30498298828125,29.376826093749997,67.29498298828125Z" fill-rule="evenodd" fill="url(#master_svg2_48_2358)"/><path d="M75.08,67.71831298828126C75.20167000000001,67.79664298828125,75.34667,67.83498298828125,75.51167,67.83498298828125C75.71667,67.83498298828125,75.90167,67.76164298828125,76.06833,67.61498298828126L76.06833,69.85001298828125C76.06833,70.49331298828125,76.06333,71.00831298828125,76.05333,71.39161298828125C76.04333,71.77661298828124,76.03333,72.08161298828125,76.02333,72.30661298828124L75.98,72.87501298828126L78.08667,72.87501298828126C78.05833,72.55331298828125,78.03333,72.21831298828126,78.01333,71.86661298828125C77.995,71.57501298828124,77.97833,71.24501298828125,77.96333,70.88001298828125C77.94833,70.51501298828126,77.94167,70.15331298828124,77.94167,69.79161298828124L77.94167,67.35331298828125L80.22333,67.32331298828124L80.50167,67.32331298828124C80.6,67.32331298828124,80.68666999999999,67.31998298828125,80.765,67.30831298828124C80.86333,67.30831298828124,80.955,67.30498298828125,81.04333,67.29498298828125C81.27833,67.19831298828124,81.46833,67.04331298828126,81.61333,66.83331298828125C81.76,66.62498298828125,81.83333,66.38331298828125,81.83333,66.10998298828125L81.80333,65.92164298828125L81.745,65.68831298828125C81.71667,65.59998298828125,81.69167,65.51664298828125,81.67167,65.43831298828125L81.42332999999999,64.94331298828125C81.47167,64.76664298828125,81.49667,64.60164298828126,81.49667,64.44664298828125C81.49667,64.06664298828125,81.39,63.72998298828125,81.175,63.438312988281254C80.96000000000001,63.14664298828125,80.68666999999999,62.94164298828125,80.355,62.82331298828125L78.51167,59.21664298828125C78.375,58.91331298828125,78.16667,58.66997998828125,77.89,58.48497998828125C77.61167,58.29997968828125,77.29667,58.20831298828125,76.94667,58.20831298828125C76.54667,58.20831298828125,76.22,58.32997998828125,75.965,58.57331298828125C75.71167,58.81664598828125,75.49333,59.10831298828125,75.30667,59.44998298828125L75.29167,59.44998298828125L72.995,63.70164298828125C72.838333,63.83664298828125,72.71,63.99831298828125,72.608333,64.18331298828124C72.505,64.36831298828125,72.443333,64.56831298828125,72.425,64.78164298828125L72.0583333,65.62998298828126C72.04,65.67831298828125,72.025,65.72664298828126,72.015,65.77498298828125Q72,65.87831298828125,72,65.93664298828125C72,66.27664298828125,72.106667,66.57164298828125,72.321667,66.81998298828125C72.536667,67.06831298828125,72.805,67.23164298828125,73.12667,67.30831298828124L74.78,67.39664298828126C74.85833,67.53331298828125,74.95833,67.63998298828125,75.08,67.71831298828126Z" fill-rule="evenodd" fill="url(#master_svg3_48_2358)"/><path d="M75.34667,66.655C75.385,66.51833,75.405,66.38833,75.405,66.26667C75.405,65.96833,75.32167,65.705,75.15333,65.47667C74.98667,65.24667,74.77333,65.08667,74.515,64.99333L73.07667000000001,62.165C72.97,61.928333,72.80833,61.736667,72.59167,61.591667C72.375,61.4466667,72.13,61.375,71.85667,61.375C71.545,61.375,71.29,61.47,71.09167,61.661667C70.89333,61.851667,70.72333,62.081667,70.57833,62.348333L70.56667,62.348333L68.776667,65.68167C68.653333,65.78833,68.553333,65.915,68.473333,66.06C68.393333,66.205,68.345,66.36167,68.331667,66.53L68.0466667,67.19333C68.03,67.23167,68.02,67.27,68.0116667,67.30833Q68,67.38833,68,67.435C68,67.70167000000001,68.0833333,67.93167,68.25,68.12833C68.418333,68.32167,68.626667,68.45,68.878333,68.51L70.16667,68.58C70.22833,68.68667,70.30667,68.77,70.40167,68.83167C70.49667,68.89333,70.60833,68.92332999999999,70.73833,68.92332999999999C70.89833,68.92332999999999,71.04167,68.86667,71.17167,68.75167L71.17167,70.50333C71.17167,71.00667,71.16833,71.4117,71.16,71.71170000000001C71.15333,72.0133,71.145,72.2533,71.13667,72.42830000000001L71.10333,72.875L72.745,72.875C72.72333,72.6233,72.705,72.36,72.68833,72.08500000000001C72.67332999999999,71.8567,72.66,71.5967,72.64833,71.31166999999999C72.63833,71.025,72.63167,70.74,72.63167,70.45833L72.63167,68.545L74.41167,68.52167L74.62833,68.52167C74.705,68.52167,74.77333,68.51833,74.83333,68.51C74.91,68.51,74.98167,68.50667,75.05,68.5C75.23333,68.42332999999999,75.38167,68.30333,75.495,68.13833C75.61,67.975,75.66667,67.785,75.66667,67.57167L75.64333,67.42332999999999L75.59833,67.24C75.575,67.17167,75.55667,67.105,75.54167,67.045L75.34667,66.655Z" fill-rule="evenodd" fill="url(#master_svg4_48_2358)"/></g><path d="M73.29470390624999,71.20905701171876C66.85500390625,69.87631001171874,57.64370390625,69.04168701171875,47.41650390625,69.04168701171875C27.95150390625,69.04168701171875,12.16650390625,72.06501701171875,12.16650390625,75.79168701171875C12.16650390625,78.64005701171875,21.387833906250002,81.07758701171875,34.42570390625,82.06828701171875C35.95420390625,85.55078701171875,44.06270390625,88.20838701171874,53.83320390625,88.20838701171874C64.69320390625,88.20838701171874,73.49980390625001,84.92498701171876,73.49980390625001,80.87498701171874C73.49980390625001,80.69588701171875,73.48270390625001,80.51818701171875,73.44870390625,80.34218701171875C74.76230390625,80.06688701171875,75.95830390625,79.77058701171875,77.02170390625,79.45628701171876C81.47980390625,78.86475701171875,84.66650390625,77.29773701171875,84.66650390625,75.45835701171875C84.66650390625,73.13760701171876,79.59370390625,71.25043701171874,73.29470390624999,71.20905701171876Z" fill-rule="evenodd" fill="#E4E9F7" fill-opacity="1"/><g style="opacity:0.5;"><path d="M40.50927734375,116.43229169921875L70.00927734375,123.33569169921876L59.32097734375,78.65399169921875L48.70427734375,78.65399169921875L40.50927734375,116.43229169921875Z" fill-rule="evenodd" transform="matrix(0.6427876353263855,-0.7660444378852844,0.7660444378852844,0.6427876353263855,-45.78203810748164,59.12808495782883)" fill="url(#master_svg5_48_2406)"/></g><g><path d="M48.16650390625,54.875L48.16650390625,63.27333L64.72980390625,65.2083L64.99980390625001,56.99167L48.16650390625,54.875Z" fill-rule="evenodd" fill="url(#master_svg6_48_2456)"/><path d="M34.83349609375,67.0417L48.16679609375,64.31833L48.16349609375,54.875L34.83349609375,57.615L34.83349609375,67.0417Z" fill-rule="evenodd" fill="url(#master_svg7_48_2443)"/><path d="M50.5,78.70838701171874L64.8333,75.01338701171875L64.8333,57.54168701171875L50.5,61.23668701171875L50.5,78.70838701171874Z" fill-rule="evenodd" fill="url(#master_svg8_48_2446)"/><path d="M35,75.22838701171875L50.575,78.70838701171874L50.6667,61.16668701171875L35,58.04168701171875L35,75.22838701171875Z" fill-rule="evenodd" fill="url(#master_svg9_48_2388)"/><path d="M34.861670000000004,57.875L31.5,64.07L47.5733,67.875L50.6667,61.23833L34.861670000000004,57.875Z" fill-rule="evenodd" fill="url(#master_svga_48_2453)"/><path d="M54.92317390625,67.87501298828126L68.66650390625,63.36164298828125L65.01480390625,57.20831298828125L50.66650390625,61.16164298828125L54.92317390625,67.87501298828126Z" fill-rule="evenodd" fill="url(#master_svgb_48_2450)"/></g><g><path d="M40.53127396484375,45.49463244628906Q34.85290396484375,43.32833244628906,33.54312196484375,40.032572446289066Q32.23029396484375,36.729202446289065,35.30765396484375,32.322420946289064L35.44430396484375,32.41784394628906Q32.41832396484375,36.751052446289066,33.69800496484375,39.97102244628906Q34.98077396484375,43.198732446289064,40.59068396484375,45.338932446289064L40.53127396484375,45.49463244628906Z" fill="url(#master_svgc_48_2426)"/><path d="M37.72934318359375,47.08482971191406Q36.00110318359375,47.08482971191406,33.91108498359375,44.48706741191406L34.04094138359375,44.38259201191406Q36.08092318359375,46.918159711914065,37.72934318359375,46.918159711914065L37.72934318359375,47.08482971191406Z" fill="url(#master_svgd_48_2426)"/><path d="M52.58835531484375,35.70080695800781Q67.39630771484374,32.60517695800781,67.12210771484375,24.906972968007814L67.28870771484375,24.90104094800781Q67.56780771484375,32.73957695800781,52.62246011484375,35.86390695800781L52.58835531484375,35.70080695800781Z" fill="url(#master_svge_48_2430)"/><path d="M62.81878662109375,34.395608520507814Q64.84682662109375,34.39561852050781,68.47359662109375,31.356733720507812L68.58063662109375,31.484483320507813Q64.90741662109374,34.562268520507814,62.81878662109375,34.56227852050781L62.81878662109375,34.395608520507814Z" fill="url(#master_svgf_48_2433)"/><path d="M46.36603073984375,50.63052164550781Q50.07991833984375,41.43635164550781,64.50999833984375,43.178996645507816L64.48999833984375,43.34446164550781Q50.18665833984375,41.617141645507814,46.52056593984375,50.692941645507815L46.36603073984375,50.63052164550781Z" fill="url(#master_svgg_48_2420)"/><path d="M42.09944099609375,41.06899971191406Q43.639440996093754,37.70232971191406,35.15277099609375,36.37232971191406Q40.56110099609375,44.43399971191406,42.09944099609375,41.06899971191406Z" fill-rule="evenodd" fill="url(#master_svgh_48_2417)"/><path d="M61.96161865234375,28.490278450195312Q56.71328865234375,27.025281450195312,55.47161865234375,31.42028145019531Q61.734948652343746,30.506941450195313,61.96161865234375,28.490278450195312Z" fill-rule="evenodd" fill="url(#master_svgi_48_2417)"/><path d="M58.71591630859375,48.53527600878906Q51.75921630859375,45.290279008789064,47.88421630859375,52.82693900878906Q55.47088630859375,54.53860900878907,58.71591630859375,48.53527600878906Z" fill-rule="evenodd" fill="url(#master_svgj_48_2417)"/><path d="M57.19577115234375,30.421462177539063Q55.67794115234375,30.981262977539064,54.74244165234375,32.98519697753906L54.59142065234375,32.914696977539066Q55.55592715234375,30.84862197753906,57.13809115234375,30.265091777539062L57.19577115234375,30.421462177539063Z" fill="url(#master_svgk_48_2436)"/><path d="M42.25264412109375,43.82053283691406Q42.25264412109375,40.88341483691406,40.54214672109375,40.486711536914065L40.57980152109375,40.32435413691406Q42.41931412109375,40.75098383691406,42.41930412109375,43.82053283691406L42.25264412109375,43.82053283691406Z" fill="url(#master_svgl_48_2423)"/><path d="M50.77679443359375,51.76743059003906Q48.26886443359375,51.76743059003906,46.85060063359375,54.472787290039065L46.70298823359375,54.39540729003906Q48.16806443359375,51.60076379003906,50.77679443359375,51.60076399003906L50.77679443359375,51.76743059003906Z" fill="url(#master_svgm_48_2436)"/></g></g></g></g></g></g></g></g></g></svg>