<svg xmlns="http://www.w3.org/2000/svg" xmlns:xlink="http://www.w3.org/1999/xlink" fill="none" version="1.1" width="26" height="26" viewBox="0 0 26 26"><clipPath id="master_svg0_48_4526"><rect x="0" y="0" width="26" height="26" rx="0"/></clipPath><g style="mix-blend-mode:passthrough"><g><g clip-path="url(#master_svg0_48_4526)"><g><rect x="0" y="0" width="26" height="26" rx="0" fill="#FFFFFF" fill-opacity="0.009999999776482582"/><path d="M3.04150390625,12.99998701171875Q3.04150390625,15.02658701171875,3.8237239062499997,16.87598701171875Q4.57953390625,18.66288701171875,5.958233906249999,20.04158701171875Q7.33692390625,21.42028701171875,9.123873906250001,22.17618701171875Q10.97324390625,22.95838701171875,12.99980390625,22.95838701171875Q15.02640390625,22.95838701171875,16.87580390625,22.17608701171875Q18.66270390625,21.42028701171875,20.04140390625,20.04158701171875Q21.42010390625,18.66288701171875,22.17600390625,16.87598701171875Q22.95820390625,15.02658701171875,22.95820390625,12.99998701171875Q22.95820390625,10.97342701171875,22.17590390625,9.124057011718751Q21.42010390625,7.33710701171875,20.04140390625,5.958417011718749Q18.66270390625,4.5797070117187495,16.87580390625,3.8239070117187497Q15.02640390625,3.04168701171875,12.99980390625,3.04168701171875Q10.97323390625,3.04168701171875,9.123873906250001,3.8239070117187497Q7.33693390625,4.57971701171875,5.958233906249999,5.958417011718749Q4.57953390625,7.33711701171875,3.8237239062499997,9.124057011718751Q3.04150390625,10.97341701171875,3.04150390625,12.99998701171875ZM1.29150390625,12.99998701171875Q1.29150390625,10.61854701171875,2.21196140625,8.442337011718749Q3.10073790625,6.34103701171875,4.72079390625,4.72097701171875Q6.34085390625,3.10092101171875,8.442153906249999,2.21214461171875Q10.61836390625,1.29168701171875,12.99980390625,1.29168701171875Q15.38130390625,1.29168701171875,17.55750390625,2.21214451171875Q19.65880390625,3.10092101171875,21.27890390625,4.72097701171875Q22.89890390625,6.34102701171875,23.78770390625,8.442337011718749Q24.70820390625,10.61854701171875,24.70820390625,12.99998701171875Q24.70820390625,15.38148701171875,23.78770390625,17.55768701171875Q22.89890390625,19.65898701171875,21.27890390625,21.27908701171875Q19.65880390625,22.89908701171875,17.55750390625,23.78788701171875Q15.38130390625,24.70838701171875,12.99980390625,24.70838701171875Q10.61836390625,24.70838701171875,8.442153906249999,23.78788701171875Q6.34084390625,22.89908701171875,4.72079390625,21.27908701171875Q3.10073990625,19.65898701171875,2.21196160625,17.55768701171875Q1.29150390625,15.38148701171875,1.29150390625,12.99998701171875Z" fill="#F7F7F7" fill-opacity="1"/><path d="M9.31731715625,15.445331015625001L15.445575156250001,9.317073015625Q15.50650515625,9.256134015625,15.57816515625,9.208255015625Q15.64982515625,9.160376015625,15.72944515625,9.127397015625Q15.80906515625,9.094417015625,15.893585156250001,9.077604015624999Q15.978105156249999,9.060791015625,16.06428515625,9.060791015625Q16.15046515625,9.060791015625,16.23499515625,9.077604015624999Q16.31951515625,9.094417015625,16.39913515625,9.127397015625Q16.47875515625,9.160376015625,16.55041515625,9.208255015625Q16.62206515625,9.256134015625,16.68300515625,9.317073015625Q16.74394515625,9.378011015625,16.79182515625,9.449667015625Q16.839705156249998,9.521323015625,16.87268515625,9.600943015625Q16.905665156250002,9.680563015625,16.92247515625,9.765087015625Q16.93928515625,9.849611015625,16.93928515625,9.935791015625Q16.93928515625,10.021971015625,16.92247515625,10.106495015625Q16.905665156250002,10.191019015625,16.87268515625,10.270639015625Q16.839705156249998,10.350259015625,16.79182515625,10.421915015625Q16.74394515625,10.493571015625,16.68300515625,10.554509015625L10.55475315625,16.682761015625Q10.49381515625,16.743701015625,10.42215915625,16.791581015625Q10.35050315625,16.839461015624998,10.27088315625,16.872441015625Q10.19126315625,16.905421015625002,10.10673915625,16.922231015625Q10.02221515625,16.939041015625,9.93603515625,16.939041015625Q9.84985515625,16.939041015625,9.76533115625,16.922231015625Q9.68080715625,16.905421015625002,9.60118715625,16.872441015625Q9.52156715625,16.839461015624998,9.44991115625,16.791581015625Q9.37825515625,16.743701015625,9.31731715625,16.682761015625Q9.25637815625,16.621821015625,9.20849915625,16.550171015625Q9.16062015625,16.478511015625,9.12764115625,16.398891015625Q9.09466115625,16.319271015625,9.077848156249999,16.234751015625Q9.06103515625,16.150221015625,9.06103515625,16.064041015625Q9.06103515625,15.977861015624999,9.077848156249999,15.893341015625001Q9.09466115625,15.808821015625,9.12764115625,15.729201015625Q9.16062015625,15.649581015625,9.20849915625,15.577921015625Q9.25637815625,15.506261015625,9.31731715625,15.445331015625001ZM10.81103515625,16.064041015625Q10.81103515625,16.150221015625,10.794222156250001,16.234751015625Q10.77740915625,16.319271015625,10.74442915625,16.398891015625Q10.71145015625,16.478511015625,10.66357115625,16.550171015625Q10.61569215625,16.621821015625,10.55475315625,16.682761015625Q10.49381515625,16.743701015625,10.42215915625,16.791581015625Q10.35050315625,16.839461015624998,10.27088315625,16.872441015625Q10.19126315625,16.905421015625002,10.10673915625,16.922231015625Q10.02221515625,16.939041015625,9.93603515625,16.939041015625Q9.84985515625,16.939041015625,9.76533115625,16.922231015625Q9.68080715625,16.905421015625002,9.60118715625,16.872441015625Q9.52156715625,16.839461015624998,9.44991115625,16.791581015625Q9.37825515625,16.743701015625,9.31731715625,16.682761015625Q9.25637815625,16.621821015625,9.20849915625,16.550171015625Q9.16062015625,16.478511015625,9.12764115625,16.398891015625Q9.09466115625,16.319271015625,9.077848156249999,16.234751015625Q9.06103515625,16.150221015625,9.06103515625,16.064041015625Q9.06103515625,15.977861015624999,9.077848156249999,15.893341015625001Q9.09466115625,15.808821015625,9.12764115625,15.729201015625Q9.16062015625,15.649581015625,9.20849915625,15.577921015625Q9.25637815625,15.506261015625,9.31731715625,15.445331015625001Q9.37825515625,15.384391015624999,9.44991115625,15.336511015625Q9.52156715625,15.288631015625,9.60118715625,15.255651015625Q9.68080715625,15.222671015625,9.76533115625,15.205861015625Q9.84985515625,15.189041015625001,9.93603515625,15.189041015625001Q10.02221515625,15.189041015625001,10.10673915625,15.205861015625Q10.19126315625,15.222671015625,10.27088315625,15.255651015625Q10.35050315625,15.288631015625,10.42215915625,15.336511015625Q10.49381515625,15.384391015624999,10.55475315625,15.445331015625001Q10.61569215625,15.506261015625,10.66357115625,15.577921015625Q10.71145015625,15.649581015625,10.74442915625,15.729201015625Q10.77740915625,15.808821015625,10.794222156250001,15.893341015625001Q10.81103515625,15.977861015624999,10.81103515625,16.064041015625ZM16.93928515625,9.935791015625Q16.93928515625,10.021971015625,16.92247515625,10.106495015625Q16.905665156250002,10.191019015625,16.87268515625,10.270639015625Q16.839705156249998,10.350259015625,16.79182515625,10.421915015625Q16.74394515625,10.493571015625,16.68300515625,10.554509015625Q16.62206515625,10.615448015625,16.55041515625,10.663327015625Q16.47875515625,10.711206015625,16.39913515625,10.744185015625Q16.31951515625,10.777165015625,16.23499515625,10.793978015625001Q16.15046515625,10.810791015625,16.06428515625,10.810791015625Q15.978105156249999,10.810791015625,15.893585156250001,10.793978015625001Q15.80906515625,10.777165015625,15.72944515625,10.744185015625Q15.64982515625,10.711206015625,15.57816515625,10.663327015625Q15.50650515625,10.615448015625,15.445575156250001,10.554509015625Q15.384635156249999,10.493571015625,15.33675515625,10.421915015625Q15.28887515625,10.350259015625,15.25589515625,10.270639015625Q15.22291515625,10.191019015625,15.20610515625,10.106495015625Q15.189285156250001,10.021971015625,15.189285156250001,9.935791015625Q15.189285156250001,9.849611015625,15.20610515625,9.765087015625Q15.22291515625,9.680563015625,15.25589515625,9.600943015625Q15.28887515625,9.521323015625,15.33675515625,9.449667015625Q15.384635156249999,9.378011015625,15.445575156250001,9.317073015625Q15.50650515625,9.256134015625,15.57816515625,9.208255015625Q15.64982515625,9.160376015625,15.72944515625,9.127397015625Q15.80906515625,9.094417015625,15.893585156250001,9.077604015624999Q15.978105156249999,9.060791015625,16.06428515625,9.060791015625Q16.15046515625,9.060791015625,16.23499515625,9.077604015624999Q16.31951515625,9.094417015625,16.39913515625,9.127397015625Q16.47875515625,9.160376015625,16.55041515625,9.208255015625Q16.62206515625,9.256134015625,16.68300515625,9.317073015625Q16.74394515625,9.378011015625,16.79182515625,9.449667015625Q16.839705156249998,9.521323015625,16.87268515625,9.600943015625Q16.905665156250002,9.680563015625,16.92247515625,9.765087015625Q16.93928515625,9.849611015625,16.93928515625,9.935791015625Z" fill="#F7F7F7" fill-opacity="1"/><path d="M15.445575156250001,16.682761015625L9.31731715625,10.554509015625Q9.25637815625,10.493571015625,9.20849915625,10.421915015625Q9.16062015625,10.350259015625,9.12764115625,10.270639015625Q9.09466115625,10.191019015625,9.077848156249999,10.106495015625Q9.06103515625,10.021971015625,9.06103515625,9.935791015625Q9.06103515625,9.849611015625,9.077848156249999,9.765087015625Q9.09466115625,9.680563015625,9.12764115625,9.600943015625Q9.16062015625,9.521323015625,9.20849915625,9.449667015625Q9.25637815625,9.378011015625,9.31731715625,9.317073015625Q9.37825515625,9.256134015625,9.44991115625,9.208255015625Q9.52156715625,9.160376015625,9.60118715625,9.127397015625Q9.68080715625,9.094417015625,9.76533115625,9.077604015624999Q9.84985515625,9.060791015625,9.93603515625,9.060791015625Q10.02221515625,9.060791015625,10.10673915625,9.077604015624999Q10.19126315625,9.094417015625,10.27088315625,9.127397015625Q10.35050315625,9.160376015625,10.42215915625,9.208255015625Q10.49381515625,9.256134015625,10.55475315625,9.317073015625L16.68300515625,15.445331015625001Q16.74394515625,15.506261015625,16.79182515625,15.577921015625Q16.839705156249998,15.649581015625,16.87268515625,15.729201015625Q16.905665156250002,15.808821015625,16.92247515625,15.893341015625001Q16.93928515625,15.977861015624999,16.93928515625,16.064041015625Q16.93928515625,16.150221015625,16.92247515625,16.234751015625Q16.905665156250002,16.319271015625,16.87268515625,16.398891015625Q16.839705156249998,16.478511015625,16.79182515625,16.550171015625Q16.74394515625,16.621821015625,16.68300515625,16.682761015625Q16.62206515625,16.743701015625,16.55041515625,16.791581015625Q16.47875515625,16.839461015624998,16.39913515625,16.872441015625Q16.31951515625,16.905421015625002,16.23499515625,16.922231015625Q16.15046515625,16.939041015625,16.06428515625,16.939041015625Q15.978105156249999,16.939041015625,15.893585156250001,16.922231015625Q15.80906515625,16.905421015625002,15.72944515625,16.872441015625Q15.64982515625,16.839461015624998,15.57816515625,16.791581015625Q15.50650515625,16.743701015625,15.445575156250001,16.682761015625ZM16.93928515625,16.064041015625Q16.93928515625,16.150221015625,16.92247515625,16.234751015625Q16.905665156250002,16.319271015625,16.87268515625,16.398891015625Q16.839705156249998,16.478511015625,16.79182515625,16.550171015625Q16.74394515625,16.621821015625,16.68300515625,16.682761015625Q16.62206515625,16.743701015625,16.55041515625,16.791581015625Q16.47875515625,16.839461015624998,16.39913515625,16.872441015625Q16.31951515625,16.905421015625002,16.23499515625,16.922231015625Q16.15046515625,16.939041015625,16.06428515625,16.939041015625Q15.978105156249999,16.939041015625,15.893585156250001,16.922231015625Q15.80906515625,16.905421015625002,15.72944515625,16.872441015625Q15.64982515625,16.839461015624998,15.57816515625,16.791581015625Q15.50650515625,16.743701015625,15.445575156250001,16.682761015625Q15.384635156249999,16.621821015625,15.33675515625,16.550171015625Q15.28887515625,16.478511015625,15.25589515625,16.398891015625Q15.22291515625,16.319271015625,15.20610515625,16.234751015625Q15.189285156250001,16.150221015625,15.189285156250001,16.064041015625Q15.189285156250001,15.977861015624999,15.20610515625,15.893341015625001Q15.22291515625,15.808821015625,15.25589515625,15.729201015625Q15.28887515625,15.649581015625,15.33675515625,15.577921015625Q15.384635156249999,15.506261015625,15.445575156250001,15.445331015625001Q15.50650515625,15.384391015624999,15.57816515625,15.336511015625Q15.64982515625,15.288631015625,15.72944515625,15.255651015625Q15.80906515625,15.222671015625,15.893585156250001,15.205861015625Q15.978105156249999,15.189041015625001,16.06428515625,15.189041015625001Q16.15046515625,15.189041015625001,16.23499515625,15.205861015625Q16.31951515625,15.222671015625,16.39913515625,15.255651015625Q16.47875515625,15.288631015625,16.55041515625,15.336511015625Q16.62206515625,15.384391015624999,16.68300515625,15.445331015625001Q16.74394515625,15.506261015625,16.79182515625,15.577921015625Q16.839705156249998,15.649581015625,16.87268515625,15.729201015625Q16.905665156250002,15.808821015625,16.92247515625,15.893341015625001Q16.93928515625,15.977861015624999,16.93928515625,16.064041015625ZM10.81103515625,9.935791015625Q10.81103515625,10.021971015625,10.794222156250001,10.106495015625Q10.77740915625,10.191019015625,10.74442915625,10.270639015625Q10.71145015625,10.350259015625,10.66357115625,10.421915015625Q10.61569215625,10.493571015625,10.55475315625,10.554509015625Q10.49381515625,10.615448015625,10.42215915625,10.663327015625Q10.35050315625,10.711206015625,10.27088315625,10.744185015625Q10.19126315625,10.777165015625,10.10673915625,10.793978015625001Q10.02221515625,10.810791015625,9.93603515625,10.810791015625Q9.84985515625,10.810791015625,9.76533115625,10.793978015625001Q9.68080715625,10.777165015625,9.60118715625,10.744185015625Q9.52156715625,10.711206015625,9.44991115625,10.663327015625Q9.37825515625,10.615448015625,9.31731715625,10.554509015625Q9.25637815625,10.493571015625,9.20849915625,10.421915015625Q9.16062015625,10.350259015625,9.12764115625,10.270639015625Q9.09466115625,10.191019015625,9.077848156249999,10.106495015625Q9.06103515625,10.021971015625,9.06103515625,9.935791015625Q9.06103515625,9.849611015625,9.077848156249999,9.765087015625Q9.09466115625,9.680563015625,9.12764115625,9.600943015625Q9.16062015625,9.521323015625,9.20849915625,9.449667015625Q9.25637815625,9.378011015625,9.31731715625,9.317073015625Q9.37825515625,9.256134015625,9.44991115625,9.208255015625Q9.52156715625,9.160376015625,9.60118715625,9.127397015625Q9.68080715625,9.094417015625,9.76533115625,9.077604015624999Q9.84985515625,9.060791015625,9.93603515625,9.060791015625Q10.02221515625,9.060791015625,10.10673915625,9.077604015624999Q10.19126315625,9.094417015625,10.27088315625,9.127397015625Q10.35050315625,9.160376015625,10.42215915625,9.208255015625Q10.49381515625,9.256134015625,10.55475315625,9.317073015625Q10.61569215625,9.378011015625,10.66357115625,9.449667015625Q10.71145015625,9.521323015625,10.74442915625,9.600943015625Q10.77740915625,9.680563015625,10.794222156250001,9.765087015625Q10.81103515625,9.849611015625,10.81103515625,9.935791015625Z" fill="#F7F7F7" fill-opacity="1"/></g></g></g></g></svg>