<svg xmlns="http://www.w3.org/2000/svg" xmlns:xlink="http://www.w3.org/1999/xlink" fill="none" version="1.1" width="54.000003814697266" height="53.999996185302734" viewBox="0 0 54.000003814697266 53.999996185302734"><defs><mask id="master_svg0_153_6570"><g style="mix-blend-mode:passthrough"><rect x="0" y="0" width="54.000003814697266" height="53.999996185302734" rx="0" fill="#FFFFFF" fill-opacity="1"/></g></mask></defs><clipPath id="master_svg1_153_6358"><rect x="15.697265625" y="7.128570556640625" width="22.604328155517578" height="19.064687728881836" rx="0"/></clipPath><g style="mix-blend-mode:passthrough"><g><g style="mix-blend-mode:passthrough"><g><g style="mix-blend-mode:passthrough"><rect x="0" y="0" width="54.000003814697266" height="53.999996185302734" rx="0" fill="#F4F4F4" fill-opacity="1"/></g></g><g mask="url(#master_svg0_153_6570)"><g style="mix-blend-mode:passthrough"><g><g style="mix-blend-mode:passthrough"><path d="M35.9854140625,23.654905517578126L36.1142140625,23.605605517578127C36.1515140625,23.565805517578127,36.2006140625,23.516105517578126,36.2598140625,23.461605517578125C36.4020140625,23.330605517578125,36.6061140625,23.169105517578124,36.8483140625,23.055505517578126C37.0908140625,22.941805517578125,37.3784140625,22.872905517578126,37.6819140625,22.939205517578124C37.9874140625,23.005805517578125,38.2917140625,23.205505517578125,38.5721140625,23.595205517578123L38.5721140625,23.595305517578126C38.8630140625,24.000805517578126,38.9379140625,24.617205517578125,38.8783140625,25.288905517578126C38.8180140625,25.966505517578128,38.6191140625,26.727205517578124,38.3324140625,27.446905517578124C38.0454140625,28.166605517578127,37.6679140625,28.852005517578124,37.2463140625,29.376905517578123C36.8280140625,29.897705517578125,36.3507140625,30.279805517578126,35.8608140625,30.354505517578126L35.8518140625,30.355905517578126L35.5210140625,30.355905517578126C34.9684140625,33.66520551757813,33.9176140625,35.80840551757812,31.6794140625,37.19730551757813L31.6784140625,37.21090551757813L31.6784140625,37.211105517578126L31.6780140625,37.21610551757813C31.6777140625,37.21970551757812,31.6773140625,37.22530551757812,31.6768140625,37.23260551757812C31.6758140625,37.247205517578124,31.6743140625,37.26920551757813,31.6725140625,37.29780551757813C31.6689140625,37.35520551757813,31.6640140625,37.439705517578126,31.6590140625,37.54770551757812C31.6490140625,37.76360551757813,31.6385140625,38.073005517578125,31.6365140625,38.446505517578125C31.6326140625,39.19390551757812,31.6629140625,40.195005517578124,31.7994140625,41.21370551757812C31.9361140625,42.23410551757813,32.1781140625,43.26280551757812,32.592614062500004,44.07080551757812C33.0062140625,44.87710551757812,33.5834140625,45.44940551757813,34.3891140625,45.59340551757813C36.0992140625,45.898805517578126,40.1814140625,46.91430551757813,43.8122140625,49.26190551757813C47.4447140625,51.610905517578125,50.6432140625,55.30660551757813,50.5321140625,60.968805517578126L50.5321140625,60.969205517578125L50.5210140625,61.382305517578125L3.4619140625,61.382305517578125L3.4700901625,61.03520551757813C3.3305660625,55.347805517578124,6.4349240625,51.58900551757812,9.984184062499999,49.18310551757813C13.5316140625,46.77860551757812,17.538914062499998,45.71330551757813,19.2534140625,45.40770551757812C20.0625140625,45.263105517578126,20.6658140625,44.69920551757812,21.1174140625,43.90870551757813C21.5696140625,43.11700551757812,21.8616140625,42.11080551757813,22.0486140625,41.113705517578126C22.2353140625,40.118205517578126,22.3159140625,39.140205517578124,22.3497140625,38.410305517578124C22.3666140625,38.045605517578124,22.3717140625,37.743405517578125,22.3727140625,37.532605517578126C22.3732140625,37.42730551757813,22.3726140625,37.34480551757812,22.3719140625,37.288805517578126C22.3716140625,37.262405517578124,22.3713140625,37.24200551757812,22.3710140625,37.227805517578126C20.0964140625,35.84190551757813,19.0370140625,33.69150551757812,18.4783140625,30.358605517578123L18.471914062499998,30.355905517578126L18.1495140625,30.355905517578126L18.1405140625,30.354505517578126C17.6506140625,30.279805517578126,17.173114062499998,29.897705517578125,16.7547140625,29.377005517578127C16.332914062500002,28.852005517578124,15.9551140625,28.166605517578127,15.6681140625,27.446905517578124C15.3810140625,26.727205517578124,15.1820140625,25.966505517578128,15.1221140625,25.288905517578126C15.0627140625,24.617205517578125,15.1378140625,24.000605517578123,15.4292140625,23.595205517578123L15.4292140625,23.595205517578123C15.7096140625,23.205505517578125,16.0139140625,23.005805517578125,16.3194140625,22.939205517578124C16.6229140625,22.872905517578126,16.9105140625,22.941805517578125,17.1530140625,23.055505517578126C17.3952140625,23.169105517578124,17.5993140625,23.330605517578125,17.7416140625,23.461605517578125C17.7975140625,23.513105517578126,17.8444140625,23.560405517578126,17.8810140625,23.599105517578124C17.885014062499998,23.603305517578125,17.8871140625,23.605605517578127,17.8871140625,23.605605517578127C17.8553140625,22.945405517578124,17.8274140625,22.256505517578127,17.799614062499998,21.541405517578127C17.611814062500002,16.799355517578125,19.2989140625,14.054275517578125,21.2534140625,12.474045517578125C23.2005140625,10.899786517578125,25.3985140625,10.492845517578125,26.2250140625,10.392133717578124L26.2323140625,10.391247817578124L26.2455140625,10.391247817578124L26.6554140625,10.359405517578125L27.4276140625,10.359405517578125L27.4303140625,10.359530951578124L27.4249140625,10.490072517578126C27.4303140625,10.359839591578124,27.4304140625,10.359536429578124,27.4306140625,10.359542096578124L27.4310140625,10.359563431578126L27.4325140625,10.359638076578126L27.4380140625,10.359927892578124C27.4427140625,10.360188256578125,27.4496140625,10.360589207578125,27.4586140625,10.361168317578125C27.4765140625,10.362326507578125,27.5028140625,10.364197417578126,27.5368140625,10.367081757578125C27.6047140625,10.372850017578125,27.7037140625,10.382673517578125,27.8292140625,10.398959617578125C28.0801140625,10.431526717578125,28.4371140625,10.489969517578125,28.8638140625,10.593606517578126C29.7167140625,10.800756517578124,30.8510140625,11.189187517578125,31.9732140625,11.914905517578125C34.2258140625,13.371525517578124,36.2864140625,16.171585517578123,36.0756140625,21.535905517578126C36.0470140625,22.271305517578124,36.0183140625,22.978305517578125,35.9854140625,23.654905517578126ZM18.005014062500003,23.427505517578126L18.005014062500003,23.427505517578126C18.005714062499997,23.442605517578123,18.0064140625,23.457705517578127,18.0071140625,23.472905517578127C18.0064140625,23.457805517578123,18.005714062499997,23.442605517578123,18.005014062500003,23.427505517578126Z" fill-rule="evenodd" fill="#E1E1E1" fill-opacity="1"/></g><g style="mix-blend-mode:passthrough"><path d="M22.3568821875,37.23056508554688C22.3568821875,37.23056508554688,24.8082621875,38.62372018554687,27.0520121875,38.76967018554687C28.0472621875,38.83336018554687,31.220342187500002,37.69228618554688,31.6711421875,37.219940185546875C31.6711421875,37.219940185546875,30.4507221875,45.12533018554687,20.8857421875,44.25758018554687C20.8857421875,44.25758018554687,21.7043481875,43.36420018554688,22.1049421875,40.77522018554688C22.1758521875,40.199390185546875,22.2692821875,39.91831018554687,22.331362187499998,38.58736018554688C22.3568821875,38.040390185546876,22.4184521875,37.566352185546876,22.3568821875,37.23056508554688C22.3568821875,37.23056508554688,22.3568821875,37.23056508554688,22.3568821875,37.23056508554688Z" fill="#C3C3C3" fill-opacity="1"/></g></g></g><g clip-path="url(#master_svg1_153_6358)" style="mix-blend-mode:passthrough"><g><g style="mix-blend-mode:passthrough"><path d="M34.86889296875,17.7036467578125C35.340392968749995,17.4635467578125,35.74569296875,17.1079767578125,36.07179296875,16.6738867578125C36.53879296875,16.0597267578125,36.83839296875,15.2839567578125,36.92219296875,14.4388867578125C36.860492968749995,14.5589567578125,36.79439296875,14.674396757812499,36.719492968750004,14.785226757812499L36.67979296875,14.7575167578125C35.921592968750005,15.0091267578125,35.14149296875,14.0716067578125,34.13419296875,12.8609967578125C32.92309296875,11.4054467578125,31.383492968749998,9.5551167578125,29.15849296875,8.9021777578125C22.74407296875,7.0184367578125,21.00312296875,10.6141867578125,21.125872968750002,11.3261567578125L21.12580296875,11.326136757812499L20.958372968749998,11.358456757812501C15.49029296875,14.3646267578125,17.26158196875,22.621126757812497,17.26158196875,22.621126757812497C17.437829968750002,23.0044267578125,17.79913696875,23.5585267578125,18.20450296875,23.5816267578125C18.71562296875,23.6093267578125,18.99762296875,22.9628267578125,19.06371296875,22.4318267578125C19.15184296875,21.6421267578125,19.07693296875,21.3929267578125,19.17828296875,20.6032267578125C19.41180296875,18.7654267578125,20.74681296875,17.0707567578125,22.60613296875,16.8213167578125L22.60629296875,16.8219767578125C22.63713296875,16.812746757812498,22.66358296875,16.812746757812498,22.69441296875,16.8081167578125C22.77372296875,16.7342267578125,22.85303296875,16.6695967578125,22.93673296875,16.6095567578125C23.712222968749998,16.0461667578125,24.765332968750002,15.986136757812499,25.69943296875,16.1985567578125C26.734912968750002,16.4340567578125,27.690992968750002,16.9604967578125,28.686792968749998,17.3391567578125C30.11449296875,17.884056757812502,31.64339296875,18.1287867578125,33.15469296875,18.0595267578125C33.23399296875,18.0595267578125,33.31339296875,18.054926757812503,33.388192968750005,18.0502967578125C32.62599296875,18.045666757812498,31.872492968750002,17.777846757812497,31.31289296875,17.237576757812498C30.88109296875,16.8173467578125,30.58149296875,16.2678467578125,30.20699296875,15.7875767578125C29.21999296875,14.5315467578125,27.651392968750002,13.7649967578125,26.10479296875,13.908156757812499C24.779602968749998,14.0351167578125,23.51624296875,14.8713467578125,22.86823296875,16.1443067578125C23.51617296875,14.871186757812499,24.77963296875,14.0348567578125,26.10492296875,13.9078467578125C27.65149296875,13.7646967578125,29.220092968750002,14.5312367578125,30.20709296875,15.7872767578125C30.581692968749998,16.2675467578125,30.88129296875,16.817036757812502,31.31309296875,17.237276757812502C31.872692968750002,17.7775467578125,32.62609296875,18.045396757812497,33.38839296875,18.049986757812498L33.41039296875,18.049986757812498C33.61749296875,18.0361367578125,33.82459296875,18.017676757812502,34.027292968750004,17.9899567578125C34.31809296875,17.9345567578125,34.600092968750005,17.8375767578125,34.86889296875,17.7036467578125ZM21.07703296875,15.3845367578125C20.99747296875,15.154716757812501,20.95522296875,14.9113567578125,20.95850296875,14.6651667578125C20.96289296875,14.2865067578125,21.05983296875,13.917076757812499,21.19643296875,13.5615067578125C21.20524296875,13.5384267578125,21.21406296875,13.5153367578125,21.22726296875,13.492246757812499L21.22710296875,13.4920067578125C21.21390296875,13.515046757812499,21.20513296875,13.5380967578125,21.19633296875,13.5611367578125C21.059732968749998,13.9167067578125,20.96279296875,14.2861367578125,20.958372968749998,14.6647967578125C20.95509296875,14.9111267578125,20.99738296875,15.1546067578125,21.07703296875,15.3845367578125ZM20.99795296875,12.981856757812501C20.90688296875,12.6304367578125,20.91846296875,12.2438567578125,21.00254296875,11.8852667578125C21.04662296875,11.7005567578125,21.10391296875,11.5204567578125,21.17440296875,11.3449867578125L21.17416296875,11.3448867578125C21.10372296875,11.5202767578125,21.04647296875,11.7002767578125,21.00245296875,11.8848967578125C20.91833296875,12.2436167578125,20.90677296875,12.6303467578125,20.99795296875,12.981856757812501ZM34.86879296875,17.7042567578125C34.600092968750005,17.838146757812503,34.31809296875,17.935126757812498,34.02719296875,17.9905367578125C33.82459296875,18.0321067578125,33.617392968749996,18.0505667578125,33.41039296875,18.0505667578125L33.38829296875,18.0505667578125C33.31339296875,18.0551967578125,33.234092968750005,18.059826757812502,33.15479296875,18.059826757812502L33.15919296875,18.1844967578125C33.15919296875,18.1844967578125,35.00919296875,21.4169267578125,35.123792968749996,23.9567267578125C35.123792968749996,23.9567267578125,35.15909296875,23.1717267578125,36.02269296875,22.672926757812498C36.02269296875,22.672926757812498,36.95739296875,18.4523267578125,36.07169296875,16.6744567578125C35.74559296875,17.1085567578125,35.34029296875,17.4641267578125,34.86879296875,17.7042567578125Z" fill-rule="evenodd" fill="#707070" fill-opacity="1"/></g><g style="mix-blend-mode:passthrough"><path d="M31.5645015625,16.299991762695313C32.4942015625,16.770991762695314,33.5913015625,16.849481762695312,34.5607015625,16.512401762695312C35.5301015625,16.17992176269531,36.3672015625,15.441061762695313,36.8387015625,14.503651762695313C36.8607015625,14.457481762695313,36.918001562499995,14.439011762695312,36.962101562499996,14.466711762695311C36.9973015625,14.485191762695312,37.0149015625,14.522141762695313,37.0105015625,14.559051762695312C36.9356015625,15.390261762695314,36.6492015625,16.216831762695314,36.1425015625,16.88180176269531C35.6446015625,17.54676176269531,34.926401562500004,18.050121762695312,34.1245015625,18.225591762695313C33.3269015625,18.405691762695312,32.4633015625,18.294851762695313,31.7407015625,17.874621762695313C31.3794015625,17.666831762695313,31.0621015625,17.36207176269531,30.8110015625,17.03418176269531C30.555501562499998,16.706331762695314,30.3395015625,16.364621762695315,30.0972015625,16.05522176269531C29.141101562499998,14.831531762695313,27.5989015625,14.092671762695312,26.1096015625,14.254301762695313C24.6291115625,14.406681762695312,23.2675915625,15.501101762695313,22.7917415625,16.98801176269531L22.7917415625,16.992641762695314C22.7564815625,17.094221762695312,22.6551415625,17.154251762695313,22.5537815625,17.131161762695314C21.9060715625,16.978781762695313,21.3685415625,16.507771762695313,21.0600915625,15.921331762695313C20.9102815625,15.625761762695312,20.8089515625,15.297911762695312,20.7913215625,14.956201762695311C20.773691562499998,14.614491762695312,20.8397915625,14.286621762695312,20.9367315625,13.981841762695312C21.333281562499998,12.762751762695313,22.1704415625,11.742227762695313,23.2059115625,11.123444012695312C23.2147315625,11.118826242695313,23.2279415625,11.118824692695313,23.2367515625,11.132678062695312C23.2411515625,11.141913562695313,23.2411515625,11.155766862695312,23.2279415625,11.165002462695313C22.2541815625,11.866905762695312,21.5315515625,12.919761762695313,21.2098915625,14.074201762695314C21.0468815625,14.651431762695312,21.0953515625,15.247101762695312,21.3773215625,15.741231762695312C21.6190715625,16.17845176269531,22.0160715625,16.521661762695313,22.4645215625,16.66528176269531C23.0033215625,15.083551762695313,24.4818315625,13.934921762695312,26.074341562500003,13.801751762695313C27.735501562499998,13.658601762695312,29.3658015625,14.503651762695313,30.3704015625,15.833581762695314C30.8639015625,16.49854176269531,31.2384015625,17.223541762695312,31.8993015625,17.602201762695312C32.542601562499996,17.99468176269531,33.3358015625,18.114751762695313,34.0760015625,17.957741762695314C34.8162015625,17.80999176269531,35.4948015625,17.357441762695313,35.9707015625,16.738651762695312C36.3633015625,16.241071762695313,36.6288015625,15.634391762695312,36.762201562499996,14.997181762695313C36.2349015625,15.771771762695312,35.4625015625,16.35879176269531,34.5959015625,16.63244176269531C33.5869015625,16.951091762695313,32.4721015625,16.844851762695313,31.5424015625,16.346161762695314C31.5336015625,16.34153176269531,31.5292015625,16.327671762695314,31.5336015625,16.313811762695313C31.5424015625,16.295361762695315,31.555701562499998,16.290731762695312,31.5645015625,16.299991762695313ZM22.8753415625,16.757301762695313C23.3379915625,15.999991762695313,24.0606215625,15.418151762695313,24.8889715625,15.104151762695313C25.2987515625,14.947141762695313,25.7393815625,14.808621762695314,26.1843915625,14.836301762695312C26.6294415625,14.859391762695314,27.074451562500002,14.979451762695312,27.444581562499998,15.238041762695312C27.453401562499998,15.247311762695311,27.4577915625,15.261131762695314,27.4489715625,15.270391762695311C27.444581562499998,15.279621762695314,27.435761562499998,15.279621762695314,27.431341562500002,15.279621762695314C26.995141562500002,15.265761762695313,26.5941715625,15.261131762695314,26.1932015625,15.298081762695311C25.7966615625,15.339661762695313,25.391271562500002,15.348881762695314,24.9991215625,15.455091762695313C24.2148415625,15.672141762695311,23.4701915625,16.120061762695315,22.9150015625,16.78502176269531C22.9061815625,16.79425176269531,22.8929715625,16.79425176269531,22.8841615625,16.78502176269531C22.8709515625,16.780391762695313,22.8665315625,16.766531762695312,22.8753415625,16.757301762695313ZM18.0023815625,22.18358176269531C17.9230695625,22.51148176269531,17.7556375625,22.81158176269531,17.5265155025,23.088681762695312C17.5132969125,23.097881762695312,17.5132969125,23.111781762695312,17.5265155025,23.13028176269531C17.5353278625,23.13948176269531,17.5485463625,23.144081762695315,17.5573587625,23.134881762695315C18.1433835625,22.70538176269531,18.4165635625,21.952681762695313,18.4914715625,21.236981762695315C18.5396215625,20.79398176269531,18.5276815625,20.351031762695314,18.5157985625,19.910151762695314C18.5081075625,19.62484176269531,18.5004395625,19.34039176269531,18.5090955625,19.05737176269531C18.5223115625,18.336971762695313,18.6104415625,17.602741762695313,18.9232815625,16.960901762695315C19.2317115625,16.328251762695313,19.7736715625,15.783351762695313,20.4522315625,15.635601762695313C20.4610415625,15.630971762695314,20.4698515625,15.621741762695311,20.4698515625,15.612481762695312C20.4698515625,15.598651762695312,20.4610415625,15.589391762695312,20.4478215625,15.589391762695312L20.4434115625,15.589391762695312C20.0777015625,15.575561762695312,19.7163915625,15.727951762695312,19.3947415625,15.931131762695312C19.0819015625,16.157381762695312,18.8219315625,16.457541762695314,18.6148415625,16.794661762695313C18.1962555625,17.487311762695313,18.0860985625,18.300021762695312,18.0640685625,19.048111762695314C18.0595495625,19.438801762695313,18.0828345625,19.816131762695314,18.1054095625,20.181971762695312C18.1268625625,20.52961176269531,18.1476745625,20.86689176269531,18.1433805625,21.195381762695312C18.1345685625,21.532481762695312,18.0993185625,21.86038176269531,18.0023815625,22.18358176269531Z" fill-rule="evenodd" fill="#555555" fill-opacity="1"/></g></g></g></g></g></g></g></svg>