<svg xmlns="http://www.w3.org/2000/svg" xmlns:xlink="http://www.w3.org/1999/xlink" fill="none" version="1.1" width="18" height="18" viewBox="0 0 18 18"><clipPath id="master_svg0_56_2138"><rect x="1" y="1" width="16" height="16" rx="0"/></clipPath><g style="mix-blend-mode:passthrough"><g><g clip-path="url(#master_svg0_56_2138)"><g><path d="M8.99990296875,1.9879150390625C5.13236296875,1.9879150390625,1.98779296875,5.121425039062499,1.98779296875,8.9999750390625C1.98779296875,12.8676150390625,5.121302968749999,16.0121150390625,8.99990296875,16.0121150390625C12.86759296875,16.0121150390625,16.01199296875,12.8785150390625,16.01199296875,8.9999750390625C16.01199296875,5.132405039062499,12.87849296875,1.9879148864745,8.99990296875,1.9879150390625ZM8.99990296875,15.0104150390625C5.680532968750001,15.0104150390625,2.9895929687500002,12.3195150390625,2.9895929687500002,8.999995039062501C2.9895929687500002,5.6805650390625,5.680532968750001,2.9896550390625,8.99990296875,2.9896550390625C12.31939296875,2.9896550390625,15.01029296875,5.6805650390625,15.01029296875,8.999995039062501C15.01029296875,12.3195150390625,12.31939296875,15.0104150390625,8.99990296875,15.0104150390625ZM8.99990296875,11.0707950390625C8.60556296875,11.0707950390625,8.27679296875,11.4104550390625,8.27679296875,11.8157850390625C8.27679296875,12.2322150390625,8.60556296875,12.5608150390625,8.99990296875,12.5608150390625C9.40530296875,12.5608150390625,9.72301296875,12.2321150390625,9.72301296875,11.8157850390625C9.72301296875,11.3994750390625,9.394352968749999,11.0707950390625,8.99990296875,11.0707950390625ZM10.89540296875,6.3375950390625C10.72013296875,6.0637150390625,10.46809296875,5.8445350390624995,10.15038296875,5.6802250390625C9.832602968749999,5.5158750390625,9.46002296875,5.4392050390625,9.04371296875,5.4392050390625C8.59449296875,5.4392050390625,8.20015296875,5.5268250390625,7.86043296875,5.7240750390625C7.53170296875,5.9103250390625,7.26882296875,6.1513450390625,7.09345296875,6.4471850390625C6.91818296875,6.7429950390625,6.83059296875,7.0278450390625,6.83059296875,7.3127050390625C6.83059296875,7.4441650390625,6.88532296875,7.5756350390625,6.99491296875,7.6961750390625C7.10450296875,7.8167450390625,7.23599296875,7.8715450390625,7.40031296875,7.8715450390625C7.67422296875,7.8715450390625,7.86043296875,7.7071550390625,7.95907296875,7.3675050390625C8.06866296875,7.0388250390625,8.18920296875,6.7977950390625,8.34257296875,6.6334350390625C8.49597296875,6.4691150390625,8.72601296875,6.3814650390625,9.04371296875,6.3814650390625C9.317622968750001,6.3814650390625,9.536802968749999,6.4691150390625,9.71217296875,6.6334350390625C9.887442968750001,6.7977950390625,9.97502296875,6.9950350390625,9.97502296875,7.2360350390625C9.97502296875,7.3565450390625,9.94219296875,7.4661050390625,9.88743296875,7.5756350390625C9.832602968749999,7.6852250390625,9.76689296875,7.7729350390625,9.679202968750001,7.8605550390625C9.591522968749999,7.9482150390625,9.46002296875,8.0796750390625,9.273802968750001,8.2440250390625C9.06566296875,8.4302850390625,8.89029296875,8.5946650390625,8.769862968750001,8.7370850390625C8.649322968749999,8.8685450390625,8.550692968749999,9.032935039062501,8.47395296875,9.2191850390625C8.39732296875,9.4054150390625,8.36446296875,9.6245950390625,8.36446296875,9.8765150390625C8.36446296875,10.0737650390625,8.41932296875,10.2271650390625,8.51786296875,10.3257650390625C8.62745296875,10.4243750390625,8.747902968750001,10.4791650390625,8.90136296875,10.4791650390625C9.18622296875,10.4791650390625,9.36159296875,10.3147850390625,9.41624296875,10.0080450390625C9.449162968749999,9.8656350390625,9.48193296875,9.7560450390625,9.49297296875,9.7012450390625C9.50383296875,9.6464550390625,9.52593296875,9.5807050390625,9.55866296875,9.5259750390625C9.591522968749999,9.4601950390625,9.63542296875,9.3944450390625,9.690152968749999,9.3286650390625C9.755872968750001,9.2629850390625,9.832602968749999,9.1753350390625,9.93124296875,9.087645039062501C10.28188296875,8.7589450390625,10.52296296875,8.5288850390625,10.66527296875,8.3864750390625C10.79676296875,8.2549450390625,10.91730296875,8.0906250390625,11.01594296875,7.8934150390625C11.12544296875,7.7071550390625,11.16931296875,7.4770850390625,11.15836296875,7.2360550390625C11.15836296875,6.9183050390625,11.07077296875,6.6115350390625,10.89540296875,6.3375950390625Z" fill="#999999" fill-opacity="1"/></g></g></g></g></svg>