<svg xmlns="http://www.w3.org/2000/svg" xmlns:xlink="http://www.w3.org/1999/xlink" fill="none" version="1.1" width="16" height="16" viewBox="-0.75 0 16 16"><clipPath id="master_svg0_110_4036"><rect x="0" y="0" width="15" height="15" rx="0"/></clipPath><g style="mix-blend-mode:passthrough"><g><g clip-path="url(#master_svg0_110_4036)"><g><g><g><rect x="-0.0001678466796875" y="0.000179290771484375" width="15" height="15" rx="0" fill="#FFFFFF" fill-opacity="0.009999999776482582"/><g transform="matrix(-0.7071067690849304,-0.7071067690849304,0.7071067690849304,-0.7071067690849304,-3.1467011313410467,31.371420975839214)"><path d="M5.435247438110352,26.337413787841797Q5.435247438110352,27.937783787841795,6.566883438110351,29.069413787841796Q7.698513438110352,30.201043787841797,9.298883438110352,30.201053787841797Q10.899253438110351,30.201043787841797,12.03088343811035,29.069413787841796Q13.162513438110352,27.937783787841795,13.162523438110352,26.337413787841797Q13.162523438110352,24.7370437878418,12.03088343811035,23.605413787841798Q10.899253438110351,22.473776787841796,9.298883438110352,22.473777787841797Q7.698513438110352,22.473777787841797,6.566883438110351,23.605413787841798Q5.435247438110352,24.7370437878418,5.435247438110352,26.337413787841797ZM4.412519438110351,26.337413787841797Q4.412519438110351,24.313413787841796,5.843702438110352,22.882232787841797Q7.2748834381103515,21.451049787841797,9.298883438110352,21.451049787841797Q11.322883438110352,21.451049787841797,12.754063438110352,22.882232787841797Q14.185243438110351,24.313413787841796,14.185243438110351,26.337413787841797Q14.185243438110351,28.361413787841798,12.754063438110352,29.792593787841795Q11.322883438110352,31.223773787841797,9.298883438110352,31.223773787841797Q7.2748834381103515,31.223773787841797,5.843702438110352,29.792593787841795Q4.412519438110351,28.361413787841798,4.412519438110351,26.337413787841797Z" fill="#E34D59" fill-opacity="1"/><path d="M9.863225953735352,16.337413787841797L9.863225953735352,21.962413787841797Q9.863225953735352,22.012773787841798,9.853399953735352,22.062173787841797Q9.843573953735351,22.1115737878418,9.824299953735352,22.158103787841796Q9.805026953735352,22.204633787841797,9.777044953735352,22.246513787841796Q9.749063953735352,22.288383787841795,9.713450953735352,22.324003787841797Q9.677836953735351,22.359613787841795,9.635959953735352,22.387593787841798Q9.594082953735352,22.415573787841797,9.547551953735352,22.434853787841796Q9.50102095373535,22.454123787841798,9.451624053735351,22.463953787841795Q9.402226853735351,22.473773787841797,9.351861953735352,22.473773787841797Q9.301497053735352,22.473773787841797,9.252099853735352,22.463953787841795Q9.202702953735352,22.454123787841798,9.15617195373535,22.434853787841796Q9.10964095373535,22.415573787841797,9.067763953735351,22.387593787841798Q9.025886953735352,22.359613787841795,8.990272953735351,22.324003787841797Q8.954659953735352,22.288383787841795,8.926678953735351,22.246513787841796Q8.898696953735351,22.204633787841797,8.879423953735351,22.158103787841796Q8.860149953735352,22.1115737878418,8.850323953735352,22.062173787841797Q8.840497953735351,22.012773787841798,8.840497953735351,21.962413787841797L8.840497953735351,16.337413787841797Q8.840497953735351,16.287048887841795,8.850323953735352,16.237651687841797Q8.860149953735352,16.188254787841796,8.879423953735351,16.141723787841798Q8.898696953735351,16.095192787841796,8.926678953735351,16.053315787841797Q8.954659953735352,16.011438787841797,8.990272953735351,15.975824787841796Q9.025886953735352,15.940211787841797,9.067763953735351,15.912230787841796Q9.10964095373535,15.884248787841797,9.15617195373535,15.864975787841797Q9.202702953735352,15.845701787841797,9.252099853735352,15.835875787841797Q9.301497053735352,15.826049787841797,9.351861953735352,15.826049787841797Q9.402226853735351,15.826049787841797,9.451624053735351,15.835875787841797Q9.50102095373535,15.845701787841797,9.547551953735352,15.864975787841797Q9.594082953735352,15.884248787841797,9.635959953735352,15.912230787841796Q9.677836953735351,15.940211787841797,9.713450953735352,15.975824787841796Q9.749063953735352,16.011438787841797,9.777044953735352,16.053315787841797Q9.805026953735352,16.095192787841796,9.824299953735352,16.141723787841798Q9.843573953735351,16.188254787841796,9.853399953735352,16.237651687841797Q9.863225953735352,16.287048887841795,9.863225953735352,16.337413787841797ZM9.861861953735351,16.337413787841797Q9.861861953735351,16.387644387841796,9.852061953735351,16.436909787841795Q9.842262953735352,16.486174787841797,9.823040953735351,16.532582787841797Q9.80381795373535,16.578989787841795,9.775910953735352,16.620754787841797Q9.748004953735352,16.6625197878418,9.712485953735351,16.6980377878418Q9.676967953735351,16.733556787841795,9.635202953735352,16.761462787841797Q9.593437953735352,16.789369787841796,9.547030953735351,16.808591787841795Q9.500622953735352,16.827814787841795,9.451357953735352,16.837613787841796Q9.402092553735352,16.8474137878418,9.351861953735352,16.8474137878418Q9.30163135373535,16.8474137878418,9.252365953735351,16.837613787841796Q9.203100953735351,16.827814787841795,9.156692953735352,16.808592787841796Q9.110285953735351,16.789369787841796,9.068520953735351,16.761462787841797Q9.026755953735352,16.733556787841795,8.991237953735352,16.6980377878418Q8.955718953735351,16.6625197878418,8.927812953735351,16.620754787841797Q8.899905953735352,16.578989787841795,8.880683953735351,16.532582787841797Q8.861460953735351,16.486174787841797,8.851661953735352,16.436909787841795Q8.841861953735352,16.387644387841796,8.841861953735352,16.337413787841797Q8.841861953735352,16.287183187841798,8.851661953735352,16.2379177878418Q8.861460953735351,16.188652787841797,8.880682953735352,16.142244787841797Q8.899905953735352,16.0958377878418,8.927812953735351,16.054072787841797Q8.955718953735351,16.012307787841795,8.991237953735352,15.976789787841797Q9.026755953735352,15.941270787841797,9.068520953735351,15.913364787841797Q9.110285953735351,15.885457787841798,9.156692953735352,15.866235787841797Q9.203100953735351,15.847012787841797,9.252365953735351,15.837213787841797Q9.30163135373535,15.827413787841797,9.351861953735352,15.827413787841797Q9.402092553735352,15.827413787841797,9.451357953735352,15.837213787841797Q9.500622953735352,15.847012787841797,9.547030953735351,15.866234787841798Q9.593437953735352,15.885457787841798,9.635202953735352,15.913364787841797Q9.676967953735351,15.941270787841797,9.712485953735351,15.976789787841797Q9.748004953735352,16.012307787841795,9.775910953735352,16.054072787841797Q9.80381795373535,16.0958377878418,9.823039953735352,16.142244787841797Q9.842262953735352,16.188652787841797,9.852061953735351,16.2379177878418Q9.861861953735351,16.287183187841798,9.861861953735351,16.337413787841797ZM9.861861953735351,21.962413787841797Q9.861861953735351,22.012643787841796,9.852061953735351,22.061903787841796Q9.842262953735352,22.111173787841796,9.823040953735351,22.157583787841798Q9.80381795373535,22.203983787841796,9.775910953735352,22.245753787841796Q9.748004953735352,22.287513787841796,9.712485953735351,22.323033787841798Q9.676967953735351,22.358553787841796,9.635202953735352,22.386463787841798Q9.593437953735352,22.414363787841797,9.547030953735351,22.433593787841797Q9.500622953735352,22.452813787841798,9.451357953735352,22.462613787841796Q9.402092553735352,22.472413787841795,9.351861953735352,22.472413787841795Q9.30163135373535,22.472413787841795,9.252365953735351,22.462613787841796Q9.203100953735351,22.452813787841798,9.156692953735352,22.433593787841797Q9.110285953735351,22.414363787841797,9.068520953735351,22.386463787841798Q9.026755953735352,22.358553787841796,8.991237953735352,22.323033787841798Q8.955718953735351,22.287513787841796,8.927812953735351,22.245753787841796Q8.899905953735352,22.203983787841796,8.880683953735351,22.157583787841798Q8.861460953735351,22.111173787841796,8.851661953735352,22.061903787841796Q8.841861953735352,22.012643787841796,8.841861953735352,21.962413787841797Q8.841861953735352,21.912183787841798,8.851661953735352,21.862913787841798Q8.861460953735351,21.813653787841798,8.880682953735352,21.767243787841796Q8.899905953735352,21.720833787841798,8.927812953735351,21.679073787841798Q8.955718953735351,21.637303787841798,8.991237953735352,21.601783787841796Q9.026755953735352,21.566273787841798,9.068520953735351,21.538363787841796Q9.110285953735351,21.510453787841797,9.156692953735352,21.491233787841796Q9.203100953735351,21.472013787841796,9.252365953735351,21.462213787841797Q9.30163135373535,21.4524137878418,9.351861953735352,21.4524137878418Q9.402092553735352,21.4524137878418,9.451357953735352,21.462213787841797Q9.500622953735352,21.472013787841796,9.547030953735351,21.491233787841796Q9.593437953735352,21.510453787841797,9.635202953735352,21.538363787841796Q9.676967953735351,21.566273787841798,9.712485953735351,21.601783787841796Q9.748004953735352,21.637303787841798,9.775910953735352,21.679073787841798Q9.80381795373535,21.720833787841798,9.823039953735352,21.767243787841796Q9.842262953735352,21.813653787841798,9.852061953735351,21.862913787841798Q9.861861953735351,21.912183787841798,9.861861953735351,21.962413787841797Z" fill="#E34D59" fill-opacity="1"/><path d="M12.162652969360352,19.973411576904297L6.537652969360352,19.973411576904297Q6.487288069360352,19.973411576904297,6.437890869360351,19.963585576904297Q6.3884939693603515,19.953759576904297,6.341962969360352,19.934485576904297Q6.295431969360352,19.915212576904295,6.253554969360351,19.887230576904297Q6.211677969360352,19.859249576904297,6.176063969360351,19.823636576904295Q6.1404509693603515,19.788022576904297,6.112469969360352,19.746145576904297Q6.084487969360351,19.704268576904298,6.065214969360351,19.657737576904296Q6.045940969360352,19.611206576904298,6.0361149693603515,19.561809676904296Q6.026288969360351,19.5124124769043,6.026288969360351,19.462047576904297Q6.026288969360351,19.411682676904295,6.0361149693603515,19.362285476904297Q6.045940969360352,19.312888576904296,6.065214969360351,19.266357576904298Q6.084487969360351,19.219826576904296,6.112469969360352,19.177949576904297Q6.1404509693603515,19.136072576904297,6.176063969360351,19.1004585769043Q6.211677969360352,19.064845576904297,6.253554969360351,19.036864576904296Q6.295431969360352,19.0088825769043,6.341962969360352,18.989609576904297Q6.3884939693603515,18.970335576904297,6.437890869360351,18.960509576904297Q6.487288069360352,18.950683576904297,6.537652969360352,18.950683576904297L12.162652969360352,18.950683576904297Q12.213012969360353,18.950683576904297,12.262412969360351,18.960509576904297Q12.311812969360352,18.970335576904297,12.35834296936035,18.989609576904297Q12.404872969360351,19.0088825769043,12.44675296936035,19.036864576904296Q12.488622969360351,19.064845576904297,12.524242969360351,19.1004585769043Q12.559852969360351,19.136072576904297,12.587832969360353,19.177949576904297Q12.615812969360352,19.219826576904296,12.63509296936035,19.266357576904298Q12.654362969360353,19.312888576904296,12.664192969360352,19.362285476904297Q12.674012969360351,19.411682676904295,12.674012969360351,19.462047576904297Q12.674012969360351,19.5124124769043,12.664192969360352,19.561809676904296Q12.654362969360353,19.611206576904298,12.63509296936035,19.657737576904296Q12.615812969360352,19.704268576904298,12.587832969360353,19.746145576904297Q12.559852969360351,19.788022576904297,12.524242969360351,19.823636576904295Q12.488622969360351,19.859249576904297,12.44675296936035,19.887230576904297Q12.404872969360351,19.915212576904295,12.35834296936035,19.934485576904297Q12.311812969360352,19.953759576904297,12.262412969360351,19.963585576904297Q12.213012969360353,19.973411576904297,12.162652969360352,19.973411576904297ZM12.672652969360351,19.462047576904297Q12.672652969360351,19.512278176904296,12.662852969360351,19.561543576904295Q12.653052969360353,19.610808576904297,12.633832969360352,19.657216576904297Q12.614602969360352,19.703623576904295,12.586702969360353,19.745388576904297Q12.55879296936035,19.7871535769043,12.523272969360352,19.8226715769043Q12.48775296936035,19.858190576904295,12.44599296936035,19.886096576904297Q12.404222969360351,19.914003576904296,12.357822969360353,19.933225576904295Q12.311412969360351,19.952448576904295,12.262142969360351,19.962247576904296Q12.21288296936035,19.9720475769043,12.162652969360352,19.9720475769043Q12.112422969360352,19.9720475769043,12.063152969360353,19.962247576904296Q12.013892969360352,19.952448576904295,11.96748296936035,19.933226576904296Q11.921072969360353,19.914003576904296,11.879312969360353,19.886096576904297Q11.837542969360353,19.858190576904295,11.802022969360351,19.8226715769043Q11.766512969360353,19.7871535769043,11.73860296936035,19.745388576904297Q11.710692969360352,19.703623576904295,11.691472969360351,19.657216576904297Q11.67225296936035,19.610808576904297,11.662452969360352,19.561543576904295Q11.652652969360352,19.512278176904296,11.652652969360352,19.462047576904297Q11.652652969360352,19.411816976904298,11.662452969360352,19.3625515769043Q11.67225296936035,19.313286576904297,11.691472969360351,19.266878576904297Q11.710692969360352,19.2204715769043,11.73860296936035,19.178706576904297Q11.766512969360353,19.136941576904295,11.802022969360351,19.101423576904295Q11.837542969360353,19.0659045769043,11.879312969360353,19.037998576904297Q11.921072969360353,19.010091576904298,11.96748296936035,18.9908695769043Q12.013892969360352,18.9716465769043,12.063152969360353,18.961847576904297Q12.112422969360352,18.952047576904295,12.162652969360352,18.952047576904295Q12.21288296936035,18.952047576904295,12.262142969360351,18.961847576904297Q12.311412969360351,18.9716465769043,12.357822969360353,18.990868576904298Q12.404222969360351,19.010091576904298,12.44599296936035,19.037998576904297Q12.48775296936035,19.0659045769043,12.523272969360352,19.101423576904295Q12.55879296936035,19.136941576904295,12.586702969360353,19.178706576904297Q12.614602969360352,19.2204715769043,12.633832969360352,19.266878576904297Q12.653052969360353,19.313286576904297,12.662852969360351,19.3625515769043Q12.672652969360351,19.411816976904298,12.672652969360351,19.462047576904297ZM7.047652969360351,19.462047576904297Q7.047652969360351,19.512278176904296,7.037852969360351,19.561543576904295Q7.028053969360352,19.610808576904297,7.008831969360352,19.657216576904297Q6.989608969360352,19.703623576904295,6.961701969360352,19.745388576904297Q6.933795969360352,19.7871535769043,6.898276969360351,19.8226715769043Q6.8627589693603515,19.858190576904295,6.820993969360352,19.886096576904297Q6.779228969360352,19.914003576904296,6.7328219693603515,19.933225576904295Q6.686413969360352,19.952448576904295,6.637148969360352,19.962247576904296Q6.5878835693603515,19.9720475769043,6.537652969360352,19.9720475769043Q6.487422369360352,19.9720475769043,6.438156969360351,19.962247576904296Q6.388891969360351,19.952448576904295,6.342483969360352,19.933226576904296Q6.296076969360351,19.914003576904296,6.2543119693603515,19.886096576904297Q6.212546969360352,19.858190576904295,6.177028969360352,19.8226715769043Q6.141509969360351,19.7871535769043,6.113603969360351,19.745388576904297Q6.0856969693603515,19.703623576904295,6.0664749693603515,19.657216576904297Q6.047251969360351,19.610808576904297,6.037452969360352,19.561543576904295Q6.027652969360352,19.512278176904296,6.027652969360352,19.462047576904297Q6.027652969360352,19.411816976904298,6.037452969360352,19.3625515769043Q6.047251969360351,19.313286576904297,6.066473969360351,19.266878576904297Q6.0856969693603515,19.2204715769043,6.113603969360351,19.178706576904297Q6.141509969360351,19.136941576904295,6.177028969360352,19.101423576904295Q6.212546969360352,19.0659045769043,6.2543119693603515,19.037998576904297Q6.296076969360351,19.010091576904298,6.342483969360352,18.9908695769043Q6.388891969360351,18.9716465769043,6.438156969360351,18.961847576904297Q6.487422369360352,18.952047576904295,6.537652969360352,18.952047576904295Q6.5878835693603515,18.952047576904295,6.637148969360352,18.961847576904297Q6.686413969360352,18.9716465769043,6.7328219693603515,18.990868576904298Q6.779228969360352,19.010091576904298,6.820993969360352,19.037998576904297Q6.8627589693603515,19.0659045769043,6.898276969360351,19.101423576904295Q6.933795969360352,19.136941576904295,6.961701969360352,19.178706576904297Q6.989608969360352,19.2204715769043,7.008830969360352,19.266878576904297Q7.028053969360352,19.313286576904297,7.037852969360351,19.3625515769043Q7.047652969360351,19.411816976904298,7.047652969360351,19.462047576904297Z" fill="#E34D59" fill-opacity="1"/></g></g></g></g></g></g></g></svg>