<svg xmlns="http://www.w3.org/2000/svg" xmlns:xlink="http://www.w3.org/1999/xlink" fill="none" version="1.1" width="44" height="44" viewBox="0 0 44 44"><defs><filter id="master_svg1_132_6989" filterUnits="userSpaceOnUse" color-interpolation-filters="sRGB" x="23.768310546875" y="22.449951171875" width="11.432647824287415" height="11.432647824287415"><feFlood flood-opacity="0" result="BackgroundImageFix"/><feBlend mode="normal" in="SourceGraphic" in2="BackgroundImageFix" result="shape"/><feGaussianBlur in="BackgroundImage" stdDeviation="0.6110387444496155"/><feComposite in2="SourceAlpha" operator="in" result="effect1_foregroundBlur"/><feBlend mode="normal" in="SourceGraphic" in2="effect1_foregroundBlur" result="shape"/></filter><linearGradient x1="0.5" y1="0" x2="0.5" y2="1" id="master_svg2_17_0043"><stop offset="0%" stop-color="#00D695" stop-opacity="1"/><stop offset="100%" stop-color="#00D695" stop-opacity="0.10000000149011612"/></linearGradient><linearGradient x1="0.9054054021835327" y1="1.0000001192092896" x2="0.5027027130126953" y2="0.05913979187607765" id="master_svg3_17_0045"><stop offset="0%" stop-color="#FFFFFF" stop-opacity="1"/><stop offset="100%" stop-color="#FFFFFF" stop-opacity="0"/></linearGradient></defs><clipPath id="master_svg0_132_6780"><rect x="8" y="8" width="28" height="28" rx="0"/></clipPath><g style="mix-blend-mode:passthrough"><g><g style="mix-blend-mode:passthrough"><g><g style="mix-blend-mode:passthrough"><rect x="0" y="0" width="44" height="44" rx="8" fill="#ECF5FF" fill-opacity="1"/></g><g clip-path="url(#master_svg0_132_6780)"><g><path d="M30.2487,23.625373828125L30.2487,15.812523828125C30.2474,13.156013828125,28.0935,11.003173828125,25.436999999999998,11.003173828125C22.7804,11.003174144834,20.62655,13.156013828125,20.62525,15.812523828125L20.62525,28.185473828125C20.62581,29.324773828125,19.70239,30.248673828125,18.56309,30.248673828125C17.4238,30.248673828125,16.50038,29.324773828125,16.50094,28.185473828125L16.50094,20.371273828125C19.11473,19.447153828125,20.09062,16.258993828125,18.44193,14.030143828125C16.79325,11.801299828125,13.45907,11.801300828125001,11.810392,14.030143828125C10.161711,16.258993828125,11.137598,19.447153828125,13.75139,20.371273828125L13.75139,28.185473828125C13.75139,30.842873828125,15.905660000000001,32.997173828125,18.56309,32.997173828125C21.2205,32.997173828125,23.3748,30.842873828125,23.3748,28.185473828125L23.3748,15.812523828125C23.3748,14.673633828125,24.298099999999998,13.750373828125,25.436999999999998,13.750373828125C26.5759,13.750373828125,27.4991,14.673633828125,27.4991,15.812523828125L27.4991,23.628073828125C24.8853,24.552173828125,23.909399999999998,27.740373828125,25.5581,29.969273828125C27.2068,32.198073828125004,30.541,32.198073828125004,32.1897,29.969273828125C33.838300000000004,27.740373828125,32.8625,24.552173828125,30.2487,23.628073828125L30.2487,23.625373828125ZM15.126159999999999,15.125143828125001C15.88543,15.125143828125001,16.50094,15.740643828125,16.50094,16.499913828125C16.50094,17.259183828125,15.88543,17.874683828125,15.126159999999999,17.874683828125C14.3669,17.874683828125,13.75139,17.259183828125,13.75139,16.499913828125C13.75139,15.740643828125,14.3669,15.125143828125001,15.126159999999999,15.125143828125001ZM28.8739,28.872873828125C28.1146,28.872873828125,27.4991,28.257373828125,27.4991,27.498073828125C27.4991,26.738873828125,28.1146,26.123273828125,28.8739,26.123273828125C29.6332,26.123273828125,30.2487,26.738873828125,30.2487,27.498073828125C30.2487,28.257373828125,29.6332,28.872873828125,28.8739,28.872873828125Z" fill="#0079DE" fill-opacity="1"/><g style="mix-blend-mode:passthrough"><g><g style="mix-blend-mode:passthrough"><ellipse cx="28.873595714569092" cy="27.555236339569092" rx="5.105285167694092" ry="5.105285167694092" fill="#0079DE" fill-opacity="1"/></g><g filter="url(#master_svg1_132_6989)" style="mix-blend-mode:passthrough"><ellipse cx="28.873595714569092" cy="27.555236339569092" rx="5.105285167694092" ry="5.105285167694092" fill="url(#master_svg2_17_0043)" fill-opacity="1"/><ellipse cx="28.873595714569092" cy="27.555236339569092" rx="5.098478120286018" ry="5.098478120286018" stroke="url(#master_svg3_17_0045)" fill-opacity="0" stroke-width="0.013614094816148281" fill="none" stroke-dasharray=""/></g><path d="M27.772529140625,26.691083203125C27.552789140625,26.690993203125,27.335509140625,26.644803203125,27.134729140625,26.555503203125L26.168976140625,26.126723203125C25.879638140625,25.998133203125,25.749329940625,25.659341203125,25.877924040625,25.370010203125C26.006518140625,25.080678203125,26.345319140625,24.950372503125,26.634657140625,25.078964203125L27.600409140625,25.508816203125C27.714889140625,25.559754203125,27.846049140625,25.557394203125,27.958629140625,25.502368203125L28.899479140625,25.043859203125C29.393129140625,24.802946003125,29.967269140625,24.789212303125,30.471869140625,25.006247203125L31.571419140625,25.478547203125C31.862239140625,25.603529203125,31.996679140624998,25.940603203125,31.871699140625,26.231413203125C31.746709140625,26.522233203125,31.409629140625,26.656663203125,31.118809140625,26.531683203125L30.019799140625,26.058493203125C29.821629140625,25.973223203125,29.596129140625,25.978593203125,29.402239140625,26.073173203125002L28.461559140625,26.531863203125C28.247039140625,26.636633203125,28.011389140625,26.691083203125,27.772529140625,26.691083203125Z" fill="#FFFFFF" fill-opacity="1"/><path d="M27.77251328125,28.474748046875C27.55282328125,28.474678046875,27.335603281250002,28.428488046875,27.13489328125,28.339168046875L26.16913728125,27.909318046875C25.87984948125,27.780728046875,25.74958178125,27.441971046875,25.87817588125,27.152689046875C26.00677028125,26.863406046875,26.34553128125,26.733141046875,26.63481928125,26.861733046875L27.60057328125,27.291585046875C27.71507328125,27.342448046875,27.84619328125,27.340088046875,27.95878328125,27.285137046875L28.89964328125,26.826449046875C29.393323281249998,26.585702646875,29.96740328125,26.571970346875,30.47203328125,26.788837046875L31.57158328125,27.261137046875C31.862153281250002,27.386303046875,31.996363281249998,27.723208046875,31.87146328125,28.013888046875C31.74656328125,28.304568046875,31.40977328125,28.439088046875,31.11897328125,28.314448046875L30.01978328125,27.843048046875C29.82161328125,27.757788046875,29.59611328125,27.763148046875,29.40222328125,27.857738046875L28.46154328125,28.315528046875C28.24711328125,28.420298046875,28.01145328125,28.474748046875,27.77251328125,28.474748046875Z" fill="#FFFFFF" fill-opacity="1"/><path d="M27.772449140625,30.258509453125C27.552759140625,30.258439453125,27.335539140625,30.212249453125,27.134819140624998,30.122929453125L26.168893140625,29.693969453125C25.879605340625,29.565379453125,25.749337640625,29.226628453125,25.877931740625,28.937345453125C26.006526140625,28.648063453125,26.345287140625,28.517797953125,26.634575140625,28.646389453125L27.600329140625,29.075166453125C27.714799140625,29.126085453125,27.845929140625,29.123791453125,27.958539140625,29.068898453125L28.899399140625,28.610210453125C29.393059140625,28.369370253125,29.967179140625,28.355637953125,30.471789140625,28.572598453125L31.571339140625,29.044898453125C31.861899140625,29.170063453125,31.996119140624998,29.506969453125,31.871219140625,29.797649453125C31.746319140625,30.088319453125,31.409529140625,30.222849453125,31.118729140625,30.098209453125L30.019719140625,29.625909453125C29.821549140625,29.540649453125,29.596049140625,29.546019453124998,29.402159140625,29.640599453125L28.461479140625,30.099829453125C28.246859140625,30.204439453125,28.011209140625,30.258709453125,27.772449140625,30.258509453125Z" fill="#FFFFFF" fill-opacity="1"/></g></g></g></g></g></g></g></g></svg>