<svg xmlns="http://www.w3.org/2000/svg" xmlns:xlink="http://www.w3.org/1999/xlink" fill="none" version="1.1" width="24" height="24" viewBox="0 0 24 24"><defs><filter id="master_svg1_361_09188/368_09710" filterUnits="userSpaceOnUse" color-interpolation-filters="sRGB" x="2.169189453125" y="4.455078125" width="28.584365844726562" height="22.838528633117676"><feFlood flood-opacity="0" result="BackgroundImageFix"/><feBlend mode="normal" in="SourceGraphic" in2="BackgroundImageFix" result="shape"/><feGaussianBlur in="BackgroundImage" stdDeviation="4.461148262023926"/><feComposite in2="SourceAlpha" operator="in" result="effect1_foregroundBlur"/><feBlend mode="normal" in="SourceGraphic" in2="effect1_foregroundBlur" result="shape"/></filter><linearGradient x1="0.5" y1="0" x2="0.5" y2="1" id="master_svg2_348_10397"><stop offset="0%" stop-color="#00D695" stop-opacity="1"/><stop offset="100%" stop-color="#00D695" stop-opacity="0.10000000149011612"/></linearGradient><linearGradient x1="0.9054054021835327" y1="1.0000001192092896" x2="0.5027027130126953" y2="0.05913979187607765" id="master_svg3_1_2527"><stop offset="0%" stop-color="#FFFFFF" stop-opacity="1"/><stop offset="100%" stop-color="#FFFFFF" stop-opacity="0"/></linearGradient></defs><clipPath id="master_svg0_361_09188/368_09377"><rect x="0" y="0" width="24" height="24" rx="0"/></clipPath><g style="mix-blend-mode:passthrough"><g><g clip-path="url(#master_svg0_361_09188/368_09377)"><g><path d="M7.58869703125,13.931646875C7.86365703125,13.859946875,8.125127031249999,13.743946875,8.36289703125,13.588346875C8.49783703125,13.508146875,8.62098703125,13.409546875,8.72881703125,13.295446875L8.72881703125,13.245146875C8.67947703125,13.122346875,8.65071703125,12.992146875,8.64367703125,12.859946875C8.63478703125,12.790446875,8.63478703125,12.720146875,8.64367703125,12.650546875L8.30342703125,12.340946875C8.06665703125,12.126146875,7.87814703125,11.863546875,7.75031703125,11.570546875C7.66519703125,11.369586875,7.58025703125,11.176916875,7.51202703125,10.967606875L7.51202703125,10.816876875C7.35018703125,10.674366875,7.20467703125,10.514316875,7.07817703125,10.339676875C6.88938703125,10.067936875,6.75105703125,9.764426875,6.66980703125,9.443676875000001C6.53458703125,9.048356875,6.48527703125,8.628726875,6.52517703125,8.212826875000001C6.55305703125,7.964146875,6.61014703125,7.719626875,6.69526703125,7.484316875C6.73486703125,7.366446875,6.78322703125,7.251696875,6.83996703125,7.141036875C6.84272703125,6.695716875,6.87398703125,6.251026875,6.93357703125,5.809706875C6.98685703125,5.352126875,7.07212703125,4.898846875,7.18877703125,4.453196875L7.01870703125,4.453196875C6.80434703125,4.4557368749999995,6.59068703125,4.478156875,6.38045703125,4.520146875C6.1581670312500005,4.558836875,5.94118703125,4.623506875,5.73398703125,4.712836875C5.5078570312499995,4.820896875,5.29392703125,4.9528268749999995,5.09584703125,5.1063768750000005C4.87106703125,5.284526875,4.6782970312500005,5.499696875,4.52583703125,5.742646875C4.3407870312500005,6.029716875,4.20018703125,6.343106875,4.1088070312500005,6.672196875C4.01828703125,6.993176875,3.95287703125,7.320726875,3.91316703125,7.651856875C3.87071703125,8.013016875,3.85367703125,8.376706875,3.86214703125,8.740256875C3.72401703125,8.925536874999999,3.64139703125,9.146276875,3.62393703125,9.376726875C3.59872703125,9.520736875,3.59872703125,9.668026875,3.62393703125,9.812036875C3.66120703125,9.942956875,3.7185870312500002,10.067296875,3.79401703125,10.180616875C3.8448770312500002,10.252376875,3.90184703125,10.319606875,3.96429703125,10.381556875C4.0239970312499995,10.424796875,4.08997703125,10.458616875,4.15993703125,10.481846875L4.28753703125,10.917356875C4.33866703125,11.042916875,4.38111703125,11.160196875,4.44070703125,11.285736875C4.48390703125,11.389486875,4.54756703125,11.483476875,4.62789703125,11.562086875C4.771997031250001,11.681746875,4.90836703125,11.810346875,5.03617703125,11.947246875C5.1700670312499994,12.089946875,5.24328703125,12.279146875,5.240357031249999,12.474846875L5.240357031249999,12.868246875C5.24211703125,12.990846875,5.22197703125,13.112846875,5.18089703125,13.228346875C5.13157703125,13.354846875,5.05946703125,13.471246875,4.96814703125,13.571646875C4.838157031250001,13.711646875,4.6892570312499995,13.832846875,4.52574703125,13.931746875C4.26244703125,14.096846875,3.97558703125,14.221146875,3.67497703125,14.300146875C3.45377703125,14.358746875,2.68802503125,14.635146875,2.16905210325,14.819346875L2.16905210325,18.369446875L2.24553093125,18.369446875C2.24553093125,18.160146875,2.29664503125,17.925746875,2.33923303125,17.615946875L2.33923303125,17.532246875C2.42012803125,16.814646875,2.76884403125,16.152346875,3.31759703125,15.673246875C3.7676670312500002,15.323746875,4.27810703125,15.059746875,4.823517031250001,14.894646875L4.9341170312500005,14.894646875C6.46561703125,14.300146875,7.29092703125,14.023746875,7.58869703125,13.931646875ZM21.23545703125,14.300146875L20.98025703125,14.300146875C21.26925703125,14.397446875,21.55325703125,14.509246875,21.83115703125,14.635146875L21.83115703125,18.285746875L21.77995703125,18.285746875C21.78255703125,18.144546875,21.76545703125,18.003546875,21.72895703125,17.867046875C21.70085703125,17.529446874999998,21.63815703125,17.195546874999998,21.54175703125,16.870746875000002C21.37235703125,16.339146875,21.06045703125,15.864146875,20.63995703125,15.497446875C20.28425703125,15.214746875,19.88855703125,14.986146875,19.46585703125,14.819346875L18.98095703125,14.609946875L18.13005703125,14.224746875C17.854957031250002,14.095046875,17.57055703125,13.985946875,17.27935703125,13.898346875C16.98855703125,13.826246875,16.704057031250002,13.731046875,16.428457031249998,13.613546875C16.26375703125,13.545746875,16.10915703125,13.455646875,15.96905703125,13.345646875C16.042657031250002,13.200346875,16.080557031250002,13.039546875,16.07965703125,12.876746875L16.07965703125,12.508246875C16.42785703125,12.242446875,16.70055703125,11.890346875,16.87085703125,11.486776875C16.960757031249997,11.287866875,17.045957031249998,11.086836875,17.126157031250003,10.883846875L17.126157031250003,10.833696875L17.185657031250003,10.649456875C17.46275703125,10.421646875,17.68645703125,10.135776875,17.84095703125,9.812036875C17.984657031250002,9.484476875,18.079257031250002,9.137466875000001,18.12155703125,8.782246875C18.16895703125,8.471446875,18.16895703125,8.155246875,18.12155703125,7.844446875C18.06645703125,7.550306875,17.96295703125,7.267336875,17.815357031250002,7.007026875C17.80705703125,6.581116875,17.77295703125,6.156086875,17.71315703125,5.734296875C17.65795703125,5.306706875,17.56975703125,4.884016875,17.44945703125,4.470016875L17.789757031249998,4.470016875C18.039957031249997,4.469886875,18.28895703125,4.503686875,18.53005703125,4.570476875000001C18.96995703125,4.696976875,19.38255703125,4.9042368750000005,19.74665703125,5.181676875C19.89545703125,5.2932668750000005,20.02725703125,5.425826875,20.13795703125,5.575236875C20.37425703125,5.875766875,20.56095703125,6.212176875,20.69105703125,6.571716875C20.79265703125,6.908936875,20.86945703125,7.253156875,20.92065703125,7.601626875C20.97305703125,7.978816875,20.99585703125,8.359526875,20.98895703125,8.740266875C21.05025703125,8.782676875,21.09525703125,8.844756875,21.11645703125,8.916236875C21.15505703125,8.996996875,21.18635703125,9.081066875000001,21.20995703125,9.167426875C21.22695703125,9.295226875,21.22695703125,9.424716875,21.20995703125,9.552506874999999C21.19435703125,9.717596875,21.15115703125,9.878916875,21.08235703125,10.029806875C21.03505703125,10.133776875,20.97185703125,10.229806875,20.89525703125,10.314516875C20.81865703125,10.382376875,20.72885703125,10.433686875,20.63155703125,10.465236875C20.59745703125,10.615946875,20.51225703125,10.766636875,20.51225703125,10.908996875C20.47005703125,11.032556875,20.41885703125,11.152886875,20.35925703125,11.269026875C20.31455703125,11.376526875,20.24785703125,11.473516875,20.16355703125,11.553826875L19.94235703125,11.746346875C19.87005703125,11.789946875,19.80415703125,11.843446875,19.74675703125,11.905346875C19.68985703125,11.966946875,19.64375703125,12.037746875,19.61045703125,12.114746875C19.52565703125,12.344846875,19.49085703125,12.590346875,19.50845703125,12.834946875C19.51705703125,12.987546875,19.55155703125,13.137546875,19.61045703125,13.278546875C19.68525703125,13.438446875,19.79245703125,13.581046875,19.92525703125,13.697446875C20.09785703125,13.847246875,20.29315703125,13.968746875,20.50385703125,14.057346875C20.74335703125,14.150746875,20.98755703125,14.231846875,21.23545703125,14.300146875ZM20.30815703125,16.552546875C20.57055703125,16.775146875,20.76485703125,17.065046875,20.85275703125,17.356346875C20.92415703125,17.602146875000003,20.96985703125,17.854646875,20.98895703125,18.109946875C21.03135703125,18.411446875,21.03135703125,18.168546875,21.03135703125,18.469946875C21.03325703125,18.764146875,21.01335703125,19.058046875,20.97185703125,19.349246875C20.94715703125,19.567946875,20.88375703125,19.780546875,20.78465703125,19.977146875C20.63345703125,20.111846875,20.45275703125,20.209446875,20.25705703125,20.261846875C17.80525703125,20.970546875,15.26255703125,21.314746875,12.71055703125,21.283446875C10.10730703125,21.277846875,7.51097703125,21.014246875,4.959717031249999,20.496346875C4.62592703125,20.431446875,4.30247703125,20.321646875,3.99822703125,20.169846875C3.79893703125,19.891946875,3.69454703125,19.557146875,3.70054703125,19.215246875C3.63807703125,18.712246875,3.66395703125,18.202146875,3.7770270312500003,17.708046875C3.82828703125,17.289246875,4.0238570312499995,16.901346875,4.33012703125,16.611146875C4.641587031249999,16.357546875,4.99604703125,16.161846875000002,5.3766370312500005,16.033346875C5.7764570312500005,15.882646875,7.63128703125,15.204446875,8.06514703125,15.087246875C8.463347031249999,14.982546875,8.84043703125,14.809746875,9.179687031250001,14.576546875C9.399747031250001,14.442946875,9.60018703125,14.279546875,9.77524703125,14.090846875C9.90000703125,13.952246875,10.00068703125,13.793746875,10.07311703125,13.621946875C10.12641703125,13.462546875,10.15505703125,13.295946875,10.158067031249999,13.127846875L10.158067031249999,12.575346875C10.152007031250001,12.308246875,10.049247031250001,12.052346875,9.86883703125,11.855146875C9.69126703125,11.669346875,9.50381703125,11.493246875,9.30729703125,11.327616875C9.19389703125,11.218706875,9.104147031250001,11.087626875,9.04362703125,10.942526875C8.97327703125,10.779926875,8.90799703125,10.615176875,8.84788703125,10.448506875L8.660697031249999,9.837216875C8.56509703125,9.809636875,8.47559703125,9.764166875,8.39694703125,9.703226875C8.310097031249999,9.617826875,8.23041703125,9.525426875,8.158727031249999,9.426956875C8.05452703125,9.271596875,7.97956703125,9.098516875,7.93752703125,8.916236875C7.87518703125,8.724606875,7.85201703125,8.522396875,7.86940703125,8.321636875C7.89962703125,8.174906875,7.94529703125,8.031786875,8.00565703125,7.894676875C8.05713703125,7.747046875,8.13180703125,7.608566875,8.226857031249999,7.484436875C8.18718703125,6.534806875,8.28459703125,5.5844168750000005,8.516087031249999,4.662586875000001C8.634177031250001,4.211116875,8.82371703125,3.781446875,9.07753703125,3.389856875C9.511677031249999,2.759086875,10.123947031250001,2.267143875,10.83867703125,1.974762875C11.11073703125,1.852201875,11.39634703125,1.762276875,11.68954703125,1.706864175C11.97038703125,1.655930375,12.25495703125,1.627919385,12.54025703125,1.6231079357C12.88515703125,1.621150095,13.22855703125,1.666201775,13.56125703125,1.757018875C13.87625703125,1.846605875,14.18355703125,1.9614108749999999,14.48015703125,2.100321875C14.74735703125,2.2333068750000002,14.99855703125,2.396234875,15.22885703125,2.585965875C15.43465703125,2.738126875,15.61795703125,2.9184968749999998,15.77345703125,3.121766875C16.08115703125,3.539116875,16.314357031249997,4.006576875,16.46255703125,4.503446875C16.61625703125,4.963436875,16.724457031249997,5.437346874999999,16.78585703125,5.918416875C16.859657031250002,6.436966875,16.89095703125,6.960686875,16.87945703125,7.484336875C16.96445703125,7.542946875,17.02745703125,7.628416875,17.058157031249998,7.727046875C17.11285703125,7.838626875,17.15295703125,7.956836875,17.177157031249997,8.078716875C17.207057031250002,8.253296875,17.207057031250002,8.431686875,17.177157031249997,8.606266875C17.155457031250002,8.831596874999999,17.09805703125,9.052046875,17.00715703125,9.259346875C16.93905703125,9.402386875000001,16.84695703125,9.532676875,16.73485703125,9.644526875C16.652757031249998,9.738036875,16.55105703125,9.812346875,16.43705703125,9.862196875C16.386057031249997,10.063236875,16.34345703125,10.297696875,16.27545703125,10.465116875C16.207257031250002,10.632556875,16.13925703125,10.800066875,16.062657031249998,10.967506875C15.99405703125,11.107726875,15.90195703125,11.235146875,15.79035703125,11.344236875C15.69335703125,11.442526875,15.58805703125,11.532226875,15.47555703125,11.612336875C15.38325703125,11.675946875,15.29765703125,11.748846875,15.22035703125,11.829946875C15.14095703125,11.912546875,15.07745703125,12.009046875,15.03325703125,12.114746875C14.90665703125,12.433746875,14.85145703125,12.776746875,14.87155703125,13.119446875C14.88125703125,13.327746875,14.93035703125,13.532246875,15.01615703125,13.722246875C15.11455703125,13.943346875,15.25965703125,14.140446875,15.44155703125,14.300046875C15.67555703125,14.508146875,15.94315703125,14.675246875,16.232957031250002,14.794046875C16.56325703125,14.928446875,16.901257031249997,15.043146875,17.24525703125,15.137346875C17.61105703125,15.195946875,19.07445703125,15.899246875,19.40625703125,16.033246875C19.72825703125,16.166246875,20.03145703125,16.340846875,20.30815703125,16.552446875L20.30815703125,16.552546875ZM13.64645703125,19.265446875L13.65495703125,19.282146875C13.72835703125,19.206746875,13.77595703125,19.110046875,13.79115703125,19.005946875C13.78465703125,18.868046875,13.76755703125,18.730946875,13.74005703125,18.595646875C13.70595703125,18.394646875,13.61235703125,18.176946875,13.61235703125,17.950846875L13.45925703125,17.255746875C13.41665703125,17.021446875000002,13.33165703125,16.845546875,13.33165703125,16.694846875C13.46015703125,16.590446874999998,13.57705703125,16.472546875,13.68045703125,16.343246875C13.75895703125,16.229746875,13.80325703125,16.096046875,13.80805703125,15.958046875C13.80925703125,15.843746875,13.77345703125,15.732146875,13.70595703125,15.639846875C13.64805703125,15.531246875,13.57015703125,15.434646875,13.47625703125,15.355146875L13.16145703125,15.070546875L12.24265703125,15.070546875C12.13019703125,15.156746875,12.02491703125,15.251846875,11.92785703125,15.355146875C11.84855703125,15.435246875,11.77992703125,15.525346875,11.72366703125,15.623046875C11.66558703125,15.719346875,11.63334703125,15.828946875,11.63005703125,15.941346875C11.63114703125,16.052646875,11.66680703125,16.160946875,11.73211703125,16.251046875C11.82646703125,16.390046875,11.93794703125,16.516646875,12.06391703125,16.627846875C12.01279703125,16.795346875,11.98743703125,16.912546875,11.91919703125,17.138546875C11.85069703125,17.367846874999998,11.79111703125,17.599746875,11.74056703125,17.833646875C11.68954703125,18.068046875,11.59595703125,18.302646875,11.59595703125,18.511846875C11.56130703125,18.671546875,11.54136703125,18.834146875,11.53637703125,18.997446875C11.55206703125,19.099046875,11.59976703125,19.192946875,11.67253703125,19.265446875C11.77205703125,19.395246875,11.88310703125,19.515746875,12.00433703125,19.625446875C12.12444703125,19.735146875,12.25235703125,19.835846875,12.38715703125,19.926946875C12.46785703125,19.986046875,12.56095703125,20.026146875,12.65945703125,20.044046875C12.76595703125,20.030946875,12.86635703125,19.987446875,12.94875703125,19.918646875C13.08275703125,19.830146875,13.20805703125,19.729246875,13.32305703125,19.617146875C13.43995703125,19.508546875,13.54805703125,19.390946875,13.64645703125,19.265446875L13.64645703125,19.265446875Z" fill="#0079DE" fill-opacity="1"/><g filter="url(#master_svg1_361_09188/368_09710)" style="mix-blend-mode:passthrough"><path d="M7.588839453125,13.933558125C7.863789453125,13.861818125,8.125269453125,13.745868125,8.363039453125001,13.590258125C8.497969453125,13.509998125,8.621119453125,13.411408125,8.728959453125,13.297298125L8.728959453125,13.247048125C8.679619453125,13.124208125,8.650849453125,12.994068125,8.643819453125001,12.861868125C8.634919453125,12.792358125,8.634919453125,12.721988125,8.643819453125001,12.652478125L8.303569453125,12.342798125C8.066799453125,12.128008125000001,7.878279453125,11.865438125,7.750459453125,11.572428125C7.665339453125,11.371468125,7.580389453125,11.178798125,7.512169453125,10.969488125L7.512169453125,10.818758124999999C7.350329453125,10.676248125,7.204819453125,10.516198124999999,7.078309453125,10.341558124999999C6.889529453125,10.069818125000001,6.751199453125,9.766318125,6.669939453125,9.445558125C6.534719453125,9.050238125,6.485419453125,8.630608125,6.525319453125,8.214708125C6.553189453125,7.966038125,6.610279453125,7.721508125,6.695399453125,7.486208125C6.734999453125,7.368328125,6.783369453125,7.253578125000001,6.840099453125,7.142918125C6.842859453125,6.697598125,6.874129453125,6.252908125,6.933709453125,5.811588125C6.986989453125,5.3540111249999995,7.072269453125,4.900731125,7.188909453125,4.455078125L7.018849453125,4.455078125C6.804479453125,4.457623815,6.590819453125,4.480038525,6.380599453125,4.522033825C6.158299453125,4.560721125,5.941329453125,4.625394125,5.734129453125,4.714721125C5.507989453125,4.822777125,5.294069453125,4.954705125,5.095989453125,5.108255125C4.871199453125,5.286407125,4.678439453125,5.501588125,4.525979453125,5.744538125C4.340929453125,6.031598125,4.200329453125001,6.344988125,4.108949453125,6.674078124999999C4.018429453125,6.9950681249999995,3.953019453125,7.322608125,3.913299453125,7.653738125C3.870859453125,8.014898125,3.853809453125,8.378588125,3.8622894531250003,8.742138125C3.724149453125,8.927418124999999,3.641539453125,9.148158125,3.624069453125,9.378608125C3.5988694531250003,9.522618125000001,3.5988694531250003,9.669908125,3.624069453125,9.813918125C3.661349453125,9.944838125,3.718729453125,10.069178125,3.7941594531250002,10.182498125C3.845019453125,10.254258125,3.901989453125,10.321498125,3.9644394531250002,10.383438125C4.0241394531250005,10.426678124999999,4.090119453125,10.460498125,4.160079453125,10.483728124999999L4.287669453125,10.919238125C4.338809453125,11.044798125,4.381259453125001,11.162078125,4.440839453125,11.287618125C4.484039453125,11.391368125,4.547709453125,11.485358125000001,4.628029453125,11.563968124999999C4.772139453125,11.683588125,4.908499453125,11.812248125,5.036309453125,11.949148125C5.1702094531250005,12.091858125,5.243419453125,12.281018125,5.240499453125,12.476688125L5.240499453125,12.870128125C5.242249453125,12.992748125,5.222119453125,13.114698125,5.181029453124999,13.230248125C5.131719453125,13.356738125,5.059599453125,13.473098125,4.968279453125,13.573548125C4.838299453125,13.713578125,4.689389453125,13.834758125,4.525879453125,13.933578125C4.262579453124999,14.098768125,3.975719453125,14.222998125,3.6751094531249997,14.302038125C3.453909453125,14.360618125,2.688162453125,14.636978125,2.169189453125,14.821178125L2.169189453125,18.371278125L2.245668253125,18.371278125C2.245668253125,18.161978124999997,2.296782453125,17.927678125,2.339370453125,17.617878125L2.339370453125,17.534078125C2.420265453125,16.816578125,2.768981453125,16.154178125,3.317739453125,15.675178125C3.767809453125,15.325578125,4.2782494531249995,15.061678125,4.823659453125,14.896478125L4.934259453125,14.896478125C6.465749453125,14.302018125,7.291059453125,14.025668125,7.588839453125,13.933558125ZM21.235589453125,14.302038125L20.980389453125,14.302038125C21.269489453125,14.399378125,21.553389453125,14.511178125,21.831289453125,14.636978125L21.831289453125,18.287678125L21.780189453125,18.287678125C21.782689453125,18.146378125,21.765589453125,18.005478125,21.729089453125,17.868978124999998C21.700989453125,17.531278125,21.638289453125,17.197478125,21.541889453125,16.872578125C21.372489453125,16.340978125,21.060589453125,15.866078125,20.640189453125,15.499378125C20.284389453125,15.216578125,19.888689453125,14.988078125,19.465989453125,14.821178125L18.981089453125,14.611778125L18.130189453125,14.226638125C17.855089453125,14.096958125,17.570689453125,13.987858125,17.279489453125002,13.900248125C16.988689453124998,13.828148125,16.704189453125,13.732908125,16.428589453125,13.615428125C16.263889453125,13.547628125,16.109289453125,13.457478125,15.969189453125,13.347528125C16.042789453125,13.202218125,16.080689453125,13.041468125,16.079789453125002,12.878598125L16.079789453125002,12.510118125C16.427989453125,12.244288125,16.700689453125,11.892198125,16.870989453125,11.488658125C16.960889453125,11.289748125,17.046089453125,11.088718125,17.126289453125,10.885728125L17.126289453125,10.835578125L17.185789453125,10.651338124999999C17.462889453125,10.423528125,17.686589453125002,10.137658125,17.841089453125,9.813918125C17.984789453125,9.486358124999999,18.079389453125,9.139348125,18.121689453125,8.784128124999999C18.169089453125,8.473328125,18.169089453125,8.157128125,18.121689453125,7.846328124999999C18.066589453124998,7.552188125,17.963089453125,7.269218125,17.815489453125,7.008908125C17.807189453124998,6.582998125,17.773089453125,6.157968125,17.713289453125,5.736178125C17.658089453125,5.308587125,17.569889453125,4.885900125,17.449589453125,4.471897525L17.789889453125,4.471897525C18.040089453125,4.471771825,18.289089453125,4.505566925,18.530189453125,4.572360125C18.970189453125,4.698862125,19.382689453125,4.906124125,19.746789453125,5.183562125C19.895589453125,5.295147125,20.027389453125,5.427711125,20.138089453125,5.577118125C20.374389453125,5.877648125,20.561089453125,6.214058125,20.691189453125,6.573598125C20.792789453125,6.9108181250000005,20.869589453125,7.255048125,20.920789453125,7.603508124999999C20.973189453125,7.980698125,20.995989453125,8.361408125,20.989089453125,8.742148125C21.050389453125,8.784558125,21.095389453125,8.846648125,21.116589453125,8.918118125C21.155189453125,8.998878125000001,21.186489453125,9.082948125,21.210089453125,9.169308125C21.227189453125,9.297108125000001,21.227189453125,9.426598125,21.210089453125,9.554398124999999C21.194489453125,9.719478125,21.151289453125,9.880798125,21.082589453125,10.031688124999999C21.035189453125,10.135658124999999,20.971989453125,10.231688125,20.895389453125,10.316408124999999C20.818789453125,10.384258124999999,20.728989453125,10.435568125,20.631689453125,10.467118124999999C20.597589453125,10.617828124999999,20.512389453125,10.768518125,20.512389453125,10.910878125C20.470189453125,11.034438125000001,20.419089453125,11.154768125,20.359389453125,11.270908125C20.314689453125,11.378408125,20.247989453125,11.475398125,20.163689453125,11.555708124999999L19.942489453125,11.748198125C19.870189453125,11.791798125,19.804289453125,11.845348125000001,19.746889453125,11.907268125C19.689989453125,11.968868125,19.643889453125,12.039678125,19.610589453125,12.116678125C19.525789453125,12.346728125,19.490989453125,12.592238125,19.508589453125,12.836808125C19.517189453125,12.989418125,19.551689453125,13.139458125,19.610589453125,13.280478125C19.685389453125,13.440368125,19.792589453125,13.582978125,19.925389453125,13.699278125C20.097989453125,13.849098125,20.293289453125,13.970588125,20.503989453125,14.059218125C20.743489453125,14.152668125,20.987689453125,14.233718125,21.235589453125,14.302038125Z" fill="url(#master_svg2_348_10397)"/><path d="M4.823659453125,14.896478125L4.934259453125,14.896478125C6.465749453125,14.302018125,7.291059453125,14.025668125,7.588839453125,13.933558125C7.863789453125,13.861818125,8.125269453125,13.745868125,8.363039453125001,13.590258125C8.497969453125,13.509998125,8.621119453125,13.411408125,8.728959453125,13.297298125L8.728959453125,13.247048125C8.679619453125,13.124208125,8.650849453125,12.994068125,8.643819453125001,12.861868125C8.634919453125,12.792358125,8.634919453125,12.721988125,8.643819453125001,12.652478125L8.303569453125,12.342798125C8.066799453125,12.128008125000001,7.878279453125,11.865438125,7.750459453125,11.572428125C7.665339453125,11.371468125,7.580389453125,11.178798125,7.512169453125,10.969488125L7.512169453125,10.818758124999999C7.350329453125,10.676248125,7.204819453125,10.516198124999999,7.078309453125,10.341558124999999C6.889529453125,10.069818125000001,6.751199453125,9.766318125,6.669939453125,9.445558125C6.534719453125,9.050238125,6.485419453125,8.630608125,6.525319453125,8.214708125C6.553189453125,7.966038125,6.610279453125,7.721508125,6.695399453125,7.486208125C6.734999453125,7.368328125,6.783369453125,7.253578125000001,6.840099453125,7.142918125C6.842859453125,6.697598125,6.874129453125,6.252908125,6.933709453125,5.811588125C6.983599453125,5.383100125,7.061549453125,4.958381125,7.167049453125,4.540163425C7.174209453125,4.511771425,7.181499453125,4.483409325,7.188909453125,4.455078125L7.018849453125,4.455078125C6.804479453125,4.457623815,6.590819453125,4.480038525,6.380599453125,4.522033825C6.158299453125,4.560721125,5.941329453125,4.625394125,5.734129453125,4.714721125C5.507989453125,4.822777125,5.294069453125,4.954705125,5.095989453125,5.108255125C4.871199453125,5.286407125,4.678439453125,5.501588125,4.525979453125,5.744538125C4.340929453125,6.031598125,4.200329453125001,6.344988125,4.108949453125,6.674078124999999C4.018429453125,6.9950681249999995,3.953019453125,7.322608125,3.913299453125,7.653738125C3.870859453125,8.014898125,3.853809453125,8.378588125,3.8622894531250003,8.742138125C3.724149453125,8.927418124999999,3.641539453125,9.148158125,3.624069453125,9.378608125C3.5988694531250003,9.522618125000001,3.5988694531250003,9.669908125,3.624069453125,9.813918125C3.661349453125,9.944838125,3.718729453125,10.069178125,3.7941594531250002,10.182498125C3.845019453125,10.254258125,3.901989453125,10.321498125,3.9644394531250002,10.383438125C4.0241394531250005,10.426678124999999,4.090119453125,10.460498125,4.160079453125,10.483728124999999L4.287669453125,10.919238125C4.338809453125,11.044798125,4.381259453125001,11.162078125,4.440839453125,11.287618125C4.484039453125,11.391368125,4.547709453125,11.485358125000001,4.628029453125,11.563968124999999C4.772139453125,11.683588125,4.908499453125,11.812248125,5.036309453125,11.949148125C5.1702094531250005,12.091858125,5.243419453125,12.281018125,5.240499453125,12.476688125L5.240499453125,12.870128125C5.242249453125,12.992748125,5.222119453125,13.114698125,5.181029453124999,13.230248125C5.131719453125,13.356738125,5.059599453125,13.473098125,4.968279453125,13.573548125C4.838299453125,13.713578125,4.689389453125,13.834758125,4.525879453125,13.933578125C4.262579453124999,14.098768125,3.975719453125,14.222998125,3.6751094531249997,14.302038125C3.453909453125,14.360618125,2.688162453125,14.636978125,2.169189453125,14.821178125L2.169189453125,18.371278125L2.245668253125,18.371278125C2.245668253125,18.319178125,2.248845153125,18.265378124999998,2.254274753125,18.209278125C2.270624453125,18.040478125,2.307399453125,17.850378125,2.339370453125,17.617878125L2.339370453125,17.534078125C2.420265453125,16.816578125,2.768981453125,16.154178125,3.317739453125,15.675178125C3.767809453125,15.325578125,4.2782494531249995,15.061678125,4.823659453125,14.896478125ZM2.254285353125,17.611978125L2.254285353125,17.529278124999998L2.254820953125,17.524578124999998Q2.384172453125,16.377178125,3.261779453125,15.611078125L3.263619453125,15.609478125L3.265549453125,15.607978125Q3.958849453125,15.069478125,4.798999453125,14.815078125L4.811059453125,14.811478125L4.918319453125,14.811478125Q6.708249453125,14.116898125,7.563699453125,13.852278125L7.565509453125,13.851718125L7.567359453125,13.851238125Q7.969059453125,13.746418125,8.316439453125,13.519068125L8.317969453125,13.518068125L8.319539453125,13.517128125Q8.498279453125,13.410818125,8.643799453125,13.263028125Q8.570339453125001,13.073148125,8.559019453125,12.869518125Q8.547629453125001,12.778008125,8.554799453125,12.686508125L8.246299453125001,12.405718125Q7.873689453125,12.067708125,7.672469453125,11.606458125Q7.661669453125,11.580958125,7.640639453125,11.531568125Q7.492209453125,11.182828125,7.431269453125,10.995858125L7.427079453125,10.983008125L7.427079453125,10.856878125Q7.193959453125,10.646258125,7.009409453125,10.391478124999999Q6.715129453125,9.967908125000001,6.588309453125,9.469818125Q6.378489453125,8.854178125,6.440619453125,8.206578125Q6.483789453125,7.821398125,6.615059453125,7.458168125Q6.673239453125,7.2852081250000005,6.755159453125,7.122268125Q6.760539453125,6.458298125,6.849389453125,5.800198125Q6.923559453125,5.163164125,7.079319453125,4.540163425L7.018849453125,4.540163425Q6.705529453125,4.543890325,6.397259453125,4.605470125L6.396229453125,4.605678125L6.395179453125,4.605859125Q6.071289453125,4.662229125,5.769329453125,4.792201125Q5.438219453125,4.950612125,5.148119453125,5.175501125Q4.8206394531250005,5.435045125,4.598049453125,5.7897581250000005Q4.325329453125001,6.212838125,4.190929453124999,6.696848125Q4.056649453125,7.1729981249999994,3.997779453125,7.6638681250000005Q3.9347594531250003,8.200138125,3.9473494531249997,8.740148125000001L3.9480294531249998,8.769478125L3.930499453125,8.792988125Q3.733779453125,9.056858125,3.708919453125,9.385038125000001L3.708599453125,9.389178125L3.707889453125,9.393278125Q3.6727394531249997,9.594078125,3.707129453125,9.794888125Q3.759579453125,9.976668125,3.8642994531249997,10.134318125Q3.934249453125,10.232838125,4.019609453125,10.318298125Q4.0968694531250005,10.373088124999999,4.186889453125,10.402978125L4.229199453125,10.417028125L4.368109453125,10.891178125Q4.382489453125,10.926588125,4.408369453125,10.992088125Q4.476069453125,11.163398125,4.517709453125001,11.251138125L4.518589453125,11.252998125000001L4.519389453125,11.254908125Q4.577549453125,11.394588125,4.685139453125,11.500788125Q4.9041394531249995,11.682888125,5.098509453125001,11.891078125Q5.330649453125,12.138518125000001,5.325569453125,12.477958125L5.325579453125,12.870128125Q5.328449453125,13.069618125,5.261199453125,13.258758125L5.260769453125,13.259958125L5.2602994531250005,13.261158125Q5.179979453125,13.467178125,5.031239453125,13.630788125Q4.826589453125,13.851258125,4.5698894531250005,14.006398125Q4.162859453125,14.261778125,3.6967494531250003,14.384328125Q3.512479453125,14.433128125,2.446282453125,14.812978125Q2.328532453125,14.854878125,2.254274753125,14.881278125L2.254274753125,17.612078125L2.254285353125,17.611978125ZM20.949289453125,14.216958125C20.799289453125,14.169078125,20.650789453125,14.116478125,20.503989453125,14.059218125C20.293289453125,13.970588125,20.097989453125,13.849098125,19.925389453125,13.699278125C19.792589453125,13.582978125,19.685389453125,13.440368125,19.610589453125,13.280478125C19.551689453125,13.139458125,19.517189453125,12.989418125,19.508589453125,12.836808125C19.490989453125,12.592238125,19.525789453125,12.346728125,19.610589453125,12.116678125C19.643889453125,12.039678125,19.689989453125,11.968868125,19.746889453125,11.907268125C19.804289453125,11.845348125000001,19.870189453125,11.791798125,19.942489453125,11.748198125L20.163689453125,11.555708124999999C20.247989453125,11.475398125,20.314689453125,11.378408125,20.359389453125,11.270908125C20.419089453125,11.154768125,20.470189453125,11.034438125000001,20.512389453125,10.910878125C20.512389453125,10.768518125,20.597589453125,10.617828124999999,20.631689453125,10.467118124999999C20.728989453125,10.435568125,20.818789453125,10.384258124999999,20.895389453125,10.316408124999999C20.971989453125,10.231688125,21.035189453125,10.135658124999999,21.082589453125,10.031688124999999C21.151289453125,9.880798125,21.194489453125,9.719478125,21.210089453125,9.554398124999999C21.227189453125,9.426598125,21.227189453125,9.297108125000001,21.210089453125,9.169308125C21.186489453125,9.082948125,21.155189453125,8.998878125000001,21.116589453125,8.918118125C21.095389453125,8.846648125,21.050389453125,8.784558125,20.989089453125,8.742148125C20.995989453125,8.361408125,20.973189453125,7.980698125,20.920789453125,7.603508124999999C20.869589453125,7.255048125,20.792789453125,6.9108181250000005,20.691189453125,6.573598125C20.561089453125,6.214058125,20.374389453125,5.877648125,20.138089453125,5.577118125C20.027389453125,5.427711125,19.895589453125,5.295147125,19.746789453125,5.183562125C19.382689453125,4.906124125,18.970189453125,4.698862125,18.530189453125,4.572360125C18.289089453125,4.505566925,18.040089453125,4.471771825,17.789889453125,4.471897525L17.449589453125,4.471897525C17.457789453125002,4.500219025,17.465889453125,4.528581225,17.473789453125,4.556983125C17.581889453125,4.943754125,17.661889453125,5.337838125,17.713289453125,5.736178125C17.773089453125,6.157968125,17.807189453124998,6.582998125,17.815489453125,7.008908125C17.963089453125,7.269218125,18.066589453124998,7.552188125,18.121689453125,7.846328124999999C18.169089453125,8.157128125,18.169089453125,8.473328125,18.121689453125,8.784128124999999C18.079389453125,9.139348125,17.984789453125,9.486358124999999,17.841089453125,9.813918125C17.686589453125002,10.137658125,17.462889453125,10.423528125,17.185789453125,10.651338124999999L17.126289453125,10.835578125L17.126289453125,10.885728125C17.046089453125,11.088718125,16.960889453125,11.289748125,16.870989453125,11.488658125C16.700689453125,11.892198125,16.427989453125,12.244288125,16.079789453125002,12.510118125L16.079789453125002,12.878598125C16.080689453125,13.041468125,16.042789453125,13.202218125,15.969189453125,13.347528125C16.109289453125,13.457478125,16.263889453125,13.547628125,16.428589453125,13.615428125C16.704189453125,13.732908125,16.988689453124998,13.828148125,17.279489453125002,13.900248125C17.570689453125,13.987858125,17.855089453125,14.096958125,18.130189453125,14.226638125L18.981089453125,14.611778125L19.465989453125,14.821178125C19.888689453125,14.988078125,20.284389453125,15.216578125,20.640189453125,15.499378125C21.060589453125,15.866078125,21.372489453125,16.340978125,21.541889453125,16.872578125C21.638289453125,17.197478125,21.700989453125,17.531278125,21.729089453125,17.868978124999998C21.735389453125,17.892378125,21.741089453125,17.915978125000002,21.746189453125,17.939578125C21.766989453125,18.035778125,21.778389453125,18.133778125,21.780189453125,18.232178125C21.780489453125,18.250678125,21.780489453125,18.269178125,21.780189453125,18.287678125L21.831289453125,18.287678125L21.831289453125,14.636978125C21.631189453125,14.546378125,21.427889453125,14.463078125,21.221789453125,14.387118125C21.218889453125,14.386048125,21.215989453125,14.384978125,21.212989453125,14.383898125C21.135889453125,14.355568125,21.058289453125,14.328278125,20.980389453125,14.302038125L21.235589453125,14.302038125C21.157789453125,14.280598125,21.080389453125,14.257898125,21.003289453125,14.233958125C20.985289453125,14.228358125,20.967289453125,14.222688125,20.949289453125,14.216958125ZM20.683389453125,14.216958125Q20.577689453125,14.179298125,20.473089453125,14.138478125L20.471989453125,14.138078125L20.470989453125,14.137638125Q20.140489453125,13.998588125,19.869389453125,13.763288125Q19.654589453125,13.575158125,19.533589453125,13.316538125L19.532789453125,13.314928125L19.532089453125,13.313298125Q19.437389453125,13.086738125,19.423689453125,12.842918125Q19.395689453125,12.453508124999999,19.530789453125,12.087238124999999L19.531589453125,12.085058125L19.532489453125,12.082928124999999Q19.588589453125,11.953268125000001,19.684489453125,11.849408125Q19.776689453125,11.750028125,19.892089453125,11.679258125L20.106389453125,11.492828124999999Q20.220189453125,11.383838125,20.280789453125,11.238228125L20.282089453125,11.235068125L20.283689453125,11.232018125Q20.367589453125,11.068828125,20.427689453125,10.895558125Q20.432389453125,10.794128125,20.497489453125,10.611338125Q20.536789453125,10.501118125,20.548689453125,10.448338125L20.559389453125,10.401108125L20.605389453125,10.386178125Q20.733889453125,10.344528125,20.835389453125,10.255788124999999Q20.940089453125,10.139118125,21.005089453125,9.996388125Q21.103089453125,9.781468125,21.125389453125,9.546348125L21.125589453125,9.544758125000001L21.125789453125,9.543168125000001Q21.149589453125,9.364698125,21.126489453125,9.186228125Q21.093289453125,9.066748125,21.039789453125,8.954828124999999L21.036889453125,8.948768125L21.034989453125,8.942318125Q21.010689453125,8.860608124999999,20.940689453125,8.812128125000001L20.903189453125,8.786188124999999L20.903989453125,8.740608125Q20.914289453125,8.175358124999999,20.836589453125,7.615888125Q20.760689453125,7.099788125,20.610389453125,6.600378125000001Q20.418789453125,6.071728125,20.071189453125,5.6297081250000005L20.070389453125,5.628758125L20.069689453125,5.627778125Q19.910189453125,5.412452125,19.695189453125,5.251240125Q19.156989453125,4.841126125,18.507489453125,4.654356125Q18.155389453125,4.556799125,17.789889453125,4.556983125L17.562089453124997,4.556983125Q17.721189453125,5.1324271249999995,17.797589453125,5.724248125Q17.886489453125,6.351998125,17.900089453125,6.985828124999999Q18.121489453125,7.383118125,18.205389453125,7.830658124999999L18.205589453125,7.832068125L18.205789453125,7.833498125Q18.279189453125,8.314508125,18.206089453125,8.795538125Q18.140689453125,9.343098125000001,17.918989453125,9.848118125L17.918389453125002,9.849348124999999L17.917889453125,9.850568124999999Q17.680589453125002,10.347808125,17.259189453125,10.701008125000001L17.211389453125,10.848968124999999L17.211389453125,10.901938125000001L17.205489453125,10.917018125Q17.084489453125002,11.222928125,16.948989453125,11.522718125Q16.688489453125,12.139158125,16.164889453125,12.551798125L16.164889453125,12.878128125Q16.166189453125,13.110518125,16.075489453125,13.321198125Q16.254989453125,13.451938125,16.461989453125,13.537158125Q16.869689453124998,13.710988125,17.299989453125,13.817658125L17.301989453125,13.818168125L17.303989453125,13.818768125Q17.747489453125,13.952188125,18.165289453125,14.149118125L19.014789453125,14.533678125L19.498489453125,14.742578125Q20.147089453125,14.998778125,20.693089453125,15.432778125L20.694589453125,15.433978125L20.696089453125,15.435278125Q21.356789453125,16.011478125,21.623489453125,16.848378125Q21.698289453125,17.100578125,21.746189453125,17.357678125L21.746189453125,14.692078125Q21.356989453125,14.518678125,20.953189453125,14.382678125L20.461089453125,14.216958125L20.683389453125,14.216958125Z" fill-rule="evenodd" fill="url(#master_svg3_1_2527)"/></g></g></g></g></g></svg>