<svg xmlns="http://www.w3.org/2000/svg" xmlns:xlink="http://www.w3.org/1999/xlink" fill="none" version="1.1" width="16" height="16" viewBox="0 0 16 16"><g style="mix-blend-mode:passthrough"><g><path d="M3.639503373069763,12.35913125Q5.445713373069763,14.16533125,8.000003373069763,14.16533125Q10.554293373069763,14.16533125,12.360433373069764,12.35913125Q14.166633373069763,10.55299125,14.166633373069763,7.99870125Q14.166633373069763,5.44441125,12.360433373069764,3.63820125Q10.554293373069763,1.83203025,8.000003373069763,1.83203125Q5.445713373069763,1.83203125,3.639503373069763,3.63821125Q1.8333333730697632,5.44441125,1.8333333730697632,7.99870125Q1.8333333730697632,10.55299125,3.639503373069763,12.35913125L3.639503373069763,12.35913125ZM2.9324033730697634,13.06633125Q0.8333333730697632,10.96720125,0.8333333730697632,7.99870125Q0.8333333730697632,5.03020125,2.9324033730697634,2.9310912499999997Q5.031503373069763,0.83203125,8.000003373069763,0.83203125Q10.968503373069764,0.83203125,13.067633373069762,2.93110125Q15.166633373069763,5.03020125,15.166633373069763,7.99870125Q15.166633373069763,10.96720125,13.067633373069762,13.06633125Q10.968503373069764,15.16533125,8.000003373069763,15.16533125Q5.031503373069763,15.16533125,2.9324033730697634,13.06633125L2.9324033730697634,13.06633125Z" fill="#000000" fill-opacity="0.20000000298023224"/><path d="M5.5,6.2069830894470215Q5.5,5.171451089447022,6.232234,4.4392170894470215Q6.964468,3.7069830894470215,8,3.7069830894470215Q9.03553,3.7069830894470215,9.76777,4.4392170894470215Q10.5,5.171451089447022,10.5,6.2069830894470215Q10.5,7.242513089447021,9.76777,7.974753089447022Q9.03553,8.706983089447021,8,8.706983089447021L8,8.206983089447021L8.5,8.206983089447021L8.5,9.540313089447022Q8.5,9.589563089447022,8.49039,9.637863089447022Q8.48078,9.686163089447021,8.46194,9.731653089447022Q8.44309,9.777153089447022,8.41573,9.818103089447021Q8.38838,9.85904308944702,8.35355,9.893873089447021Q8.31873,9.928693089447021,8.27779,9.956053089447021Q8.23684,9.983413089447023,8.19134,10.002253089447022Q8.14584,10.02110308944702,8.09754,10.030713089447023Q8.04925,10.040313089447022,8,10.040313089447022Q7.95075,10.040313089447022,7.90245,10.030713089447023Q7.85416,10.02110308944702,7.80866,10.002253089447022Q7.76316,9.983413089447023,7.7222100000000005,9.956053089447021Q7.68127,9.928693089447021,7.64645,9.893873089447021Q7.61162,9.85904308944702,7.5842600000000004,9.818103089447021Q7.55691,9.777153089447022,7.53806,9.731653089447022Q7.51921,9.686163089447021,7.50961,9.637863089447022Q7.5,9.589563089447022,7.5,9.540313089447022L7.5,8.206983089447021Q7.5,8.15773308944702,7.50961,8.109443089447021Q7.51921,8.061143089447022,7.53806,8.015643089447021Q7.55691,7.9701430894470215,7.5842600000000004,7.929193089447022Q7.61162,7.888253089447021,7.64645,7.853433089447021Q7.68127,7.818603089447022,7.7222100000000005,7.7912530894470216Q7.76316,7.763893089447022,7.80866,7.745043089447021Q7.85416,7.726203089447021,7.90245,7.716593089447022Q7.95075,7.7069830894470215,8,7.7069830894470215Q8.62132,7.7069830894470215,9.06066,7.267643089447022Q9.5,6.828303089447021,9.5,6.2069830894470215Q9.5,5.585663089447022,9.06066,5.146324089447021Q8.62132,4.7069830894470215,8,4.7069830894470215Q7.37868,4.7069830894470215,6.939341,5.146324089447021Q6.5,5.585663089447022,6.5,6.2069830894470215Q6.5,6.256233089447021,6.490393,6.3045330894470215Q6.480785,6.352823089447021,6.46194,6.398323089447022Q6.443094,6.443823089447021,6.415735,6.484773089447021Q6.388375,6.525713089447022,6.353553,6.560533089447022Q6.318731,6.595363089447021,6.277785,6.622723089447021Q6.236839,6.650073089447021,6.191342,6.668923089447022Q6.145845,6.687773089447021,6.0975451,6.697373089447021Q6.0492457,6.7069830894470215,6,6.7069830894470215Q5.9507543,6.7069830894470215,5.9024549,6.697373089447021Q5.854155,6.687773089447021,5.808658,6.668923089447022Q5.763161,6.650073089447021,5.722215,6.622723089447021Q5.681269,6.595363089447021,5.646447,6.560533089447022Q5.611625,6.525713089447022,5.584265,6.484773089447021Q5.556906,6.443823089447021,5.53806,6.398323089447022Q5.519215,6.352823089447021,5.509607,6.3045330894470215Q5.5,6.256233089447021,5.5,6.2069830894470215ZM6.5,6.2069830894470215Q6.5,6.256233089447021,6.490393,6.3045330894470215Q6.480785,6.352823089447021,6.46194,6.398323089447022Q6.443094,6.443823089447021,6.415735,6.484773089447021Q6.388375,6.525713089447022,6.353553,6.560533089447022Q6.318731,6.595363089447021,6.277785,6.622723089447021Q6.236839,6.650073089447021,6.191342,6.668923089447022Q6.145845,6.687773089447021,6.0975451,6.697373089447021Q6.0492457,6.7069830894470215,6,6.7069830894470215Q5.9507543,6.7069830894470215,5.9024549,6.697373089447021Q5.854155,6.687773089447021,5.808658,6.668923089447022Q5.763161,6.650073089447021,5.722215,6.622723089447021Q5.681269,6.595363089447021,5.646447,6.560533089447022Q5.611625,6.525713089447022,5.584265,6.484773089447021Q5.556906,6.443823089447021,5.53806,6.398323089447022Q5.519215,6.352823089447021,5.509607,6.3045330894470215Q5.5,6.256233089447021,5.5,6.2069830894470215Q5.5,6.157733089447022,5.509607,6.109443089447021Q5.519215,6.061143089447022,5.53806,6.015643089447021Q5.556906,5.9701430894470215,5.584265,5.929203089447022Q5.611625,5.888253089447021,5.646447,5.853433089447021Q5.681269,5.818603089447022,5.722215,5.7912530894470216Q5.763161,5.763893089447022,5.808658,5.745043089447021Q5.854155,5.726203089447021,5.9024549,5.716593089447022Q5.9507543,5.7069830894470215,6,5.7069830894470215Q6.0492457,5.7069830894470215,6.0975451,5.716593089447022Q6.145845,5.726203089447021,6.191342,5.745043089447021Q6.236839,5.763893089447022,6.277785,5.7912530894470216Q6.318731,5.818603089447022,6.353553,5.853433089447021Q6.388375,5.888253089447021,6.415735,5.929203089447022Q6.443094,5.9701430894470215,6.46194,6.015643089447021Q6.480785,6.061143089447022,6.490393,6.109443089447021Q6.5,6.157733089447022,6.5,6.2069830894470215ZM8.5,9.540313089447022Q8.5,9.589563089447022,8.49039,9.637863089447022Q8.48078,9.686163089447021,8.46194,9.731653089447022Q8.44309,9.777153089447022,8.41573,9.818103089447021Q8.38838,9.85904308944702,8.35355,9.893873089447021Q8.31873,9.928693089447021,8.27779,9.956053089447021Q8.23684,9.983413089447023,8.19134,10.002253089447022Q8.14584,10.02110308944702,8.09754,10.030713089447023Q8.04925,10.040313089447022,8,10.040313089447022Q7.95075,10.040313089447022,7.90245,10.030713089447023Q7.85416,10.02110308944702,7.80866,10.002253089447022Q7.76316,9.983413089447023,7.7222100000000005,9.956053089447021Q7.68127,9.928693089447021,7.64645,9.893873089447021Q7.61162,9.85904308944702,7.5842600000000004,9.818103089447021Q7.55691,9.777153089447022,7.53806,9.731653089447022Q7.51921,9.686163089447021,7.50961,9.637863089447022Q7.5,9.589563089447022,7.5,9.540313089447022Q7.5,9.49107308944702,7.50961,9.442773089447021Q7.51921,9.394473089447022,7.53806,9.348973089447021Q7.55691,9.30347308944702,7.5842600000000004,9.262533089447022Q7.61162,9.221583089447021,7.64645,9.186763089447021Q7.68127,9.151943089447022,7.7222100000000005,9.124583089447022Q7.76316,9.097223089447022,7.80866,9.078373089447021Q7.85416,9.059533089447022,7.90245,9.04992308944702Q7.95075,9.040313089447022,8,9.040313089447022Q8.04925,9.040313089447022,8.09754,9.04992308944702Q8.14584,9.059533089447022,8.19134,9.078373089447021Q8.23684,9.097223089447022,8.27778,9.124583089447022Q8.31873,9.151943089447022,8.35355,9.186763089447021Q8.38838,9.221583089447021,8.41573,9.262533089447022Q8.44309,9.30347308944702,8.46194,9.348973089447021Q8.48078,9.394473089447022,8.49039,9.442773089447021Q8.5,9.49107308944702,8.5,9.540313089447022Z" fill="#000000" fill-opacity="0.20000000298023224"/><path d="M7.866666984558106,12.275C8.253266984558106,12.275,8.566666984558106,11.9616,8.566666984558106,11.575C8.566666984558106,11.188404,8.253266984558106,10.875,7.866666984558106,10.875C7.480070984558106,10.875,7.1666669845581055,11.188404,7.1666669845581055,11.575C7.1666669845581055,11.9616,7.480070984558106,12.275,7.866666984558106,12.275Z" fill-rule="evenodd" fill="#000000" fill-opacity="0.20000000298023224"/></g></g></svg>