<svg xmlns="http://www.w3.org/2000/svg" xmlns:xlink="http://www.w3.org/1999/xlink" fill="none" version="1.1" width="25" height="25" viewBox="0 0 25 25"><defs><filter id="master_svg1_424_15627/424_15173" filterUnits="userSpaceOnUse" color-interpolation-filters="sRGB" x="12.8994140625" y="12.822265625" width="10.709339261054993" height="10.70936119556427"><feFlood flood-opacity="0" result="BackgroundImageFix"/><feBlend mode="normal" in="SourceGraphic" in2="BackgroundImageFix" result="shape"/><feGaussianBlur in="BackgroundImage" stdDeviation="0.5554614663124084"/><feComposite in2="SourceAlpha" operator="in" result="effect1_foregroundBlur"/><feBlend mode="normal" in="SourceGraphic" in2="effect1_foregroundBlur" result="shape"/></filter><linearGradient x1="0.5" y1="0" x2="0.5" y2="1" id="master_svg2_348_10397"><stop offset="0%" stop-color="#00D695" stop-opacity="1"/><stop offset="100%" stop-color="#00D695" stop-opacity="0.10000000149011612"/></linearGradient><linearGradient x1="0.9054054021835327" y1="1.0000001192092896" x2="0.5027027130126953" y2="0.05913979187607765" id="master_svg3_1_2527"><stop offset="0%" stop-color="#FFFFFF" stop-opacity="1"/><stop offset="100%" stop-color="#FFFFFF" stop-opacity="0"/></linearGradient></defs><clipPath id="master_svg0_424_15627/424_15167"><rect x="0" y="0" width="25" height="25" rx="0"/></clipPath><g clip-path="url(#master_svg0_424_15627/424_15167)"><g><path d="M11.944184375,17.568859375000002L11.966404375,17.579959375C11.966404375,16.480159375,12.288574375,15.413659375,12.899534375,14.502659375C12.877334375,14.291559375,12.921834375,14.069459375,13.032934375,13.891659375C13.521734375,13.269559375,13.888334375,12.558559375,14.110534375,11.792009375C14.688134375,11.325419375,15.065834375,10.636639375,15.154734375,9.892319375Q15.221434375,8.792499375,14.943634375,8.748059375C15.354734375,7.514929375,15.488034375,2.882347375,12.444104375,3.437812375C11.921974375,2.426864875,8.722514375,1.693650375,7.233874375,4.248789375C6.422904375,5.604129374999999,6.267374375,7.259409375,6.789504375,8.748059375C6.789504375,8.848039374999999,6.589544375,8.648079375,6.522884375,9.303519375C6.489554375,10.014519374999999,6.678414375,10.714409375,7.078344375,11.292089375C7.211654375,11.458729375,7.400514375,11.592039375,7.600484375,11.669809375C7.789334375,12.480789375,8.167054375,13.247359375,8.700294375,13.891659375C8.800274375,14.424959375,8.533654375000001,14.958159375,8.044844375,15.191459375C5.134234375,15.724659375,2.490234375,17.279959375,2.490234375,18.990859375L2.490234375,20.290659375C2.490234375,22.112559375,6.867274375,22.512459375,10.811044375,22.512459375C11.999734375,22.501359375,13.177334375,22.412459375,14.343734375,22.245859375C12.844034375,21.157159375,11.955294375,19.424059375,11.944184375,17.568859375000002Z" fill="#0079DE" fill-opacity="1"/><g style="mix-blend-mode:passthrough"><g><g style="mix-blend-mode:passthrough"><path d="M12.8994140625,17.621485625C12.8994140625,14.977465625,15.0434940625,12.822265625,17.6986040625,12.822265625C20.3537040625,12.822265625,22.508894062499998,14.966365625,22.4977840625,17.621485625C22.4977840625,20.265495625,20.342594062499998,22.420705625,17.6986040625,22.420705625C15.054604062500001,22.420705625,12.8994140625,20.276605625000002,12.8994140625,17.621485625Z" fill-rule="evenodd" fill="#0079DE" fill-opacity="1"/></g><g filter="url(#master_svg1_424_15627/424_15173)" style="mix-blend-mode:passthrough"><path d="M12.8994140625,17.621485625C12.8994140625,14.977465625,15.0434940625,12.822265625,17.6986040625,12.822265625C20.3537040625,12.822265625,22.508894062499998,14.966365625,22.4977840625,17.621485625C22.4977840625,20.265495625,20.342594062499998,22.420705625,17.6986040625,22.420705625C15.054604062500001,22.420705625,12.8994140625,20.276605625000002,12.8994140625,17.621485625Z" fill-rule="evenodd" fill="url(#master_svg2_348_10397)"/><path d="M17.6986040625,12.822265625C15.0434940625,12.822265625,12.8994140625,14.977465625,12.8994140625,17.621485625C12.8994140625,20.276605625000002,15.054604062500001,22.420705625,17.6986040625,22.420705625C20.342594062499998,22.420705625,22.4977840625,20.265495625,22.4977840625,17.621485625C22.508894062499998,14.966365625,20.3537040625,12.822265625,17.6986040625,12.822265625ZM14.3467540625,20.977455624999997Q12.9549598625,19.587885625,12.9549601625,17.621485625Q12.9549602625,15.659545625,14.3426540625,14.269615625Q15.7322240625,12.877811425,17.6986040625,12.877811725Q19.6688640625,12.877811825,21.0587740625,14.265515624999999Q22.4504740625,15.654985625,22.442244062500002,17.621255625Q22.4422640625,19.581495625,21.0504140625,20.973325625Q19.6585740625,22.365175625,17.6985940625,22.365155625Q15.736664062500001,22.365145625,14.3467540625,20.977455624999997Z" fill-rule="evenodd" fill="url(#master_svg3_1_2527)"/></g><g style="mix-blend-mode:passthrough"><rect x="18.251953125" y="14.619140625" width="5.999013423919678" height="1.1109263896942139" rx="0.5554631948471069" transform="matrix(4.214990667605889e-8,1,-0.9999999403953552,0.000001770167614267848,32.871092109313196,-3.632838378329282)" fill="#FFFFFF" fill-opacity="1"/></g><g style="mix-blend-mode:passthrough"><rect x="14.701171875" y="17.064453125" width="5.999035358428955" height="1.110926628112793" rx="0.5554633140563965" transform="matrix(1.0000017881393433,1.6858939488884062e-7,-0.000001896608182505588,1,0.000006076837605561991,-0.0000024784616705630924)" fill="#FFFFFF" fill-opacity="1"/></g></g></g></g></g></svg>