<svg xmlns="http://www.w3.org/2000/svg" xmlns:xlink="http://www.w3.org/1999/xlink" fill="none" version="1.1" width="25" height="25" viewBox="0 0 25 25"><defs><filter id="master_svg1_424_15627/424_15418" filterUnits="userSpaceOnUse" color-interpolation-filters="sRGB" x="14.8291015625" y="13.298828125" width="10.74999988079071" height="10.744273066520691"><feFlood flood-opacity="0" result="BackgroundImageFix"/><feBlend mode="normal" in="SourceGraphic" in2="BackgroundImageFix" result="shape"/><feGaussianBlur in="BackgroundImage" stdDeviation="0.6249999403953552"/><feComposite in2="SourceAlpha" operator="in" result="effect1_foregroundBlur"/><feBlend mode="normal" in="SourceGraphic" in2="effect1_foregroundBlur" result="shape"/></filter><linearGradient x1="0.5" y1="0" x2="0.5" y2="1" id="master_svg2_348_10397"><stop offset="0%" stop-color="#00D695" stop-opacity="1"/><stop offset="100%" stop-color="#00D695" stop-opacity="0.10000000149011612"/></linearGradient><linearGradient x1="0.9054054021835327" y1="1.0000001192092896" x2="0.5027027130126953" y2="0.05913979187607765" id="master_svg3_1_2527"><stop offset="0%" stop-color="#FFFFFF" stop-opacity="1"/><stop offset="100%" stop-color="#FFFFFF" stop-opacity="0"/></linearGradient></defs><clipPath id="master_svg0_424_15627/424_15414"><rect x="0" y="0" width="25" height="25" rx="0"/></clipPath><g clip-path="url(#master_svg0_424_15627/424_15414)"><g><g style="mix-blend-mode:passthrough"><path d="M13.5146484375,15.88480625C13.6191484375,15.98830625,13.7226484375,16.06640625,13.8535484375,16.14450625C13.6709484375,16.716806249999998,13.5664484375,17.341806249999998,13.5146484375,17.99410625C13.5146484375,19.16600625,13.8535484375,20.25980625,14.4521484375,21.19730625C14.3222484375,21.22260625,14.1660484375,21.22260625,14.0351484375,21.24800625C13.1503484375,21.35350625,12.2382484375,21.40430625,11.3271484375,21.40430625C10.2851584375,21.40430625,9.3476584375,21.35350625,8.5410184375,21.24800625C7.7333984375,21.14450625,7.0566384375,20.98830625,6.5097684375,20.80660625C5.9628884375,20.62300625,5.5458984375,20.41600625,5.2597684375,20.18160625C4.9726584375,19.94730625,4.8427684375,19.71290625,4.8427684375,19.47850625C4.8427684375,19.11330625,4.9990284375,18.77540625,5.2597684375,18.51370625C5.5195284375,18.25390625,5.8583984375,17.99410625,6.2753884375,17.78520625C6.6914084375,17.57620625,7.1347684375,17.36910625,7.6035184375,17.18550625C8.0722684375,17.00390625,8.5146484375,16.82230625,8.9316384375,16.61330625C9.3476584375,16.404306249999998,9.6865284375,16.16990625,9.9472684375,15.93550625C10.2333984375,15.70120625,10.3632784375,15.41600625,10.3632784375,15.07620625C10.3632784375,14.73830625,10.2851584375,14.42580625,10.1552684375,14.13870625C10.0253884375,13.85350625,9.8691384375,13.54100625,9.6347684375,13.25390625C9.4003884375,12.96680625,9.1914084375,12.62890625,8.9316384375,12.29101625Q8.5405284375,11.78124625,8.2285184375,11.11913625C8.0195284375,10.67578625,7.8378884375,10.18163625,7.7070284375,9.60742625C7.5771484375,9.03515625,7.4990284375,8.38476625,7.4990284375,7.62890625C7.4990284375,5.98828625,7.8115284375,4.71288625,8.4101584375,3.74804625C9.0097684375,2.78515625,9.9472684375,2.31640625,11.2226484375,2.31640625C12.2910484375,2.31640625,13.1240484375,2.49804725,13.7490484375,2.81054725C14.3476484375,3.15039025,14.8164484375,3.56640625,15.1289484375,4.06054625C15.4414484375,4.55663625,15.6503484375,5.12890625,15.7285484375,5.72851625C15.8066484375,6.35351625,15.8583484375,6.95117625,15.8583484375,7.52538625C15.8583484375,8.30663625,15.7802484375,8.98242625,15.6503484375,9.55663625C15.4941484375,10.12890625,15.3378484375,10.62304625,15.1289484375,11.04101625C14.9209484375,11.45702625,14.7128484375,11.82226625,14.4785484375,12.16015625C14.2441484375,12.47260625,14.0351484375,12.78520625,13.8271484375,13.09760625C13.6191484375,13.38480625,13.4365484375,13.69730625,13.3066484375,14.00980625C13.1757484375,14.32230625,13.0976484375,14.68550625,13.0976484375,15.07620625C13.0976484375,15.38870625,13.2539484375,15.65040625,13.5146484375,15.88480625ZM20.3115484375,11.06640625C20.0507484375,11.35351625,19.8164484375,11.61328625,19.6083484375,11.87304625C19.5820484375,11.92578625,19.5302484375,11.97851625,19.5039484375,12.02929625C18.8007484375,12.02929625,18.1240484375,12.16015625,17.4990484375,12.39450625C17.4472484375,12.23828625,17.3427484375,12.08202625,17.2128484375,11.92578625C16.9785484375,11.66601625,16.7441484375,11.37890625,16.4833484375,11.04101625C16.7177484375,10.51952625,16.9003484375,9.91992625,17.0566484375,9.21679625C17.2128484375,8.51367625,17.2910484375,7.68163625,17.2910484375,6.74413625C17.2910484375,6.53515625,17.2910484375,6.32617625,17.2646484375,6.11913625L17.1865484375,5.49413625C17.5771484375,5.23242625,17.9160484375,5.10351625,18.2285484375,5.10351625C18.9052484375,5.10351625,19.4521484375,5.20702625,19.8691484375,5.44140625C20.2851484375,5.65038625,20.5976484375,5.93554625,20.8066484375,6.27538625C21.0146484375,6.61328625,21.1445484375,6.97851625,21.2226484375,7.36913625C21.3007484375,7.75976625,21.3271484375,8.12304625,21.3271484375,8.43554625C21.3271484375,9.08788625,21.2226484375,9.63476625,21.0146484375,10.02538625C20.8066484375,10.41601625,20.5722484375,10.77929625,20.3115484375,11.06640625ZM7.1347684375,15.96480625C7.4990284375,15.80860625,7.8115284375,15.62690625,8.0458984375,15.47070625C8.2802684375,15.28710625,8.4101584375,15.08010625,8.4101584375,14.79300625C8.4101584375,14.63670625,8.4101584375,14.50590625,8.3847684375,14.45510625C8.1240284375,14.29880625,7.8632784375,14.16800625,7.5253884375,14.03710625C7.1865284375,13.90820625,6.9003884375,13.77730625,6.6132784375,13.64650625C6.3271484375,13.51760625,6.0927684375,13.38670625,5.8847684375,13.25590625C5.6757784375,13.12690625,5.5722684375,12.94340625,5.5722684375,12.76170625C5.5722684375,12.42380625,5.6757784375,12.11132625,5.8583984375,11.84960625C6.0410184375,11.58984625,6.2490284375,11.33007625,6.4833984375,11.01757625C6.2490284375,10.54882625,6.0664084375,10.00195625,5.9101584375,9.34960625Q5.6757784375,8.37402625,5.6757784375,7.00585625C5.6757784375,6.43359625,5.7285184375,5.88671625,5.8066384375,5.365236250000001C5.4677684375,5.18359625,5.0253884375,5.10546625,4.4785184375,5.10546625C4.0878884375,5.10546625,3.7490284375,5.208986250000001,3.4365284375,5.392576249999999C3.1503884375,5.57421625,2.9160184375,5.833986250000001,2.7070284375,6.146486250000001C2.5253884375,6.45898625,2.3691384375,6.84960625,2.2910184375,7.26757625C2.1865284375,7.68359625,2.1601584375,8.12695625,2.1601584375,8.59570625C2.1601584375,9.22070625,2.2382784375,9.740236249999999,2.4208984375,10.13085625C2.6035184375,10.52148625,2.7851584375,10.88671625,2.9941384375,11.17382625C3.2021484375,11.45898625,3.4101584375,11.74609625,3.5664084375,11.98046625C3.7490284375,12.21484625,3.8271484375,12.47460625,3.8271484375,12.73630625C3.8271484375,12.99610625,3.6708984375,13.23050625,3.3320284375,13.41210625C3.0195284375,13.59570625,2.6552684375,13.75190625,2.2646484375,13.90820625C1.8740284375,14.06440625,1.5351564375,14.24610625,1.1972654375,14.42770625C0.8847654375,14.61130625,0.7021484375,14.87110625,0.7021484375,15.18360625C0.7021484375,15.44340625,0.7802734375,15.70510625,0.9365234375,15.96480625Q1.1708984375,16.35450625,1.6396484375,16.668006249999998C1.9521484375,16.876906249999998,2.3164084375,17.03320625,2.7597684375,17.16210625C3.2021484375,17.293006249999998,3.7226584375,17.34570625,4.3222684375,17.34570625L4.7382784375,17.34570625C5.0771484375,17.005906250000002,5.4677684375,16.72070625,5.9101584375,16.51170625C6.3535184375,16.30270625,6.7695284375,16.14650625,7.1347684375,15.96480625ZM24.3281484375,18.046006249999998C24.3281484375,20.66770625,22.2014484375,22.79310625,19.5781484375,22.79310625C16.9547484375,22.79310625,14.8281484375,20.66770625,14.8281484375,18.046006249999998C14.8281484375,15.42420625,16.9547484375,13.29880625,19.5781484375,13.29880625C22.2014484375,13.29880625,24.3281484375,15.42420625,24.3281484375,18.046006249999998Z" fill-rule="evenodd" fill="#0079DE" fill-opacity="1"/></g><g filter="url(#master_svg1_424_15627/424_15418)" style="mix-blend-mode:passthrough"><ellipse cx="19.5791015625" cy="18.04596471786499" rx="4.75" ry="4.74713659286499" fill="url(#master_svg2_348_10397)"/><ellipse cx="19.5791015625" cy="18.04596471786499" rx="4.71875" ry="4.71588659286499" stroke="url(#master_svg3_1_2527)" fill-opacity="0" stroke-width="0.0625" fill="none" stroke-dasharray=""/></g><path d="M20.7951271875,16.344310625Q21.3374771875,16.685350625,21.6225971875,17.255600625C21.6670771875,17.344550625,21.7450671875,17.412200625,21.8394271875,17.443650625C21.8776571875,17.456390625,21.9177071875,17.462890625,21.9580071875,17.462890625L21.9659671875,17.462810625C22.0214871875,17.461630625,22.076047187500002,17.448130625,22.1257171875,17.423300625C22.252757187500002,17.359780625,22.3330071875,17.229930625,22.3330071875,17.087890625C22.3330071875,17.087890625,22.3327571875,17.074090625,22.3327571875,17.074090625C22.3307871875,17.020570625,22.3173671875,16.968090625,22.2934171875,16.920180625L22.2932671875,16.919870625Q21.914267187500002,16.162093625,21.1943771875,15.709403625Q20.4544871875,15.2441406846046,19.5751971875,15.244140625Q18.6974071875,15.2441405951977,17.9649571875,15.710541625Q17.7635971875,15.838764625,17.5888671875,15.991937625L17.5888671875,15.916015625C17.5888671875,15.708908625,17.4209741875,15.541015625,17.2138671875,15.541015625C17.0067601875,15.541015625,16.8388671875,15.708908625,16.8388671875,15.916015625L16.8388671875,17.462890625L18.2148471875,17.462890625C18.4219471875,17.462890625,18.5898471875,17.295000625,18.5898471875,17.087890625C18.5898471875,16.880780625,18.4219471875,16.712890625,18.2148471875,16.712890625L17.9223771875,16.712890625Q18.1179471875,16.502270625,18.3678071875,16.343170625Q18.9159271875,15.994140625,19.5751971875,15.994140625Q20.2382671875,15.994140625,20.7951271875,16.344310625ZM18.3759371875,20.183060625Q17.8337871875,19.842040625,17.5494281875,19.272050625C17.5050291875,19.183050625,17.4270961875,19.115340625,17.3327721875,19.083800625C17.2944391875,19.070990625,17.2542861875,19.064450625,17.2138681875,19.064450625L17.2062431875,19.064530625C17.1507251875,19.065660625,17.0961521875,19.079100625,17.0464631875,19.103890625C16.9192536875,19.167350625,16.8388672173023,19.297290625,16.8388672173023,19.439450625C16.8388672173023,19.439450625,16.8391087945,19.452910625,16.8391087945,19.452910625C16.8410310775,19.506440625,16.8543968875,19.558930625000002,16.8783066875,19.606860625Q17.2565111875,20.364970624999998,17.9766071875,20.817910625Q18.7163171875,21.283200625,19.5957071875,21.283200625Q20.4740771875,21.283200625,21.2063471875,20.816770625Q21.4079971875,20.688330625,21.5829471875,20.534810625L21.5830071875,20.613280625L21.5830071875,20.613590625C21.5831771875,20.820580624999998,21.7510271875,20.988280625,21.9580071875,20.988280625L21.9583171875,20.988280625C22.165307187499998,20.988110625,22.3330071875,20.820270625,22.3330071875,20.613280625L22.3330071875,20.612970625L22.3320271875,19.439380625L22.3320271875,19.438900625L22.3317171875,19.064450625L20.9560571875,19.064450625C20.7489471875,19.064450625,20.5810571875,19.232350625,20.5810571875,19.439450625C20.5810571875,19.646560625,20.7489471875,19.814450625,20.9560571875,19.814450625L21.2486571875,19.814450625Q21.0531371875,20.025140625,20.8034171875,20.184200625Q20.2555071875,20.533200625,19.5957071875,20.533200625Q18.9325871875,20.533200625,18.3759371875,20.183060625Z" fill-rule="evenodd" fill="#FFFFFF" fill-opacity="1"/></g></g></svg>