<svg xmlns="http://www.w3.org/2000/svg" xmlns:xlink="http://www.w3.org/1999/xlink" fill="none" version="1.1" width="25" height="25" viewBox="0 0 25 25"><defs><filter id="master_svg1_424_15627/424_15496" filterUnits="userSpaceOnUse" color-interpolation-filters="sRGB" x="9.576424837112427" y="8.904296875" width="13.927481412887573" height="13.927223920822144"><feFlood flood-opacity="0" result="BackgroundImageFix"/><feBlend mode="normal" in="SourceGraphic" in2="BackgroundImageFix" result="shape"/><feGaussianBlur in="BackgroundImage" stdDeviation="0.7466181516647339"/><feComposite in2="SourceAlpha" operator="in" result="effect1_foregroundBlur"/><feBlend mode="normal" in="SourceGraphic" in2="effect1_foregroundBlur" result="shape"/></filter><linearGradient x1="0.5" y1="0" x2="0.5" y2="1" id="master_svg2_348_10397"><stop offset="0%" stop-color="#00D695" stop-opacity="1"/><stop offset="100%" stop-color="#00D695" stop-opacity="0.10000000149011612"/></linearGradient><linearGradient x1="0.9054054021835327" y1="1.0000001192092896" x2="0.5027027130126953" y2="0.05913979187607765" id="master_svg3_1_2527"><stop offset="0%" stop-color="#FFFFFF" stop-opacity="1"/><stop offset="100%" stop-color="#FFFFFF" stop-opacity="0"/></linearGradient></defs><clipPath id="master_svg0_424_15627/424_15494"><rect x="0" y="0" width="25" height="25" rx="0"/></clipPath><g clip-path="url(#master_svg0_424_15627/424_15494)" style="opacity:0.5;"><g><path d="M29.72102625,8.904296875C26.28654625,8.904296875,23.50390625,11.339536875,23.50390625,14.344066875C23.50390625,16.061276875,24.41509625,17.491896875000002,25.83561625,18.489506875L25.83561625,21.338296874999997L28.68445625,19.784596875L29.72102625,19.784596875C33.15551625,19.784596875,35.93890625,17.348596875,35.938106250000004,14.344066875C35.938106250000004,11.339536875,33.15551625,8.904296875,29.72102625,8.904296875ZM26.61207625,15.121286875C26.18282625,15.121286875,25.83483625,14.773316874999999,25.83483625,14.344066875C25.83483625,13.914816875,26.18282625,13.566846875,26.61207625,13.566846875C27.04133625,13.566846875,27.38931625,13.914816875,27.38931625,14.344066875C27.38931625,14.773316874999999,27.04133625,15.121286875,26.61207625,15.121286875ZM29.72102625,15.121286875C29.291776249999998,15.121286875,28.94378625,14.773316874999999,28.94378625,14.344066875C28.94378625,13.914816875,29.291766250000002,13.566846875,29.72102625,13.566846875C30.15028625,13.566846875,30.49826625,13.914816875,30.49826625,14.344066875C30.49826625,14.773316874999999,30.15028625,15.121286875,29.72102625,15.121286875ZM32.82997625,15.121286875C32.40072625,15.121286875,32.05273625,14.773316874999999,32.05273625,14.344066875C32.05273625,13.914816875,32.40072625,13.566846875,32.82997625,13.566846875C33.25923625,13.566846875,33.607206250000004,13.914816875,33.607206250000004,14.344066875C33.607206250000004,14.773316874999999,33.25923625,15.121286875,32.82997625,15.121286875Z" transform="matrix(-1,0,0,1,47.0078125,0)" fill="#0079DE" fill-opacity="1"/><g filter="url(#master_svg1_424_15627/424_15496)" style="mix-blend-mode:passthrough"><path d="M29.72102625,8.904296875C26.28654625,8.904296875,23.50390625,11.339536875,23.50390625,14.344066875C23.50390625,16.061276875,24.41509625,17.491896875000002,25.83561625,18.489506875L25.83561625,21.338296874999997L28.68445625,19.784596875L29.72102625,19.784596875C33.15551625,19.784596875,35.93890625,17.348596875,35.938106250000004,14.344066875C35.938106250000004,11.339536875,33.15551625,8.904296875,29.72102625,8.904296875ZM26.61207625,15.121286875C26.18282625,15.121286875,25.83483625,14.773316874999999,25.83483625,14.344066875C25.83483625,13.914816875,26.18282625,13.566846875,26.61207625,13.566846875C27.04133625,13.566846875,27.38931625,13.914816875,27.38931625,14.344066875C27.38931625,14.773316874999999,27.04133625,15.121286875,26.61207625,15.121286875ZM29.72102625,15.121286875C29.291776249999998,15.121286875,28.94378625,14.773316874999999,28.94378625,14.344066875C28.94378625,13.914816875,29.291766250000002,13.566846875,29.72102625,13.566846875C30.15028625,13.566846875,30.49826625,13.914816875,30.49826625,14.344066875C30.49826625,14.773316874999999,30.15028625,15.121286875,29.72102625,15.121286875ZM32.82997625,15.121286875C32.40072625,15.121286875,32.05273625,14.773316874999999,32.05273625,14.344066875C32.05273625,13.914816875,32.40072625,13.566846875,32.82997625,13.566846875C33.25923625,13.566846875,33.607206250000004,13.914816875,33.607206250000004,14.344066875C33.607206250000004,14.773316874999999,33.25923625,15.121286875,32.82997625,15.121286875Z" transform="matrix(-1,0,0,1,47.0078125,0)" fill="url(#master_svg2_348_10397)"/><path d="M28.68445625,19.784596875L29.72102625,19.784596875C33.15551625,19.784596875,35.93890625,17.348596875,35.938106250000004,14.344066875C35.938106250000004,11.339536875,33.15551625,8.904296875,29.72102625,8.904296875C26.28654625,8.904296875,23.50390625,11.339536875,23.50390625,14.344066875C23.50390625,16.061276875,24.41509625,17.491896875000002,25.83561625,18.489506875L25.83561625,21.338296874999997L25.91259625,21.296296875L28.68445625,19.784596875ZM25.91259625,21.208596874999998L28.66482625,19.707596875L29.72102625,19.707596875Q32.26791625,19.707596875,34.06710625,18.133116875Q35.86170625,16.562586875,35.86120625,14.344086875Q35.86120625,12.125506875,34.06680625,10.555416875Q32.267886250000004,8.981273675,29.72102625,8.981272975Q27.17419625,8.981272975,25.37522625,10.555416875Q23.58088305,12.125506875,23.58088185,14.344066875Q23.58088235,16.811946875,25.87985625,18.426516875L25.91259625,18.449506875L25.91259625,21.208596874999998ZM26.00805625,14.948076875Q26.25825625,15.198266875,26.61207625,15.198266875Q26.96590625,15.198266875,27.21609625,14.948076875Q27.46628625,14.697886875,27.46628625,14.344066875Q27.46629625,13.990246875,27.21609625,13.740056875Q26.96590625,13.489866875,26.61207625,13.489866875Q26.25825625,13.489866875,26.00805625,13.740056875Q25.75786625,13.990246875,25.75786625,14.344066875Q25.75786625,14.697886875,26.00805625,14.948076875ZM29.11700625,14.948076875Q29.36720625,15.198266875,29.72102625,15.198266875Q30.07485625,15.198266875,30.32504625,14.948076875Q30.57524625,14.697886875,30.57524625,14.344066875Q30.57524625,13.990246875,30.32504625,13.740056875Q30.07485625,13.489876875,29.72102625,13.489866875Q29.36719625,13.489866875,29.11700625,13.740056875Q28.86681625,13.990246875,28.86681625,14.344066875Q28.86681625,14.697886875,29.11700625,14.948076875ZM32.225956249999996,14.948076875Q32.47615625,15.198266875,32.82997625,15.198266875Q33.18380625,15.198266875,33.43399625,14.948076875Q33.68420625,14.697886875,33.68420625,14.344066875Q33.68420625,13.990246875,33.43399625,13.740056875Q33.18380625,13.489866875,32.82997625,13.489866875Q32.47615625,13.489866875,32.225956249999996,13.740056875Q31.97576625,13.990246875,31.97576625,14.344066875Q31.97576625,14.697886875,32.225956249999996,14.948076875ZM25.83483625,14.344066875C25.83483625,14.773316874999999,26.18282625,15.121286875,26.61207625,15.121286875C27.04133625,15.121286875,27.38931625,14.773316874999999,27.38931625,14.344066875C27.38931625,13.914816875,27.04133625,13.566846875,26.61207625,13.566846875C26.18282625,13.566846875,25.83483625,13.914816875,25.83483625,14.344066875ZM28.94378625,14.344066875C28.94378625,14.773316874999999,29.291776249999998,15.121286875,29.72102625,15.121286875C30.15028625,15.121286875,30.49826625,14.773316874999999,30.49826625,14.344066875C30.49826625,13.914816875,30.15028625,13.566846875,29.72102625,13.566846875C29.291766250000002,13.566846875,28.94378625,13.914816875,28.94378625,14.344066875ZM32.05273625,14.344066875C32.05273625,14.773316874999999,32.40072625,15.121286875,32.82997625,15.121286875C33.25923625,15.121286875,33.607206250000004,14.773316874999999,33.607206250000004,14.344066875C33.607206250000004,13.914816875,33.25923625,13.566846875,32.82997625,13.566846875C32.40072625,13.566846875,32.05273625,13.914816875,32.05273625,14.344066875Z" fill-rule="evenodd" transform="matrix(-1,0,0,1,47.0078125,0)" fill="url(#master_svg3_1_2527)"/></g><path d="M10.47280203125,2.712890625C5.09981203125,2.712890625,0.74658203125,6.522660625,0.74658203125,11.223040625C0.74658203125,13.909490625,2.17207203125,16.147590625,4.3943720312500005,17.708290625L4.3943720312500005,22.164990625L8.85116203125,19.734390625L10.47280203125,19.734390625C15.84578203125,19.734390625,20.20028203125,15.923390625,20.19898203125,11.223040625C20.19898203125,6.522660625,15.84578203125,2.712890625,10.47280203125,2.712890625ZM5.60908203125,12.438950625C4.93754203125,12.438960625,4.3931520312500005,11.894570625,4.3931520312500005,11.223040625C4.3931520312500005,10.551510624999999,4.93754203125,10.007130625,5.60908203125,10.007130625C6.28062203125,10.007130625,6.82501203125,10.551510624999999,6.82501203125,11.223040625C6.82501203125,11.894570625,6.28062203125,12.438960625,5.60908203125,12.438950625ZM10.47280203125,12.438950625C9.80126203125,12.438960625,9.25687203125,11.894570625,9.25687203125,11.223040625C9.25687203125,10.551510624999999,9.80126203125,10.007130625,10.47280203125,10.007130625C11.14438203125,10.007130625,11.68878203125,10.551510624999999,11.68878203125,11.223040625C11.68878203125,11.894570625,11.14438203125,12.438960625,10.47280203125,12.438950625ZM15.33648203125,12.438950625C14.66498203125,12.438960625,14.12058203125,11.894570625,14.12058203125,11.223040625C14.12058203125,10.551510624999999,14.66498203125,10.007130625,15.33648203125,10.007130625C16.008082031249998,10.007130625,16.55248203125,10.551510624999999,16.55248203125,11.223040625C16.55248203125,11.894570625,16.008082031249998,12.438960625,15.33648203125,12.438950625Z" fill="#0079DE" fill-opacity="1"/><g style="mix-blend-mode:passthrough"><ellipse cx="5.581262707710266" cy="11.150092840194702" rx="1.2692509889602661" ry="1.2692334651947021" fill="#FFFFFF" fill-opacity="1"/></g><g style="mix-blend-mode:passthrough"><ellipse cx="10.472864270210266" cy="11.150092840194702" rx="1.2692509889602661" ry="1.2692334651947021" fill="#FFFFFF" fill-opacity="1"/></g><g style="mix-blend-mode:passthrough"><ellipse cx="15.363489270210266" cy="11.150092840194702" rx="1.2692509889602661" ry="1.2692334651947021" fill="#FFFFFF" fill-opacity="1"/></g></g></g></svg>