<svg xmlns="http://www.w3.org/2000/svg" xmlns:xlink="http://www.w3.org/1999/xlink" fill="none" version="1.1" width="25" height="25" viewBox="0 0 25 25"><defs><filter id="master_svg1_424_15627/424_15313" filterUnits="userSpaceOnUse" color-interpolation-filters="sRGB" x="4.03857421875" y="16.953125" width="18.596925616264343" height="7.998873591423035"><feFlood flood-opacity="0" result="BackgroundImageFix"/><feBlend mode="normal" in="SourceGraphic" in2="BackgroundImageFix" result="shape"/><feGaussianBlur in="BackgroundImage" stdDeviation="0.6249999403953552"/><feComposite in2="SourceAlpha" operator="in" result="effect1_foregroundBlur"/><feBlend mode="normal" in="SourceGraphic" in2="effect1_foregroundBlur" result="shape"/></filter><linearGradient x1="0.5" y1="0" x2="0.5" y2="1" id="master_svg2_348_10397"><stop offset="0%" stop-color="#00D695" stop-opacity="1"/><stop offset="100%" stop-color="#00D695" stop-opacity="0.10000000149011612"/></linearGradient><linearGradient x1="0.9054054021835327" y1="1.0000001192092896" x2="0.5027027130126953" y2="0.05913979187607765" id="master_svg3_1_2527"><stop offset="0%" stop-color="#FFFFFF" stop-opacity="1"/><stop offset="100%" stop-color="#FFFFFF" stop-opacity="0"/></linearGradient></defs><clipPath id="master_svg0_424_15627/424_15311"><rect x="0" y="0" width="25" height="25" rx="0"/></clipPath><g clip-path="url(#master_svg0_424_15627/424_15311)"><g><path d="M20.36047421875,19.367205C19.67707421875,18.344155,18.74297421875,17.539461,17.556274218749998,16.953125C16.90117421875,17.539461,16.15517421875,18.000445,15.32017421875,18.334045C14.48517421875,18.667655,13.60364421875,18.833445,12.67766421875,18.833445C11.75168421875,18.833445,10.87423421875,18.669675,10.04327421875,18.342135C9.21434421875,18.014595,8.470324218750001,17.551591,7.81527421875,16.953125C6.640614218750001,17.551591,5.71665421875,18.358305,5.04542421875,19.375295C4.37419021875,20.392285,4.03857421875,21.577085,4.03857421875,22.933745000000002C10.002844218749999,23.924455000000002,15.79727421875,23.991175,21.38547421875,22.933745000000002C21.38547421875,21.579105,21.04377421875,20.390265,20.36047421875,19.367205Z" fill="#0079DE" fill-opacity="1"/><g filter="url(#master_svg1_424_15627/424_15313)" style="mix-blend-mode:passthrough"><path d="M20.36047421875,19.367205C19.67707421875,18.344155,18.74297421875,17.539461,17.556274218749998,16.953125C16.90117421875,17.539461,16.15517421875,18.000445,15.32017421875,18.334045C14.48517421875,18.667655,13.60364421875,18.833445,12.67766421875,18.833445C11.75168421875,18.833445,10.87423421875,18.669675,10.04327421875,18.342135C9.21434421875,18.014595,8.470324218750001,17.551591,7.81527421875,16.953125C6.640614218750001,17.551591,5.71665421875,18.358305,5.04542421875,19.375295C4.37419021875,20.392285,4.03857421875,21.577085,4.03857421875,22.933745000000002C10.002844218749999,23.924455000000002,15.79727421875,23.991175,21.38547421875,22.933745000000002C21.38547421875,21.579105,21.04377421875,20.390265,20.36047421875,19.367205Z" fill="url(#master_svg2_348_10397)"/><path d="M17.56627421875,17.0278936Q19.303074218749998,17.896799,20.30847421875,19.401925Q21.30997421875,20.901184999999998,21.32287421875,22.881965Q13.26952421875,24.395565,4.10124791875,22.880775Q4.11419891875,20.899665,5.09758421875,19.409725Q6.08287421875,17.916899,7.80527421875,17.028481Q8.78305421875,17.911379,10.02036421875,18.400275Q11.27783421875,18.895945,12.67766421875,18.895945Q14.08217421875,18.895945,15.34337421875,18.392085Q16.58567421875,17.895715,17.56627421875,17.0278936ZM17.556274218749998,16.953125C18.74297421875,17.539461,19.67707421875,18.344155,20.36047421875,19.367205Q21.38547421875,20.901795,21.38547421875,22.933745000000002C15.79727421875,23.991175,10.002844218749999,23.924455000000002,4.03857421875,22.933745000000002C4.03857421875,21.577085,4.37419021875,20.392285,5.04542421875,19.375295C5.71665421875,18.358305,6.640614218750001,17.551591,7.81527421875,16.953125C8.470324218750001,17.551591,9.21434421875,18.014595,10.04327421875,18.342135C10.87423421875,18.669675,11.75168421875,18.833445,12.67766421875,18.833445C13.60364421875,18.833445,14.48517421875,18.667655,15.32017421875,18.334045C16.15517421875,18.000445,16.90117421875,17.539461,17.556274218749998,16.953125Z" fill-rule="evenodd" fill="url(#master_svg3_1_2527)"/></g><path d="M12.49900453125,14.9322875C12.57801453125,14.9322875,12.65840453125,14.9273875,12.73925453125,14.9178875C13.51529453125,14.8246875,14.17424453125,14.2822875,14.41743453125,13.5348875C14.43579453125,13.4789875,14.40926453125,13.4190875,14.35576453125,13.3944875C14.30280453125,13.3697875,14.23875453125,13.3911875,14.20886453125,13.4412875C14.20600453125,13.4460875,13.89768453125,13.9440875,12.69740453125,14.1061875C12.517744531249999,14.1302875,12.342914531249999,14.1429875,12.17720453125,14.1429875C11.33627453125,14.1423875,10.96150453125,13.8254875,10.95811453125,13.8224875C10.91580453125,13.7848875,10.85123453125,13.7838875,10.80781453125,13.8205875C10.764034531250001,13.8571875,10.75394453125,13.9209875,10.78378453125,13.9696875C11.149884531249999,14.5631875,11.80674453125,14.9322875,12.49900453125,14.9322875ZM18.95284453125,7.4936975C18.942244531249997,7.4936975,18.932544531250002,7.4956175,18.92254453125,7.4956175C18.21924453125,4.4508875,15.53204453125,2.1796875,12.31015453125,2.1796875C8.99966453125,2.1796875,6.25072453125,4.5763675,5.64149453125,7.7470475C5.04907653125,7.8536575,4.59814453125,8.3743075,4.59814453125,9.0040575L4.59814453125,11.5242775C4.59814453125,12.2305875,5.16459253125,12.8033875,5.86400453125,12.8033875C6.25852453125,12.8033875,6.6067445312499995,12.6170875,6.83837453125,12.3309875C7.3981045312500004,13.8113875,8.53760453125,15.0050875,9.97966453125,15.6347875C9.983124531249999,15.6272875,10.01040453125,15.5741875,10.04323453125,15.5318875C10.06599453125,15.5025875,10.09142453125,15.4785875,10.113224531250001,15.4785875C10.135904531249999,15.4785875,10.15660453125,15.4866875,10.17435453125,15.4992875C9.840604531250001,15.2507875,8.63507453125,13.9734875,8.37393453125,12.1910875C8.25930453125,11.4065075,8.846954531249999,10.6363375,9.53133453125,10.5090175C10.63003453125,10.3043675,11.72300453125,10.071357500000001,12.82170453125,9.8706675C13.52009453125,9.7432275,13.99739453125,9.3601575,14.28929453125,8.722257500000001C14.35767453125,8.5731175,14.45640453125,8.2715675,14.50171453125,7.8367775C14.51374453125,7.7721175,14.56676453125,7.7224675,14.63474453125,7.7224675C14.68004453125,7.7224675,14.71854453125,7.7455975,14.74404453125,7.7789775L14.77434453125,7.7600875C15.20734453125,8.388797499999999,16.06624453125,9.7808475,16.18954453125,11.2487175C16.33114453125,12.9269875,16.25214453125,14.0763875,14.96764453125,15.2522875C14.96604453125,15.2536875,14.96414453125,15.2555875,14.96234453125,15.2570875C14.94444453125,15.2762875,14.93384453125,15.3014875,14.93384453125,15.3289875C14.93384453125,15.3650875,14.95314453125,15.3959875,14.98104453125,15.4147875C14.99154453125,15.4191875,15.00224453125,15.4249875,15.01284453125,15.4293875C15.02144453125,15.4312875,15.02974453125,15.4340875,15.03834453125,15.4340875C15.04704453125,15.4340875,15.05484453125,15.4312875,15.06244453125,15.4293875C15.08074453125,15.4197875,15.09814453125,15.4085875,15.11594453125,15.3988875C16.41504453125,14.6832875,17.41154453125,13.4881875,17.872044531249998,12.0506575C18.05844453125,12.3275875,18.350344531250002,12.5268875,18.68934453125,12.5964875C18.14554453125,15.0697875,15.93964453125,16.6177875,13.20660453125,16.852787499999998C13.04280453125,16.4464875,12.63967453125,16.1578875,12.16617453125,16.1578875C11.54776453125,16.1578875,11.04629453125,16.6477875,11.04629453125,17.2513875C11.04629453125,17.8549875,11.54769453125,18.3441875,12.16617453125,18.3441875C12.66472453125,18.3441875,13.08234453125,18.0238875,13.22725453125,17.5837875C16.39094453125,17.326587500000002,18.926844531249998,15.4461875,19.45624453125,12.5244875C19.92394453125,12.3290875,20.25244453125,11.8701875,20.25244453125,11.3345775L20.25244453125,8.7845275C20.25244453125,8.0717775,19.670544531250002,7.4936975,18.95284453125,7.4936975ZM17.78574453125,8.226167499999999C16.96064453125,5.9911275,14.82254453125,4.3944475,12.30731453125,4.3944475C9.80253453125,4.3944475,7.67213453125,5.977577500000001,6.83936453125,8.1981975C6.79788453125,8.1474775,6.749344531249999,8.104077499999999,6.70163453125,8.0602275C7.17312453125,5.3541675,9.50200453125,3.2966875,12.31013453125,3.2966875C15.10484453125,3.2966875,17.42644453125,5.3339375,17.91344453125,8.0211275C17.86524453125,8.0857975,17.82094453125,8.1533175,17.78574453125,8.226167499999999ZM9.97990453125,15.6347875L9.979684531250001,15.6347875C9.97920453125,15.6358875,9.97920453125,15.6360875,9.97990453125,15.6347875Z" fill="#0079DE" fill-opacity="1"/></g></g></svg>