<svg xmlns="http://www.w3.org/2000/svg" xmlns:xlink="http://www.w3.org/1999/xlink" fill="none" version="1.1" width="25" height="25.000001907348633" viewBox="0 0 25 25.000001907348633"><defs><filter id="master_svg1_424_15627/424_15515" filterUnits="userSpaceOnUse" color-interpolation-filters="sRGB" x="15.029296875" y="14.6015625" width="9.858534336090088" height="8.76936674118042"><feFlood flood-opacity="0" result="BackgroundImageFix"/><feBlend mode="normal" in="SourceGraphic" in2="BackgroundImageFix" result="shape"/><feGaussianBlur in="BackgroundImage" stdDeviation="0.6130268573760986"/><feComposite in2="SourceAlpha" operator="in" result="effect1_foregroundBlur"/><feBlend mode="normal" in="SourceGraphic" in2="effect1_foregroundBlur" result="shape"/></filter><linearGradient x1="0.5" y1="0" x2="0.5" y2="1" id="master_svg2_348_10397"><stop offset="0%" stop-color="#00D695" stop-opacity="1"/><stop offset="100%" stop-color="#00D695" stop-opacity="0.10000000149011612"/></linearGradient><linearGradient x1="0.9054054021835327" y1="1.0000001192092896" x2="0.5027027130126953" y2="0.05913979187607765" id="master_svg3_1_2527"><stop offset="0%" stop-color="#FFFFFF" stop-opacity="1"/><stop offset="100%" stop-color="#FFFFFF" stop-opacity="0"/></linearGradient></defs><clipPath id="master_svg0_424_15627/424_15513"><rect x="0" y="0" width="25" height="24.999998092651367" rx="0"/></clipPath><g clip-path="url(#master_svg0_424_15627/424_15513)" style="opacity:0.5;"><g><path d="M1.636097375,6.26985125Q1.394181375,6.09048125,1.328204175,5.97837125Q1.262227075,5.86626125,1.262227075,5.6644612500000004L1.262227075,5.46266125Q1.262227075,4.8796912500000005,1.548127375,4.54336125Q1.834028375,4.207031143084,2.537784375,4.20703125L20.659534375,4.22945325Q21.385234375,4.22945325,21.671134375,4.54336125Q21.957034375,4.85726925,21.957034375,5.41782125L21.979034375,5.6644612500000004Q21.979034375,5.86626125,21.935034375,5.94473125Q21.891034375,6.02321125,21.583134375,6.26985125L12.588334375,11.78567125Q12.368334375,11.87535125,12.049534375,12.03231125Q11.730634375,12.189261250000001,11.620634375,12.21168125Q11.488634375,12.21168125,11.224774375,12.08836125Q10.960864375,11.965041249999999,10.630974375,11.76324125L1.636097375,6.26985125ZM15.161434375,15.35073125Q14.699534375,15.35073125,14.413634375,15.55253125Q14.127734375,15.75433125,13.962834375,16.06823125Q13.797834375,16.38213125,13.742934375,16.774531250000003Q13.687934375,17.166931249999998,13.687934375,17.52573125L13.687934375,19.095231249999998L13.687934375,19.36433125Q13.687934375,19.498831250000002,13.709934375,19.61093125L10.674964375,19.61093125Q9.113504375,19.61093125,7.749974375,19.599731249999998Q6.386444375,19.588531250000003,5.352804375,19.588531250000003L3.835334375,19.588531250000003Q3.043604375,19.588531250000003,2.537784375,19.37553125Q2.031959375,19.16253125,1.746058375,18.82613125Q1.460158375,18.48983125,1.350196375,18.052631249999997Q1.2402343225661,17.61543125,1.240234375,17.14453125L1.240234375,8.848391249999999Q1.240234375,8.377521250000001,1.460158375,8.254201250000001Q1.6800813749999999,8.13088125,2.009967375,8.377521250000001Q2.119929375,8.44479125,2.405834375,8.63538125Q2.6917343750000002,8.825961249999999,3.087594375,9.07260125Q3.483454375,9.31925125,3.912304375,9.599521249999999Q4.341154375,9.87980125,4.726024375,10.12644125Q5.110894375,10.37308125,5.385794375,10.55246125Q5.660704375,10.731831249999999,5.748674375,10.77668125Q6.056564375,10.97848125,6.100544375,11.28117125Q6.144534375,11.58387125,6.034574375,11.80809125Q5.946604375,12.03231125,5.770664375,12.39106125Q5.594724375,12.74981125,5.396794375,13.11978125Q5.198864374999999,13.48974125,5.0119243749999995,13.82607125Q4.824994375,14.16240125,4.759014375,14.34173125Q4.649054375,14.65573125,4.802994375,14.76783125Q4.956944375,14.87993125,5.286834375,14.67813125Q5.352804375,14.63323125,5.649704375,14.33053125Q5.946604375,14.02787125,6.276484375,13.65790125Q6.606374375,13.28794125,6.903264375,12.96282125Q7.200164375,12.63770125,7.310124375,12.57044125Q7.508054375,12.39106125,7.826944375,12.31258125Q8.145834375,12.23411125,8.387754375,12.36864125Q8.541704375,12.45833125,8.805604375,12.63770125Q9.069514375,12.81708125,9.388404375,13.03009125Q9.707294375,13.24310125,10.037184375,13.46732125L10.630974375,13.87091125Q10.894884375,14.05029125,11.191784375,14.09513125Q11.488634375,14.13998125,11.763534375,14.11755125Q12.038534375,14.09513125,12.258434375,14.01666125Q12.478334375,13.93818125,12.588334375,13.87091125Q12.698234375,13.80365125,13.006134375,13.61306125Q13.314034375,13.42247125,13.676934375,13.19825125Q14.039834375,12.97403125,14.358634375,12.77223125Q14.677534375,12.57044125,14.831534375,12.48075125L17.602534375,10.731831249999999Q17.646534375,10.709411249999999,17.877434375,10.55246125Q18.108434375,10.395501249999999,18.449234375,10.17128125Q18.790134375,9.94706125,19.197034375,9.678001250000001Q19.603834375,9.40893125,19.966734375,9.173501250000001Q20.329634375,8.93807125,20.637534375,8.73627125Q20.945434375,8.534481249999999,21.077334375,8.44479125Q21.495234375,8.17572125,21.726134375,8.231781250000001Q21.957034375,8.28783125,21.957034375,8.60174125L21.957034375,14.43143125Q21.341234375,13.91576125,20.758434375,13.46732125Q20.175634375,13.01888125,19.691834375,12.70497125Q19.208034375,12.36864125,18.845134375,12.46954125Q18.482234375,12.57044125,18.251334375,12.90677125Q18.020434375,13.24310125,17.899434375,13.69154125Q17.778534375,14.13998125,17.778534375,14.49873125Q17.778534375,14.74533125,17.767534375,14.90233125Q17.756534375,15.05923125,17.756534375,15.17143125Q17.734534375,15.28353125,17.734534375,15.35073125L17.404634375,15.35073125L15.161434375,15.35073125ZM23.364534375,17.705031249999998Q23.650434375,17.92933125,23.661434375,18.33293125Q23.672434375,18.73653125,23.430534375,18.91583125Q23.100634375,19.184931249999998,22.660834375,19.55493125Q22.220934375,19.92483125,21.748134375,20.30603125Q21.275234375,20.68723125,20.824434375,21.06833125Q20.373634375,21.44953125,19.999734375,21.74103125Q19.537934375,22.12223125,19.350934375,22.14463125Q19.164034375,22.16703125,19.164034375,21.56163125L19.164034375,20.55263125Q19.164034375,20.17153125,18.977034375,19.92483125Q18.790134375,19.67823125,18.482234375,19.67823125L15.931134375,19.67823125Q15.623234375,19.67823125,15.326334375,19.45403125Q15.029434375,19.22973125,15.029434375,18.87103125L15.029434375,17.72753125Q15.029434375,17.099731249999998,15.227334375,16.96513125Q15.425334375,16.83063125,15.931134375,16.83063125L16.371034375,16.83063125Q16.568934374999998,16.83063125,16.821834375,16.84183125Q17.074734375,16.85303125,17.426634375,16.85303125L18.350334375,16.85303125Q18.790134375,16.85303125,18.977034375,16.69613125Q19.164034375,16.53913125,19.164034375,16.13553125L19.164034375,15.14893125Q19.164034375,14.74533125,19.295934375,14.63323125Q19.427934375,14.52113125,19.779834375,14.81263125Q20.131634375,15.08173125,20.593534375,15.46283125Q21.055334375,15.84403125,21.550234375,16.236431250000003Q22.045034375,16.628831249999998,22.517834375,17.02123125Q22.990734375,17.41363125,23.364534375,17.705031249999998Z" fill="#0079DE" fill-opacity="1"/><g filter="url(#master_svg1_424_15627/424_15515)" style="mix-blend-mode:passthrough"><path d="M23.364406875,17.7045225Q23.650306875,17.9287325,23.661296874999998,18.3323325Q23.672296875,18.7359325,23.430376875,18.9153025Q23.100496874999997,19.184372500000002,22.660646875,19.5543325Q22.220796874999998,19.9242925,21.747966875,20.3054725Q21.275126874999998,20.686642499999998,20.824286875,21.0678225Q20.373446875,21.4489925,19.999566875,21.7404825Q19.537726875,22.1216525,19.350796875,22.1440725Q19.163856875,22.1665025,19.163856875,21.5611025L19.163856875,20.5521125Q19.163856875,20.1709425,18.976926875,19.9242925Q18.789986875,19.6776525,18.482096875,19.6776525L15.930984875,19.6776525Q15.623090875,19.6776525,15.326193875,19.453432499999998Q15.029296875,19.2292125,15.029296875,18.870462500000002L15.029296875,17.7269425Q15.029296875,17.0991225,15.227228875,16.964592500000002Q15.425160875,16.8300625,15.930984875,16.8300625L16.370826875,16.8300625Q16.568766875,16.8300625,16.821676875,16.8412725Q17.074586875,16.8524825,17.426466875,16.8524825L18.350146875,16.8524825Q18.789986875,16.8524825,18.976926875,16.6955325Q19.163856875,16.5385725,19.163856875,16.1349825L19.163856875,15.1484105Q19.163856875,14.7448145,19.295816875,14.6327043Q19.427766875,14.5205941,19.779646875,14.8120795Q20.131526875,15.0811435,20.593366875,15.4623185Q21.055206875,15.8434925,21.550036875,16.2358825Q22.044856875,16.628262499999998,22.517696875,17.0206525Q22.990536875,17.4130325,23.364406875,17.7045225Z" fill="url(#master_svg2_348_10397)"/><path d="M23.430376875,18.9153025Q23.672296875,18.7359325,23.661296874999998,18.3323325Q23.650306875,17.9287325,23.364406875,17.7045225Q22.990536875,17.4130325,22.517696875,17.0206525Q22.044856875,16.628262499999998,21.550036875,16.2358825Q21.055206875,15.8434925,20.593366875,15.4623185Q20.131526875,15.0811435,19.779646875,14.8120795Q19.427766875,14.5205941,19.295816875,14.6327043Q19.163856875,14.7448145,19.163856875,15.1484105L19.163856875,16.1349825Q19.163856875,16.5385725,18.976926875,16.6955325Q18.789986875,16.8524825,18.350146875,16.8524825L17.426466875,16.8524825Q17.074586875,16.8524825,16.821676875,16.8412725Q16.568766875,16.8300625,16.370826875,16.8300625L15.930984875,16.8300625Q15.425160875,16.8300625,15.227228875,16.964592500000002Q15.029296875,17.0991225,15.029296875,17.7269425L15.029296875,18.870462500000002Q15.029296875,19.2292125,15.326193875,19.453432499999998Q15.623090875,19.6776525,15.930984875,19.6776525L18.482096875,19.6776525Q18.789986875,19.6776525,18.976926875,19.9242925Q19.163856875,20.1709425,19.163856875,20.5521125L19.163856875,21.5611025Q19.163856875,22.0973325,19.310526875,22.1410025Q19.329436875,22.1466325,19.350796875,22.1440725Q19.537726875,22.1216525,19.999566875,21.7404825Q20.373446875,21.4489925,20.824286875,21.0678225Q21.275126874999998,20.686642499999998,21.747966875,20.3054725Q22.220796874999998,19.9242925,22.660646875,19.5543325Q23.100496874999997,19.184372500000002,23.430376875,18.9153025ZM23.326576875,17.7527525L23.326706875,17.7528625Q23.589806875,17.9592925,23.600016875,18.3340025Q23.610136875000002,18.7057025,23.393866875,18.866062499999998L23.392726875,18.866902500000002L23.391636875,18.8678025Q23.061336875000002,19.1371925,22.621186875,19.5074225Q22.181786875,19.8770025,21.709486875,20.2577425Q21.236056875,20.6394025,20.784706875,21.0210025Q20.334796875000002,21.4014025,19.961876875,21.6921325L19.961206875000002,21.6926525L19.960546875,21.693202499999998Q19.512576875,22.0629225,19.343496875,22.083212500000002Q19.300256875,22.0883925,19.268966875,21.9908225Q19.225166875,21.8542125,19.225166875,21.5611025L19.225166875,20.5521125Q19.225166875,20.1503325,19.025786875,19.8872725Q18.820446875000002,19.616352499999998,18.482096875,19.616352499999998L15.930984875,19.616352499999998Q15.643638875,19.616352499999998,15.363138875,19.4045125Q15.090599575,19.1986925,15.090599575,18.870462500000002L15.090599575,17.7269425Q15.090599575,17.1315825,15.261688875,17.0152925Q15.444020875,16.8913625,15.930984875,16.8913625L16.370826875,16.8913625Q16.567406875,16.8913625,16.818956875,16.9025125Q17.073226875,16.9137825,17.426466875,16.9137825L18.350146875,16.9137825Q18.812316875,16.9137825,19.016346875,16.742472499999998Q19.225166875,16.5671525,19.225166875,16.1349825L19.225166875,15.1484105Q19.225166875,14.7731715,19.335506875,14.6794221Q19.428266875,14.600610867,19.740536875,14.8592885L19.741456875,14.8600515L19.742406875,14.8607775Q20.093396875,15.1291605,20.554346875,15.5095985Q21.016676875,15.8911825,21.511946875,16.2839125Q22.006166874999998,16.6758125,22.478546875,17.0678225Q22.951976875,17.4606925,23.326576875,17.7527525Z" fill-rule="evenodd" fill="url(#master_svg3_1_2527)"/></g></g></g></svg>