<svg xmlns="http://www.w3.org/2000/svg" xmlns:xlink="http://www.w3.org/1999/xlink" fill="none" version="1.1" width="25" height="25" viewBox="0 0 25 25"><defs><filter id="master_svg1_424_15627/424_15297" filterUnits="userSpaceOnUse" color-interpolation-filters="sRGB" x="16.64013671875" y="2.7421875" width="6.578456282615662" height="11.5723637342453"><feFlood flood-opacity="0" result="BackgroundImageFix"/><feBlend mode="normal" in="SourceGraphic" in2="BackgroundImageFix" result="shape"/><feGaussianBlur in="BackgroundImage" stdDeviation="0.6249999403953552"/><feComposite in2="SourceAlpha" operator="in" result="effect1_foregroundBlur"/><feBlend mode="normal" in="SourceGraphic" in2="effect1_foregroundBlur" result="shape"/></filter><linearGradient x1="0.5" y1="0" x2="0.5" y2="1" id="master_svg2_348_10397"><stop offset="0%" stop-color="#00D695" stop-opacity="1"/><stop offset="100%" stop-color="#00D695" stop-opacity="0.10000000149011612"/></linearGradient><linearGradient x1="0.9054054021835327" y1="1.0000001192092896" x2="0.5027027130126953" y2="0.05913979187607765" id="master_svg3_1_2527"><stop offset="0%" stop-color="#FFFFFF" stop-opacity="1"/><stop offset="100%" stop-color="#FFFFFF" stop-opacity="0"/></linearGradient><filter id="master_svg4_424_15627/424_15298" filterUnits="userSpaceOnUse" color-interpolation-filters="sRGB" x="11.83349609375" y="16.6796875" width="11.611583590507507" height="6.559508681297302"><feFlood flood-opacity="0" result="BackgroundImageFix"/><feBlend mode="normal" in="SourceGraphic" in2="BackgroundImageFix" result="shape"/><feGaussianBlur in="BackgroundImage" stdDeviation="0.6249999403953552"/><feComposite in2="SourceAlpha" operator="in" result="effect1_foregroundBlur"/><feBlend mode="normal" in="SourceGraphic" in2="effect1_foregroundBlur" result="shape"/></filter><linearGradient x1="0.5" y1="0" x2="0.5" y2="1" id="master_svg5_348_10397"><stop offset="0%" stop-color="#00D695" stop-opacity="1"/><stop offset="100%" stop-color="#00D695" stop-opacity="0.10000000149011612"/></linearGradient><linearGradient x1="0.9054054021835327" y1="1.0000001192092896" x2="0.5027027130126953" y2="0.05913979187607765" id="master_svg6_1_2527"><stop offset="0%" stop-color="#FFFFFF" stop-opacity="1"/><stop offset="100%" stop-color="#FFFFFF" stop-opacity="0"/></linearGradient><filter id="master_svg7_424_15627/424_15299" filterUnits="userSpaceOnUse" color-interpolation-filters="sRGB" x="3.0244140625" y="11.8828125" width="6.57845675945282" height="11.57502830028534"><feFlood flood-opacity="0" result="BackgroundImageFix"/><feBlend mode="normal" in="SourceGraphic" in2="BackgroundImageFix" result="shape"/><feGaussianBlur in="BackgroundImage" stdDeviation="0.6249999403953552"/><feComposite in2="SourceAlpha" operator="in" result="effect1_foregroundBlur"/><feBlend mode="normal" in="SourceGraphic" in2="effect1_foregroundBlur" result="shape"/></filter><linearGradient x1="0.5" y1="0" x2="0.5" y2="1" id="master_svg8_348_10397"><stop offset="0%" stop-color="#00D695" stop-opacity="1"/><stop offset="100%" stop-color="#00D695" stop-opacity="0.10000000149011612"/></linearGradient><linearGradient x1="0.9054054021835327" y1="1.0000001192092896" x2="0.5027027130126953" y2="0.05913979187607765" id="master_svg9_1_2527"><stop offset="0%" stop-color="#FFFFFF" stop-opacity="1"/><stop offset="100%" stop-color="#FFFFFF" stop-opacity="0"/></linearGradient><filter id="master_svga_424_15627/424_15300" filterUnits="userSpaceOnUse" color-interpolation-filters="sRGB" x="2.751953125" y="3.052734375" width="11.612902522087097" height="6.560397505760193"><feFlood flood-opacity="0" result="BackgroundImageFix"/><feBlend mode="normal" in="SourceGraphic" in2="BackgroundImageFix" result="shape"/><feGaussianBlur in="BackgroundImage" stdDeviation="0.6249999403953552"/><feComposite in2="SourceAlpha" operator="in" result="effect1_foregroundBlur"/><feBlend mode="normal" in="SourceGraphic" in2="effect1_foregroundBlur" result="shape"/></filter><linearGradient x1="0.5" y1="0" x2="0.5" y2="1" id="master_svgb_348_10397"><stop offset="0%" stop-color="#00D695" stop-opacity="1"/><stop offset="100%" stop-color="#00D695" stop-opacity="0.10000000149011612"/></linearGradient><linearGradient x1="0.9054054021835327" y1="1.0000001192092896" x2="0.5027027130126953" y2="0.05913979187607765" id="master_svgc_1_2527"><stop offset="0%" stop-color="#FFFFFF" stop-opacity="1"/><stop offset="100%" stop-color="#FFFFFF" stop-opacity="0"/></linearGradient></defs><clipPath id="master_svg0_424_15627/424_15294"><rect x="0" y="0" width="25" height="25" rx="0"/></clipPath><g clip-path="url(#master_svg0_424_15627/424_15294)"><g><path d="M13.1151984375,8.361165L7.7880384375,3.0525450000000003C7.5843784375,3.1539349999999997,7.3842384375,3.2601649999999998,7.1894084375,3.373025C6.4047884375,3.822195,5.6655284375,4.377174999999999,4.9977084375,5.042345C4.7089884375,5.328425,4.4467184374999995,5.628615,4.2020684374999995,5.935415C3.6003684375000002,6.690085,3.1167984375,7.507765,2.7522654375,8.362945Q12.7937984375,8.310044999999999,13.1151984375,8.361165ZM10.0149884375,9.115835L2.4807154375,9.115835C2.4079824375,9.326525,2.3436384375,9.543855,2.2836754375,9.762495000000001C2.0487394375,10.631325,1.9208984375,11.544245,1.9208984375,12.487975C1.9208984375,12.891375,1.9460243375,13.288475,1.9918751375000001,13.679075C2.1003134375,14.637375,2.3401054375,15.554675,2.6905454375,16.415174999999998Q9.7513684375,9.303615,10.0149884375,9.115835ZM21.9687984375,7.757705C21.8686984375,7.558025,21.7619984375,7.358335,21.6486984375,7.162185C21.1964984375,6.382825,20.6410984375,5.645375,19.9714984375,4.979735C19.6853984375,4.694985,19.3851984375,4.430935,19.0756984375,4.186745C18.3179984375,3.587685,17.4985984375,3.105435,16.6402984375,2.743097Q16.6935984375,12.746775,16.6402984375,13.065475L21.9687984375,7.757705ZM15.9005984375,9.987305L15.9005984375,2.481258C15.6876984375,2.409413,15.4694984375,2.343726,15.2508984375,2.282895C14.3797984375,2.05015,13.4629984375,1.921875,12.5151984375,1.921875C12.1100984375,1.921875,11.7120884375,1.9470009,11.3193284375,1.9923971C10.3588184375,2.100835,9.4379784375,2.340648,8.5717984375,2.687555Q15.7088984375,9.725465,15.9005984375,9.987305ZM8.3500584375,11.883195L3.0246884375,17.191875C3.1234084375,17.395075,3.2322984375,17.592075,3.3447084375,17.788674999999998C3.7947684375,18.569375,4.351938437499999,19.306875,5.0219684375,19.972875C5.3076084375,20.258075,5.6082384375,20.519975,5.9176984375,20.765875C6.6754284375,21.366275,7.4931384375,21.846375,8.3531384375,22.208275C8.3531384375,22.207775,8.2984884375,12.204175,8.3500384375,11.883235L8.3500584375,11.883195ZM11.8337484375,16.680975L17.162198437500003,21.989575C17.3646984375,21.888075,17.5644984375,21.781275,17.761298437500002,21.669075C18.5418984375,21.220775,19.2806984375,20.667175,19.9515984375,19.998875C20.2363984375,19.714575,20.4999984375,19.416175,20.7467984375,19.107175C21.3471984375,18.352075,21.8320984375,17.536974999999998,22.1952984375,16.680075000000002C22.1944984375,16.680075000000002,12.1554984375,16.734675,11.8337484375,16.680975ZM23.0081984375,11.327365C22.8983984375,10.370375,22.6603984375,9.452155000000001,22.3103984375,8.590375Q15.2481984375,15.701475,14.9841984375,15.891475L22.5184984375,15.891475C22.5901984375,15.677575,22.6555984375,15.461675,22.7145984375,15.243875C22.9508984375,14.374175,23.0795984375,13.463975,23.0795984375,12.519775C23.0795984375,12.115975,23.0535984375,11.718355,23.0081984375,11.327365ZM9.1003084375,15.013775L9.1003084375,22.520775C9.3141084375,22.593075,9.531418437500001,22.658275,9.7496184375,22.716875C10.6219784375,22.953575,11.5375284375,23.080575,12.4852984375,23.080575C12.8889984375,23.080575,13.2879984375,23.055475,13.6789984375,23.009575C14.6407984375,22.900675,15.5602984375,22.663975,16.4251984375,22.315275C16.4264984375,22.315275,9.290298437499999,15.278275,9.1003084375,15.013775Z" fill="#0079DE" fill-opacity="1"/><g filter="url(#master_svg1_424_15627/424_15297)" style="mix-blend-mode:passthrough"><path d="M21.96859671875,7.7567975C21.86852671875,7.5571075,21.76185671875,7.3574275,21.64856671875,7.1612775C21.19629671875,6.3819175,20.64088671875,5.6444575,19.97130671875,4.9788274999999995C19.68521671875,4.6940775,19.385026718749998,4.4300275,19.07557671875,4.1858375C18.31782671875,3.5867785,17.49838771875,3.1045305,16.64013671875,2.7421875Q16.69346811875,12.7458875,16.64013671875,13.0645875L21.96859671875,7.7567975Z" fill="url(#master_svg2_348_10397)"/><path d="M21.96859671875,7.7567975C21.86852671875,7.5571075,21.76185671875,7.3574275,21.64856671875,7.1612775C21.19629671875,6.3819175,20.64088671875,5.6444575,19.97130671875,4.9788274999999995C19.68521671875,4.6940775,19.385026718749998,4.4300275,19.07557671875,4.1858375C18.33628671875,3.6013695,17.53826871875,3.1280915,16.70277981875,2.7688773C16.68192201875,2.7599096,16.66104091875,2.75101297,16.64013671875,2.7421875Q16.64031836375,2.7762596,16.64049877075,2.8102194Q16.68949421875,12.0330775,16.64722650875,12.9692875Q16.64395499875,13.0416875,16.64013671875,13.0645875L16.70812141875,12.9967875L21.96859671875,7.7567975ZM21.89241671875,7.7444675Q21.74611671875,7.4551275,21.59444671875,7.1925375Q20.89222671875,5.9824475,19.92724671875,5.0231575Q19.51192671875,4.6097874999999995,19.036856718750002,4.2348975Q17.95349671875,3.3784145,16.70314231875,2.8370974Q16.75028571875,11.7245675,16.71182161875,12.9048875L21.89241671875,7.7444675Z" fill-rule="evenodd" fill="url(#master_svg3_1_2527)"/></g><g filter="url(#master_svg4_424_15627/424_15298)" style="mix-blend-mode:passthrough"><path d="M11.83349609375,16.680575371L17.16195609375,21.9891975C17.36447609375,21.8877475,17.56422609375,21.7808875,17.761006093749998,21.6687175C18.541696093749998,21.2204375,19.28046609375,20.6667775,19.95138609375,19.9985275C20.23614609375,19.7141975,20.499736093750002,19.4157675,20.74659609375,19.1067575C21.34697609375,18.3516575,21.83186609375,17.5366155,22.19509609375,16.6796875C22.19419609375,16.6796875,12.15527909375,16.7343407,11.83349609375,16.680575371Z" fill="url(#master_svg5_348_10397)"/><path d="M11.90174519375,16.7485704L11.83349609375,16.680575371C11.84744059375,16.68290529,11.87963299375,16.6850316,11.92846579375,16.68696759C12.95210609375,16.72755,21.28769609375,16.6844991,22.12699609375,16.680051211C22.163196093750003,16.679859456,22.18539609375,16.6797394484,22.192596093749998,16.679700983L22.19509609375,16.6796875C22.18619609375,16.7005943,22.17729609375,16.7214762,22.16829609375,16.7423328C21.80813609375,17.5763495,21.332326093749998,18.3700775,20.74659609375,19.1067575C20.499736093750002,19.4157675,20.23614609375,19.7141975,19.95138609375,19.9985275C19.28046609375,20.6667775,18.541696093749998,21.2204375,17.761006093749998,21.6687175C17.56422609375,21.7808875,17.36447609375,21.8877475,17.16195609375,21.9891975L11.90174519375,16.7485704ZM11.99399909375,16.7522572L17.17412609375,21.9131075Q17.45584609375,21.7707275,17.73005609375,21.614417500000002Q18.93533609375,20.9223475,19.907286093750002,19.9542375Q20.31397609375,19.548167499999998,20.697766093749998,19.0677475Q21.56102609375,17.9820075,22.09999609375,16.7426999Q13.17926609375,16.7905825,11.99399909375,16.7522572Z" fill-rule="evenodd" fill="url(#master_svg6_1_2527)"/></g><g filter="url(#master_svg7_424_15627/424_15299)" style="mix-blend-mode:passthrough"><path d="M8.3497940625,11.8828125L3.0244140625,17.1914725C3.1231407625,17.394692499999998,3.2320340625,17.5917125,3.3444390625000002,17.7883225C3.7944950625000002,18.5690025,4.3516640625,19.3064525,5.0217040625,19.9725225C5.3073440625,20.2577325,5.6079640625,20.5195625,5.9174340625,20.7655325C6.6751540625,21.3659125,7.4928640625,21.8459525,8.3528740625,22.2078125C8.3528740625,22.2074125,8.2982140625,12.2037465,8.3497740625,11.8828544617L8.3497940625,11.8828125Z" fill="url(#master_svg8_348_10397)"/><path d="M3.0244140625,17.1914725L8.3497940625,11.8828125L8.3497740625,11.8828544617C8.298564062499999,12.2016235,8.3521540625,22.0754125,8.3528640625,22.206512500000002L8.3528740625,22.2078125C7.4928640625,21.8459525,6.6751540625,21.3659125,5.9174340625,20.7655325C5.6079640625,20.5195625,5.3073440625,20.2577325,5.0217040625,19.9725225C4.3516640625,19.3064525,3.7944950625000002,18.5690025,3.3444390625000002,17.7883225C3.2320340625,17.5917125,3.1231407625,17.394692499999998,3.0244140625,17.1914725ZM3.1002420625,17.2041325L8.2784940625,12.0421405Q8.2418640625,13.2205525,8.2898540625,22.1130125Q7.0356840625,21.571842500000002,5.9563240625,20.7166125Q5.4614040625,20.3232425,5.0657640624999996,19.9281925Q4.0923740625,18.9605825,3.3986970625,17.7572925Q3.2156060625,17.4370525,3.1002420625,17.2041325Z" fill-rule="evenodd" fill="url(#master_svg9_1_2527)"/></g><g filter="url(#master_svga_424_15627/424_15300)" style="mix-blend-mode:passthrough"><path d="M13.114853125,8.361354375000001L7.787723125,3.052734375C7.584073125,3.154126375,7.383933125,3.260354375,7.189103125,3.373214375C6.404473125,3.822381375,5.665223125,4.377364375,4.997403125,5.042544375C4.708673125,5.328614375,4.446403125,5.628804375,4.201753125,5.9356043750000005C3.600057125,6.6902743749999996,3.1164861249999998,7.507964375,2.751953125,8.363134375Q12.793553125,8.310234375,13.114853125,8.361354375000001Z" fill="url(#master_svgb_348_10397)"/><path d="M13.046853125,8.293604375000001L7.787723125,3.052734375C7.584073125,3.154126375,7.383933125,3.260354375,7.189103125,3.373214375C6.404473125,3.822381375,5.665223125,4.377364375,4.997403125,5.042544375C4.708673125,5.328614375,4.446403125,5.628804375,4.201753125,5.9356043750000005C3.614765125,6.671824375,3.140197125,7.468024375,2.778897825,8.300494375C2.769845125,8.321344374999999,2.760863585,8.342224375,2.751953125,8.363134375Q2.786075925,8.362954375000001,2.820086525,8.362774375Q12.080543125,8.314154375000001,13.019553125,8.354594375Q13.091953125,8.357704375,13.114853125,8.361354375000001L13.046853125,8.293604375000001ZM12.954753125,8.290064375L7.775453125,3.128746375Q7.477233125,3.278535375,7.220423125,3.427295375Q6.014583125,4.1175943749999995,5.041503125,5.086824375Q4.646173125,5.478524375,4.250623125,5.9745743749999995Q3.393982125,7.0489943749999995,2.847219025,8.300134374999999Q11.771583125,8.253374375,12.954753125,8.290064375Z" fill-rule="evenodd" fill="url(#master_svgc_1_2527)"/></g></g></g></svg>