<svg xmlns="http://www.w3.org/2000/svg" xmlns:xlink="http://www.w3.org/1999/xlink" fill="none" version="1.1" width="25" height="25" viewBox="0 0 25 25"><defs><filter id="master_svg1_424_15627/424_15483" filterUnits="userSpaceOnUse" color-interpolation-filters="sRGB" x="11.99462890625" y="11.111079725258822" width="14.281604490226446" height="12.761778528898308"><feFlood flood-opacity="0" result="BackgroundImageFix"/><feBlend mode="normal" in="SourceGraphic" in2="BackgroundImageFix" result="shape"/><feGaussianBlur in="BackgroundImage" stdDeviation="0.8707848191261292"/><feComposite in2="SourceAlpha" operator="in" result="effect1_foregroundBlur"/><feBlend mode="normal" in="SourceGraphic" in2="effect1_foregroundBlur" result="shape"/></filter><linearGradient x1="0.5" y1="0" x2="0.5" y2="1" id="master_svg2_348_10397"><stop offset="0%" stop-color="#00D695" stop-opacity="1"/><stop offset="100%" stop-color="#00D695" stop-opacity="0.10000000149011612"/></linearGradient><linearGradient x1="0.9054054021835327" y1="1.0000001192092896" x2="0.5027027130126953" y2="0.05913979187607765" id="master_svg3_1_2527"><stop offset="0%" stop-color="#FFFFFF" stop-opacity="1"/><stop offset="100%" stop-color="#FFFFFF" stop-opacity="0"/></linearGradient></defs><clipPath id="master_svg0_424_15627/424_15480"><rect x="0" y="0" width="25" height="25" rx="0"/></clipPath><g clip-path="url(#master_svg0_424_15627/424_15480)"><g><path d="M13.1151984375,8.361165L7.7880384375,3.0525450000000003C7.5843784375,3.1539349999999997,7.3842384375,3.2601649999999998,7.1894084375,3.373025C6.4047884375,3.822195,5.6655284375,4.377174999999999,4.9977084375,5.042345C4.7089884375,5.328425,4.4467184374999995,5.628615,4.2020684374999995,5.935415C3.6003684375000002,6.690085,3.1167984375,7.507765,2.7522654375,8.362945Q12.7937984375,8.310044999999999,13.1151984375,8.361165ZM10.0149884375,9.115835L2.4807154375,9.115835C2.4079824375,9.326525,2.3436384375,9.543855,2.2836754375,9.762495000000001C2.0487394375,10.631325,1.9208984375,11.544245,1.9208984375,12.487975C1.9208984375,12.891375,1.9460243375,13.288475,1.9918751375000001,13.679075C2.1003134375,14.637375,2.3401054375,15.554675,2.6905454375,16.415174999999998Q9.7513684375,9.303615,10.0149884375,9.115835ZM21.9687984375,7.757705C21.8686984375,7.558025,21.7619984375,7.358335,21.6486984375,7.162185C21.1964984375,6.382825,20.6410984375,5.645375,19.9714984375,4.979735C19.6853984375,4.694985,19.3851984375,4.430935,19.0756984375,4.186745C18.3179984375,3.587685,17.4985984375,3.105435,16.6402984375,2.743097Q16.6935984375,12.746775,16.6402984375,13.065475L21.9687984375,7.757705ZM15.9005984375,9.987305L15.9005984375,2.481258C15.6876984375,2.409413,15.4694984375,2.343726,15.2508984375,2.282895C14.3797984375,2.05015,13.4629984375,1.921875,12.5151984375,1.921875C12.1100984375,1.921875,11.7120784375,1.9470009,11.3193284375,1.9923971C10.3588184375,2.100835,9.4379784375,2.340648,8.5717984375,2.687555Q15.7088984375,9.725465,15.9005984375,9.987305ZM8.3500584375,11.883195L3.0246884375,17.191875C3.1234084375,17.395075,3.2322984375,17.592075,3.3447084375,17.788674999999998C3.7947684375,18.569375,4.351938437499999,19.306875,5.0219684375,19.972875C5.3076084375,20.258075,5.6082384375,20.519975,5.9176984375,20.765875C6.6754284375,21.366275,7.4931384375,21.846375,8.3531384375,22.208275C8.3531384375,22.207775,8.2984884375,12.204175,8.3500384375,11.883235L8.3500584375,11.883195ZM9.1003084375,15.013775L9.1003084375,22.520775C9.3141084375,22.593075,9.531418437500001,22.658275,9.7496184375,22.716875C10.6219784375,22.953575,11.5375184375,23.080575,12.4852984375,23.080575C12.8889984375,23.080575,13.2879984375,23.055475,13.6789984375,23.009575C14.6407984375,22.900675,15.5602984375,22.663975,16.4251984375,22.315275C16.4264984375,22.315275,9.290298437499999,15.278275,9.1003084375,15.013775Z" fill="#0079DE" fill-opacity="1"/><path d="M15.78512890625,18.6864725L19.26199890625,15.7816125L14.66527890625,17.830392500000002L12.13777990625,15.8981825C12.02439870625,15.8115625,11.97202390625,15.6667225,12.00378116625,15.5276225C12.03553840625,15.3885225,12.14558090625,15.2807625,12.28531990625,15.2519225L22.52862890625,13.14048879C22.78962890625,13.0868962,23.018028906250002,13.3224435,22.95632890625,13.5816465L20.949058906250002,21.9895125C20.88798890625,22.2460625,20.58300890625,22.3547325,20.37346890625,22.194612499999998L15.78512890625,18.6864725ZM14.83066890625,21.5898825L15.33157890625,19.2453025L17.29514890625,20.7611225L15.38148890625,21.9734825C15.25757890625,22.0519825,15.09866890625,22.048502499999998,14.97830890625,21.9646525C14.85794890625,21.880812499999998,14.79961890625,21.7329525,14.83030890625,21.5895225L14.83066890625,21.5898825Z" transform="matrix(0.9872749447822571,-0.15902313590049744,0.1590234935283661,0.9872748255729675,-1.9357934084546287,2.074540832414641)" fill="#0079DE" fill-opacity="1"/><g filter="url(#master_svg1_424_15627/424_15483)" style="mix-blend-mode:passthrough"><path d="M15.78512890625,18.6864725L19.26199890625,15.7816125L14.66527890625,17.830392500000002L12.13777990625,15.8981825C12.02439870625,15.8115625,11.97202390625,15.6667225,12.00378116625,15.5276225C12.03553840625,15.3885225,12.14558090625,15.2807625,12.28531990625,15.2519225L22.52862890625,13.14048879C22.78962890625,13.0868962,23.018028906250002,13.3224435,22.95632890625,13.5816465L20.949058906250002,21.9895125C20.88798890625,22.2460625,20.58300890625,22.3547325,20.37346890625,22.194612499999998L15.78512890625,18.6864725ZM14.83066890625,21.5898825L15.33157890625,19.2453025L17.29514890625,20.7611225L15.38148890625,21.9734825C15.25757890625,22.0519825,15.09866890625,22.048502499999998,14.97830890625,21.9646525C14.85794890625,21.880812499999998,14.79961890625,21.7329525,14.83030890625,21.5895225L14.83066890625,21.5898825Z" transform="matrix(0.9872749447822571,-0.15902313590049744,0.1590234935283661,0.9872748255729675,-1.9357934084546287,2.074540832414641)" fill="url(#master_svg2_348_10397)"/><path d="M19.00001890625,16.0004825L15.85850890625,18.625172499999998L15.78512890625,18.6864725L15.86108890625,18.7445525L20.37346890625,22.194612499999998C20.58300890625,22.3547325,20.88798890625,22.2460625,20.949058906250002,21.9895125L22.95632890625,13.5816465C23.018028906250002,13.3224435,22.78962890625,13.0868962,22.52862890625,13.14048879L12.28531990625,15.2519225C12.14558090625,15.2807625,12.03553840625,15.3885225,12.00378116625,15.5276225C11.97202390625,15.6667225,12.02439870625,15.8115625,12.13777990625,15.8981825L14.66527890625,17.830392500000002L19.26199890625,15.7816125L19.00001890625,16.0004825ZM14.67790890625,17.7226425L12.19442390625,15.8240825Q12.05592240625,15.7182725,12.09470890625,15.5483825Q12.13349590625,15.3784925,12.30416890625,15.3432725L22.54752890625,13.2318358Q22.69302890625,13.201946,22.79652890625,13.3086885Q22.90002890625,13.4154305,22.865628906250002,13.5600605L20.858338906249998,21.9678525Q20.82424890625,22.1110625,20.68563890625,22.1604625Q20.547018906250003,22.2098525,20.430098906250002,22.1205025L15.93446890625,18.6832425L19.83576890625,15.4237625L14.67790890625,17.7226425ZM14.82579890625,21.7166325C14.83970890625,21.8150925,14.893678906249999,21.9057025,14.97830890625,21.9646525C15.09866890625,22.048502499999998,15.25757890625,22.0519825,15.38148890625,21.9734825L17.21131890625,20.8142325L17.29514890625,20.7611225L17.21659890625,20.7004725L15.41344890625,19.3085025L15.33157890625,19.2453025L15.309968906249999,19.346442500000002L14.85385890625,21.4813625L14.83072890625,21.5896125L14.83066890625,21.5898825L14.83030890625,21.5895225L14.83024890625,21.5897925C14.82118890625,21.632282500000002,14.81993890625,21.6751525,14.82579890625,21.7166325ZM14.91812890625,21.6269525Q14.89141890625,21.7904625,15.03161890625,21.8881225Q15.17940890625,21.991082499999997,15.33157890625,21.894692499999998L17.13275890625,20.7535825L15.39183890625,19.4096425L14.92187890625,21.6093725L14.91812890625,21.6269525Z" fill-rule="evenodd" transform="matrix(0.9872749447822571,-0.15902313590049744,0.1590234935283661,0.9872748255729675,-1.9357934084546287,2.074540832414641)" fill="url(#master_svg3_1_2527)"/></g></g></g></svg>