<svg xmlns="http://www.w3.org/2000/svg" xmlns:xlink="http://www.w3.org/1999/xlink" fill="none" version="1.1" width="24" height="24" viewBox="0 0 24 24"><defs><clipPath id="master_svg0_735_13310"><rect x="0" y="0" width="24" height="24" rx="0"/></clipPath></defs><g clip-path="url(#master_svg0_735_13310)"><g><path d="M15.719999923706055,16.99999995559082C16.257867923706055,17.524627855590822,16.922989923706055,17.90026885559082,17.649999923706055,18.08999885559082L17.929999923706056,18.15999885559082C18.396569923706053,18.26942885559082,18.729839923706056,18.68087885559082,18.739999923706055,19.15999885559082C18.739909923706055,19.73707885559082,18.312149923706055,20.22472885559082,17.739999923706055,20.29999885559082C17.184679923706057,20.37367885559082,16.661489923706053,20.02202885559082,16.519999923706056,19.47999885559082C16.372719923706054,18.65355885559082,15.974714923706054,17.89245585559082,15.380000123706054,17.29999885559082C15.310000423706054,17.22999985559082,15.380000123706054,17.06999985559082,15.329999923706055,16.94999885559082L15.589999923706054,16.94999885559082L15.719999923706055,16.99999995559082Z" fill="#FC6401" fill-opacity="1"/></g><g><path d="M20.99999813354492,14.829999920144044C21.583648133544923,14.906584760144042,22.015238133544923,15.411542460144043,21.99999813354492,16.000004460144044C22.02327813354492,16.551674460144042,21.633948133544923,17.035114460144044,21.08999813354492,17.129994460144044C20.40942813354492,17.248744460144042,19.77363813354492,17.549354460144045,19.250000133544923,18.000004460144044L19.05999913354492,18.180004460144044C18.939998133544922,18.30000446014404,18.76999813354492,18.400004460144043,18.649999633544923,18.230004460144045C18.599178333544923,18.099964460144044,18.61801910354492,17.953004460144044,18.69999883354492,17.840004460144044C19.251451133544922,17.272184460144043,19.61758813354492,16.55037446014404,19.74999813354492,15.770000460144043C19.842678133544922,15.169454460144044,20.39732813354492,14.752358460144043,20.99999813354492,14.829999920144044Z" fill="#0083EB" fill-opacity="1"/></g><g><path d="M17.609998955688475,11.550000190967774C18.146478955688476,11.539376291967773,18.613758955688475,11.914035891967773,18.719998955688478,12.440000891967774C18.855758955688476,13.235129891967773,19.228738955688478,13.970639891967773,19.789998955688475,14.549999891967774C19.859998955688475,14.619999891967772,19.789998955688475,14.819999891967774,19.839998955688475,14.939999891967773L19.579998955688477,14.939999891967773C19.537568955688478,14.952499891967774,19.492428955688478,14.952499891967774,19.44999895568848,14.939999891967773C18.870568955688476,14.354949891967774,18.122008955688475,13.966669891967774,17.310000955688476,13.829999891967773C16.765445955688477,13.697059891967774,16.407955155688477,13.175899891967774,16.480001445688476,12.619999891967772C16.534780455688477,12.030298891967773,17.018189955688477,11.572556491967774,17.609998955688475,11.550000190967774Z" fill="#2DBB04" fill-opacity="1"/></g><g><path d="M16.560000228881837,13.770000457763672C16.560000228881837,13.890000457763671,16.560000228881837,14.070000457763673,16.560000228881837,14.140000457763671C15.994540228881835,14.716352457763671,15.620850228881835,15.453250457763671,15.490000228881836,16.250000457763672C15.378950228881836,16.819410457763674,14.830790228881837,17.193770457763673,14.260000228881836,17.090000457763672C13.694795228881835,16.99469045776367,13.275904628881836,16.51297045776367,13.260000228881836,15.940000457763672C13.289589928881837,15.451370457763671,13.641303228881837,15.042400457763671,14.120000228881835,14.940000457763672C14.918200228881837,14.813620457763673,15.656400228881836,14.439279457763671,16.230000228881835,13.870000457763672C16.300000228881835,13.800001157763672,16.480000228881835,13.820000657763671,16.600000228881836,13.820000657763671L16.560000228881837,13.770000457763672Z" fill="#FFCD01" fill-opacity="1"/></g><g><path d="M16.720006829833984,6.319995956954957C17.870806829833985,7.4852859569549555,18.523406829833984,9.052345956954955,18.540006829833985,10.689995956954956C18.248106829833983,10.556915956954956,17.930806829833983,10.488685956954956,17.610006829833985,10.489995956954957L17.560006829833984,10.489995956954957C16.449506829833986,10.529645956954955,15.539406829833984,11.384215956954957,15.430006829833985,12.489995956954957C15.399906829833984,12.685515956954957,15.399906829833984,12.884485956954956,15.430006829833985,13.079995956954956C15.010206829833985,13.499295956954956,14.466906829833984,13.772685956954955,13.880006829833984,13.859985956954956C13.080606829833984,14.047585956954956,12.456606829833984,14.672285956954957,12.270006829833985,15.471885956954956C12.083306829833985,16.271585956954958,12.366206829833985,17.107885956954956,13.000006829833984,17.629985956954954C12.292506829833984,17.84758595695496,11.559666829833985,17.971985956954956,10.819996829833984,17.99998595695496C9.871436829833986,18.042285956954956,8.921736829833986,17.947985956954955,7.999996829833984,17.719985956954957C7.841566829833984,17.701785956954957,7.6810568298339845,17.718785956954957,7.529996829833984,17.769985956954955L5.359996829833984,18.819985956954955C5.134086829833985,18.986685956954958,4.8259068298339844,18.986685956954958,4.599996829833984,18.819985956954955C4.404506829833984,18.639985956954956,4.320526829833984,18.36898595695496,4.379996829833985,18.109985956954958C4.469996829833985,17.519985956954955,4.539996829833985,16.92998595695496,4.599996829833984,16.339985956954955C4.592236829833984,16.195685956954954,4.535846829833984,16.058185956954958,4.4399968298339845,15.949985956954956C3.4659368298339843,15.050885956954955,2.7305638298339843,13.923785956954957,2.2999998298339843,12.669995956954956C1.5352148298339845,10.301605956954955,2.2412298298339843,7.705035956954956,4.099996829833984,6.049995956954956C7.693566829833984,2.728364956954956,13.271806829833984,2.847708956954956,16.720006829833984,6.319995956954957Z" fill="#0082ED" fill-opacity="1"/></g></g></svg>