<svg xmlns="http://www.w3.org/2000/svg" xmlns:xlink="http://www.w3.org/1999/xlink" fill="none" version="1.1" width="24" height="24" viewBox="0 0 24 24"><defs><clipPath id="master_svg0_735_13248"><rect x="0" y="0" width="24" height="24" rx="0"/></clipPath></defs><g clip-path="url(#master_svg0_735_13248)"><g><path d="M12.62,11.71999971069336L12.62,21.37000971069336C12.62,21.740009710693357,12.62,22.00000971069336,13.12,22.00000971069336C13.5188,21.91140971069336,13.9051,21.77370971069336,14.27,21.59000971069336C15.9074,20.95530971069336,17.6291,20.564509710693358,19.38,20.430009710693362C20.1,20.430009710693362,20.99,20.560009710693357,21.56,20.180009710693362C21.815,20.04040971069336,21.981,19.78010971069336,22,19.48999971069336L22,10.29999971069336C21.9491,9.77460071069336,21.4413,9.41864371069336,20.93,9.550000210693359C20,9.640000710693359,15,9.839999710693359,12.62,11.71999971069336ZM11.38,11.71999971069336L11.38,21.37000971069336C11.38,21.740009710693357,11.38,22.00000971069336,10.88,22.00000971069336C10.48119,21.91140971069336,10.09491,21.77370971069336,9.73,21.59000971069336C8.09262,20.95530971069336,6.37093,20.564509710693358,4.62,20.430009710693362C3.9,20.430009710693362,3.01,20.560009710693357,2.44,20.180009710693362C2.184982,20.04040971069336,2.019011,19.78010971069336,2,19.48999971069336L2,10.29999971069336C2.0509119,9.77460071069336,2.558745,9.418642710693359,3.0700000000000003,9.550000210693359C4,9.640000710693359,9,9.839999710693359,11.38,11.71999971069336Z" fill="#07C160" fill-opacity="1"/></g><g><path d="M12.000000457763672,9.49000377292633C14.073640457763672,9.50106377292633,15.762590457763672,7.82705377292633,15.769980457763673,5.7534037729263305C15.777360457763672,3.6797537729263308,14.10036045776367,1.9937657129263306,12.026700457763672,1.9900598525963307C9.953010457763671,1.9863829629263305,8.270000457763672,3.6663637729263305,8.270000457763672,5.740003772926331C8.269971847563673,7.8032837729263305,9.936750457763672,9.47899377292633,12.000000457763672,9.49000377292633Z" fill="#9CE6BF" fill-opacity="1"/></g></g></svg>