<svg xmlns="http://www.w3.org/2000/svg" xmlns:xlink="http://www.w3.org/1999/xlink" fill="none" version="1.1" width="25" height="24.999998092651367" viewBox="0 0 25 24.999998092651367"><defs><filter id="master_svg1_424_15627/424_15468" filterUnits="userSpaceOnUse" color-interpolation-filters="sRGB" x="2.619140625" y="6.619140625" width="17.787736177444458" height="17.785762071609497"><feFlood flood-opacity="0" result="BackgroundImageFix"/><feBlend mode="normal" in="SourceGraphic" in2="BackgroundImageFix" result="shape"/><feGaussianBlur in="BackgroundImage" stdDeviation="0.6997066736221313"/><feComposite in2="SourceAlpha" operator="in" result="effect1_foregroundBlur"/><feBlend mode="normal" in="SourceGraphic" in2="effect1_foregroundBlur" result="shape"/></filter><linearGradient x1="0.5" y1="0" x2="0.5" y2="1" id="master_svg2_348_10397"><stop offset="0%" stop-color="#00D695" stop-opacity="1"/><stop offset="100%" stop-color="#00D695" stop-opacity="0.10000000149011612"/></linearGradient><linearGradient x1="0.9054054021835327" y1="1.0000001192092896" x2="0.5027027130126953" y2="0.05913979187607765" id="master_svg3_1_2527"><stop offset="0%" stop-color="#FFFFFF" stop-opacity="1"/><stop offset="100%" stop-color="#FFFFFF" stop-opacity="0"/></linearGradient></defs><clipPath id="master_svg0_424_15627/424_15467"><rect x="0" y="0" width="25" height="25" rx="0"/></clipPath><g clip-path="url(#master_svg0_424_15627/424_15467)"><g><g filter="url(#master_svg1_424_15627/424_15468)" style="mix-blend-mode:passthrough"><path d="M3.059489625,12.653750625L17.900540624999998,6.680042025C18.489540625,6.445922625,19.195540625,6.914161625,18.961440625,7.616520625L15.663640625,22.373340625C15.546540625,23.075740625,14.602740625,23.192740625,14.249740625,22.724540625L10.244090625,17.572040625L15.897740625,10.310720625L9.421000625,16.752640624999998L3.059489625,14.175530625C2.472357625,13.941400625,2.472357625,13.004930625,3.059489625,12.653750625Z" fill="url(#master_svg2_348_10397)"/><path d="M18.961440625,7.616520625C19.195540625,6.914161625,18.489540625,6.445922625,17.900540624999998,6.680042025L3.059489625,12.653750625C2.472357625,13.004930625,2.472357625,13.941400625,3.059489625,14.175530625L9.421000625,16.752640624999998L15.487840625,10.718390625L15.897740625,10.310720625L15.542640625,10.766860625L10.244090625,17.572040625L14.249740625,22.724540625C14.602740625,23.192740625,15.546540625,23.075740625,15.663640625,22.373340625L18.961440625,7.616520625ZM10.336520625,17.572140625L14.308040625,22.680640625Q14.556740625,23.010540625,15.030940625,22.916340625Q15.515140625,22.820240625,15.591640625,22.361340625L15.592040625,22.359440624999998L18.891040625,7.596978625L18.892240625,7.593449625Q19.045540625,7.133491625,18.694240625,6.854209625Q18.349540625,6.580105525,17.927840625,6.747721625L3.092122625,12.719260625Q2.692097025,12.961490625,2.692097025,13.458530625Q2.692097225,13.950480625,3.086882625,14.107910624999999L9.403730625,16.666940625000002L16.662740624999998,9.446920625L10.336520625,17.572140625Z" fill-rule="evenodd" fill="url(#master_svg3_1_2527)"/></g><path d="M2.1507572812499998,9.61742L21.96028828125,1.6437905C22.74648828125,1.33129,23.68888828125,1.956291,23.37638828125,2.89379L18.97448828125,22.5911C18.81818828125,23.5286,17.55848828125,23.6848,17.08728828125,23.0598L11.74058828125,16.1824L19.28698828125,6.48998L10.64196828125,15.0886L2.1507572812499998,11.6487C1.36706528125,11.33617,1.36706528125,10.08617,2.1507572812499998,9.61742Z" fill="#0079DE" fill-opacity="1"/></g></g></svg>