<svg xmlns="http://www.w3.org/2000/svg" xmlns:xlink="http://www.w3.org/1999/xlink" fill="none" version="1.1" width="25" height="25" viewBox="0 0 25 25"><defs><filter id="master_svg1_424_15627/424_15586" filterUnits="userSpaceOnUse" color-interpolation-filters="sRGB" x="14.6650390625" y="13.8359375" width="11.048338770866394" height="11.047367930412292"><feFlood flood-opacity="0" result="BackgroundImageFix"/><feBlend mode="normal" in="SourceGraphic" in2="BackgroundImageFix" result="shape"/><feGaussianBlur in="BackgroundImage" stdDeviation="0.6691393256187439"/><feComposite in2="SourceAlpha" operator="in" result="effect1_foregroundBlur"/><feBlend mode="normal" in="SourceGraphic" in2="effect1_foregroundBlur" result="shape"/></filter><linearGradient x1="0.5" y1="0" x2="0.5" y2="1" id="master_svg2_348_10397"><stop offset="0%" stop-color="#00D695" stop-opacity="1"/><stop offset="100%" stop-color="#00D695" stop-opacity="0.10000000149011612"/></linearGradient><linearGradient x1="0.9054054021835327" y1="1.0000001192092896" x2="0.5027027130126953" y2="0.05913979187607765" id="master_svg3_1_2527"><stop offset="0%" stop-color="#FFFFFF" stop-opacity="1"/><stop offset="100%" stop-color="#FFFFFF" stop-opacity="0"/></linearGradient><filter id="master_svg4_424_15627/424_15587" filterUnits="userSpaceOnUse" color-interpolation-filters="sRGB" x="16.0771484375" y="1.455078125" width="5.465052485466003" height="5.442575812339783"><feFlood flood-opacity="0" result="BackgroundImageFix"/><feBlend mode="normal" in="SourceGraphic" in2="BackgroundImageFix" result="shape"/><feGaussianBlur in="BackgroundImage" stdDeviation="0.6691393256187439"/><feComposite in2="SourceAlpha" operator="in" result="effect1_foregroundBlur"/><feBlend mode="normal" in="SourceGraphic" in2="effect1_foregroundBlur" result="shape"/></filter><linearGradient x1="0.5" y1="0" x2="0.5" y2="1" id="master_svg5_348_10397"><stop offset="0%" stop-color="#00D695" stop-opacity="1"/><stop offset="100%" stop-color="#00D695" stop-opacity="0.10000000149011612"/></linearGradient><linearGradient x1="0.9054054021835327" y1="1.0000001192092896" x2="0.5027027130126953" y2="0.05913979187607765" id="master_svg6_1_2527"><stop offset="0%" stop-color="#FFFFFF" stop-opacity="1"/><stop offset="100%" stop-color="#FFFFFF" stop-opacity="0"/></linearGradient></defs><clipPath id="master_svg0_424_15627/424_15584"><rect x="0" y="0" width="25" height="24.999998092651367" rx="0"/></clipPath><g clip-path="url(#master_svg0_424_15627/424_15584)"><g><path d="M16.95967109375,5.559378125Q16.73897109375,5.559378125,16.57347109375,5.404908125Q16.40797109375,5.250448125,16.29757109375,5.029788125Q16.18727109375,4.809128125,16.13207109375,4.577428125Q16.07687109375,4.3457381250000005,16.07687109375,4.191278125L16.07687109375,1.455078125L16.12107109375,1.455078125Q16.29757109375,1.455078125,16.485171093749997,1.510243425Q16.67277109375,1.565409125,16.92657109375,1.719871125Q17.18027109375,1.874334125,17.544471093749998,2.172227125Q17.90857109375,2.470118125,18.460271093750002,2.9555781249999997Q19.056171093750002,3.485158125,19.39817109375,3.860288125Q19.74027109375,4.235408125,19.92787109375,4.489168125Q20.11537109375,4.742928125000001,20.15957109375,4.919458125Q20.20367109375,5.095988125,20.20367109375,5.228388125L20.20367109375,5.559378125L16.95967109375,5.559378125ZM19.519571093750002,13.834178125Q20.53467109375,13.834178125,21.41747109375,14.209278125Q22.30017109375,14.584378125,22.96217109375,15.246378125Q23.62427109375,15.908378125,23.99947109375,16.790978125000002Q24.37457109375,17.673678125,24.37457109375,18.688678125Q24.37457109375,19.703778125,23.99947109375,20.586378125Q23.62427109375,21.469078125,22.96217109375,22.130978125Q22.30017109375,22.792978125,21.41747109375,23.168178125Q20.53467109375,23.543278125,19.519571093750002,23.543278125Q18.52647109375,23.543278125,17.64377109375,23.168178125Q16.761071093749997,22.792978125,16.098971093750002,22.130978125Q15.43697109375,21.469078125,15.05077109375,20.586378125Q14.66457109375,19.703778125,14.66457109375,18.688678125Q14.66457109375,17.673678125,15.05077109375,16.790978125000002Q15.43697109375,15.908378125,16.098971093750002,15.246378125Q16.761071093749997,14.584378125,17.64377109375,14.209278125Q18.52647109375,13.834178125,19.519571093750002,13.834178125ZM22.27807109375,19.460978125Q22.47667109375,19.460978125,22.63117109375,19.240378125Q22.78567109375,19.019678125,22.78567109375,18.710778125Q22.78567109375,18.401878125,22.63117109375,18.181178125Q22.47667109375,17.960578125,22.27807109375,17.960578125L20.18157109375,17.960578125L20.18157109375,16.018678125Q20.18157109375,15.842178125,19.99407109375,15.709778125Q19.80647109375,15.577378125,19.475471093750002,15.577378125Q19.14437109375,15.577378125,18.97887109375,15.709778125Q18.81337109375,15.842178125,18.81337109375,16.018678125L18.81337109375,18.445978125Q18.76927109375,18.622478125,18.76927109375,18.710778125Q18.76927109375,19.019678125,18.923671093750002,19.240378125Q19.07817109375,19.460978125,19.27677109375,19.460978125L22.27807109375,19.460978125ZM13.23009109375,18.026778125Q13.20802109375,18.181178125,13.20802109375,18.335678125L13.20802109375,18.666678125Q13.20802109375,19.659578125,13.49491109375,20.542278125Q13.78177109375,21.424878125,14.28937109375,22.197178125L6.47718109375,22.197178125Q6.0578910937499995,22.197178125,5.56135109375,21.954478125Q5.06481109375,21.711778125,4.63448109375,21.314578125Q4.20414809375,20.917378125,3.91725909375,20.409878125Q3.63037088308,19.902378125,3.63037109375,19.350678125L3.63037109375,4.301608125Q3.63037109375,3.838218125,3.85105409375,3.341728125Q4.07173709375,2.845248125,4.42483109375,2.425989125Q4.77792109375,2.0067331250000002,5.24136109375,1.730906125Q5.70479109375,1.45508012617,6.212361093749999,1.4550801525L14.66457109375,1.4550801525L14.66457109375,4.2133481249999996Q14.66457109375,4.654668125000001,14.79697109375,5.129088125Q14.92937109375,5.603508125,15.21627109375,6.022768125Q15.50317109375,6.442018125,15.94447109375,6.706818125Q16.385871093749998,6.971608125,16.981671093750002,6.971608125L20.20367109375,6.971608125L20.20367109375,12.466078125Q20.02717109375,12.421978125,19.82847109375,12.421978125L19.43127109375,12.421978125Q17.77617109375,12.421978125,16.40797109375,13.194278125Q15.03967109375,13.966578125,14.20107109375,15.268478125L7.77922109375,15.268478125Q7.20544109375,15.268478125,6.79718109375,15.665678125Q6.38891109375,16.062878124999997,6.38891109375,16.636578125Q6.38891109375,17.210278125000002,6.79718109375,17.618478125Q7.20544109375,18.026778125,7.77922109375,18.026778125L13.23009109375,18.026778125ZM7.77921109375,9.729868125Q7.20544109375,9.729868125,6.79717109375,10.138098125Q6.38891109375,10.546318125,6.38891109375,11.120038125Q6.38891109375,11.693778125,6.79717109375,12.090978125Q7.20544109375,12.488178125,7.77921109375,12.488178125L16.054871093750002,12.488178125Q16.62857109375,12.488178125,17.02587109375,12.090978125Q17.42307109375,11.693778125,17.42307109375,11.120038125Q17.42307109375,10.546318125,17.02587109375,10.138098125Q16.62857109375,9.729868125,16.054871093750002,9.729868125L7.77921109375,9.729868125Z" fill="#0079DE" fill-opacity="1"/><g filter="url(#master_svg1_424_15627/424_15586)" style="mix-blend-mode:passthrough"><path d="M19.5200690625,13.8359375Q20.5352090625,13.8359375,21.4179490625,14.2110615Q22.300679062500002,14.5861855,22.9627290625,15.248167500000001Q23.6247690625,15.9101475,23.999939062499998,16.7927975Q24.3750990625,17.6754375,24.3750990625,18.6904875Q24.3750990625,19.7055275,23.999939062499998,20.5881675Q23.6247690625,21.4708175,22.9627290625,22.132797500000002Q22.300679062500002,22.794777500000002,21.4179490625,23.1699075Q20.5352090625,23.5450275,19.5200690625,23.5450275Q18.5269990625,23.5450275,17.6442590625,23.1699075Q16.7615290625,22.794777500000002,16.0994790625,22.132797500000002Q15.4374320625,21.4708175,15.0512350625,20.5881675Q14.6650390625,19.7055275,14.6650390625,18.6904875Q14.6650390625,17.6754375,15.0512350625,16.7927975Q15.4374320625,15.9101475,16.0994790625,15.248167500000001Q16.7615290625,14.5861845,17.6442590625,14.2110615Q18.5269990625,13.83593852092,19.5200690625,13.8359375ZM22.2786090625,19.4627975Q22.477219062499998,19.4627975,22.6316990625,19.2421275Q22.7861790625,19.0214775,22.7861790625,18.7125475Q22.7861790625,18.4036175,22.6316990625,18.1829575Q22.477219062499998,17.9622975,22.2786090625,17.9622975L20.1821190625,17.9622975L20.1821190625,16.0204775Q20.1821190625,15.8439475,19.9945390625,15.7115575Q19.8069590625,15.5791575,19.4759290625,15.5791575Q19.1449090625,15.5791575,18.9793990625,15.7115575Q18.8138790625,15.8439575,18.8138790625,16.0204775L18.8138790625,18.4477575Q18.7697490625,18.6242875,18.7697490625,18.7125475Q18.7697490625,19.0214675,18.9242290625,19.2421275Q19.0786990625,19.4627975,19.2773190625,19.4627975L22.2786090625,19.4627975Z" fill="url(#master_svg2_348_10397)"/><path d="M21.4179490625,14.2110615Q20.5352090625,13.8359375,19.5200690625,13.8359375Q18.5269990625,13.8359375,17.6442590625,14.2110615Q16.7615290625,14.5861845,16.0994790625,15.248167500000001Q15.4374320625,15.9101475,15.0512350625,16.7927975Q14.6650390625,17.6754375,14.6650390625,18.6904875Q14.6650390625,19.7055275,15.0512350625,20.5881675Q15.4374320625,21.4708175,16.0994790625,22.132797500000002Q16.7615290625,22.794777500000002,17.6442590625,23.1699075Q18.5269990625,23.5450275,19.5200690625,23.5450275Q20.5352090625,23.5450275,21.4179490625,23.1699075Q22.300679062500002,22.794777500000002,22.9627290625,22.132797500000002Q23.6247690625,21.4708175,23.999939062499998,20.5881675Q24.3750990625,19.7055275,24.3750990625,18.6904875Q24.3750990625,17.6754375,23.999939062499998,16.7927975Q23.6247690625,15.9101475,22.9627290625,15.248167500000001Q22.300679062500002,14.5861855,21.4179490625,14.2110615ZM17.6704290625,14.2726455Q18.5406190625,13.9028525,19.5200690625,13.9028514Q20.5215790625,13.9028515,21.3917790625,14.2726455Q22.2625490625,14.6426895,22.9154090625,15.2954875Q23.5682690625,15.9482775,23.9383590625,16.8189675Q24.308179062500002,17.6890875,24.3081890625,18.6904875Q24.3081990625,19.6918775,23.9383590625,20.5619975Q23.568259062499997,21.4326975,22.9154090625,22.0854775Q22.2625490625,22.738277500000002,21.3917790625,23.1083175Q20.5215890625,23.4781075,19.5200690625,23.4781175Q18.5406190625,23.4781175,17.6704290625,23.1083175Q16.799659062499998,22.738277500000002,16.1467990625,22.0854775Q15.4936730625,21.4324275,15.1125370625,20.5613475Q14.7319531625,19.6915275,14.7319529625,18.6904875Q14.7319529625,17.6894375,15.1125380625,16.8196175Q15.4936720625,15.9485475,16.1467990625,15.2954875Q16.799659062499998,14.6426865,17.6704290625,14.2726455ZM19.2773190625,19.5297075L22.2786090625,19.5297075Q22.5120590625,19.5297075,22.6865190625,19.2805075Q22.8530890625,19.0425675,22.8530990625,18.7125475Q22.8530890625,18.382527500000002,22.6865190625,18.1445875Q22.5120590625,17.8953875,22.2786090625,17.8953875L20.2490290625,17.8953875L20.2490290625,16.0204775Q20.2490290625,15.8092775,20.0331190625,15.6568875Q19.8281890625,15.5122475,19.4759290625,15.5122475Q19.121439062500002,15.5122475,18.9375990625,15.659297500000001Q18.7469690625,15.8117875,18.7469690625,16.0204775L18.7469690625,18.4395675Q18.7028290625,18.6181575,18.7028290625,18.7125475Q18.7028290625,19.0425675,18.8694090625,19.2805075Q19.0438690625,19.5297175,19.2773190625,19.5297075ZM18.8138790625,18.4477575Q18.7697490625,18.6242875,18.7697490625,18.7125475Q18.7697490625,19.0214675,18.9242290625,19.2421275Q19.0786990625,19.4627975,19.2773190625,19.4627975L22.2786090625,19.4627975Q22.477219062499998,19.4627975,22.6316990625,19.2421275Q22.7861790625,19.0214775,22.7861790625,18.7125475Q22.7861790625,18.4036175,22.6316990625,18.1829575Q22.477219062499998,17.9622975,22.2786090625,17.9622975L20.1821190625,17.9622975L20.1821190625,16.0204775Q20.1821190625,15.8439475,19.9945390625,15.7115575Q19.8069590625,15.5791575,19.4759290625,15.5791575Q19.1449090625,15.5791575,18.9793990625,15.7115575Q18.8138790625,15.8439575,18.8138790625,16.0204775L18.8138790625,18.4477575Z" fill-rule="evenodd" fill="url(#master_svg3_1_2527)"/></g><g filter="url(#master_svg4_424_15627/424_15587)" style="mix-blend-mode:passthrough"><path d="M16.9598804375,5.559378125Q16.7391974375,5.559378125,16.5736844375,5.404908125Q16.4081714375,5.250448125,16.2978314375,5.029788125Q16.1874904375,4.809128125,16.1323185375,4.577428125Q16.07714639545,4.3457381250000005,16.0771484375,4.191278125L16.0771484375,1.455078125L16.1212843375,1.455078125Q16.2978314375,1.455078125,16.4854114375,1.510243425Q16.6729934375,1.565409125,16.9267774375,1.719871125Q17.1805684375,1.874334125,17.5446884375,2.172227125Q17.9088184375,2.470118125,18.4605284375,2.9555781249999997Q19.0563684375,3.485158125,19.3984284375,3.860288125Q19.740488437499998,4.235408125,19.9280684375,4.489168125Q20.1156484375,4.742928125000001,20.159788437499998,4.919458125Q20.2039184375,5.095988125,20.2039184375,5.228388125L20.2039184375,5.559378125L16.9598804375,5.559378125Z" fill="url(#master_svg5_348_10397)"/><path d="M16.5736844375,5.404908125Q16.7391974375,5.559378125,16.9598804375,5.559378125L20.2039184375,5.559378125L20.2039184375,5.228388125Q20.2039184375,5.095988125,20.159788437499998,4.919458125Q20.1156484375,4.742928125000001,19.9280684375,4.489168125Q19.740488437499998,4.235408125,19.3984284375,3.860288125Q19.0563684375,3.485158125,18.4605284375,2.9555781249999997Q17.9088184375,2.470118125,17.5446884375,2.172227125Q17.1805684375,1.874334125,16.9267774375,1.719871125Q16.6729934375,1.565409125,16.4854114375,1.510243425Q16.3099084375,1.458629675,16.1440623375,1.455306775Q16.1326504375,1.455078125,16.1212843375,1.455078125L16.0771484375,1.455078125L16.0771484375,4.191278125Q16.07714639545,4.3457381250000005,16.1323185375,4.577428125Q16.1874904375,4.809128125,16.2978314375,5.029788125Q16.4081714375,5.250448125,16.5736844375,5.404908125ZM16.1440623375,1.522235125L16.1440623375,4.191278125Q16.1440604375,4.337878125,16.1974124375,4.561928125Q16.2507944375,4.786108125,16.3576804375,4.999858124999999Q16.4626324375,5.209748125,16.6193384375,5.355988125Q16.7655704375,5.492458125,16.9598804375,5.492458125L20.1370084375,5.492458125L20.1370084375,5.228388125Q20.1370084375,5.104218125,20.0948684375,4.935688125Q20.0539584375,4.772038125,19.8742584375,4.528948124999999Q19.6887284375,4.277958125,19.3489884375,3.905368125Q19.0092984375,3.532848125,18.4163184375,3.0058081249999997Q17.8654884375,2.5211281249999997,17.5023184375,2.224017125Q17.1417984375,1.929074125,16.8919884375,1.777031125Q16.6456984375,1.627129125,16.4665324375,1.574439125Q16.3003364375,1.525562325,16.1440623375,1.522235125Z" fill-rule="evenodd" fill="url(#master_svg6_1_2527)"/></g></g></g></svg>