<svg xmlns="http://www.w3.org/2000/svg" xmlns:xlink="http://www.w3.org/1999/xlink" fill="none" version="1.1" width="102" height="102" viewBox="0 0 102 102"><defs><mask id="master_svg1_110_3889"><rect x="1" y="0.875" width="100" height="100" rx="0" fill="#FFFFFF" fill-opacity="1"/></mask><linearGradient x1="1.4458807706832886" y1="0.9879999756813049" x2="0.29515957832336426" y2="1" id="master_svg2_48_2358"><stop offset="0%" stop-color="#E0E5EF" stop-opacity="0"/><stop offset="100%" stop-color="#E0E5EF" stop-opacity="1"/></linearGradient><linearGradient x1="1.4458807706832886" y1="0.9879999756813049" x2="0.29515957832336426" y2="1" id="master_svg3_48_2358"><stop offset="0%" stop-color="#E0E5EF" stop-opacity="0"/><stop offset="100%" stop-color="#E0E5EF" stop-opacity="1"/></linearGradient><linearGradient x1="1.4458807706832886" y1="0.9879999756813049" x2="0.29515957832336426" y2="1" id="master_svg4_48_2358"><stop offset="0%" stop-color="#E0E5EF" stop-opacity="0"/><stop offset="100%" stop-color="#E0E5EF" stop-opacity="1"/></linearGradient><linearGradient x1="0.40830326080322266" y1="0.4488910436630249" x2="0.40830326080322266" y2="0" id="master_svg5_48_2406"><stop offset="0%" stop-color="#E8EBF1" stop-opacity="0.10000000149011612"/><stop offset="100%" stop-color="#477ED6" stop-opacity="1"/></linearGradient><linearGradient x1="0.5" y1="1.261823058128357" x2="0.5099999904632568" y2="-0.20096860826015472" id="master_svg6_48_2456"><stop offset="0%" stop-color="#3A90D6" stop-opacity="1"/><stop offset="100%" stop-color="#9AB7F5" stop-opacity="1"/></linearGradient><linearGradient x1="0.5" y1="1.261823058128357" x2="0.5099999904632568" y2="-0.20096860826015472" id="master_svg7_48_2443"><stop offset="0%" stop-color="#1E85D9" stop-opacity="1"/><stop offset="100%" stop-color="#D3DEF5" stop-opacity="1"/></linearGradient><linearGradient x1="0.5" y1="1" x2="0.5099999904632568" y2="-0.11225798726081848" id="master_svg8_48_2446"><stop offset="0%" stop-color="#2E95E8" stop-opacity="1"/><stop offset="100%" stop-color="#E7EAF0" stop-opacity="1"/></linearGradient><linearGradient x1="0.5" y1="1" x2="0.5099999904632568" y2="-0.11225798726081848" id="master_svg9_48_2388"><stop offset="0%" stop-color="#0079DE" stop-opacity="1"/><stop offset="100%" stop-color="#E7EAF0" stop-opacity="1"/></linearGradient><linearGradient x1="0.5" y1="1.261823058128357" x2="0.5099999904632568" y2="-0.20096860826015472" id="master_svga_48_2453"><stop offset="0%" stop-color="#2388DB" stop-opacity="1"/><stop offset="100%" stop-color="#C9D6F0" stop-opacity="1"/></linearGradient><linearGradient x1="0.5" y1="1.261823058128357" x2="0.5099999904632568" y2="-0.20096860826015472" id="master_svgb_48_2450"><stop offset="0%" stop-color="#4DA4EB" stop-opacity="1"/><stop offset="100%" stop-color="#BECCEB" stop-opacity="1"/></linearGradient><linearGradient x1="1.0929325819015503" y1="1" x2="0.09177931398153305" y2="0" id="master_svgc_48_2426"><stop offset="0%" stop-color="#A2ABB9" stop-opacity="1"/><stop offset="100%" stop-color="#E7EAF0" stop-opacity="1"/></linearGradient><linearGradient x1="1.0929325819015503" y1="1" x2="0.09177931398153305" y2="0" id="master_svgd_48_2426"><stop offset="0%" stop-color="#A2ABB9" stop-opacity="1"/><stop offset="100%" stop-color="#E7EAF0" stop-opacity="1"/></linearGradient><linearGradient x1="0" y1="1" x2="1" y2="0.041184231638908386" id="master_svge_48_2430"><stop offset="0%" stop-color="#A2ABB9" stop-opacity="1"/><stop offset="100%" stop-color="#E4E7EE" stop-opacity="1"/></linearGradient><linearGradient x1="-0.0844229906797409" y1="1" x2="1" y2="0.20408885180950165" id="master_svgf_48_2433"><stop offset="0%" stop-color="#A2ABB9" stop-opacity="1"/><stop offset="100%" stop-color="#E7EAF0" stop-opacity="1"/></linearGradient><linearGradient x1="0" y1="1" x2="1" y2="0" id="master_svgg_48_2420"><stop offset="0%" stop-color="#A2ABB9" stop-opacity="1"/><stop offset="100%" stop-color="#E7EAF0" stop-opacity="1"/></linearGradient><linearGradient x1="0.08415277302265167" y1="0.9717057943344116" x2="1.0203032493591309" y2="-0.09466772526502609" id="master_svgh_48_2417"><stop offset="0%" stop-color="#C0C7D2" stop-opacity="1"/><stop offset="100%" stop-color="#A2ABB9" stop-opacity="1"/></linearGradient><linearGradient x1="0.08415277302265167" y1="0.9717057943344116" x2="1.0203032493591309" y2="-0.09466772526502609" id="master_svgi_48_2417"><stop offset="0%" stop-color="#C0C7D2" stop-opacity="1"/><stop offset="100%" stop-color="#A2ABB9" stop-opacity="1"/></linearGradient><linearGradient x1="0.08415277302265167" y1="0.9717057943344116" x2="1.0203032493591309" y2="-0.09466772526502609" id="master_svgj_48_2417"><stop offset="0%" stop-color="#C0C7D2" stop-opacity="1"/><stop offset="100%" stop-color="#A2ABB9" stop-opacity="1"/></linearGradient><linearGradient x1="0" y1="1" x2="1" y2="0" id="master_svgk_48_2436"><stop offset="0%" stop-color="#909AA9" stop-opacity="1"/><stop offset="100%" stop-color="#C0C7D2" stop-opacity="1"/></linearGradient><linearGradient x1="1.257321834564209" y1="1" x2="0" y2="-0.08946135640144348" id="master_svgl_48_2423"><stop offset="0%" stop-color="#909AA9" stop-opacity="1"/><stop offset="100%" stop-color="#C0C7D2" stop-opacity="1"/></linearGradient><linearGradient x1="0" y1="1" x2="1" y2="0" id="master_svgm_48_2436"><stop offset="0%" stop-color="#909AA9" stop-opacity="1"/><stop offset="100%" stop-color="#C0C7D2" stop-opacity="1"/></linearGradient></defs><clipPath id="master_svg0_110_3886"><rect x="1" y="1" width="100" height="100" rx="0"/></clipPath><g style="mix-blend-mode:passthrough"><g><g style="mix-blend-mode:passthrough"><g><g style="mix-blend-mode:passthrough"><g><g clip-path="url(#master_svg0_110_3886)"><g><g mask="url(#master_svg1_110_3889)"><g><path d="M87.97979609375,50.54161298828125C87.97979609375,49.32761298828125,87.92019609375,48.12731298828125,87.80349609375,46.94351298828125L93.66649609375,46.94351298828125C95.13979609375,46.94351298828125,96.33319609375,45.75011298828125,96.33319609375,44.27681298828125L96.33319609375,44.12851298828125C96.33319609375,42.87961298828125,95.47569609375,41.83181298828125,94.31719609375,41.54161298828125L83.00019609375,41.54161298828125C81.52679609375,41.54161298828125,80.33349609375,40.34831298828125,80.33349609375,38.87501298828125L80.33349609375,38.04161298828125C80.33349609375,36.56831298828125,81.52679609375,35.37501298828125,83.00019609375,35.37501298828125L86.29049609375,35.37501298828125C86.66719609375,35.26701298828125,87.01419609375,35.064612988281255,87.29679609375,34.78211298828125C87.73519609375,34.34381298828125,87.98019609375,33.75051298828125,87.98019609375,33.13211298828125L87.98019609375,33.002112988281255C87.98019609375,31.71381298828125,86.93519609375,30.66881298828125,85.64679609375,30.66881298828125L82.06999609375,30.66881298828125C80.92069609375,28.90691298828125,79.62299609375,27.24771298828125,78.19449609375,25.70831298828125L70.66679609375,25.70831298828125C69.47019609374999,25.70831298828125,68.50019609374999,24.73831298828125,68.50019609374999,23.54164298828125L68.50019609374999,23.37498298828125C68.50019609374999,22.17831298828125,69.47019609374999,21.20831298828125,70.66679609375,21.20831298828125L73.19269609375,21.20831298828125C66.90769609374999,16.50221298828125,59.06529609375,13.70831298828125,50.56149609375,13.70831298828125C46.23229609375,13.70831298828125,42.07469609375,14.43235798828125,38.20669609375,15.76413298828125L24.14149609375,15.76413298828125C22.39319609375,15.76413298828125,20.97479609375,17.18246298828125,20.97479609375,18.93079298828125L20.97479609375,19.10746298828125C20.97479609375,19.947462988281252,21.30819609375,20.752462988281252,21.90149609375,21.34746298828125C22.49649609375,21.940792988281252,23.30149609375,22.274132988281252,24.14149609375,22.274132988281252L26.57319609375,22.274132988281252C26.53229609375,22.30766298828125,26.49169609375,22.34128298828125,26.45119609375,22.37498298828125L31.33349609375,22.37498298828125C31.77519609375,22.37498298828125,32.20019609375,22.54998298828125,32.51179609375,22.86331298828125C32.82519609375,23.17498298828125,33.00019609375,23.599982988281248,33.00019609375,24.04161298828125C33.00019609375,24.48331298828125,32.82519609375,24.90831298828125,32.51179609375,25.220012988281248C32.20019609375,25.53331298828125,31.77519609375,25.70831298828125,31.33349609375,25.70831298828125L10.22902609375,25.70831298828125C7.77846609375,25.84881298828125,5.83349609375,27.881612988281248,5.83349609375,30.36721298828125L5.83349609375,30.62711298828125C5.83349609375,31.86551298828125,6.32516309375,33.05211298828125,7.20016609375,33.92711298828125C8.07516609375,34.80211298828125,9.261826093749999,35.293812988281246,10.50016609375,35.293812988281246L16.490896093750003,35.293812988281246C14.34091609375,39.94031298828125,13.143116093749999,45.10351298828125,13.143116093749999,50.54161298828125C13.143116093749999,51.11581298828125,13.15646609375,51.68701298828125,13.18287609375,52.25481298828125L9.80932609375,52.25481298828125C9.35432609375,52.25481298828125,8.91932609375,52.43481298828125,8.59766609375,52.75651298828125C8.275996093749999,53.07811298828125,8.09599609375,53.51311298828125,8.09599609375,53.96811298828125C8.09599609375,54.42311298828125,8.275996093749999,54.85811298828125,8.59766609375,55.17981298828125C8.91932609375,55.50151298828125,9.35432609375,55.68151298828125,9.80932609375,55.68151298828125L13.50467609375,55.68151298828125C13.505946093750001,55.69051298828125,13.50721609375,55.69931298828125,13.50849609375,55.70831298828125L15.00016609375,55.70831298828125C16.196796093750002,55.70831298828125,17.16679609375,56.67831298828125,17.16679609375,57.87501298828125L17.16679609375,58.04161298828125C17.16679609375,59.23831298828125,16.196796093750002,60.20831298828125,15.00016609375,60.20831298828125L13.26881609375,60.20831298828125C13.14004609375,60.25961298828125,13.021966093749999,60.33701298828125,12.92266609375,60.43711298828125C12.72932609375,60.62881298828125,12.62099609375,60.89051298828125,12.62099609375,61.16381298828125C12.62099609375,61.73051298828125,13.08266609375,62.19051298828125,13.64932609375,62.19051298828125L15.05366609375,62.19051298828125C20.006796093749998,76.82281298828124,34.034996093749996,87.37501298828126,50.56149609375,87.37501298828126C71.22319609375,87.37501298828126,87.97979609375,70.88161298828125,87.97979609375,50.54161298828125Z" fill-rule="evenodd" fill="#F3F3FA" fill-opacity="0.6000000238418579"/><g><path d="M30.376826093749997,68.29498298828125C30.61182609375,68.19831298828124,30.80182609375,68.04331298828126,30.946826093749998,67.83331298828125C31.093496093749998,67.62498298828125,31.16682609375,67.38331298828125,31.16682609375,67.10998298828125L31.136826093750003,66.92164298828125L31.078496093749997,66.68831298828125C31.05016609375,66.59998298828125,31.025166093750002,66.51664298828125,31.00516609375,66.43831298828125L30.75682609375,65.94331298828125C30.80516609375,65.76664298828125,30.83016609375,65.60164298828126,30.83016609375,65.44664298828125C30.83016609375,65.06664298828125,30.72349609375,64.72998298828125,30.50849609375,64.43831298828125C30.29349609375,64.14664298828124,30.02016609375,63.94164298828125,29.68849609375,63.82331298828125L27.84516609375,60.21664298828125C27.70849609375,59.91331298828125,27.50016609375,59.66997998828125,27.22349609375,59.48497998828125C26.94516609375,59.29997968828125,26.63016609375,59.20831298828125,26.28016609375,59.20831298828125C25.88016609375,59.20831298828125,25.55349609375,59.32997998828125,25.29849609375,59.57331298828125C25.045166093749998,59.81664598828125,24.82682609375,60.10831298828125,24.64016609375,60.44998298828125L24.62516609375,60.44998298828125L22.32849609375,64.70164298828125C22.17182909375,64.83664298828126,22.04349609375,64.99831298828126,21.941829093750002,65.18331298828124C21.83849609375,65.36831298828125,21.77682909375,65.56831298828125,21.75849609375,65.78164298828125L21.39182939375,66.62998298828126C21.37349609375,66.67831298828125,21.35849609375,66.72664298828126,21.34849609375,66.77498298828125Q21.33349609375,66.87831298828125,21.33349609375,66.93664298828125C21.33349609375,67.27664298828125,21.44016309375,67.57164298828125,21.65516309375,67.81998298828125C21.87016309375,68.06831298828125,22.13849609375,68.23164298828125,22.46016609375,68.30831298828124L24.11349609375,68.39664298828126C24.19182609375,68.53331298828125,24.29182609375,68.63998298828125,24.41349609375,68.71831298828126C24.53516609375,68.79664298828125,24.68016609375,68.83498298828125,24.84516609375,68.83498298828125C25.05016609375,68.83498298828125,25.23516609375,68.76164298828125,25.40182609375,68.61498298828126L25.40182609375,70.85001298828125C25.40182609375,71.49331298828125,25.39682609375,72.00831298828125,25.38682609375,72.39161298828125C25.37682609375,72.77661298828124,25.36682609375,73.08161298828125,25.35682609375,73.30661298828124L25.31349609375,73.87501298828126L27.420166093749998,73.87501298828126C27.391826093749998,73.55331298828125,27.36682609375,73.21831298828126,27.34682609375,72.86661298828125C27.32849609375,72.57501298828124,27.31182609375,72.24501298828125,27.29682609375,71.88001298828125C27.28182609375,71.51501298828126,27.275166093750002,71.15331298828124,27.275166093750002,70.79161298828124L27.275166093750002,68.35331298828125L29.55682609375,68.32331298828124L29.83516609375,68.32331298828124C29.93349609375,68.32331298828124,30.02016609375,68.31998298828125,30.09849609375,68.30831298828124C30.196826093749998,68.30831298828124,30.28849609375,68.30498298828125,30.376826093749997,68.29498298828125Z" fill-rule="evenodd" fill="url(#master_svg2_48_2358)" fill-opacity="1"/><path d="M76.08,68.71831298828126C76.20167000000001,68.79664298828125,76.34667,68.83498298828125,76.51167,68.83498298828125C76.71667,68.83498298828125,76.90167,68.76164298828125,77.06833,68.61498298828126L77.06833,70.85001298828125C77.06833,71.49331298828125,77.06333,72.00831298828125,77.05333,72.39161298828125C77.04333,72.77661298828124,77.03333,73.08161298828125,77.02333,73.30661298828124L76.98,73.87501298828126L79.08667,73.87501298828126C79.05833,73.55331298828125,79.03333,73.21831298828126,79.01333,72.86661298828125C78.995,72.57501298828124,78.97833,72.24501298828125,78.96333,71.88001298828125C78.94833,71.51501298828126,78.94167,71.15331298828124,78.94167,70.79161298828124L78.94167,68.35331298828125L81.22333,68.32331298828124L81.50167,68.32331298828124C81.6,68.32331298828124,81.68666999999999,68.31998298828125,81.765,68.30831298828124C81.86333,68.30831298828124,81.955,68.30498298828125,82.04333,68.29498298828125C82.27833,68.19831298828124,82.46833,68.04331298828126,82.61333,67.83331298828125C82.76,67.62498298828125,82.83333,67.38331298828125,82.83333,67.10998298828125L82.80333,66.92164298828125L82.745,66.68831298828125C82.71667,66.59998298828125,82.69167,66.51664298828125,82.67167,66.43831298828125L82.42332999999999,65.94331298828125C82.47167,65.76664298828125,82.49667,65.60164298828126,82.49667,65.44664298828125C82.49667,65.06664298828125,82.39,64.72998298828125,82.175,64.43831298828125C81.96000000000001,64.14664298828124,81.68666999999999,63.94164298828125,81.355,63.82331298828125L79.51167,60.21664298828125C79.375,59.91331298828125,79.16667,59.66997998828125,78.89,59.48497998828125C78.61167,59.29997968828125,78.29667,59.20831298828125,77.94667,59.20831298828125C77.54667,59.20831298828125,77.22,59.32997998828125,76.965,59.57331298828125C76.71167,59.81664598828125,76.49333,60.10831298828125,76.30667,60.44998298828125L76.29167,60.44998298828125L73.995,64.70164298828125C73.838333,64.83664298828126,73.71,64.99831298828126,73.608333,65.18331298828124C73.505,65.36831298828125,73.443333,65.56831298828125,73.425,65.78164298828125L73.0583333,66.62998298828126C73.04,66.67831298828125,73.025,66.72664298828126,73.015,66.77498298828125Q73,66.87831298828125,73,66.93664298828125C73,67.27664298828125,73.106667,67.57164298828125,73.321667,67.81998298828125C73.536667,68.06831298828125,73.805,68.23164298828125,74.12667,68.30831298828124L75.78,68.39664298828126C75.85833,68.53331298828125,75.95833,68.63998298828125,76.08,68.71831298828126Z" fill-rule="evenodd" fill="url(#master_svg3_48_2358)" fill-opacity="1"/><path d="M76.34667,67.655C76.385,67.51833,76.405,67.38833,76.405,67.26667C76.405,66.96833,76.32167,66.705,76.15333,66.47667C75.98667,66.24667,75.77333,66.08667,75.515,65.99333L74.07667000000001,63.165C73.97,62.928333,73.80833,62.736667,73.59167,62.591667C73.375,62.4466667,73.13,62.375,72.85667,62.375C72.545,62.375,72.29,62.47,72.09167,62.661667C71.89333,62.851667,71.72333,63.081667,71.57833,63.348333L71.56667,63.348333L69.776667,66.68167C69.653333,66.78833,69.553333,66.915,69.473333,67.06C69.393333,67.205,69.345,67.36167,69.331667,67.53L69.0466667,68.19333C69.03,68.23167,69.02,68.27,69.0116667,68.30833Q69,68.38833,69,68.435C69,68.70167000000001,69.0833333,68.93167,69.25,69.12833C69.418333,69.32167,69.626667,69.45,69.878333,69.51L71.16667,69.58C71.22833,69.68667,71.30667,69.77,71.40167,69.83167C71.49667,69.89333,71.60833,69.92332999999999,71.73833,69.92332999999999C71.89833,69.92332999999999,72.04167,69.86667,72.17167,69.75167L72.17167,71.50333C72.17167,72.00667,72.16833,72.4117,72.16,72.71170000000001C72.15333,73.0133,72.145,73.2533,72.13667,73.42830000000001L72.10333,73.875L73.745,73.875C73.72333,73.6233,73.705,73.36,73.68833,73.08500000000001C73.67332999999999,72.8567,73.66,72.5967,73.64833,72.31166999999999C73.63833,72.025,73.63167,71.74,73.63167,71.45833L73.63167,69.545L75.41167,69.52167L75.62833,69.52167C75.705,69.52167,75.77333,69.51833,75.83333,69.51C75.91,69.51,75.98167,69.50667,76.05,69.5C76.23333,69.42332999999999,76.38167,69.30333,76.495,69.13833C76.61,68.975,76.66667,68.785,76.66667,68.57167L76.64333,68.42332999999999L76.59833,68.24C76.575,68.17167,76.55667,68.105,76.54167,68.045L76.34667,67.655Z" fill-rule="evenodd" fill="url(#master_svg4_48_2358)" fill-opacity="1"/></g><path d="M74.29470390624999,72.20905701171876C67.85500390625,70.87631001171874,58.64370390625,70.04168701171875,48.41650390625,70.04168701171875C28.95150390625,70.04168701171875,13.16650390625,73.06501701171875,13.16650390625,76.79168701171875C13.16650390625,79.64005701171875,22.387833906250002,82.07758701171875,35.42570390625,83.06828701171875C36.95420390625,86.55078701171875,45.06270390625,89.20838701171874,54.83320390625,89.20838701171874C65.69320390625,89.20838701171874,74.49980390625001,85.92498701171876,74.49980390625001,81.87498701171874C74.49980390625001,81.69588701171875,74.48270390625001,81.51818701171875,74.44870390625,81.34218701171875C75.76230390625,81.06688701171875,76.95830390625,80.77058701171875,78.02170390625,80.45628701171876C82.47980390625,79.86475701171875,85.66650390625,78.29773701171875,85.66650390625,76.45835701171875C85.66650390625,74.13760701171876,80.59370390625,72.25043701171874,74.29470390624999,72.20905701171876Z" fill-rule="evenodd" fill="#E4E9F7" fill-opacity="1"/><path d="M41.50927734375,117.43229169921875L71.00927734375,124.33569169921876L60.32097734375,79.65399169921875L49.70427734375,79.65399169921875L41.50927734375,117.43229169921875Z" fill-rule="evenodd" transform="matrix(0.6427876353263855,-0.7660444378852844,0.7660444378852844,0.6427876353263855,-46.19087018069331,60.25134176038773)" fill="url(#master_svg5_48_2406)" fill-opacity="0.5"/><g><path d="M49.16650390625,55.875L49.16650390625,64.27333L65.72980390625,66.2083L65.99980390625001,57.99167L49.16650390625,55.875Z" fill-rule="evenodd" fill="url(#master_svg6_48_2456)" fill-opacity="1"/><path d="M35.83349609375,68.0417L49.16679609375,65.31833L49.16349609375,55.875L35.83349609375,58.615L35.83349609375,68.0417Z" fill-rule="evenodd" fill="url(#master_svg7_48_2443)" fill-opacity="1"/><path d="M51.5,79.70838701171874L65.8333,76.01338701171875L65.8333,58.54168701171875L51.5,62.23668701171875L51.5,79.70838701171874Z" fill-rule="evenodd" fill="url(#master_svg8_48_2446)" fill-opacity="1"/><path d="M36,76.22838701171875L51.575,79.70838701171874L51.6667,62.16668701171875L36,59.04168701171875L36,76.22838701171875Z" fill-rule="evenodd" fill="url(#master_svg9_48_2388)" fill-opacity="1"/><path d="M35.861670000000004,58.875L32.5,65.07L48.5733,68.875L51.6667,62.23833L35.861670000000004,58.875Z" fill-rule="evenodd" fill="url(#master_svga_48_2453)" fill-opacity="1"/><path d="M55.92317390625,68.87501298828126L69.66650390625,64.36164298828125L66.01480390625,58.20831298828125L51.66650390625,62.16164298828125L55.92317390625,68.87501298828126Z" fill-rule="evenodd" fill="url(#master_svgb_48_2450)" fill-opacity="1"/></g><g><path d="M41.53127396484375,46.49463244628906Q35.85290396484375,44.32833244628906,34.54312196484375,41.032572446289066Q33.23029396484375,37.729202446289065,36.30765396484375,33.322420946289064L36.44430396484375,33.41784394628906Q33.41832396484375,37.751052446289066,34.69800496484375,40.97102244628906Q35.98077396484375,44.198732446289064,41.59068396484375,46.338932446289064L41.53127396484375,46.49463244628906Z" fill="url(#master_svgc_48_2426)" fill-opacity="1"/><path d="M38.72934318359375,48.08482971191406Q37.00110318359375,48.08482971191406,34.91108498359375,45.48706741191406L35.04094138359375,45.38259201191406Q37.08092318359375,47.918159711914065,38.72934318359375,47.918159711914065L38.72934318359375,48.08482971191406Z" fill="url(#master_svgd_48_2426)" fill-opacity="1"/><path d="M53.58835531484375,36.70080695800781Q68.39630771484374,33.60517695800781,68.12210771484375,25.906972968007814L68.28870771484375,25.90104094800781Q68.56780771484375,33.73957695800781,53.62246011484375,36.86390695800781L53.58835531484375,36.70080695800781Z" fill="url(#master_svge_48_2430)" fill-opacity="1"/><path d="M63.81878662109375,35.395608520507814Q65.84682662109375,35.39561852050781,69.47359662109375,32.35673372050781L69.58063662109375,32.48448332050781Q65.90741662109374,35.562268520507814,63.81878662109375,35.56227852050781L63.81878662109375,35.395608520507814Z" fill="url(#master_svgf_48_2433)" fill-opacity="1"/><path d="M47.36603073984375,51.63052164550781Q51.07991833984375,42.43635164550781,65.50999833984375,44.178996645507816L65.48999833984375,44.34446164550781Q51.18665833984375,42.617141645507814,47.52056593984375,51.692941645507815L47.36603073984375,51.63052164550781Z" fill="url(#master_svgg_48_2420)" fill-opacity="1"/><path d="M43.09944099609375,42.06899971191406Q44.639440996093754,38.70232971191406,36.15277099609375,37.37232971191406Q41.56110099609375,45.43399971191406,43.09944099609375,42.06899971191406Z" fill-rule="evenodd" fill="url(#master_svgh_48_2417)" fill-opacity="1"/><path d="M62.96161865234375,29.490278450195312Q57.71328865234375,28.025281450195312,56.47161865234375,32.42028145019531Q62.734948652343746,31.506941450195313,62.96161865234375,29.490278450195312Z" fill-rule="evenodd" fill="url(#master_svgi_48_2417)" fill-opacity="1"/><path d="M59.71591630859375,49.53527600878906Q52.75921630859375,46.290279008789064,48.88421630859375,53.82693900878906Q56.47088630859375,55.53860900878907,59.71591630859375,49.53527600878906Z" fill-rule="evenodd" fill="url(#master_svgj_48_2417)" fill-opacity="1"/><path d="M58.19577115234375,31.421462177539063Q56.67794115234375,31.981262977539064,55.74244165234375,33.98519697753906L55.59142065234375,33.914696977539066Q56.55592715234375,31.84862197753906,58.13809115234375,31.265091777539062L58.19577115234375,31.421462177539063Z" fill="url(#master_svgk_48_2436)" fill-opacity="1"/><path d="M43.25264412109375,44.82053283691406Q43.25264412109375,41.88341483691406,41.54214672109375,41.486711536914065L41.57980152109375,41.32435413691406Q43.41931412109375,41.75098383691406,43.41930412109375,44.82053283691406L43.25264412109375,44.82053283691406Z" fill="url(#master_svgl_48_2423)" fill-opacity="1"/><path d="M51.77679443359375,52.76743059003906Q49.26886443359375,52.76743059003906,47.85060063359375,55.472787290039065L47.70298823359375,55.39540729003906Q49.16806443359375,52.60076379003906,51.77679443359375,52.60076399003906L51.77679443359375,52.76743059003906Z" fill="url(#master_svgm_48_2436)" fill-opacity="1"/></g></g></g></g></g></g></g></g></g></g></g></svg>