<svg xmlns="http://www.w3.org/2000/svg" xmlns:xlink="http://www.w3.org/1999/xlink" fill="none" version="1.1" width="24" height="24" viewBox="0 0 24 24"><defs><filter id="master_svg1_361_09188/368_10303" filterUnits="userSpaceOnUse" color-interpolation-filters="sRGB" x="4.744140625" y="2.787109375" width="26.752031326293945" height="23.897500038146973"><feFlood flood-opacity="0" result="BackgroundImageFix"/><feBlend mode="normal" in="SourceGraphic" in2="BackgroundImageFix" result="shape"/><feGaussianBlur in="BackgroundImage" stdDeviation="4.765163421630859"/><feComposite in2="SourceAlpha" operator="in" result="effect1_foregroundBlur"/><feBlend mode="normal" in="SourceGraphic" in2="effect1_foregroundBlur" result="shape"/></filter><linearGradient x1="0.5" y1="0" x2="0.5" y2="1" id="master_svg2_348_10397"><stop offset="0%" stop-color="#00D695" stop-opacity="1"/><stop offset="100%" stop-color="#00D695" stop-opacity="0.10000000149011612"/></linearGradient><linearGradient x1="0.9054054021835327" y1="1.0000001192092896" x2="0.5027027130126953" y2="0.05913979187607765" id="master_svg3_1_2527"><stop offset="0%" stop-color="#FFFFFF" stop-opacity="1"/><stop offset="100%" stop-color="#FFFFFF" stop-opacity="0"/></linearGradient></defs><clipPath id="master_svg0_361_09188/368_09385"><rect x="0" y="0" width="24" height="22.77664566040039" rx="0"/></clipPath><g style="mix-blend-mode:passthrough"><g><g clip-path="url(#master_svg0_361_09188/368_09385)"><g><path d="M19.073471484375,16.4168775L19.073471484375,18.5719875C19.073471484375,19.346987499999997,18.449571484375,19.9897875,17.655671484375,19.9897875L3.4585814843750002,19.9897875C2.683513484375,19.9897875,2.040771484375,19.346987499999997,2.040771484375,18.5719875L2.040771484375,7.9099975C2.040771484375,7.1349295,2.664609484375,6.4921875,3.4585814843750002,6.4921875L17.655671484375,6.4921875C18.430671484375,6.4921875,19.073471484375,7.1349295,19.073471484375,7.9099975L19.073471484375,16.4168775ZM13.421071484375,9.8571275C12.513671484375,9.8571275,11.776421484375,10.6132975,11.776421484375,11.5206975C11.776421484375,12.4280975,12.513671484375,13.1842675,13.421071484375,13.1842675C14.328471484375,13.1842675,15.065771484375,12.4280975,15.065771484375,11.5206975C15.065771484375,10.6132975,14.328471484375,9.8571275,13.421071484375,9.8571275ZM13.458871484375,17.305387500000002C16.729271484374998,17.305387500000002,16.710371484375003,17.305387500000002,16.710371484375003,16.8894875C16.710371484375003,15.3393475,15.632871484375,13.9971475,14.101671484375,13.675777499999999L13.761371484375,13.9971475L13.836971484375,13.9971475L14.158371484375,15.6607175C14.196171484375,15.8875675,14.120571484375,16.208937499999998,13.950371484375,16.379067499999998L13.439971484375,16.9083875L12.891771484375,16.379067499999998C12.721671484375,16.2278375,12.627071484375,15.9064675,12.664871484375,15.6796175L12.986271484375,14.016047499999999L13.061871484375,14.016047499999999L12.740571484375,13.6568675C11.247101484375,13.978237499999999,10.131761484375,15.3015375,10.131761484375,16.8894875C10.131761484375,17.305387500000002,10.188471484375,17.305387500000002,13.458871484375,17.305387500000002ZM4.365981484375,14.1672775C4.365981484375,14.4508475,4.6306414843749995,14.6398875,4.914201484375,14.6398875L7.466271484375,14.6398875C7.749831484375,14.6398875,7.976681484375,14.4130375,7.976681484375,14.1294775C7.976681484375,13.8459075,7.749831484375,13.6190575,7.466271484375,13.6190575L4.8953014843750005,13.6190575C4.611741484375,13.6379675,4.365981484375,13.8837175,4.365981484375,14.1672775ZM4.365981484375,11.9932975C4.365981484375,12.2768675,4.611741484375,12.5037175,4.876401484375,12.5037175L10.755601484375,12.5037175C11.020251484375,12.5037175,11.247101484375,12.2768675,11.247101484375,11.9932975C11.247101484375,11.7097375,11.020251484375,11.4828875,10.755601484375,11.4828875L4.876401484375,11.4828875C4.611741484375,11.4828875,4.365981484375,11.6908375,4.365981484375,11.9932975ZM4.365981484375,9.894937500000001C4.365981484375,10.1784975,4.611741484375,10.3675475,4.8953014843750005,10.3675475L9.432301484375,10.3675475C9.715861484375,10.3675475,9.942721484375,10.1595975,9.942721484375,9.876037499999999C9.942721484375,9.5924675,9.715861484375,9.3845275,9.432301484375,9.3845275L4.8953014843750005,9.3845275C4.611741484375,9.3845275,4.365981484375,9.6113775,4.365981484375,9.894937500000001Z" fill="#0079DE" fill-opacity="1"/><path d="M20.396840625,2.787109375L6.218670625,2.787109375C5.443594625,2.787109375,4.744140625,3.807939375,4.744140625,4.601909375L4.744140625,5.660539375L18.752140625,5.660539375C19.527240624999997,5.660539375,20.037640625,6.416709375,20.037640625,7.191779375L20.037640625,17.154309375L20.415740624999998,17.154309375C21.190740625,17.154309375,21.965840625,16.057809374999998,21.965840625,15.263909375L21.965840625,4.601909375C21.946940625,3.807939375,21.190740625,2.787109375,20.396840625,2.787109375Z" fill="#0079DE" fill-opacity="1"/><g filter="url(#master_svg1_361_09188/368_10303)" style="mix-blend-mode:passthrough"><path d="M20.396840625,2.787109375L6.218670625,2.787109375C5.443594625,2.787109375,4.744140625,3.807939375,4.744140625,4.601909375L4.744140625,5.660539375L18.752140625,5.660539375C19.527240624999997,5.660539375,20.037640625,6.416709375,20.037640625,7.191779375L20.037640625,17.154309375L20.415740624999998,17.154309375C21.190740625,17.154309375,21.965840625,16.057809374999998,21.965840625,15.263909375L21.965840625,4.601909375C21.946940625,3.807939375,21.190740625,2.787109375,20.396840625,2.787109375Z" fill="url(#master_svg2_348_10397)"/><path d="M6.218670625,2.787109375L20.396840625,2.787109375C21.190740625,2.787109375,21.946940625,3.807939375,21.965840625,4.601909375L21.965840625,15.263909375C21.965840625,16.057809374999998,21.190740625,17.154309375,20.415740624999998,17.154309375L20.037640625,17.154309375L20.037640625,7.191779375C20.037640625,6.416709375,19.527240624999997,5.660539375,18.752140625,5.660539375L4.744140625,5.660539375L4.744140625,4.601909375C4.744140625,3.807939375,5.443594625,2.787109375,6.218670625,2.787109375ZM4.832327925,5.572359375L18.752140625,5.572359375Q19.355540625,5.572359375,19.754940625,6.081049375Q20.125840625000002,6.553479375,20.125840625000002,7.191779375L20.125840625000002,17.066109375L20.415740624999998,17.066109375Q20.934240625,17.066109375,21.411840625,16.452609375Q21.877640625,15.854309375,21.877640625,15.263909375L21.877640625,4.601909375Q21.862840625,4.012479375,21.403740625,3.452687375Q20.930340625,2.875297075,20.396840625,2.875296675L6.218670625,2.875296675Q5.701669625,2.875296675,5.260737625,3.450425375Q4.832327825,4.009219375,4.832327925,4.601909375L4.832327925,5.572359375Z" fill-rule="evenodd" fill="url(#master_svg3_1_2527)"/></g></g></g></g></g></svg>