<svg xmlns="http://www.w3.org/2000/svg" xmlns:xlink="http://www.w3.org/1999/xlink" fill="none" version="1.1" width="24" height="24" viewBox="0 0 24 24"><defs><filter id="master_svg1_361_09188/368_09705" filterUnits="userSpaceOnUse" color-interpolation-filters="sRGB" x="2.2373046875" y="13.880859375" width="29.523130416870117" height="17.53125"><feFlood flood-opacity="0" result="BackgroundImageFix"/><feBlend mode="normal" in="SourceGraphic" in2="BackgroundImageFix" result="shape"/><feGaussianBlur in="BackgroundImage" stdDeviation="5"/><feComposite in2="SourceAlpha" operator="in" result="effect1_foregroundBlur"/><feBlend mode="normal" in="SourceGraphic" in2="effect1_foregroundBlur" result="shape"/></filter><linearGradient x1="0.5" y1="0" x2="0.5" y2="1" id="master_svg2_348_10397"><stop offset="0%" stop-color="#00D695" stop-opacity="1"/><stop offset="100%" stop-color="#00D695" stop-opacity="0.10000000149011612"/></linearGradient><linearGradient x1="0.9054054021835327" y1="1.0000001192092896" x2="0.5027027130126953" y2="0.05913979187607765" id="master_svg3_1_2527"><stop offset="0%" stop-color="#FFFFFF" stop-opacity="1"/><stop offset="100%" stop-color="#FFFFFF" stop-opacity="0"/></linearGradient></defs><clipPath id="master_svg0_361_09188/368_09381"><rect x="0" y="0" width="24" height="24" rx="0"/></clipPath><g style="mix-blend-mode:passthrough"><g><g clip-path="url(#master_svg0_361_09188/368_09381)" style="opacity:0.5;"><g><path d="M17.7347046875,13.880884375L17.7347046875,14.956084375C17.7872046875,15.495984375,17.3916046875,15.974584375,16.8518046875,16.026984374999998C16.3120046875,16.079484375,15.8333046875,15.683884375,15.7809046875,15.144084375C15.7743046875,15.080684375,15.7743046875,15.017284375,15.7809046875,14.956084375L15.7809046875,13.880884375L8.2168546875,13.880884375L8.2168546875,14.956084375C8.2693046875,15.495984375,7.8737246875,15.974584375,7.3339046875,16.026984374999998C6.7940846875,16.079484375,6.3154646875,15.683884375,6.2630046875,15.144084375C6.2564546875,15.080684375,6.2564546875,15.017284375,6.2630046875,14.956084375L6.2630046875,13.880884375L2.2373046875,13.880884375L2.2373046875,18.990584375C2.2373046875,20.334684375,3.2142256875,21.412084375,4.433734687499999,21.412084375L19.5640046875,21.412084375C20.7835046875,21.412084375,21.7604046875,20.336884375,21.7604046875,18.990584375L21.7604046875,13.880884375L17.7347046875,13.880884375ZM7.2421146875,11.326004375C7.7994146875,11.343484375,8.2387046875,11.811184375,8.219034687499999,12.368494375C8.219034687499999,12.379414375,8.219034687499999,12.390344375,8.2168546875,12.401274375L15.7831046875,12.401274375C15.7940046875,11.850524375,16.2114046875,11.391564375,16.7600046875,11.326004375C17.3173046875,11.343484375,17.7566046875,11.811184375,17.7369046875,12.368494375C17.7369046875,12.379414375,17.7369046875,12.390344375,17.7347046875,12.401274375L21.7604046875,12.401274375L21.7604046875,8.369014374999999C21.7604046875,7.024934375,20.7835046875,5.9474743750000005,19.5640046875,5.9474743750000005L17.0026046875,5.9474743750000005L17.0026046875,5.005524375C17.0026046875,3.661434375,16.0257046875,2.583984375,14.8061046875,2.583984375L9.1937746875,2.583984375C7.9742646875,2.583984375,6.9973346875,3.6592543749999997,6.9973346875,5.005524375L6.9973346875,6.080794375L4.433734687499999,6.080794375C3.2142256875,6.082974375,2.2373046875,7.158244375,2.2373046875,8.502334375L2.2373046875,12.536774375C3.5792046875,12.536774375,4.9211046875,12.401274375,6.2630046875,12.401274375C6.2761246875,11.850524375,6.6935546875,11.391564375,7.2421146875,11.326004375ZM9.1544346875,4.067944375C9.167544687500001,4.067944375,9.180654687499999,4.065754375,9.1937746875,4.065754375L14.8061046875,4.065754375C15.2913046875,4.078874375,15.6760046875,4.483184375,15.6629046875,4.968374375C15.6629046875,4.981484375,15.6629046875,4.994594375,15.6607046875,5.007704374999999L15.6607046875,6.082974375L8.3392346875,6.082974375L8.3392346875,5.007704374999999C8.304274687500001,4.522524375,8.6692546875,4.100724375,9.1544346875,4.067944375Z" fill="#0079DE" fill-opacity="1"/><g filter="url(#master_svg1_361_09188/368_09705)" style="mix-blend-mode:passthrough"><path d="M17.7347046875,13.880859375L17.7347046875,14.956129375C17.7872046875,15.495949375,17.3916046875,15.974569375,16.8518046875,16.027029375C16.3120046875,16.079479375,15.8333046875,15.683899375,15.7809046875,15.144079375C15.7743046875,15.080699375,15.7743046875,15.017319375,15.7809046875,14.956129375L15.7809046875,13.880859375L8.2168546875,13.880859375L8.2168546875,14.956129375C8.2693046875,15.495949375,7.8737246875,15.974569375,7.3339046875,16.027029375C6.7940846875,16.079479375,6.3154646875,15.683899375,6.2630046875,15.144079375C6.2564546875,15.080699375,6.2564546875,15.017319375,6.2630046875,14.956129375L6.2630046875,13.880859375L2.2373046875,13.880859375L2.2373046875,18.990569375C2.2373046875,20.334649374999998,3.2142256875,21.412109375,4.433734687499999,21.412109375L19.5640046875,21.412109375C20.7835046875,21.412109375,21.7604046875,20.336839375,21.7604046875,18.990569375L21.7604046875,13.880859375L17.7347046875,13.880859375Z" fill="url(#master_svg2_348_10397)"/><path d="M17.8347046875,13.880859375L21.7604046875,13.880859375L21.7604046875,18.990569375C21.7604046875,20.336839375,20.7835046875,21.412109375,19.5640046875,21.412109375L4.433734687499999,21.412109375C3.2142256875,21.412109375,2.2373046875,20.334649374999998,2.2373046875,18.990569375L2.2373046875,13.880859375L6.2630046875,13.880859375L6.2630046875,14.956129375C6.2564546875,15.017319375,6.2564546875,15.080699375,6.2630046875,15.144079375C6.3154646875,15.683899375,6.7940846875,16.079479375,7.3339046875,16.027029375C7.8737246875,15.974569375,8.2693046875,15.495949375,8.2168546875,14.956129375L8.2168546875,13.880859375L15.7809046875,13.880859375L15.7809046875,14.956129375C15.7743046875,15.017319375,15.7743046875,15.080699375,15.7809046875,15.144079375C15.8333046875,15.683899375,16.3120046875,16.079479375,16.8518046875,16.027029375C17.3916046875,15.974569375,17.7872046875,15.495949375,17.7347046875,14.956129375L17.7347046875,13.880859375L17.8347046875,13.880859375ZM17.8347046875,13.980859375L17.8347046875,14.951389375Q17.8760046875,15.394359375,17.5925046875,15.737979375Q17.3076046875,16.083199375,16.861504687500002,16.126559375Q16.4155046875,16.169889375,16.0699046875,15.884789375Q15.7247046875,15.599949375,15.6814046875,15.153749375Q15.6707046875,15.051069375,15.6809046875,14.950929375L15.6809046875,13.980859375L8.316854687500001,13.980859375L8.316854687500001,14.951379375Q8.358144687500001,15.394349375000001,8.0746146875,15.737979375Q7.7897746875,16.083199375,7.3435746875,16.126559375Q6.8975846875,16.169889375,6.5520546875,15.884789375Q6.2068346875,15.599949375,6.1634746875,15.153749375Q6.1528546875,15.051069375,6.1630046875,14.950929375L6.1630046875,13.980859375L2.3373046875,13.980859375L2.3373046875,18.990569375Q2.3373046875,19.960109375000002,2.9522776875,20.638189375Q3.5634746875000003,21.312109375,4.433734687499999,21.312109375L19.5640046875,21.312109375Q20.4346046875,21.312109375,21.0455046875,20.638989375Q21.6604046875,19.961359375,21.6604046875,18.990569375L21.6604046875,13.980859375L17.8347046875,13.980859375Z" fill-rule="evenodd" fill="url(#master_svg3_1_2527)"/></g></g></g></g></g></svg>