<svg xmlns="http://www.w3.org/2000/svg" xmlns:xlink="http://www.w3.org/1999/xlink" fill="none" version="1.1" width="32" height="32" viewBox="0 0 32 32"><clipPath id="master_svg0_348_08866"><rect x="0" y="0" width="32" height="32" rx="0"/></clipPath><g clip-path="url(#master_svg0_348_08866)"><g><path d="M18.558645726013182,30.250199809265137Q20.376445726013184,30.232899809265138,22.31524572601318,29.40199980926514Q24.294145726013184,28.553899809265136,26.066245726013182,26.041499809265137Q26.800145726013184,25.000899809265135,26.800145726013184,23.57869980926514L26.800145726013184,18.333329809265138Q26.800145726013184,17.311609809265136,26.077645726013184,16.589139809265138Q25.355245726013184,15.866669809265137,24.333445726013185,15.866669809265137Q23.771045726013185,15.866669809265137,23.299345726013183,16.085569809265138Q23.118945726013184,15.630449809265137,22.744345726013183,15.255809809265138Q22.021845726013183,14.533329809265137,21.000145726013184,14.533329809265137Q20.437745726013183,14.533329809265137,19.966045726013185,14.752229809265136Q19.785645726013186,14.297119809265137,19.411045726013185,13.922469809265138Q18.68854572601318,13.199999809265137,17.666845726013186,13.199999809265137Q17.202645726013184,13.199999809265137,16.800145726013184,13.349139809265136L16.800145726013184,11.666669809265137Q16.800145726013184,10.644949809265137,16.077685726013186,9.922472809265138Q15.355205726013184,9.199999809265137,14.333485726013183,9.199999809265137Q13.311765726013183,9.199999690056137,12.589295726013184,9.922472809265138Q11.866825726013182,10.644949809265137,11.866825726013182,11.666669809265137L11.866825726013182,17.436029809265136Q11.060705726013182,16.798739809265136,9.996105726013184,16.739779809265137Q8.716735726013184,16.668929809265137,7.716135726013183,17.46936980926514Q6.8056617260131835,18.197749809265137,6.558803126013183,19.312799809265137Q6.304521726013183,20.461299809265135,6.874370726013184,21.484399809265135Q8.269495726013183,23.989499809265137,9.818585726013183,25.838499809265137Q12.099225726013184,28.56059980926514,14.386595726013184,29.415999809265138Q16.665445726013182,30.268199809265138,18.558645726013182,30.250199809265137ZM15.200155726013184,15.666669809265137L15.200155726013184,11.666669809265137Q15.200155726013184,11.307689809265137,14.946315726013184,11.053839809265137Q14.692465726013184,10.799999809265136,14.333485726013183,10.799999809265136Q13.974505726013184,10.799999809265136,13.720665726013184,11.053839809265137Q13.466825726013184,11.307689809265137,13.466825726013184,11.666669809265137L13.466825726013184,19.333299809265135C13.466825726013184,19.545499809265138,13.382535726013185,19.748999809265136,13.232505726013184,19.898999809265135C12.920085726013184,20.21139980926514,12.413555726013183,20.21139980926514,12.101135726013183,19.898999809265135L11.050205726013184,18.848089809265137Q10.576495726013183,18.374379809265136,9.907625726013183,18.337329809265135Q9.238755726013183,18.300289809265138,8.715645726013184,18.718759809265137Q8.245845726013183,19.094599809265137,8.120975726013183,19.658599809265137Q7.998075726013184,20.213699809265137,8.272205726013183,20.705999809265137Q9.593455726013183,23.078299809265136,11.045025726013183,24.810899809265138Q13.054765726013184,27.209699809265135,14.947045726013183,27.917399809265138Q16.947445726013186,28.665399809265136,18.543445726013182,28.650299809265135Q20.040745726013185,28.635999809265137,21.685045726013186,27.931299809265138Q23.247645726013182,27.261699809265135,24.758745726013185,25.119399809265136Q25.200145726013183,24.49349980926514,25.200145726013183,23.57869980926514L25.200145726013183,18.333329809265138Q25.200145726013183,17.974359809265138,24.946345726013185,17.72050980926514Q24.692445726013183,17.466669809265134,24.333445726013185,17.466669809265134Q23.974545726013183,17.466669809265134,23.720645726013185,17.72050980926514Q23.466845726013183,17.974349809265135,23.466845726013183,18.333329809265138C23.466845726013183,18.775159809265137,23.108645726013183,19.133329809265135,22.666845726013182,19.133329809265135C22.224945726013182,19.133329809265135,21.86684572601318,18.775159809265137,21.86684572601318,18.333329809265138L21.86684572601318,16.999999809265137Q21.86684572601318,16.64101980926514,21.612945726013184,16.387179809265135Q21.359145726013182,16.133329809265135,21.000145726013184,16.133329809265135Q20.641145726013185,16.133329809265135,20.387345726013184,16.387179809265135Q20.133445726013186,16.64101980926514,20.133445726013186,16.999999809265137C20.133445726013186,17.441829809265137,19.775345726013185,17.799999809265138,19.33344572601318,17.799999809265138C18.891645726013184,17.799999809265138,18.533445726013184,17.441829809265137,18.533445726013184,16.999999809265137L18.533445726013184,15.666669809265137Q18.533445726013184,15.307689809265137,18.279645726013186,15.053839809265137Q18.025845726013184,14.799999809265136,17.666845726013186,14.799999809265136Q17.307845726013184,14.799999809265136,17.054045726013186,15.053839809265137Q16.800145726013184,15.307689809265137,16.800145726013184,15.666669809265137C16.800145726013184,16.108489809265137,16.441985726013183,16.466669809265138,16.000155726013183,16.466669809265138C15.558325726013184,16.466669809265138,15.200155726013184,16.108489809265137,15.200155726013184,15.666669809265137Z" fill-rule="evenodd" fill="#000000" fill-opacity="0.4000000059604645"/><path d="M8.059668715515137,9.533708797683715L8.059748715515136,9.534018797683716Q8.160845715515137,9.926508797683717,8.312613715515138,10.301458797683717C8.478384715515137,10.711008797683716,8.944773715515137,10.908628797683717,9.354323715515136,10.742858797683716C9.744803715515136,10.584808797683715,9.945813715515136,10.151028797683717,9.813983715515137,9.750938797683716L9.602973715515137,9.110538797683716Q9.466503715515136,8.567648797683717,9.466503715515136,8.001298797683717Q9.466503715515136,6.123528797683716,10.794283715515137,4.795748797683716Q12.122063715515136,3.467968797683716,13.999833715515138,3.467968797683716Q15.877613715515137,3.467968797683716,17.205393715515136,4.795748797683716Q18.532803715515136,6.123118797683716,18.533203715515135,8.000148797683716L18.533203715515135,8.001298797683717C18.533203715515135,8.213478797683717,18.617503715515134,8.416958797683716,18.767503715515137,8.566988797683717C18.91750371551514,8.717018797683716,19.121003715515137,8.801298797683716,19.333203715515136,8.801298797683716C19.775003715515137,8.801298797683716,20.133203715515137,8.443128797683716,20.133203715515137,8.001298797683717Q20.133203715515137,5.4607887976837155,18.33680371551514,3.6643787976837157Q16.54035371551514,1.867968738079116,13.999833715515138,1.8679687976837158Q11.459313715515137,1.8679688572883157,9.662913715515137,3.6643787976837157Q7.866503775119737,5.4607887976837155,7.866503834724137,8.001298797683717Q7.866503834724137,8.782628797683715,8.059503715515136,9.533068797683715L8.059668715515137,9.533708797683715Z" fill-rule="evenodd" fill="#000000" fill-opacity="0.4000000059604645"/></g></g></svg>