<svg xmlns="http://www.w3.org/2000/svg" xmlns:xlink="http://www.w3.org/1999/xlink" fill="none" version="1.1" width="24" height="24" viewBox="0 0 24 24"><defs><filter id="master_svg1_361_09188/368_09700" filterUnits="userSpaceOnUse" color-interpolation-filters="sRGB" x="17.07080078125" y="6.537109375" width="14.735406637191772" height="27.194201469421387"><feFlood flood-opacity="0" result="BackgroundImageFix"/><feBlend mode="normal" in="SourceGraphic" in2="BackgroundImageFix" result="shape"/><feGaussianBlur in="BackgroundImage" stdDeviation="5.4277825355529785"/><feComposite in2="SourceAlpha" operator="in" result="effect1_foregroundBlur"/><feBlend mode="normal" in="SourceGraphic" in2="effect1_foregroundBlur" result="shape"/></filter><linearGradient x1="0.5" y1="0" x2="0.5" y2="1" id="master_svg2_348_10397"><stop offset="0%" stop-color="#00D695" stop-opacity="1"/><stop offset="100%" stop-color="#00D695" stop-opacity="0.10000000149011612"/></linearGradient><linearGradient x1="0.9054054021835327" y1="1.0000001192092896" x2="0.5027027130126953" y2="0.05913979187607765" id="master_svg3_1_2527"><stop offset="0%" stop-color="#FFFFFF" stop-opacity="1"/><stop offset="100%" stop-color="#FFFFFF" stop-opacity="0"/></linearGradient></defs><clipPath id="master_svg0_361_09188/368_09356"><rect x="0" y="0" width="24" height="24" rx="0"/></clipPath><g style="mix-blend-mode:passthrough"><g><g clip-path="url(#master_svg0_361_09188/368_09356)"><g><path d="M5.705335703125,5.614055L13.769295703125,1.753036C14.028395703125,1.5614878,14.385195703125,1.5614878,14.644395703125,1.753036C14.933595703125,1.944585,15.128895703125,2.136133,15.128895703125,2.526742L15.128895703125,21.813075C15.128895703125,22.196175,15.128895703125,22.290075,15.031195703125,22.485375C14.933595703125,22.582975,14.839695703125,22.774575,14.741995703125,22.774575C14.546695703125,22.872175,14.351395703125,22.872175,13.960795703125,22.872175L4.548515703125,22.872175C4.161657703125,22.872175,4.064004703125,22.872175,3.872453703125,22.774575C3.774800703125,22.676875,3.583248903125,22.582975,3.583248903125,22.485375C3.485595703125,22.293775,3.485595703125,22.196175,3.485595703125,21.816775L3.485595703125,9.659105C3.485595703125,8.596195,3.583248903125,8.306995,3.677146703125,7.830005C3.774799703125,7.446905,3.970106703125,7.056295,4.259311703125,6.767095C4.544755703125,6.477895,4.837715703125,6.192455,5.705335703125,5.614055ZM7.357925703125,11.304165C7.357925703125,11.882575,7.748545703125,12.269375,8.139155703124999,12.269375L10.471575703125,12.269375C10.858435703125,12.269375,11.252805703125,11.886375,11.252805703125,11.304165C11.252805703125,10.725765,10.862185703125,10.338915,10.471575703125,10.338915L8.139155703124999,10.338915C7.748545703125,10.338915,7.357925703125,10.722015,7.357925703125,11.304165ZM7.459335703124999,14.199975C7.361685703125,14.515375,7.361685703125,14.853475,7.459335703124999,15.165175C7.560745703125,15.450675,7.831175703125,15.642175,8.135395703124999,15.645975L10.467815703125,15.645975C10.854675703125,15.645975,11.249045703124999,15.262875,11.249045703124999,14.680675C11.249045703124999,14.106075,10.858425703125,13.715375,10.467815703125,13.715375L8.135395703124999,13.715375L8.135395703124999,13.722975C7.846195703125,13.722975,7.654645703125,13.914475,7.459335703124999,14.199975ZM7.357925703125,18.057175C7.357925703125,18.639375,7.748545703125,19.022475,8.139155703124999,19.022475L10.471575703125,19.022475C10.858435703125,19.022475,11.252805703125,18.639375,11.252805703125,18.057175C11.252805703125,17.475075,10.862185703125,17.091974999999998,10.471575703125,17.091974999999998L8.139155703124999,17.091974999999998C7.748545703125,17.091974999999998,7.357925703125,17.475075,7.357925703125,18.057175Z" fill="#0079DE" fill-opacity="1"/><path d="M18.43044078125,6.766895375C18.19006078125,6.556568275,17.85953878125,6.485206675,17.55531278125,6.575347375C17.26610878125,6.672999375,17.07080078125,6.962200375,17.07080078125,7.349053375L17.07080078125,21.816609375C17.07080078125,22.199709374999998,17.07080078125,22.297309374999998,17.16845338125,22.488909375C17.26610578125,22.680409375,17.36000478125,22.680409375,17.45765778125,22.778109375C17.55530978125,22.875709375,17.74686078125,22.875709375,18.03606478125,22.875709375L19.98162078125,22.875709375C20.37223078125,22.875709375,20.46613078125,22.875709375,20.56378078125,22.778109375L20.85299078125,22.488909375C20.95064078125,22.395009375,20.95064078125,22.199709374999998,20.95064078125,21.816609375L20.95064078125,11.495509375000001C20.95064078125,10.624159375,20.95064078125,10.338709375,20.85299078125,10.049509375C20.75534078125,9.764069375,20.66144078125,9.474869375,20.46613078125,9.178149375C20.274580781250002,8.888949375,20.17693078125,8.697399375,19.59101078125,8.021349375L18.43044078125,6.766895375Z" fill="#0079DE" fill-opacity="1"/><g filter="url(#master_svg1_361_09188/368_09700)" style="mix-blend-mode:passthrough"><path d="M18.43044078125,6.766895375C18.19006078125,6.556568275,17.85953878125,6.485206675,17.55531278125,6.575347375C17.26610878125,6.672999375,17.07080078125,6.962200375,17.07080078125,7.349053375L17.07080078125,21.816609375C17.07080078125,22.199709374999998,17.07080078125,22.297309374999998,17.16845338125,22.488909375C17.26610578125,22.680409375,17.36000478125,22.680409375,17.45765778125,22.778109375C17.55530978125,22.875709375,17.74686078125,22.875709375,18.03606478125,22.875709375L19.98162078125,22.875709375C20.37223078125,22.875709375,20.46613078125,22.875709375,20.56378078125,22.778109375L20.85299078125,22.488909375C20.95064078125,22.395009375,20.95064078125,22.199709374999998,20.95064078125,21.816609375L20.95064078125,11.495509375000001C20.95064078125,10.624159375,20.95064078125,10.338709375,20.85299078125,10.049509375C20.75534078125,9.764069375,20.66144078125,9.474869375,20.46613078125,9.178149375C20.274580781250002,8.888949375,20.17693078125,8.697399375,19.59101078125,8.021349375L18.43044078125,6.766895375Z" fill="url(#master_svg2_348_10397)"/><path d="M17.55531278125,6.575347375C17.85953878125,6.485206675,18.19006078125,6.556568275,18.43044078125,6.766895375L19.59101078125,8.021349375C20.17693078125,8.697399375,20.274580781250002,8.888949375,20.46613078125,9.178149375C20.66144078125,9.474869375,20.75534078125,9.764069375,20.85299078125,10.049509375C20.95064078125,10.338709375,20.95064078125,10.624159375,20.95064078125,11.495509375000001L20.95064078125,21.816609375C20.95064078125,22.199709374999998,20.95064078125,22.395009375,20.85299078125,22.488909375L20.56378078125,22.778109375C20.46613078125,22.875709375,20.37223078125,22.875709375,19.98162078125,22.875709375L18.03606478125,22.875709375C17.74686078125,22.875709375,17.55530978125,22.875709375,17.45765778125,22.778109375C17.36000478125,22.680409375,17.26610578125,22.680409375,17.16845338125,22.488909375C17.07080078125,22.297309374999998,17.07080078125,22.199709374999998,17.07080078125,21.816609375L17.07080078125,7.349053375C17.07080078125,6.962200375,17.26610878125,6.672999375,17.55531278125,6.575347375ZM17.58926178125,6.682417375Q17.18310278125,6.820841375,17.18310278125,7.349053375L17.18310278125,21.816609375Q17.18310278125,22.270409375,17.26850378125,22.437909375Q17.32026778125,22.539409375,17.42332278125,22.608909375Q17.49671178125,22.658309375,17.53706678125,22.698709375Q17.60182678125,22.763409375,18.03606478125,22.763409375L19.98162078125,22.763409375Q20.41961078125,22.763409375,20.48438078125,22.698709375L20.77358078125,22.409509375Q20.83834078125,22.347209375,20.83834078125,21.816609375L20.83834078125,11.495509375000001Q20.83834078125,10.357159375,20.74659078125,10.085439375Q20.74196078125,10.071899375000001,20.73252078125,10.044239375Q20.55030078125,9.510279375,20.37233078125,9.239899375Q20.34352078125,9.196409375,20.29026078125,9.114009375Q19.99965078125,8.664459375,19.50733078125,8.096279375L18.35213078125,6.847619375Q18.01615378125,6.556865175,17.58926178125,6.682417375Z" fill-rule="evenodd" fill="url(#master_svg3_1_2527)"/></g></g></g></g></g></svg>