<svg xmlns="http://www.w3.org/2000/svg" xmlns:xlink="http://www.w3.org/1999/xlink" fill="none" version="1.1" width="24" height="24" viewBox="0 0 24 24"><g style="mix-blend-mode:passthrough"><g><g style="mix-blend-mode:passthrough"><g><rect x="0" y="0" width="24" height="24" rx="0" fill="#FFFFFF" fill-opacity="0.009999999776482582"/><path d="M4.91281790625,6.05859375L4.91281790625,19.52039375Q4.91281790625,19.58389375,4.92519790625,19.64609375Q4.9375779062500005,19.70839375,4.96186290625,19.766993749999997Q4.98614790625,19.82559375,5.02140390625,19.87839375Q5.05665990625,19.93119375,5.10153190625,19.97599375Q5.14640390625,20.02089375,5.19916890625,20.05619375Q5.2519329062499995,20.09139375,5.31056190625,20.11569375Q5.36918990625,20.139993750000002,5.43142990625,20.15239375Q5.49366980625,20.164693749999998,5.55712890625,20.164693749999998L18.443328906250002,20.164693749999998Q18.50682890625,20.164693749999998,18.56902890625,20.15239375Q18.631328906249998,20.139993750000002,18.68992890625,20.11569375Q18.74852890625,20.09139375,18.80132890625,20.05619375Q18.85412890625,20.02089375,18.89892890625,19.97599375Q18.943828906249998,19.93119375,18.97912890625,19.87839375Q19.01432890625,19.82559375,19.03862890625,19.766993749999997Q19.06292890625,19.70839375,19.07532890625,19.64609375Q19.08762890625,19.58389375,19.08762890625,19.52039375L19.08762890625,6.05859375Q19.08762890625,5.99513465,19.07532890625,5.93289475Q19.06292890625,5.87065475,19.03862890625,5.81202675Q19.01432890625,5.7533977499999995,18.97912890625,5.70063375Q18.943828906249998,5.64786875,18.89892890625,5.60299675Q18.85412890625,5.55812475,18.80132890625,5.52286875Q18.74852890625,5.48761275,18.68992890625,5.46332775Q18.631328906249998,5.4390427500000005,18.56902890625,5.42666275Q18.50682890625,5.41428275,18.443328906250002,5.41428275L5.55712890625,5.41428275Q5.49366980625,5.41428275,5.43142990625,5.42666275Q5.36918990625,5.4390427500000005,5.31056190625,5.46332775Q5.2519329062499995,5.48761275,5.19916890625,5.52286875Q5.14640390625,5.55812475,5.10153190625,5.60299675Q5.05665990625,5.64786875,5.02140390625,5.70063375Q4.98614790625,5.7533977499999995,4.96186290625,5.81202675Q4.9375779062500005,5.87065475,4.92519790625,5.93289475Q4.91281790625,5.99513465,4.91281790625,6.05859375ZM6.20143990625,6.70290475L17.79902890625,6.70290475L17.79902890625,18.876093750000003L6.20143990625,18.876093750000003L6.20143990625,6.70290475Z" fill="#86909C" fill-opacity="1"/><path d="M9.63742728125,15.937505625L9.63742728125,10.353515625Q9.63742728125,10.290056525,9.64980728125,10.227816624999999Q9.66218728125,10.165576625,9.68647228125,10.106948625Q9.71075728125,10.048319625,9.74601328125,9.995555625Q9.78126928125,9.942790625,9.82614128125,9.897918625Q9.87101328125,9.853046625,9.92377828125,9.817790625Q9.97654228125,9.782534625,10.03517128125,9.758249625Q10.09379928125,9.733964625,10.156039281249999,9.721584625Q10.21827918125,9.709204625,10.28173828125,9.709204625Q10.34519738125,9.709204625,10.407437281250001,9.721584625Q10.46967728125,9.733964625,10.52830528125,9.758249625Q10.58693428125,9.782534625,10.63969828125,9.817790625Q10.69246328125,9.853046625,10.73733528125,9.897918625Q10.78220728125,9.942790625,10.81746328125,9.995555625Q10.85271928125,10.048319625,10.87700428125,10.106948625Q10.90128928125,10.165576625,10.91366928125,10.227816624999999Q10.92604928125,10.290056525,10.92604928125,10.353515625L10.92604928125,15.937505625Q10.92604928125,16.000965625,10.91366928125,16.063205625000002Q10.90128928125,16.125445625,10.87700428125,16.184075625Q10.85271928125,16.242705625,10.81746328125,16.295465625Q10.78220728125,16.348235625,10.73733528125,16.393105625Q10.69246328125,16.437975625,10.63969828125,16.473235625Q10.58693428125,16.508495625000002,10.52830528125,16.532775625Q10.46967728125,16.557055625,10.407437281250001,16.569435625Q10.34519738125,16.581815625,10.28173828125,16.581825625Q10.21827918125,16.581815625,10.156039281249999,16.569435625Q10.09379928125,16.557055625,10.03517128125,16.532775625Q9.97654228125,16.508485625,9.92377828125,16.473235625Q9.87101328125,16.437975625,9.82614128125,16.393105625Q9.78126928125,16.348235625,9.74601328125,16.295465625Q9.71075728125,16.242705625,9.68647228125,16.184075625Q9.66218728125,16.125445625,9.64980728125,16.063205625000002Q9.63742728125,16.000965625,9.63742728125,15.937505625ZM10.92673828125,15.937505625Q10.92673828125,16.001035625,10.91434428125,16.063345625Q10.90195128125,16.125645625,10.87764028125,16.184335625Q10.85332928125,16.243025625,10.81803628125,16.295855625Q10.78274228125,16.348675625,10.73782228125,16.393595625Q10.69290228125,16.438515625,10.64008128125,16.473805625Q10.58726028125,16.509105625,10.52856928125,16.533415625Q10.46987828125,16.557725625,10.40757128125,16.570115625Q10.34526518125,16.582505625,10.28173828125,16.582505625Q10.21821138125,16.582505625,10.15590528125,16.570115625Q10.09359828125,16.557725625,10.03490728125,16.533415625Q9.97621628125,16.509095625,9.92339528125,16.473805625Q9.87057428125,16.438515625,9.82565428125,16.393595625Q9.78073428125,16.348675625,9.74544028125,16.295855625Q9.71014628125,16.243025625,9.68583628125,16.184335625Q9.66152528125,16.125645625,9.64913228125,16.063345625Q9.63673828125,16.001035625,9.63673828125,15.937505625Q9.63673828125,15.873985625,9.64913228125,15.811675625Q9.66152528125,15.749365625,9.68583628125,15.690675625Q9.71014728125,15.631985625,9.74544028125,15.579165625Q9.78073428125,15.526345625000001,9.82565428125,15.481425625Q9.87057428125,15.436505624999999,9.92339528125,15.401215624999999Q9.97621628125,15.365915625,10.03490728125,15.341605625Q10.09359828125,15.317295625,10.15590528125,15.304905625Q10.21821138125,15.292505625,10.28173828125,15.292505625Q10.34526518125,15.292505625,10.40757128125,15.304905625Q10.46987828125,15.317295625,10.52856928125,15.341605625Q10.58726028125,15.365915625,10.64008128125,15.401215624999999Q10.69290228125,15.436505624999999,10.73782228125,15.481425625Q10.78274228125,15.526345625000001,10.81803628125,15.579165625Q10.85333028125,15.631985625,10.87764028125,15.690675625Q10.90195128125,15.749365625,10.91434428125,15.811675625Q10.92673828125,15.873985625,10.92673828125,15.937505625ZM10.92673828125,10.353515625Q10.92673828125,10.417042525,10.91434428125,10.479348625Q10.90195128125,10.541655625,10.87764028125,10.600346625Q10.85332928125,10.659037625,10.81803628125,10.711858625Q10.78274228125,10.764679625,10.73782228125,10.809599625Q10.69290228125,10.854519625,10.64008128125,10.889813625Q10.58726028125,10.925107625,10.52856928125,10.949417625Q10.46987828125,10.973728625,10.40757128125,10.986121625Q10.34526518125,10.998515625,10.28173828125,10.998515625Q10.21821138125,10.998515625,10.15590528125,10.986121625Q10.09359828125,10.973728625,10.03490728125,10.949417625Q9.97621628125,10.925106625,9.92339528125,10.889813625Q9.87057428125,10.854519625,9.82565428125,10.809599625Q9.78073428125,10.764679625,9.74544028125,10.711858625Q9.71014628125,10.659037625,9.68583628125,10.600346625Q9.66152528125,10.541655625,9.64913228125,10.479348625Q9.63673828125,10.417042525,9.63673828125,10.353515625Q9.63673828125,10.289988725,9.64913228125,10.227682625Q9.66152528125,10.165375625,9.68583628125,10.106684625Q9.71014728125,10.047993625,9.74544028125,9.995172625Q9.78073428125,9.942351625,9.82565428125,9.897431625Q9.87057428125,9.852511625,9.92339528125,9.817217625Q9.97621628125,9.781923625,10.03490728125,9.757613625Q10.09359828125,9.733302625,10.15590528125,9.720909625Q10.21821138125,9.708515625,10.28173828125,9.708515625Q10.34526518125,9.708515625,10.40757128125,9.720909625Q10.46987828125,9.733302625,10.52856928125,9.757613625Q10.58726028125,9.781924625,10.64008128125,9.817217625Q10.69290228125,9.852511625,10.73782228125,9.897431625Q10.78274228125,9.942351625,10.81803628125,9.995172625Q10.85333028125,10.047993625,10.87764028125,10.106684625Q10.90195128125,10.165375625,10.91434428125,10.227682625Q10.92673828125,10.289988725,10.92673828125,10.353515625Z" fill="#86909C" fill-opacity="1"/><path d="M13.07395071875,15.937505625L13.07395071875,10.353515625Q13.07395071875,10.290056525,13.08633071875,10.227816624999999Q13.09871071875,10.165576625,13.12299571875,10.106948625Q13.14728071875,10.048319625,13.18253671875,9.995555625Q13.21779271875,9.942790625,13.26266471875,9.897918625Q13.30753671875,9.853046625,13.36030171875,9.817790625Q13.41306571875,9.782534625,13.47169471875,9.758249625Q13.53032271875,9.733964625,13.592562718749999,9.721584625Q13.65480261875,9.709204625,13.71826171875,9.709204625Q13.78172081875,9.709204625,13.843960718750001,9.721584625Q13.90620071875,9.733964625,13.96482871875,9.758249625Q14.02345771875,9.782534625,14.07622171875,9.817790625Q14.12898671875,9.853046625,14.17385871875,9.897918625Q14.21873071875,9.942790625,14.25398671875,9.995555625Q14.28924271875,10.048319625,14.31352771875,10.106948625Q14.33781271875,10.165576625,14.35019271875,10.227816624999999Q14.36257271875,10.290056525,14.36257271875,10.353515625L14.36257271875,15.937505625Q14.36257271875,16.000965625,14.35019271875,16.063205625000002Q14.33781271875,16.125445625,14.31352771875,16.184075625Q14.28924271875,16.242705625,14.25398671875,16.295465625Q14.21873071875,16.348235625,14.17385871875,16.393105625Q14.12898671875,16.437975625,14.07622171875,16.473235625Q14.02345771875,16.508495625000002,13.96482871875,16.532775625Q13.90620071875,16.557055625,13.843960718750001,16.569435625Q13.78172081875,16.581815625,13.71826171875,16.581825625Q13.65480261875,16.581815625,13.592562718749999,16.569435625Q13.53032271875,16.557055625,13.47169471875,16.532775625Q13.41306571875,16.508485625,13.36030171875,16.473235625Q13.30753671875,16.437975625,13.26266471875,16.393105625Q13.21779271875,16.348235625,13.18253671875,16.295465625Q13.14728071875,16.242705625,13.12299571875,16.184075625Q13.09871071875,16.125445625,13.08633071875,16.063205625000002Q13.07395071875,16.000965625,13.07395071875,15.937505625ZM14.36326171875,15.937505625Q14.36326171875,16.001035625,14.35086771875,16.063345625Q14.33847471875,16.125645625,14.31416371875,16.184335625Q14.28985271875,16.243025625,14.25455971875,16.295855625Q14.21926571875,16.348675625,14.17434571875,16.393595625Q14.12942571875,16.438515625,14.07660471875,16.473805625Q14.02378371875,16.509105625,13.96509271875,16.533415625Q13.90640171875,16.557725625,13.84409471875,16.570115625Q13.78178861875,16.582505625,13.71826171875,16.582505625Q13.65473481875,16.582505625,13.59242871875,16.570115625Q13.53012171875,16.557725625,13.47143071875,16.533415625Q13.41273971875,16.509095625,13.35991871875,16.473805625Q13.30709771875,16.438515625,13.26217771875,16.393595625Q13.21725771875,16.348675625,13.18196371875,16.295855625Q13.14666971875,16.243025625,13.12235971875,16.184335625Q13.09804871875,16.125645625,13.08565571875,16.063345625Q13.07326171875,16.001035625,13.07326171875,15.937505625Q13.07326171875,15.873985625,13.08565571875,15.811675625Q13.09804871875,15.749365625,13.12235971875,15.690675625Q13.14667071875,15.631985625,13.18196371875,15.579165625Q13.21725771875,15.526345625000001,13.26217771875,15.481425625Q13.30709771875,15.436505624999999,13.35991871875,15.401215624999999Q13.41273971875,15.365915625,13.47143071875,15.341605625Q13.53012171875,15.317295625,13.59242871875,15.304905625Q13.65473481875,15.292505625,13.71826171875,15.292505625Q13.78178861875,15.292505625,13.84409471875,15.304905625Q13.90640171875,15.317295625,13.96509271875,15.341605625Q14.02378371875,15.365915625,14.07660471875,15.401215624999999Q14.12942571875,15.436505624999999,14.17434571875,15.481425625Q14.21926571875,15.526345625000001,14.25455971875,15.579165625Q14.28985371875,15.631985625,14.31416371875,15.690675625Q14.33847471875,15.749365625,14.35086771875,15.811675625Q14.36326171875,15.873985625,14.36326171875,15.937505625ZM14.36326171875,10.353515625Q14.36326171875,10.417042525,14.35086771875,10.479348625Q14.33847471875,10.541655625,14.31416371875,10.600346625Q14.28985271875,10.659037625,14.25455971875,10.711858625Q14.21926571875,10.764679625,14.17434571875,10.809599625Q14.12942571875,10.854519625,14.07660471875,10.889813625Q14.02378371875,10.925107625,13.96509271875,10.949417625Q13.90640171875,10.973728625,13.84409471875,10.986121625Q13.78178861875,10.998515625,13.71826171875,10.998515625Q13.65473481875,10.998515625,13.59242871875,10.986121625Q13.53012171875,10.973728625,13.47143071875,10.949417625Q13.41273971875,10.925106625,13.35991871875,10.889813625Q13.30709771875,10.854519625,13.26217771875,10.809599625Q13.21725771875,10.764679625,13.18196371875,10.711858625Q13.14666971875,10.659037625,13.12235971875,10.600346625Q13.09804871875,10.541655625,13.08565571875,10.479348625Q13.07326171875,10.417042525,13.07326171875,10.353515625Q13.07326171875,10.289988725,13.08565571875,10.227682625Q13.09804871875,10.165375625,13.12235971875,10.106684625Q13.14667071875,10.047993625,13.18196371875,9.995172625Q13.21725771875,9.942351625,13.26217771875,9.897431625Q13.30709771875,9.852511625,13.35991871875,9.817217625Q13.41273971875,9.781923625,13.47143071875,9.757613625Q13.53012171875,9.733302625,13.59242871875,9.720909625Q13.65473481875,9.708515625,13.71826171875,9.708515625Q13.78178861875,9.708515625,13.84409471875,9.720909625Q13.90640171875,9.733302625,13.96509271875,9.757613625Q14.02378371875,9.781924625,14.07660471875,9.817217625Q14.12942571875,9.852511625,14.17434571875,9.897431625Q14.21926571875,9.942351625,14.25455971875,9.995172625Q14.28985371875,10.047993625,14.31416371875,10.106684625Q14.33847471875,10.165375625,14.35086771875,10.227682625Q14.36326171875,10.289988725,14.36326171875,10.353515625Z" fill="#86909C" fill-opacity="1"/><path d="M20.5907796875,6.70290475L3.4091796875,6.70290475Q3.3457205875,6.70290475,3.2834806875,6.69052475Q3.2212406875,6.6781447499999995,3.1626126875,6.65385975Q3.1039836875,6.62957475,3.0512196875,6.59431875Q2.9984546874999998,6.55906275,2.9535826875,6.51419075Q2.9087106875,6.46931875,2.8734546874999998,6.41655375Q2.8381986875000003,6.3637897500000005,2.8139136875,6.30516075Q2.7896286875,6.24653275,2.7772486875,6.18429275Q2.7648686875,6.12205285,2.7648686875,6.05859375Q2.7648686875,5.99513465,2.7772486875,5.93289475Q2.7896286875,5.87065475,2.8139136875,5.81202675Q2.8381986875000003,5.7533977499999995,2.8734546874999998,5.70063375Q2.9087106875,5.64786875,2.9535826875,5.60299675Q2.9984546874999998,5.55812475,3.0512196875,5.52286875Q3.1039836875,5.48761275,3.1626126875,5.46332775Q3.2212406875,5.4390427500000005,3.2834806875,5.42666275Q3.3457205875,5.41428275,3.4091796875,5.41428275L20.5907796875,5.41428275Q20.6542796875,5.41428275,20.7164796875,5.42666275Q20.7787796875,5.4390427500000005,20.8373796875,5.46332775Q20.8959796875,5.48761275,20.9487796875,5.52286875Q21.0015796875,5.55812475,21.0463796875,5.60299675Q21.0912796875,5.64786875,21.1265796875,5.70063375Q21.1617796875,5.7533977499999995,21.1860796875,5.81202675Q21.2103796875,5.87065475,21.2227796875,5.93289475Q21.2351796875,5.99513465,21.2351796875,6.05859375Q21.2351796875,6.12205285,21.2227796875,6.18429275Q21.2103796875,6.24653275,21.1860796875,6.30516075Q21.1617796875,6.3637897500000005,21.1265796875,6.41655375Q21.0912796875,6.46931875,21.0463796875,6.51419075Q21.0015796875,6.55906275,20.9487796875,6.59431875Q20.8959796875,6.62957475,20.8373796875,6.65385975Q20.7787796875,6.6781447499999995,20.7164796875,6.69052475Q20.6542796875,6.70290475,20.5907796875,6.70290475ZM21.2357796875,6.05859375Q21.2357796875,6.12212065,21.2233796875,6.18442675Q21.2110796875,6.24673375,21.1866796875,6.30542475Q21.1623796875,6.36411575,21.1270796875,6.41693675Q21.0917796875,6.46975775,21.0468796875,6.51467775Q21.0019796875,6.55959775,20.9491796875,6.59489175Q20.8963796875,6.63018575,20.8376796875,6.65449575Q20.7789796875,6.67880675,20.7166796875,6.69119975Q20.6543796875,6.70359375,20.5907796875,6.70359375Q20.5272796875,6.70359375,20.4649796875,6.69119975Q20.4026796875,6.67880675,20.3439796875,6.65449575Q20.2852796875,6.63018475,20.2324796875,6.59489175Q20.1796796875,6.55959775,20.1347796875,6.51467775Q20.0897796875,6.46975775,20.0544796875,6.41693675Q20.0191796875,6.36411575,19.9948796875,6.30542475Q19.9705796875,6.24673375,19.9581796875,6.18442675Q19.9457796875,6.12212065,19.9457796875,6.05859375Q19.9457796875,5.99506685,19.9581796875,5.93276075Q19.9705796875,5.87045375,19.9948796875,5.81176275Q20.0191796875,5.75307175,20.0544796875,5.70025075Q20.0897796875,5.64742975,20.1347796875,5.60250975Q20.1796796875,5.55758975,20.2324796875,5.52229575Q20.2852796875,5.48700175,20.3439796875,5.46269175Q20.4026796875,5.43838075,20.4649796875,5.42598775Q20.5272796875,5.41359375,20.5907796875,5.41359375Q20.6543796875,5.41359375,20.7166796875,5.42598775Q20.7789796875,5.43838075,20.8376796875,5.46269175Q20.8963796875,5.48700275,20.9491796875,5.52229575Q21.0019796875,5.55758975,21.0468796875,5.60250975Q21.0917796875,5.64742975,21.1270796875,5.70025075Q21.1623796875,5.75307175,21.1866796875,5.81176275Q21.2110796875,5.87045375,21.2233796875,5.93276075Q21.2357796875,5.99506685,21.2357796875,6.05859375ZM4.0541796875,6.05859375Q4.0541796875,6.12212065,4.0417856875,6.18442675Q4.0293926875,6.24673375,4.0050816875,6.30542475Q3.9807706874999997,6.36411575,3.9454776875,6.41693675Q3.9101836875,6.46975775,3.8652636875,6.51467775Q3.8203436875,6.55959775,3.7675226875,6.59489175Q3.7147016875,6.63018575,3.6560106875,6.65449575Q3.5973196875,6.67880675,3.5350126875,6.69119975Q3.4727065875,6.70359375,3.4091796875,6.70359375Q3.3456527875,6.70359375,3.2833466875,6.69119975Q3.2210396875,6.67880675,3.1623486875,6.65449575Q3.1036576875,6.63018475,3.0508366875,6.59489175Q2.9980156875,6.55959775,2.9530956875,6.51467775Q2.9081756875,6.46975775,2.8728816875,6.41693675Q2.8375876875,6.36411575,2.8132776875,6.30542475Q2.7889666875,6.24673375,2.7765736875,6.18442675Q2.7641796875,6.12212065,2.7641796875,6.05859375Q2.7641796875,5.99506685,2.7765736875,5.93276075Q2.7889666875,5.87045375,2.8132776875,5.81176275Q2.8375886875000003,5.75307175,2.8728816875,5.70025075Q2.9081756875,5.64742975,2.9530956875,5.60250975Q2.9980156875,5.55758975,3.0508366875,5.52229575Q3.1036576875,5.48700175,3.1623486875,5.46269175Q3.2210396875,5.43838075,3.2833466875,5.42598775Q3.3456527875,5.41359375,3.4091796875,5.41359375Q3.4727065875,5.41359375,3.5350126875,5.42598775Q3.5973196875,5.43838075,3.6560106875,5.46269175Q3.7147016875,5.48700275,3.7675226875,5.52229575Q3.8203436875,5.55758975,3.8652636875,5.60250975Q3.9101836875,5.64742975,3.9454776875,5.70025075Q3.9807716875,5.75307175,4.0050816875,5.81176275Q4.0293926875,5.87045375,4.0417856875,5.93276075Q4.0541796875,5.99506685,4.0541796875,6.05859375Z" fill="#86909C" fill-opacity="1"/><path d="M15.43662484375,6.70200875L8.56396484375,6.70200875Q8.50050574375,6.70200875,8.438265843749999,6.68962875Q8.37602584375,6.67724875,8.31739784375,6.65295875Q8.25876884375,6.628678750000001,8.20600484375,6.59341875Q8.15323984375,6.55816875,8.10836784375,6.513298750000001Q8.06349584375,6.46841875,8.02823984375,6.41565875Q7.99298384375,6.36288875,7.96869884375,6.30426875Q7.9444138437500005,6.2456387499999995,7.93203384375,6.18339875Q7.91965384375,6.12115875,7.91965384375,6.05769875Q7.91965384375,5.89268875,7.99897284375,5.74798875L9.41173284375,3.17075675Q9.45338084375,3.09478175,9.51361884375,3.03250675Q9.57385484375,2.97023175,9.64840484375,2.92608275Q9.72295484375,2.88193275,9.80651484375,2.85904475Q9.89008484375,2.83615775,9.97672484375,2.83615775L14.05225484375,2.83615775Q14.13959484375,2.83615775,14.22378484375,2.85940875Q14.30796484375,2.88265975,14.38292484375,2.92748475Q14.45788484375,2.97230875,14.51820484375,3.03547175Q14.578534843749999,3.09863475,14.619864843750001,3.17557675L16.004224843750002,5.75280875Q16.03425484375,5.80870875,16.05280484375,5.86939875Q16.07134484375,5.9300887499999995,16.07769484375,5.99322875Q16.08404484375,6.05636875,16.07795484375,6.11953875Q16.07186484375,6.18269875,16.05357484375,6.24346875Q16.03527484375,6.30422875,16.00547484375,6.36025875Q15.97567484375,6.41627875,15.93551484375,6.4654187499999995Q15.89536484375,6.51455875,15.84638484375,6.554918750000001Q15.797414843750001,6.59527875,15.74151484375,6.62530875Q15.598714843749999,6.70200875,15.43662484375,6.70200875L15.43662484375,6.70200875ZM15.43662484375,5.41338875L15.43662484375,6.05769875L14.86901484375,6.3625887500000005L13.48464484375,3.78536075L14.05225484375,3.48046875L14.05225484375,4.12477975L9.97672484375,4.12477975L9.97672484375,3.48046875L10.54171484375,3.79018075L9.12895684375,6.36740875L8.56396484375,6.05769875L8.56396484375,5.41338875L15.43662484375,5.41338875Z" fill="#86909C" fill-opacity="1"/></g></g></g></g></svg>