<svg xmlns="http://www.w3.org/2000/svg" xmlns:xlink="http://www.w3.org/1999/xlink" fill="none" version="1.1" width="24" height="24" viewBox="0 0 24 24"><clipPath id="master_svg0_348_08834"><rect x="0" y="0" width="24" height="24" rx="0"/></clipPath><g clip-path="url(#master_svg0_348_08834)"><g><rect x="0" y="0" width="24" height="24" rx="0" fill="#FFFFFF" fill-opacity="0.009999999776482582"/><path d="M21.0835,14.6236L14.6318,21.0753C14.6316,21.0755,14.6316,21.0755,14.6315,21.0756C14.2939,21.4136,13.83577,21.6035,13.35805,21.6035C12.8804,21.6035,12.42239,21.4136,12.08476,21.0758C12.0845,21.0755,12.08442,21.0754,12.08416,21.0752L4.293287,13.29296C4.10551,13.10539,4,12.85087,4,12.58546L4,5C4,4.447715,4.447715,4,5,4L12.58579,4C12.851,4,13.10536,4.105357,13.29289,4.292893L21.0835,12.0835C21.0842,12.0842,21.0847,12.08471,21.0854,12.08541C21.7822,12.78724,21.7822,13.91986,21.0854,14.6217C21.0847,14.6224,21.0842,14.6229,21.0835,14.6236" fill="#000000" fill-opacity="0.20000000298023224"/><path d="M9.25,10.5C9.94035,10.5,10.5,9.94035,10.5,9.25C10.5,8.55965,9.94035,8,9.25,8C8.55965,8,8,8.55965,8,9.25C8,9.94035,8.55965,10.5,9.25,10.5Z" fill-rule="evenodd" fill="#FFFFFF" fill-opacity="1"/></g></g></svg>