<svg xmlns="http://www.w3.org/2000/svg" xmlns:xlink="http://www.w3.org/1999/xlink" fill="none" version="1.1" width="24" height="24" viewBox="0 0 24 24"><defs><filter id="master_svg1_361_09188/368_09694" filterUnits="userSpaceOnUse" color-interpolation-filters="sRGB" x="15.4345703125" y="15.005859375" width="17.647459506988525" height="17.64748191833496"><feFlood flood-opacity="0" result="BackgroundImageFix"/><feBlend mode="normal" in="SourceGraphic" in2="BackgroundImageFix" result="shape"/><feGaussianBlur in="BackgroundImage" stdDeviation="5.389055252075195"/><feComposite in2="SourceAlpha" operator="in" result="effect1_foregroundBlur"/><feBlend mode="normal" in="SourceGraphic" in2="effect1_foregroundBlur" result="shape"/></filter><linearGradient x1="0.5" y1="0" x2="0.5" y2="1" id="master_svg2_348_10397"><stop offset="0%" stop-color="#00D695" stop-opacity="1"/><stop offset="100%" stop-color="#00D695" stop-opacity="0.10000000149011612"/></linearGradient><linearGradient x1="0.9054054021835327" y1="1.0000001192092896" x2="0.5027027130126953" y2="0.05913979187607765" id="master_svg3_1_2527"><stop offset="0%" stop-color="#FFFFFF" stop-opacity="1"/><stop offset="100%" stop-color="#FFFFFF" stop-opacity="0"/></linearGradient><filter id="master_svg4_361_09188/368_09699" filterUnits="userSpaceOnUse" color-interpolation-filters="sRGB" x="1.696044921875" y="15.005859375" width="17.647459506988525" height="17.64748191833496"><feFlood flood-opacity="0" result="BackgroundImageFix"/><feBlend mode="normal" in="SourceGraphic" in2="BackgroundImageFix" result="shape"/><feGaussianBlur in="BackgroundImage" stdDeviation="5.389055252075195"/><feComposite in2="SourceAlpha" operator="in" result="effect1_foregroundBlur"/><feBlend mode="normal" in="SourceGraphic" in2="effect1_foregroundBlur" result="shape"/></filter><linearGradient x1="0.5" y1="0" x2="0.5" y2="1" id="master_svg5_348_10397"><stop offset="0%" stop-color="#00D695" stop-opacity="1"/><stop offset="100%" stop-color="#00D695" stop-opacity="0.10000000149011612"/></linearGradient><linearGradient x1="0.9054054021835327" y1="1.0000001192092896" x2="0.5027027130126953" y2="0.05913979187607765" id="master_svg6_1_2527"><stop offset="0%" stop-color="#FFFFFF" stop-opacity="1"/><stop offset="100%" stop-color="#FFFFFF" stop-opacity="0"/></linearGradient></defs><clipPath id="master_svg0_361_09188/368_09365"><rect x="0" y="0" width="24" height="24" rx="0"/></clipPath><g style="mix-blend-mode:passthrough"><g><g clip-path="url(#master_svg0_361_09188/368_09365)"><g><path d="M13.717444921875,2.125C14.665844921875,2.125,15.434744921875,2.8938800000000002,15.434744921875,3.84234L15.434744921875,7.27703C15.434744921875,8.22549,14.665844921875,8.99437,13.717444921875,8.99437L12.858744921875,8.99437L12.858744921875,10.71171L18.010744921875,10.71171C18.959244921875,10.71171,19.728044921875,11.48059,19.728044921875,12.4291L19.728044921875,15.0051L20.586744921875,15.0051C21.535244921875,15.0051,22.304044921875,15.7739,22.304144921875,16.7224L22.304144921875,20.1571C22.304044921875,21.1056,21.535244921875,21.8744,20.586744921875,21.8744L17.152044921875,21.8744C16.203644921875,21.8744,15.434744921875,21.1056,15.434744921875,20.1571L15.434744921875,16.7224C15.434744921875,15.774,16.203644921875,15.0051,17.152044921875,15.0051L18.010744921875,15.0051L18.010744921875,13.2877C18.010644921875,12.8524,17.684844921874998,12.486,17.252544921875,12.4351L17.152044921875,12.4291L6.848054921875,12.4291C6.412734921875,12.4291,6.046334921875,12.7549,5.995394921875,13.1873L5.989384921875,13.2877L5.989384921875,15.0051L6.848054921875,15.0051C7.796514921875,15.0051,8.565394921875,15.774,8.565394921875,16.7224L8.565394921875,20.1571C8.565394921875,21.1056,7.796514921875,21.8744,6.848054921875,21.8744L3.413384921875,21.8744C2.464922921875,21.8744,1.696045265809,21.1056,1.696045265809,20.1571L1.696045265809,16.7224C1.696045151164,15.774,2.464922921875,15.0051,3.413384921875,15.0051L4.272054921875,15.0051L4.272054921875,12.4291C4.272054921875,11.48059,5.040924921875,10.71171,5.989384921875,10.71171L11.141404921875,10.71171L11.141404921875,8.99437L10.282734921875,8.99437C9.334274921875,8.99437,8.565394921875,8.22549,8.565394921875,7.27703L8.565394921875,3.84234C8.565394921875,2.893882,9.334274921875,2.12500114645,10.282734921875,2.12500137574L13.717444921875,2.125Z" fill="#0079DE" fill-opacity="1"/><g filter="url(#master_svg1_361_09188/368_09694)" style="mix-blend-mode:passthrough"><path d="M15.4345703125,20.157889375C15.4345703125,21.106349375,16.2034483125,21.875229375,17.1519103125,21.875229375L18.0105803125,21.875229375L19.7279103125,21.875229375L20.5865803125,21.875229375C21.5350403125,21.875229375,22.3039203125,21.106349375,22.3039203125,20.157889375L22.3039203125,16.723199375C22.3039203125,15.774739375,21.5350403125,15.005859375,20.5865803125,15.005859375L17.1519103125,15.005859375C16.2034483125,15.005859375,15.4345703125,15.774741375,15.4345703125,16.723199375L15.4345703125,20.157889375Z" fill="url(#master_svg2_348_10397)"/><path d="M17.1519103125,21.875229375C16.2034483125,21.875229375,15.4345703125,21.106349375,15.4345703125,20.157889375L15.4345703125,16.723199375C15.4345703125,15.774741375,16.2034483125,15.005859375,17.1519103125,15.005859375L20.5865803125,15.005859375C21.5350403125,15.005859375,22.3039203125,15.774739375,22.3039203125,16.723199375L22.3039203125,20.157889375C22.3039203125,21.106349375,21.5350403125,21.875229375,20.5865803125,21.875229375L19.7279103125,21.875229375L18.0105803125,21.875229375L17.1519103125,21.875229375ZM16.0176293125,21.292169375Q15.5477953125,20.822329375,15.5477953125,20.157889375L15.5477953125,16.723199375Q15.5477953125,16.058759375,16.0176293125,15.588920375Q16.4874603125,15.119084375,17.1519103125,15.119084375L20.5865803125,15.119084375Q21.2510303125,15.119084375,21.7208603125,15.588919375Q22.1907003125,16.058749375,22.1906903125,16.723199375L22.1906903125,20.157889375Q22.1906903125,20.822339375,21.7208603125,21.292169375Q21.2510303125,21.762009374999998,20.5865803125,21.762009374999998L19.7279103125,21.762009374999998L18.0105803125,21.762009374999998L17.1519103125,21.762009374999998Q16.4874603125,21.762009374999998,16.0176293125,21.292169375Z" fill-rule="evenodd" fill="url(#master_svg3_1_2527)"/></g><g filter="url(#master_svg4_361_09188/368_09699)" style="mix-blend-mode:passthrough"><path d="M1.696044921875,20.157889375C1.696044921875,21.106349375,2.464922921875,21.875229375,3.413384921875,21.875229375L4.272054921875,21.875229375L5.989384921875,21.875229375L6.848054921875,21.875229375C7.796514921875,21.875229375,8.565394921875,21.106349375,8.565394921875,20.157889375L8.565394921875,16.723199375C8.565394921875,15.774739375,7.796514921875,15.005859375,6.848054921875,15.005859375L3.413384921875,15.005859375C2.464922921875,15.005859375,1.696044921875,15.774741375,1.696044921875,16.723199375L1.696044921875,20.157889375Z" fill="url(#master_svg5_348_10397)"/><path d="M3.413384921875,21.875229375C2.464922921875,21.875229375,1.696044921875,21.106349375,1.696044921875,20.157889375L1.696044921875,16.723199375C1.696044921875,15.774741375,2.464922921875,15.005859375,3.413384921875,15.005859375L6.848054921875,15.005859375C7.796514921875,15.005859375,8.565394921875,15.774739375,8.565394921875,16.723199375L8.565394921875,20.157889375C8.565394921875,21.106349375,7.796514921875,21.875229375,6.848054921875,21.875229375L5.989384921875,21.875229375L4.272054921875,21.875229375L3.413384921875,21.875229375ZM2.279103921875,21.292169375Q1.809269921875,20.822329375,1.809269921875,20.157889375L1.809269921875,16.723199375Q1.809269921875,16.058759375,2.279103921875,15.588920375Q2.748934921875,15.119084375,3.413384921875,15.119084375L6.848054921875,15.119084375Q7.512504921875,15.119084375,7.982334921875,15.588919375Q8.452174921874999,16.058749375,8.452164921875,16.723199375L8.452164921875,20.157889375Q8.452164921875,20.822339375,7.982334921875,21.292169375Q7.512504921875,21.762009374999998,6.848054921875,21.762009374999998L5.989384921875,21.762009374999998L4.272054921875,21.762009374999998L3.413384921875,21.762009374999998Q2.748934921875,21.762009374999998,2.279103921875,21.292169375Z" fill-rule="evenodd" fill="url(#master_svg6_1_2527)"/></g></g></g></g></g></svg>