<?xml version="1.0" standalone="no"?><!DOCTYPE svg PUBLIC "-//W3C//DTD SVG 1.1//EN" "http://www.w3.org/Graphics/SVG/1.1/DTD/svg11.dtd"><svg t="1701701860830" class="icon" viewBox="0 0 1024 1024" version="1.1" xmlns="http://www.w3.org/2000/svg" p-id="3409" xmlns:xlink="http://www.w3.org/1999/xlink" width="32" height="32"><path d="M53.94486232 475.41278283c-26.07364944 9.5463203-46.59613362 28.30252505-46.59613365 50.507181v103.45351061c0 21.23740725 19.13469444 39.95155939 46.59613365 50.54923609 9.88275366 3.70077558 20.81686495 2.10271406 29.43799165-4.37364476a36.25078258 36.25078258 0 0 0 13.87790994-28.47074173v-138.82115472a36.25078258 36.25078258 0 0 0-13.87790994-28.47074172 30.53140192 30.53140192 0 0 0-29.43799165-4.37364477z m919.89515988 7.56976908a30.53140192 30.53140192 0 0 0-29.35388267 4.41569862 36.25078258 36.25078258 0 0 0-13.91996382 28.386634v141.97522392c-26.91473405 17.95717399-56.77326803 30.44729296-88.10370194 36.83954282l-133.22793565 4.49980758a35.45175181 35.45175181 0 0 0-20.10194188 7.56976905 19.84961627 19.84961627 0 0 0-6.56046655 14.67694074c0 11.06027409 13.12093307 20.18605085 28.00814556 20.18605085l131.88219852-5.04651271a296.65083859 296.65083859 0 0 0 127.21417546-50.50718101c27.50349428-9.58837416 46.63818872-28.30252505 46.63818748-50.46512712v-103.0329683c3.1961243-21.23740725-15.85446119-39.90950429-42.39070679-49.49787844h-0.08410772z m-561.50864829 26.74651737h5.55116399c23.80271872 0 35.9143492 11.06027409 35.91434922 32.38179032v57.48818983c0 21.74205853-12.11163051 32.33973524-35.87229536 32.33973646h-5.59321785c-24.22326103 0-35.87229413-10.51356774-35.8722941-32.29768137v-57.57230001c0-21.1953534 11.60697923-32.38179032 35.83024024-32.3817891m217.63086075 0h5.63527173c23.76066362 0 35.87229413 11.10232798 35.87229534 32.3817891v57.53024492c0 21.74205853-12.11163051 32.33973524-35.83024026 32.33973646h-5.67732681c-24.22326103 0-35.83024027-10.51356774-35.83024024-32.29768137v-57.57230001c0-21.1953534 11.60697923-32.38179032 35.83024024-32.3817891" p-id="3410"></path><path d="M668.44189409 175.56581871h-278.56750175c-145.46572896 0-263.76439823 153.45604035-263.76439822 307.4167332v128.93839982C123.96522622 763.48454979 242.01156985 888.09135994 389.87439234 890.48845348h278.56750175c92.7296711-2.77558199 177.67930137-53.57714372 225.62117215-134.86805224a5.88759859 5.88759859 0 0 0 0-8.32674598 4.71007812 4.71007812 0 0 0-4.28953582 0l-29.10155581 4.9203499h-95.37909027a186.59480755 186.59480755 0 0 1-60.55815256 9.25193955h-324.40665974c-70.94555747-2.85969095-128.39169468-59.92733846-133.39615232-132.47095873-5.00445885-72.54362025 44.03082342-137.39130862 113.84091557-150.47018656 8.07442035-88.10370072 83.68800207-153.37193261 169.81515279-146.55914047h14.80310479c86.1271507-8.24263704 162.75003499 55.97423726 171.70759506 144.11999185v2.94379988c62.324432 8.32674597 111.1494425 59.17036156 118.29866802 123.1349102v15.64418942-2.4812025c0 13.58353047-1.76627945 27.08295198-5.21472939 40.11977606 4.7521332 3.40639608 12.91066127 0 19.51318289 0a206.44442383 206.44442383 0 0 0 42.89535809-6.30814088c13.41531254-4.54186145 25.31667252-12.44806511 34.90504545-23.0036867v-143.19479825C931.78574877 329.02186029 813.94967693 175.56581871 668.44189409 175.56581871z" p-id="3411"></path></svg>