<svg xmlns="http://www.w3.org/2000/svg" xmlns:xlink="http://www.w3.org/1999/xlink" fill="none" version="1.1" width="25" height="25" viewBox="0 0 25 25"><defs><filter id="master_svg1_424_15627/424_15604" filterUnits="userSpaceOnUse" color-interpolation-filters="sRGB" x="12.8125" y="12.7421875" width="11.84665834903717" height="11.84685480594635"><feFlood flood-opacity="0" result="BackgroundImageFix"/><feBlend mode="normal" in="SourceGraphic" in2="BackgroundImageFix" result="shape"/><feGaussianBlur in="BackgroundImage" stdDeviation="0.6887591481208801"/><feComposite in2="SourceAlpha" operator="in" result="effect1_foregroundBlur"/><feBlend mode="normal" in="SourceGraphic" in2="effect1_foregroundBlur" result="shape"/></filter><linearGradient x1="0.5" y1="0" x2="0.5" y2="1" id="master_svg2_348_10397"><stop offset="0%" stop-color="#00D695" stop-opacity="1"/><stop offset="100%" stop-color="#00D695" stop-opacity="0.10000000149011612"/></linearGradient><linearGradient x1="0.9054054021835327" y1="1.0000001192092896" x2="0.5027027130126953" y2="0.05913979187607765" id="master_svg3_1_2527"><stop offset="0%" stop-color="#FFFFFF" stop-opacity="1"/><stop offset="100%" stop-color="#FFFFFF" stop-opacity="0"/></linearGradient></defs><clipPath id="master_svg0_424_15627/424_15601"><rect x="0" y="0" width="25" height="25" rx="0"/></clipPath><g clip-path="url(#master_svg0_424_15627/424_15601)"><g><path d="M17.485440625000003,2.853515625C18.420140625,2.859474235,19.173140625,3.626539625,19.167140625,4.566775625L19.167140625,7.994385625C19.173140625,8.934805625,18.420340625,9.702185625,17.485440625000003,9.708735625L13.786240625,9.708735625L13.786240625,12.485895625C12.093640625,13.780315625,11.098810625,15.795415625,11.096350625,17.934115625L9.751390625,17.934115625L9.751390625,19.304315625C9.756760625,20.056715625,9.154420625,20.670815625,8.406440625,20.675615625L3.026630625,20.675615625C2.2786486249999998,20.670815625,1.676309565,20.056715625,1.6816763927,19.304315625L1.6816763927,13.821415625C1.676309875,13.069015625,2.2786486249999998,12.454945625,3.026630625,12.450175625L8.406440625,12.450175625C9.154670625,12.454345625,9.757360625,13.068815625,9.751390625,13.821415625L9.751390625,15.191615625L11.096350625,15.191615625L11.096350625,9.707655625000001L7.398260625,9.707655625000001C6.462850625,9.702295625,5.709380625,8.934215625,5.716530625,7.993305625L5.716530625,4.566775625C5.709380625,3.626051625,6.463020625,2.858278795,7.398260625,2.853515625L17.485440625000003,2.853515625Z" fill="#0079DE" fill-opacity="1"/><g style="mix-blend-mode:passthrough"><ellipse cx="18.047070026397705" cy="17.976855754852295" rx="5.234570026397705" ry="5.234668254852295" fill="#0079DE" fill-opacity="1"/></g><g filter="url(#master_svg1_424_15627/424_15604)" style="mix-blend-mode:passthrough"><ellipse cx="18.047070026397705" cy="17.976855754852295" rx="5.234570026397705" ry="5.234668254852295" fill="url(#master_svg2_348_10397)"/><ellipse cx="18.047070026397705" cy="17.976855754852295" rx="5.200132064521313" ry="5.200230292975903" stroke="url(#master_svg3_1_2527)" fill-opacity="0" stroke-width="0.06887592375278473" fill="none" stroke-dasharray=""/></g><path d="M19.6900975,15.797510125C19.8822775,15.934983125,20.0531575,16.090713125,20.2026375,16.264733125C20.3521275,16.438763125,20.4802575,16.626693125,20.5870475,16.828633125C20.6938375,17.030573125,20.7749575,17.244273125,20.8304675,17.469833125C20.8860175,17.695393125,20.9137675,17.924123125,20.9137675,18.156133125C20.9137675,18.555663125,20.8379875,18.930513125,20.6863175,19.280663125C20.5347475,19.630813125,20.3296575,19.935813125,20.0712475,20.195733125C19.8128475,20.455653125,19.5095575,20.661883125,19.1614875,20.814393125C18.8134175,20.966893125,18.4407975,21.043113124999998,18.0435275,21.043113124999998C17.6506275,21.043113124999998,17.2800475,20.966893125,16.9319775,20.814333125C16.5838575,20.661883125,16.2795475,20.455593125,16.0190065,20.195683125000002C15.7584635,19.935763125,15.5534755,19.630703125,15.4039395,19.280613125000002C15.2544042,18.930513125,15.1796875,18.555613125,15.1796875,18.156073125C15.1796875,17.928423125000002,15.2063721,17.704953125,15.259792,17.485893125C15.3131615,17.266773125,15.3889455,17.058443125,15.4872465,16.860843125C15.5854965,16.663193125,15.7071785,16.478433125,15.8524435,16.306653125C15.9976585,16.134773125,16.1599515,15.980123125,16.3393275,15.842602124999999C16.4333575,15.773890125,16.5347575,15.748124125,16.6436775,15.765302125C16.7526075,15.782479125,16.8411975,15.836211125,16.9095075,15.926393125C16.977877499999998,16.016633125,17.0035375,16.117603125,16.9864675,16.229303125C16.9693375,16.341013125,16.9159675,16.431243125,16.8262575,16.499953125C16.5571175,16.697553125,16.3510675,16.940293125,16.2079875,17.228123125C16.0649045,17.515953125,15.9932875,17.825303125,15.9932875,18.156083125C15.9932875,18.439663125,16.0467075,18.707043125,16.1534965,18.958373125C16.2602875,19.209703125,16.4065675,19.428813124999998,16.5923475,19.615673125C16.7781675,19.802533125,16.9959675,19.950793125,17.2458375,20.060303125C17.4957075,20.169913125,17.7615375,20.224673125,18.0434275,20.224673125C18.3253675,20.224673125,18.5912475,20.169913125,18.8410675,20.060303125C19.0909375,19.950743125,19.3087875,19.802533125,19.4945575,19.615673125C19.680387500000002,19.428813124999998,19.827737499999998,19.209703125,19.9366075,18.958373125C20.0455775,18.707043125,20.1000175,18.439663125,20.1000175,18.156083125C20.1000175,17.820963125,20.023117499999998,17.504143125,19.8693675,17.205573125C19.7156075,16.907013125,19.4998975,16.661053125,19.2223275,16.467703125C19.1282975,16.403283125,19.0717175,16.315193125,19.0525075,16.203543125C19.0332975,16.091783125,19.0557075,15.988713125,19.1197575,15.894186125000001C19.1838475,15.803952125,19.2713775,15.749198125,19.3824275,15.729873125C19.4935975,15.710497125,19.5961075,15.733093125,19.6900975,15.797510125ZM18.0435275,18.175403125C17.9324675,18.175403125,17.8374675,18.135683125,17.7584875,18.056233125C17.679447500000002,17.976733125,17.6399575,17.881133124999998,17.6399575,17.769423125L17.6399575,15.320623125000001C17.6399575,15.208916125,17.679447500000002,15.112291125,17.7584875,15.030646125C17.8375175,14.949000325,17.9324675,14.908203125,18.0435275,14.908203125C18.1589075,14.908203125,18.2560875,14.949000325,18.3350275,15.030646125C18.4141175,15.112291125,18.4536075,15.208916125,18.4536075,15.320623125000001L18.4536075,17.769423125C18.4536075,17.881133124999998,18.4141175,17.976733125,18.3350275,18.056233125C18.2560375,18.135683125,18.1588575,18.175403125,18.0435275,18.175403125Z" fill="#FFFFFF" fill-opacity="1"/></g></g></svg>