<svg xmlns="http://www.w3.org/2000/svg" xmlns:xlink="http://www.w3.org/1999/xlink" fill="none" version="1.1" width="25" height="24.999998092651367" viewBox="0 0 25 24.999998092651367"><defs><filter id="master_svg1_424_15627/424_15558" filterUnits="userSpaceOnUse" color-interpolation-filters="sRGB" x="12.41259765625" y="12.419921875" width="12.232360482215881" height="12.295837044715881"><feFlood flood-opacity="0" result="BackgroundImageFix"/><feBlend mode="normal" in="SourceGraphic" in2="BackgroundImageFix" result="shape"/><feGaussianBlur in="BackgroundImage" stdDeviation="0.6899107098579407"/><feComposite in2="SourceAlpha" operator="in" result="effect1_foregroundBlur"/><feBlend mode="normal" in="SourceGraphic" in2="effect1_foregroundBlur" result="shape"/></filter><linearGradient x1="0.5" y1="0" x2="0.5" y2="1" id="master_svg2_348_10397"><stop offset="0%" stop-color="#00D695" stop-opacity="1"/><stop offset="100%" stop-color="#00D695" stop-opacity="0.10000000149011612"/></linearGradient><linearGradient x1="0.9054054021835327" y1="1.0000001192092896" x2="0.5027027130126953" y2="0.05913979187607765" id="master_svg3_1_2527"><stop offset="0%" stop-color="#FFFFFF" stop-opacity="1"/><stop offset="100%" stop-color="#FFFFFF" stop-opacity="0"/></linearGradient></defs><clipPath id="master_svg0_424_15627/424_15552"><rect x="0" y="0" width="25" height="25" rx="0"/></clipPath><g clip-path="url(#master_svg0_424_15627/424_15552)"><g><path d="M17.43597890625,2.9375C18.36217890625,2.94340436,19.10827890625,3.703486,19.10237890625,4.6351700000000005L19.10237890625,8.03157C19.10827890625,8.963429999999999,18.36237890625,9.72381,17.43597890625,9.73031L13.77037890625,9.73031L13.77037890625,12.48218C12.09317890625,13.7649,11.10741890625,15.7615,11.10497890625,17.8808L9.77225890625,17.8808L9.77225890625,19.2385C9.77757890625,19.984,9.18070890625,20.5926,8.43952890625,20.5973L3.10863890625,20.5973C2.36745790625,20.5926,1.77059632625,19.984,1.77591434865,19.2385L1.77591434865,13.8056C1.77059662625,13.06,2.36745890625,12.45151,3.10863890625,12.44679L8.43952890625,12.44679C9.18095890625,12.45092,9.77816890625,13.0598,9.77225890625,13.8056L9.77225890625,15.1633L11.10497890625,15.1633L11.10497890625,9.72924L7.44051890625,9.72924C6.51360890625,9.72392,5.7669989062500004,8.96284,5.77408890625,8.0305L5.77408890625,4.6351700000000005C5.7669989062500004,3.703002,6.51377890625,2.94221981,7.44051890625,2.9375L17.43597890625,2.9375Z" fill="#0079DE" fill-opacity="1"/><g style="mix-blend-mode:passthrough"><g><g style="mix-blend-mode:passthrough"><path d="M12.41259765625,17.878901875C12.41259765625,14.863281875,14.84179765625,12.419921875,17.83886765625,12.419921875C20.83593765625,12.419921875,23.26509765625,14.863281875,23.26509765625,17.878901875C23.26509765625,20.892581874999998,20.83593765625,23.335921875,17.83886765625,23.335921875C14.84179765625,23.335921875,12.41259765625,20.892581874999998,12.41259765625,17.878901875ZM18.22655765625,13.498041875C18.22655765625,13.281249875,18.05273765625,13.107421875,17.83886765625,13.107421875C17.62499765625,13.107421875,17.45116765625,13.281249875,17.45116765625,13.498041875C17.45116765625,13.712891875,17.62499765625,13.886721875,17.83886765625,13.886721875C18.05321765625,13.886721875,18.22655765625,13.712891875,18.22655765625,13.498041875ZM13.09619165625,17.875001875C13.09619165625,18.089841875,13.27001965625,18.265621875,13.48388765625,18.265621875C13.69775765625,18.265621875,13.87157765625,18.089841875,13.87157765625,17.875001875C13.87157765625,17.660151875,13.69775765625,17.484371875,13.48388765625,17.484371875C13.27001965625,17.484371875,13.09619165625,17.660151875,13.09619165625,17.875001875ZM21.806147656249998,17.878901875C21.806147656249998,18.093751875,21.97997765625,18.267581875,22.19384765625,18.267581875C22.40820765625,18.267581875,22.58149765625,18.093751875,22.58149765625,17.878901875C22.58149765625,17.662111875,22.40820765625,17.488281875,22.19384765625,17.488281875C21.97997765625,17.488281875,21.806147656249998,17.662111875,21.806147656249998,17.878901875ZM17.45116765625,22.294921875C17.45116765625,22.509721875,17.62499765625,22.685521875,17.83886765625,22.685521875C18.05273765625,22.685521875,18.22655765625,22.509721875,18.22655765625,22.294921875C18.22655765625,22.080081874999998,18.05273765625,21.906251875000002,17.83886765625,21.906251875000002C17.62499765625,21.906251875000002,17.45116765625,22.080081874999998,17.45116765625,22.294921875Z" fill-rule="evenodd" fill="#0079DE" fill-opacity="1"/></g><g filter="url(#master_svg1_424_15627/424_15558)" style="mix-blend-mode:passthrough"><path d="M12.41259765625,17.878901875C12.41259765625,14.863281875,14.84179765625,12.419921875,17.83886765625,12.419921875C20.83593765625,12.419921875,23.26509765625,14.863281875,23.26509765625,17.878901875C23.26509765625,20.892581874999998,20.83593765625,23.335921875,17.83886765625,23.335921875C14.84179765625,23.335921875,12.41259765625,20.892581874999998,12.41259765625,17.878901875ZM18.22655765625,13.498041875C18.22655765625,13.281249875,18.05273765625,13.107421875,17.83886765625,13.107421875C17.62499765625,13.107421875,17.45116765625,13.281249875,17.45116765625,13.498041875C17.45116765625,13.712891875,17.62499765625,13.886721875,17.83886765625,13.886721875C18.05321765625,13.886721875,18.22655765625,13.712891875,18.22655765625,13.498041875ZM13.09619165625,17.875001875C13.09619165625,18.089841875,13.27001965625,18.265621875,13.48388765625,18.265621875C13.69775765625,18.265621875,13.87157765625,18.089841875,13.87157765625,17.875001875C13.87157765625,17.660151875,13.69775765625,17.484371875,13.48388765625,17.484371875C13.27001965625,17.484371875,13.09619165625,17.660151875,13.09619165625,17.875001875ZM21.806147656249998,17.878901875C21.806147656249998,18.093751875,21.97997765625,18.267581875,22.19384765625,18.267581875C22.40820765625,18.267581875,22.58149765625,18.093751875,22.58149765625,17.878901875C22.58149765625,17.662111875,22.40820765625,17.488281875,22.19384765625,17.488281875C21.97997765625,17.488281875,21.806147656249998,17.662111875,21.806147656249998,17.878901875ZM17.45116765625,22.294921875C17.45116765625,22.509721875,17.62499765625,22.685521875,17.83886765625,22.685521875C18.05273765625,22.685521875,18.22655765625,22.509721875,18.22655765625,22.294921875C18.22655765625,22.080081874999998,18.05273765625,21.906251875000002,17.83886765625,21.906251875000002C17.62499765625,21.906251875000002,17.45116765625,22.080081874999998,17.45116765625,22.294921875Z" fill-rule="evenodd" fill="url(#master_svg2_348_10397)"/><path d="M17.83886765625,12.419921875C14.84179765625,12.419921875,12.41259765625,14.863281875,12.41259765625,17.878901875C12.41259765625,20.892581874999998,14.84179765625,23.335921875,17.83886765625,23.335921875C20.83593765625,23.335921875,23.26509765625,20.892581874999998,23.26509765625,17.878901875C23.26509765625,14.863281875,20.83593765625,12.419921875,17.83886765625,12.419921875ZM14.04889765625,21.690751875Q12.47897335625,20.111851875,12.47897255625,17.878901875Q12.47897265625,15.644651875000001,14.04890765625,14.065351875Q15.61858765625,12.486293775,17.83886765625,12.486296775Q20.05915765625,12.486296875,21.62882765625,14.065351875Q23.19879765625,15.644661875,23.19879765625,17.878901875Q23.19879765625,20.111861875,21.62883765625,21.690751875Q20.05898765625,23.269521875000002,17.83886765625,23.269521875000002Q15.618747656250001,23.269521875000002,14.04889765625,21.690751875ZM18.16009765625,13.819821875Q18.29293765625,13.686631875,18.29293765625,13.498041875Q18.29293765625,13.308282875,18.15996765625,13.174623875Q18.02708765625,13.041046875,17.83886765625,13.041046875Q17.65064765625,13.041046875,17.51776765625,13.174623875Q17.38479765625,13.308282875,17.38479765625,13.498041875Q17.38479765625,13.686561875,17.517847656249998,13.819841875Q17.65086765625,13.953091875,17.83886765625,13.953091875Q18.02716765625,13.953091875,18.16009765625,13.819821875ZM17.83886765625,13.107421875C18.05273765625,13.107421875,18.22655765625,13.281249875,18.22655765625,13.498041875C18.22655765625,13.712891875,18.05321765625,13.886721875,17.83886765625,13.886721875C17.62499765625,13.886721875,17.45116765625,13.712891875,17.45116765625,13.498041875C17.45116765625,13.281249875,17.62499765625,13.107421875,17.83886765625,13.107421875ZM13.16270165625,17.552391874999998Q13.02981665625,17.686431875,13.02981665625,17.875001875Q13.02981665625,18.063571875,13.16270165625,18.197611875Q13.29593365625,18.332001875,13.48388765625,18.332001875Q13.67183765625,18.332001875,13.80506765625,18.197611875Q13.93795765625,18.063571875,13.93795765625,17.875001875Q13.93795765625,17.686431875,13.80506765625,17.552391874999998Q13.67183765625,17.418001875,13.48388765625,17.418001875Q13.29593365625,17.418001875,13.16270165625,17.552391874999998ZM21.87274765625,17.555481874999998Q21.73977765625,17.689141875,21.73977765625,17.878901875Q21.73977765625,18.067421875,21.87282765625,18.200701875Q22.005847656249998,18.333951875,22.19384765625,18.333951875Q22.382147656249998,18.333951875,22.51509765625,18.200681875Q22.647897656250002,18.067491875,22.647897656250002,17.878901875Q22.647897656250002,17.689071875,22.515197656250002,17.555501875Q22.38236765625,17.421901875,22.19384765625,17.421901875Q22.00562765625,17.421901875,21.87274765625,17.555481874999998ZM13.48388765625,18.265621875C13.27001965625,18.265621875,13.09619165625,18.089841875,13.09619165625,17.875001875C13.09619165625,17.660151875,13.27001965625,17.484371875,13.48388765625,17.484371875C13.69775765625,17.484371875,13.87157765625,17.660151875,13.87157765625,17.875001875C13.87157765625,18.089841875,13.69775765625,18.265621875,13.48388765625,18.265621875ZM22.19384765625,18.267581875C21.97997765625,18.267581875,21.806147656249998,18.093751875,21.806147656249998,17.878901875C21.806147656249998,17.662111875,21.97997765625,17.488281875,22.19384765625,17.488281875C22.40820765625,17.488281875,22.58149765625,17.662111875,22.58149765625,17.878901875C22.58149765625,18.093751875,22.40820765625,18.267581875,22.19384765625,18.267581875ZM17.517847656249998,21.973121875Q17.38479765625,22.106411875,17.38479765625,22.294921875Q17.38479765625,22.483521875,17.51767765625,22.617521875Q17.65090765625,22.751921875,17.83886765625,22.751921875Q18.02681765625,22.751921875,18.16004765625,22.617521875Q18.29293765625,22.483521875,18.29293765625,22.294921875Q18.29293765625,22.106401875,18.15988765625,21.973121875Q18.02686765625,21.839871875,17.83886765625,21.839871875Q17.65086765625,21.839871875,17.517847656249998,21.973121875ZM17.83886765625,22.685521875C17.62499765625,22.685521875,17.45116765625,22.509721875,17.45116765625,22.294921875C17.45116765625,22.080081874999998,17.62499765625,21.906251875000002,17.83886765625,21.906251875000002C18.05273765625,21.906251875000002,18.22655765625,22.080081874999998,18.22655765625,22.294921875C18.22655765625,22.509721875,18.05273765625,22.685521875,17.83886765625,22.685521875Z" fill-rule="evenodd" fill="url(#master_svg3_1_2527)"/></g><g style="mix-blend-mode:passthrough"><rect x="17.1044921875" y="15.06640625" width="1.2999999523162842" height="3.65625" rx="0.6499999761581421" fill="#FFFFFF" fill-opacity="1"/></g><g style="mix-blend-mode:passthrough"><rect x="21.53125" y="17.421875" width="1.2999999523162842" height="4.4267578125" rx="0.6499999761581421" transform="matrix(0,1,-1,0,38.953125,-4.109375)" fill="#FFFFFF" fill-opacity="1"/></g></g></g></g></g></svg>