<svg xmlns="http://www.w3.org/2000/svg" xmlns:xlink="http://www.w3.org/1999/xlink" fill="none" version="1.1" width="25" height="25" viewBox="0 0 25 25"><defs><filter id="master_svg1_424_15627/424_15573" filterUnits="userSpaceOnUse" color-interpolation-filters="sRGB" x="12.43896484375" y="12.44921875" width="11.82609474658966" height="11.88757336139679"><feFlood flood-opacity="0" result="BackgroundImageFix"/><feBlend mode="normal" in="SourceGraphic" in2="BackgroundImageFix" result="shape"/><feGaussianBlur in="BackgroundImage" stdDeviation="0.5311704277992249"/><feComposite in2="SourceAlpha" operator="in" result="effect1_foregroundBlur"/><feBlend mode="normal" in="SourceGraphic" in2="effect1_foregroundBlur" result="shape"/></filter><linearGradient x1="0.5" y1="0" x2="0.5" y2="1" id="master_svg2_348_10397"><stop offset="0%" stop-color="#00D695" stop-opacity="1"/><stop offset="100%" stop-color="#00D695" stop-opacity="0.10000000149011612"/></linearGradient><linearGradient x1="0.9054054021835327" y1="1.0000001192092896" x2="0.5027027130126953" y2="0.05913979187607765" id="master_svg3_1_2527"><stop offset="0%" stop-color="#FFFFFF" stop-opacity="1"/><stop offset="100%" stop-color="#FFFFFF" stop-opacity="0"/></linearGradient></defs><clipPath id="master_svg0_424_15627/424_15571"><rect x="0" y="0" width="25" height="25" rx="0"/></clipPath><g clip-path="url(#master_svg0_424_15627/424_15571)"><g><path d="M17.75101796875,12.44739625C20.73221796875,12.40833625,23.17681796875,14.81405625,23.20281796875,17.81235625C23.22881796875,20.81065625,20.82621796875,23.25895625,17.84481796875,23.27215625C14.86321796875,23.28505625,12.43931796875,20.85815625,12.43931796875,17.86005625C12.42051796875,14.89035625,14.79831796875,12.46739625,17.75101796875,12.44739625ZM20.27301796875,15.56075625L16.966017968750002,18.923056250000002L15.23331796875,17.15375625L14.29421796875,18.115356249999998L16.966017968750002,20.83665625L21.20901796875,16.51375625L20.27301796875,15.56075625ZM17.41961796875,2.97265625C18.34251796875,2.9785385,19.08591796875,3.73577425,19.08001796875,4.66396625L19.08001796875,8.04764625C19.08591796875,8.97601625,18.34271796875,9.73355625,17.41961796875,9.74002625L13.76731796875,9.74002625L13.76731796875,12.48158625C12.09611796875,13.75945625,11.11386796875,15.74865625,11.11143796875,17.86005625L9.783507968750001,17.86005625L9.783507968750001,19.21265625C9.78880796875,19.95535625,9.19409796875,20.56165625,8.455587968749999,20.56635625L3.14387796875,20.56635625C2.4053679687500003,20.56165625,1.81065439875,19.95535625,1.81595328365,19.21265625L1.81595328365,13.80005625C1.81065469875,13.05725625,2.4053679687500003,12.45103625,3.14387796875,12.44632625L8.455587968749999,12.44632625C9.19433796875,12.45044625,9.78939796875,13.05705625,9.783507968750001,13.80005625L9.783507968750001,15.15265625L11.11143796875,15.15265625L11.11143796875,9.738956250000001L7.46016796875,9.738956250000001C6.53659796875,9.733666249999999,5.79266796875,8.97542625,5.79972796875,8.046576250000001L5.79972796875,4.66396625C5.79266796875,3.73529125,6.53676796875,2.97735838,7.46016796875,2.97265625L17.41961796875,2.97265625Z" fill="#0079DE" fill-opacity="1"/><g filter="url(#master_svg1_424_15627/424_15573)" style="mix-blend-mode:passthrough"><path d="M17.75078484375,12.449687831C20.73189484375,12.41062395,23.17656484375,14.81635875,23.20246484375,17.81467875C23.22846484375,20.812988750000002,20.82591484375,23.261218749999998,17.84457484375,23.274418750000002C14.862974843749999,23.28731875,12.43907669275,20.860468750000003,12.43907588275,17.86229875C12.42023904375,14.89267875,14.79806484375,12.46968235,17.75078484375,12.449687831ZM20.27277484375,15.56305875L16.96571484375,18.92537875L15.23303484375,17.15607875L14.29392484375,18.11764875L16.96571484375,20.838918749999998L21.20870484375,16.51608875L20.27277484375,15.56305875Z" fill="url(#master_svg2_348_10397)"/><path d="M23.20246484375,17.81467875C23.17656484375,14.81635875,20.73189484375,12.41062395,17.75078484375,12.449687831C14.79806484375,12.46968235,12.42023904375,14.89267875,12.43907588275,17.86229875C12.43907669275,20.860468750000003,14.862974843749999,23.28731875,17.84457484375,23.274418750000002C20.82591484375,23.261218749999998,23.22846484375,20.812988750000002,23.20246484375,17.81467875ZM14.01676484375,14.08537875Q15.55765484375,12.51522065,17.75112484375,12.50036445L17.75144484375,12.50036205Q19.96614484375,12.47134135,21.54927484375,14.02928875Q23.13256484375,15.58736875,23.151864843749998,17.81511875Q23.171064843750003,20.04288875,21.61511484375,21.62845875Q20.05920484375,23.213918749999998,17.84434484375,23.22371875Q15.629304843749999,23.233318750000002,14.05958484375,21.66169875Q12.48976134375,20.08993875,12.48975494375,17.86229875Q12.47575834375,15.65565875,14.01676484375,14.08537875ZM21.27972484375,16.51607875L20.272804843750002,15.49075875L20.23664484375,15.52752875L16.96578484375,18.85302875L15.23298484375,17.08358875L14.22299484375,18.11774875L16.96571484375,20.911258750000002L21.27972484375,16.51607875ZM17.00125484375,18.88923875L20.23723484375,15.59919875L20.27277484375,15.56305875L20.308294843749998,15.59922875L21.20870484375,16.51608875L16.96571484375,20.838918749999998L16.93019484375,20.80274875L14.29392484375,18.11764875L15.19761484375,17.19233875L15.23303484375,17.15607875L15.26850484375,17.19228875L16.93024484375,18.88915875L16.96571484375,18.92537875L17.00125484375,18.88923875Z" fill-rule="evenodd" fill="url(#master_svg3_1_2527)"/></g></g></g></svg>