<svg xmlns="http://www.w3.org/2000/svg" xmlns:xlink="http://www.w3.org/1999/xlink" fill="none" version="1.1" width="24" height="24" viewBox="0 0 24 24"><defs><clipPath id="master_svg0_735_13354"><rect x="0" y="0" width="24" height="24" rx="0"/></clipPath></defs><g clip-path="url(#master_svg0_735_13354)"><g><path d="M20,2C21.104599999999998,2,22,2.895431,22,4L22,20C22,21.1046,21.104599999999998,22,20,22L11,22C10.447715,22,10,21.5523,10,21L10,3C10,2.447715,10.447715,2,11,2L20,2Z" fill="#07C160" fill-opacity="1"/></g><g><path d="M8,3L8,21C8,21.5523,7.55228,22,7,22L5,22C4.44772,22,4,21.5523,4,21L4,18L2,18L2,16L4,16L4,13L2,13L2,11L4,11L4,8L2,8L2,6L4,6L4,3C4,2.447715,4.44772,2,5,2L7,2C7.55228,2,8,2.447715,8,3Z" fill="#9CE6BF" fill-opacity="1"/></g></g></svg>