<svg xmlns="http://www.w3.org/2000/svg" xmlns:xlink="http://www.w3.org/1999/xlink" fill="none" version="1.1" width="25" height="24.999998092651367" viewBox="0 0 25 24.999998092651367"><defs><filter id="master_svg1_424_15627/424_15362" filterUnits="userSpaceOnUse" color-interpolation-filters="sRGB" x="8.01416015625" y="2.35546875" width="10.47212302684784" height="4.016784071922302"><feFlood flood-opacity="0" result="BackgroundImageFix"/><feBlend mode="normal" in="SourceGraphic" in2="BackgroundImageFix" result="shape"/><feGaussianBlur in="BackgroundImage" stdDeviation="0.6249999403953552"/><feComposite in2="SourceAlpha" operator="in" result="effect1_foregroundBlur"/><feBlend mode="normal" in="SourceGraphic" in2="effect1_foregroundBlur" result="shape"/></filter><linearGradient x1="0.5" y1="0" x2="0.5" y2="1" id="master_svg2_348_10397"><stop offset="0%" stop-color="#00D695" stop-opacity="1"/><stop offset="100%" stop-color="#00D695" stop-opacity="0.10000000149011612"/></linearGradient><linearGradient x1="0.9054054021835327" y1="1.0000001192092896" x2="0.5027027130126953" y2="0.05913979187607765" id="master_svg3_1_2527"><stop offset="0%" stop-color="#FFFFFF" stop-opacity="1"/><stop offset="100%" stop-color="#FFFFFF" stop-opacity="0"/></linearGradient></defs><clipPath id="master_svg0_424_15627/424_15360"><rect x="0" y="0" width="25" height="25" rx="0"/></clipPath><g clip-path="url(#master_svg0_424_15627/424_15360)"><g><path d="M7.11436046875,4.19998875C7.32629046875,5.27342875,8.240840468750001,6.04451875,9.302080468749999,6.04451875L15.55268046875,6.04451875C16.613680468749997,6.0447387500000005,17.528280468749998,5.27365875,17.74038046875,4.19998875L19.57008046875,4.19998875C21.04778046875,4.19947875,22.24688046875,5.4349887500000005,22.24978046875,6.96123875L22.24978046875,19.88396875C22.24828046875,21.41086875,21.04838046875,22.64726875,19.57008046875,22.64526875L5.28382046875,22.64526875C3.80643046875,22.64526875,2.60793497875,21.40986875,2.60498046875,19.88396875L2.60498046875,6.96123875C2.60645863875,5.4343587499999995,3.80636046875,4.19794875,5.28471046875,4.19998875L7.11436046875,4.19998875ZM7.96266046875,9.73355875C7.46950046875,9.73355875,7.06971046875,10.14646875,7.06971046875,10.65581875C7.06971046875,11.16516875,7.46950046875,11.57807875,7.96266046875,11.57807875L13.32038046875,11.57807875C13.81348046875,11.57807875,14.21328046875,11.16516875,14.21328046875,10.65581875C14.21328046875,10.14646875,13.81348046875,9.73355875,13.32038046875,9.73355875L7.96266046875,9.73355875ZM7.96266046875,13.42256875C7.46950046875,13.42256875,7.06971046875,13.83546875,7.06971046875,14.34486875C7.06971046875,14.85416875,7.46950046875,15.26716875,7.96266046875,15.26716875L16.892080468750002,15.26716875C17.38528046875,15.26716875,17.78508046875,14.85416875,17.78508046875,14.34486875C17.78508046875,13.83546875,17.38528046875,13.42256875,16.892080468750002,13.42256875L7.96266046875,13.42256875ZM7.96266046875,17.11166875C7.46950046875,17.11166875,7.06971046875,17.52456875,7.06971046875,18.03386875C7.06971046875,18.54326875,7.46950046875,18.95616875,7.96266046875,18.95616875L13.32038046875,18.95616875C13.81348046875,18.95616875,14.21328046875,18.54326875,14.21328046875,18.03386875C14.21328046875,17.52456875,13.81348046875,17.11166875,13.32038046875,17.11166875L7.96266046875,17.11166875ZM9.302080468749999,2.35546875L15.55268046875,2.35546875C16.29228046875,2.3557324,16.89168046875,2.97502075,16.89168046875,3.73885875C16.89168046875,4.50269875,16.29228046875,5.12198875,15.55268046875,5.12224875L9.302080468749999,5.12224875C8.562340468750001,5.12224875,7.96266046875,4.50288875,7.96266046875,3.73885875C7.96266046875,2.97483475,8.562340468750001,2.355468538911,9.302080468749999,2.35546875Z" fill="#0079DE" fill-opacity="1"/><g filter="url(#master_svg1_424_15627/424_15362)" style="mix-blend-mode:passthrough"><path d="M9.39755015625,2.35546875L15.85337015625,2.35546875C16.61721015625,2.3557324,17.23628015625,2.97502075,17.23628015625,3.73885875C17.23628015625,4.50269875,16.61721015625,5.12198875,15.85337015625,5.12224875L9.39755015625,5.12224875C8.63352515625,5.12224875,8.01416015625,4.50288875,8.01416015625,3.73885875C8.01416015625,2.97483475,8.63352515625,2.355468538911,9.39755015625,2.35546875Z" fill="url(#master_svg2_348_10397)"/><path d="M15.85337015625,2.35546875L9.39755015625,2.35546875C8.63352515625,2.35546875,8.01416015625,2.97483475,8.01416015625,3.73885875C8.01416015625,4.50288875,8.63352515625,5.12224875,9.39755015625,5.12224875L15.85337015625,5.12224875C16.61721015625,5.12198875,17.23628015625,4.50269875,17.23628015625,3.73885875C17.23628015625,2.97502075,16.61721015625,2.3557324,15.85337015625,2.35546875ZM8.46354015625,2.80484875Q8.85041915625,2.41796875,9.39755015625,2.41796885L15.85337015625,2.41796875Q16.40034015625,2.41815755,16.78706015625,2.80500975Q17.17378015625,3.19186175,17.17378015625,3.73885875Q17.17378015625,4.28585875,16.78706015625,4.67270875Q16.40034015625,5.05956875,15.85335015625,5.05974875L9.39755015625,5.05974875Q8.85041915625,5.05974875,8.46354015625,4.67286875Q8.07666015625,4.28598875,8.07666015625,3.73885875Q8.07666015625,3.19172975,8.46354015625,2.80484875Z" fill-rule="evenodd" fill="url(#master_svg3_1_2527)"/></g></g></g></svg>