<svg xmlns="http://www.w3.org/2000/svg" xmlns:xlink="http://www.w3.org/1999/xlink" fill="none" version="1.1" width="25" height="24.999998092651367" viewBox="0 0 25 24.999998092651367"><defs><filter id="master_svg1_424_15627/424_15239" filterUnits="userSpaceOnUse" color-interpolation-filters="sRGB" x="14.828125" y="13.298828125" width="10.74999988079071" height="10.744273066520691"><feFlood flood-opacity="0" result="BackgroundImageFix"/><feBlend mode="normal" in="SourceGraphic" in2="BackgroundImageFix" result="shape"/><feGaussianBlur in="BackgroundImage" stdDeviation="0.6249999403953552"/><feComposite in2="SourceAlpha" operator="in" result="effect1_foregroundBlur"/><feBlend mode="normal" in="SourceGraphic" in2="effect1_foregroundBlur" result="shape"/></filter><linearGradient x1="0.5" y1="0" x2="0.5" y2="1" id="master_svg2_348_10397"><stop offset="0%" stop-color="#00D695" stop-opacity="1"/><stop offset="100%" stop-color="#00D695" stop-opacity="0.10000000149011612"/></linearGradient><linearGradient x1="0.9054054021835327" y1="1.0000001192092896" x2="0.5027027130126953" y2="0.05913979187607765" id="master_svg3_1_2527"><stop offset="0%" stop-color="#FFFFFF" stop-opacity="1"/><stop offset="100%" stop-color="#FFFFFF" stop-opacity="0"/></linearGradient></defs><clipPath id="master_svg0_424_15627/424_15235"><rect x="0" y="0" width="25" height="25" rx="0"/></clipPath><g clip-path="url(#master_svg0_424_15627/424_15235)"><g><g style="mix-blend-mode:passthrough"><path d="M13.515625,15.88480625C13.620125,15.98830625,13.723625,16.06640625,13.854525,16.14450625C13.671925,16.716806249999998,13.567425,17.341806249999998,13.515625,17.99410625C13.515625,19.16600625,13.854525,20.25980625,14.453125,21.19730625C14.323225,21.22260625,14.167025,21.22260625,14.036125,21.24800625C13.151325,21.35350625,12.239225,21.40430625,11.328125,21.40430625C10.286135,21.40430625,9.348635,21.35350625,8.541995,21.24800625C7.734375,21.14450625,7.057615,20.98830625,6.510745,20.80660625C5.963865,20.62300625,5.546875,20.41600625,5.260745,20.18160625C4.973635,19.94730625,4.843745,19.71290625,4.843745,19.47850625C4.843745,19.11330625,5.000005,18.77540625,5.260745,18.51370625C5.520505,18.25390625,5.859375,17.99410625,6.276365,17.78520625C6.692385,17.57620625,7.135745,17.36910625,7.604495,17.18550625C8.073245,17.00390625,8.515625,16.82230625,8.932615,16.61330625C9.348635,16.404306249999998,9.687505,16.16990625,9.948245,15.93550625C10.234375,15.70120625,10.364255,15.41600625,10.364255,15.07620625C10.364255,14.73830625,10.286135,14.42580625,10.156245,14.13870625C10.026365,13.85350625,9.870115,13.54100625,9.635745,13.25390625C9.401365,12.96680625,9.192385,12.62890625,8.932615,12.29101625Q8.541505,11.78124625,8.229495,11.11913625C8.020505,10.67578625,7.838865,10.18163625,7.708005,9.60742625C7.578125,9.03515625,7.500005,8.38476625,7.500005,7.62890625C7.500005,5.98828625,7.812505,4.71288625,8.411135,3.74804625C9.010745,2.78515625,9.948245,2.31640625,11.223625,2.31640625C12.292025,2.31640625,13.125025,2.49804725,13.750025,2.81054725C14.348625,3.15039025,14.817425,3.56640625,15.129925,4.06054625C15.442425,4.55663625,15.651325,5.12890625,15.729525,5.72851625C15.807625,6.35351625,15.859325,6.95117625,15.859325,7.52538625C15.859325,8.30663625,15.781225,8.98242625,15.651325,9.55663625C15.495125,10.12890625,15.338825,10.62304625,15.129925,11.04101625C14.921925,11.45702625,14.713825,11.82226625,14.479525,12.16015625C14.245125,12.47260625,14.036125,12.78520625,13.828125,13.09760625C13.620125,13.38480625,13.437525,13.69730625,13.307625,14.00980625C13.176725,14.32230625,13.098625,14.68550625,13.098625,15.07620625C13.098625,15.38870625,13.254925,15.65040625,13.515625,15.88480625ZM20.312525,11.06640625C20.051725,11.35351625,19.817425,11.61328625,19.609325,11.87304625C19.583025,11.92578625,19.531225,11.97851625,19.504925,12.02929625C18.801725,12.02929625,18.125025,12.16015625,17.500025,12.39450625C17.448225,12.23828625,17.343725,12.08202625,17.213825,11.92578625C16.979525,11.66601625,16.745125,11.37890625,16.484325,11.04101625C16.718725,10.51952625,16.901325,9.91992625,17.057625,9.21679625C17.213825,8.51367625,17.292025,7.68163625,17.292025,6.74413625C17.292025,6.53515625,17.292025,6.32617625,17.265625,6.11913625L17.187525,5.49413625C17.578125,5.23242625,17.917025,5.10351625,18.229525,5.10351625C18.906225,5.10351625,19.453125,5.20702625,19.870125,5.44140625C20.286125,5.65038625,20.598625,5.93554625,20.807625,6.27538625C21.015625,6.61328625,21.145525,6.97851625,21.223625,7.36913625C21.301725,7.75976625,21.328125,8.12304625,21.328125,8.43554625C21.328125,9.08788625,21.223625,9.63476625,21.015625,10.02538625C20.807625,10.41601625,20.573225,10.77929625,20.312525,11.06640625ZM7.135745,15.96480625C7.500005,15.80860625,7.812505,15.62690625,8.046875,15.47070625C8.281245,15.28710625,8.411135,15.08010625,8.411135,14.79300625C8.411135,14.63670625,8.411135,14.50590625,8.385745,14.45510625C8.125005,14.29880625,7.864255,14.16800625,7.526365,14.03710625C7.187505,13.90820625,6.901365,13.77730625,6.614255,13.64650625C6.328125,13.51760625,6.093745,13.38670625,5.885745,13.25590625C5.676755,13.12690625,5.573245,12.94340625,5.573245,12.76170625C5.573245,12.42380625,5.676755,12.11132625,5.859375,11.84960625C6.041995,11.58984625,6.250005,11.33007625,6.484375,11.01757625C6.250005,10.54882625,6.067385,10.00195625,5.911135,9.34960625Q5.676755,8.37402625,5.676755,7.00585625C5.676755,6.43359625,5.729495,5.88671625,5.807615,5.365236250000001C5.468745,5.18359625,5.026365,5.10546625,4.479495,5.10546625C4.088865,5.10546625,3.750005,5.208986250000001,3.437505,5.392576249999999C3.151365,5.57421625,2.916995,5.833986250000001,2.708005,6.146486250000001C2.526365,6.45898625,2.370115,6.84960625,2.291995,7.26757625C2.187505,7.68359625,2.161135,8.12695625,2.161135,8.59570625C2.161135,9.22070625,2.239255,9.740236249999999,2.421875,10.13085625C2.604495,10.52148625,2.786135,10.88671625,2.995115,11.17382625C3.203125,11.45898625,3.411135,11.74609625,3.567385,11.98046625C3.750005,12.21484625,3.828125,12.47460625,3.828125,12.73630625C3.828125,12.99610625,3.671875,13.23050625,3.333005,13.41210625C3.020505,13.59570625,2.656245,13.75190625,2.265625,13.90820625C1.875005,14.06440625,1.536133,14.24610625,1.198242,14.42770625C0.885742,14.61130625,0.703125,14.87110625,0.703125,15.18360625C0.703125,15.44340625,0.78125,15.70510625,0.9375,15.96480625Q1.171875,16.35450625,1.640625,16.668006249999998C1.953125,16.876906249999998,2.317385,17.03320625,2.760745,17.16210625C3.203125,17.293006249999998,3.723635,17.34570625,4.323245,17.34570625L4.739255,17.34570625C5.078125,17.005906250000002,5.468745,16.72070625,5.911135,16.51170625C6.354495,16.30270625,6.770505,16.14650625,7.135745,15.96480625ZM24.328125,18.046006249999998C24.328125,20.66770625,22.201525,22.79310625,19.578125,22.79310625C16.954725,22.79310625,14.828125,20.66770625,14.828125,18.046006249999998C14.828125,15.42420625,16.954725,13.29880625,19.578125,13.29880625C22.201525,13.29880625,24.328125,15.42420625,24.328125,18.046006249999998Z" fill-rule="evenodd" fill="#0079DE" fill-opacity="1"/></g><g filter="url(#master_svg1_424_15627/424_15239)" style="mix-blend-mode:passthrough"><ellipse cx="19.578125" cy="18.04596471786499" rx="4.75" ry="4.74713659286499" fill="url(#master_svg2_348_10397)"/><ellipse cx="19.578125" cy="18.04596471786499" rx="4.71875" ry="4.71588659286499" stroke="url(#master_svg3_1_2527)" fill-opacity="0" stroke-width="0.0625" fill="none" stroke-dasharray=""/></g><path d="M18.05078125,20.609375625L20.20410125,20.609375625C20.41121125,20.609375625,20.57910125,20.441485625,20.57910125,20.234375625C20.57910125,20.027265625,20.41121125,19.859375625,20.20410125,19.859375625L18.42578125,19.859375625L18.42578125,16.228515625L20.20312125,16.228515625C20.41023125,16.228515625,20.57812125,16.060622625,20.57812125,15.853515625C20.57812125,15.646408625,20.41023125,15.478515625,20.20312125,15.478515625L18.05078125,15.478515625C17.84367425,15.478515625,17.67578125,15.646408625,17.67578125,15.853515625L17.67578125,20.234375625C17.67578125,20.441485625,17.84367425,20.609375625,18.05078125,20.609375625ZM20.14213125,17.669925625L20.59055125,17.214175625C20.65956125,17.144035625,20.69824125,17.049575625,20.69824125,16.951175625L20.69823125,16.948135625C20.69742125,16.848685625,20.65714125,16.753625625,20.58625125,16.683865625C20.51611125,16.614855625,20.42165125,16.576175625,20.32324125,16.576175625L20.32020125,16.576185625C20.22075125,16.576985625,20.12569125,16.617265625,20.05594125,16.688165625L18.97985125,17.781825625C18.91075125,17.852055625,18.87207125,17.946515625,18.87207125,18.044925625C18.87207125,18.044925625,18.87255125,18.063925625,18.87255125,18.063925625C18.87720125,18.155525625,18.91526125,18.242255625,18.97953125,18.307695625L20.05570125,19.403395625C20.12621125,19.475185625,20.22262125,19.515625625,20.32324125,19.515625625C20.32324125,19.515625625,20.33928125,19.515285625,20.33928125,19.515285625C20.43194125,19.511315625,20.51984125,19.473155625,20.58601125,19.408165625C20.65780125,19.337655625,20.69824125,19.241255625,20.69824125,19.140625625C20.69824125,19.140625625,20.69790125,19.124585625,20.69790125,19.124585625C20.69393125,19.031925625,20.65577125,18.944025625000002,20.59078125,18.877855625L20.14101125,18.419925625L22.35644125,18.419925625C22.56355125,18.419925625,22.73144125,18.252025625,22.73144125,18.044925625C22.73144125,17.837815625,22.56355125,17.669925625,22.35644125,17.669925625L20.14213125,17.669925625Z" fill-rule="evenodd" fill="#FFFFFF" fill-opacity="1"/></g></g></svg>