<svg id="图层_1" data-name="图层 1" xmlns="http://www.w3.org/2000/svg" viewBox="0 0 24 24"><defs><style>.cls-1{fill:#07c160;}.cls-2{fill:#9ce6bf;}</style></defs><path class="cls-1" d="M14.4,12.16h0c1,0,1.25-2.92,1.86-5a3.06,3.06,0,0,1,3.26-2,7.41,7.41,0,0,1,1.76.22,3.21,3.21,0,0,0-1.53,1,9.55,9.55,0,0,0-1.39,3c-.09.29-.17.58-.24.86a5.49,5.49,0,0,1-.28.78,2.45,2.45,0,0,1-1.65,1.68,1.86,1.86,0,0,1-.34.07l-.28,0a1.73,1.73,0,0,1-.28,0h.05a1.49,1.49,0,0,1-1.2-.67.63.63,0,0,0,.26.05Z"/><path class="cls-1" d="M11.67,7.76h0q0-.13.09-.24a1.67,1.67,0,0,1,1.51-1.26h0l-.09,0,.24,0a1.45,1.45,0,0,1,1.18.61.39.39,0,0,0-.19,0c-.16,0-.37.09-.53.5-.33.81-1.24,4-1.24,4s-.35,1.49-1.69,1.54h-.43c-.91,0-1.14-.48-1.14-.48a.51.51,0,0,0,.29.1.7.7,0,0,0,.5-.32,2.86,2.86,0,0,0,.29-.54v0s.41-1.39.81-2.66c.12-.42.24-.81.37-1.14Z"/><path class="cls-1" d="M14.36,7.1h0A.38.38,0,0,1,14.57,7a.43.43,0,0,1,.24.08,11.15,11.15,0,0,1,.74,2.16s-.46,2.66-1.17,2.66c-.3,0-.53-.37-.7-.8a6,6,0,0,1-.36-1.38L14,7.54a1,1,0,0,1,.35-.44Z"/><path class="cls-1" d="M8.33,7.89h0l.32,0c1.54,0,2.15,2,2.15,2a8.06,8.06,0,0,1-.56,1.77l-.09.17a.87.87,0,0,1-.31.34.35.35,0,0,1-.21.07c-.41,0-.76-.8-.91-1.91-.23-1.75-.88-2-1.19-2a.68.68,0,0,0-.17,0,2.25,2.25,0,0,1,1-.47Z"/><path class="cls-1" d="M7,5.14l5.2-.1s-5.6,2.1-6,4.6c-.32,2,2.8,3.2,2.8,3.2H6.29a9.58,9.58,0,0,1-1.7-1.6,12.18,12.18,0,0,1-1.3-2.5h1.3Z"/><path class="cls-2" d="M0,16.09H.61v1.62c0,.2,0,.33,0,.4a.35.35,0,0,0,.19.27,1.48,1.48,0,0,0,.56.07H2V19H1.32a3.42,3.42,0,0,1-.67-.05.8.8,0,0,1-.6-.6,2.7,2.7,0,0,1,0-.6Z"/><path class="cls-2" d="M2.31,16.65v-.56h.58v.56Zm0,.22h.58V19H2.31Z"/><path class="cls-2" d="M3.45,16.87H4.56a1.74,1.74,0,0,1,.38,0,.7.7,0,0,1,.24.13.83.83,0,0,1,.22.64V19H4.83V17.61a.35.35,0,0,0-.07-.23.35.35,0,0,0-.23-.07H4V19H3.45Z"/><path class="cls-2" d="M6.52,16.09V17.7l.77-.83h.64l-.81.83h.15a.49.49,0,0,1,.42.17,1.33,1.33,0,0,1,.11.63V19H7.23v-.49c0-.13,0-.22-.07-.26a.33.33,0,0,0-.25-.07H6.52V19H5.94V16.09Z"/><path class="cls-2" d="M8.69,16.09l.64,2.16.6-2.16h.68l.6,2.16.65-2.16h.63L11.56,19h-.69l-.6-2.07L9.68,19H9l-.93-2.87Z"/><path class="cls-2" d="M14.54,17.69v.45H13.32a.39.39,0,0,0,.14.29.6.6,0,0,0,.37.08h.71V19h-.77a1.58,1.58,0,0,1-.41,0,.89.89,0,0,1-.29-.15,1,1,0,0,1-.38-.88,1.09,1.09,0,0,1,.2-.67.71.71,0,0,1,.33-.27,1.24,1.24,0,0,1,.51-.08h.81v.44h-.77a.53.53,0,0,0-.33.08.49.49,0,0,0-.12.3Z"/><path class="cls-2" d="M17.2,18.45V19h-1a2.44,2.44,0,0,1-.44,0,1,1,0,0,1-.75-.59,2,2,0,0,1-.15-.81,1.73,1.73,0,0,1,.23-.93,1,1,0,0,1,.43-.39,1.81,1.81,0,0,1,.71-.12h1v.51h-.9a.76.76,0,0,0-.6.22,1,1,0,0,0-.16.66,1.07,1.07,0,0,0,.24.83.89.89,0,0,0,.54.14Z"/><path class="cls-2" d="M18.19,16.09v.78h.59a1.53,1.53,0,0,1,.41,0,.48.48,0,0,1,.25.14.8.8,0,0,1,.2.61V19h-.58V17.77a1.49,1.49,0,0,0,0-.24.19.19,0,0,0-.07-.12.46.46,0,0,0-.32-.1h-.47V19h-.58V16.09Z"/><path class="cls-2" d="M21.62,17.69a.38.38,0,0,0-.09-.3.56.56,0,0,0-.35-.08h-1v-.44h1.33a.78.78,0,0,1,.21,0c.31.12.46.41.45.86V19H21l-.45,0a.55.55,0,0,1-.47-.6.66.66,0,0,1,.1-.37.54.54,0,0,1,.27-.23,1.82,1.82,0,0,1,.49,0Zm0,.45h-.76a.21.21,0,0,0-.16.05.17.17,0,0,0-.06.14.15.15,0,0,0,.08.14.45.45,0,0,0,.24,0h.66Z"/><path class="cls-2" d="M22.89,16.87v-.78h.58v.78H24v.44h-.53v.77a.79.79,0,0,0,0,.33.3.3,0,0,0,.26.1H24V19h-.42a.68.68,0,0,1-.53-.18.89.89,0,0,1-.16-.61v-.86h-.37v-.44Z"/></svg>