<svg xmlns="http://www.w3.org/2000/svg" xmlns:xlink="http://www.w3.org/1999/xlink" fill="none" version="1.1" width="25" height="25" viewBox="0 0 25 25"><defs><filter id="master_svg1_424_15627/424_15340" filterUnits="userSpaceOnUse" color-interpolation-filters="sRGB" x="3.7802734375" y="2.166015625" width="18.748801827430725" height="5.637792229652405"><feFlood flood-opacity="0" result="BackgroundImageFix"/><feBlend mode="normal" in="SourceGraphic" in2="BackgroundImageFix" result="shape"/><feGaussianBlur in="BackgroundImage" stdDeviation="0.6539981961250305"/><feComposite in2="SourceAlpha" operator="in" result="effect1_foregroundBlur"/><feBlend mode="normal" in="SourceGraphic" in2="effect1_foregroundBlur" result="shape"/></filter><linearGradient x1="0.5" y1="0" x2="0.5" y2="1" id="master_svg2_348_10397"><stop offset="0%" stop-color="#00D695" stop-opacity="1"/><stop offset="100%" stop-color="#00D695" stop-opacity="0.10000000149011612"/></linearGradient><linearGradient x1="0.9054054021835327" y1="1.0000001192092896" x2="0.5027027130126953" y2="0.05913979187607765" id="master_svg3_1_2527"><stop offset="0%" stop-color="#FFFFFF" stop-opacity="1"/><stop offset="100%" stop-color="#FFFFFF" stop-opacity="0"/></linearGradient></defs><clipPath id="master_svg0_424_15627/424_15338"><rect x="0" y="0" width="25" height="25" rx="0"/></clipPath><g clip-path="url(#master_svg0_424_15627/424_15338)"><g><path d="M21.2210734375,3.7421156250000003L21.2210734375,3.256765625C21.2210734375,2.653915625,20.7331734375,2.166015625,20.1302734375,2.166015625L4.8711234375,2.166015625C4.2682174375,2.166015625,3.7802734375,2.653915625,3.7802734375,3.256765625L3.7802734375,3.7421156250000003C6.255763437500001,5.474035625,9.2575134375,6.495815625,12.4993934375,6.495815625C15.7412734375,6.495815625,18.7455734375,5.474035625,21.2210734375,3.7421156250000003Z" fill="#0079DE" fill-opacity="1"/><g filter="url(#master_svg1_424_15627/424_15340)" style="mix-blend-mode:passthrough"><path d="M21.2210734375,3.7421156250000003L21.2210734375,3.256765625C21.2210734375,2.653915625,20.7331734375,2.166015625,20.1302734375,2.166015625L4.8711234375,2.166015625C4.2682174375,2.166015625,3.7802734375,2.653915625,3.7802734375,3.256765625L3.7802734375,3.7421156250000003C6.255763437500001,5.474035625,9.2575134375,6.495815625,12.4993934375,6.495815625C15.7412734375,6.495815625,18.7455734375,5.474035625,21.2210734375,3.7421156250000003Z" fill="url(#master_svg2_348_10397)"/><path d="M21.2210734375,3.256765625L21.2210734375,3.7421156250000003C18.7455734375,5.474035625,15.7412734375,6.495815625,12.4993934375,6.495815625C9.2575134375,6.495815625,6.255763437500001,5.474035625,3.7802734375,3.7421156250000003L3.7802734375,3.256765625C3.7802734375,2.653915625,4.2682174375,2.166015625,4.8711234375,2.166015625L20.1302734375,2.166015625C20.7331734375,2.166015625,21.2210734375,2.653915625,21.2210734375,3.256765625ZM3.8456732375,3.708005625L3.8456732375,3.256765625Q3.8456733375,2.831719625,4.1458514375,2.5315686250000002Q4.4460314375,2.231415425,4.8711234375,2.231415425L20.1302734375,2.231415525Q20.5552734375,2.231415525,20.8554734375,2.5315686250000002Q21.1556734375,2.831714625,21.1556734375,3.256765625L21.1556734375,3.708005625Q17.247673437499998,6.430415625,12.4993934375,6.430415625Q7.7537834375,6.430415625,3.8456732375,3.708005625Z" fill-rule="evenodd" fill="url(#master_svg3_1_2527)"/></g><path d="M12.5000003125,7.4834306250000004C9.3245303125,7.4834306250000004,6.368770312500001,6.600060625,3.8575154125,5.095157065C3.8243046125,5.075581025,3.7783203125,5.097604065,3.7783203125,5.136756025L3.7783203125,22.128690625C3.7783203125,22.706190625,4.2662643125,23.173590625,4.8691703125,23.173590625L20.1283203125,23.173590625C20.7312203125,23.173590625,21.2191203125,22.706190625,21.2191203125,22.128690625L21.2191203125,5.136756025C21.2191203125,5.097604065,21.1757203125,5.075581025,21.1399203125,5.095157065C18.631220312499998,6.600060625,15.6754203125,7.4834306250000004,12.5000003125,7.4834306250000004ZM15.7700203125,14.824430625C16.3652203125,14.824430625,16.8506203125,15.286890625,16.8608203125,15.854590625C16.8685203125,16.436990625,16.3601203125,16.911690625,15.7521203125,16.911690625L13.6419403125,16.911690625C13.6138403125,16.911690625,13.5908503125,16.933790625,13.5908503125,16.960690624999998L13.5908503125,17.936990625C13.5908503125,18.519390625,13.0926903125,19.008790625,12.4846703125,18.998990624999998C11.8919903125,18.991690625,11.4091503125,18.524290625,11.4091503125,17.954190625000003L11.4091503125,16.958190625C11.4091503125,16.931290625000003,11.3861603125,16.909290625,11.358060312500001,16.909290625L9.247890312500001,16.909290625C8.6398803125,16.909290625,8.1289403125,16.432090625,8.1391603125,15.852190625C8.146820312500001,15.284490625,8.634770312499999,14.821980625,9.2300103125,14.821980625L11.358060312500001,14.821980625C11.3861603125,14.821980625,11.4091503125,14.799960625,11.4091503125,14.773040625L11.4091503125,13.826050625C11.4091503125,13.799140625,11.3861603125,13.777110625,11.358060312500001,13.777110625L9.247890312500001,13.777110625C8.6398803125,13.777110625,8.1289403125,13.299950625,8.1391603125,12.720010625C8.146820312500001,12.152300624999999,8.634770312499999,11.689820625,9.2300103125,11.689820625L9.551900312499999,11.689820625L9.5493403125,11.687370625C9.1227103125,11.278730625,9.1227103125,10.618040624999999,9.5493403125,10.211830625000001C9.7613803125,10.008730625,10.0398403125,9.905960624999999,10.320860312499999,9.905960624999999C10.601870312500001,9.905960624999999,10.8777803125,10.008730625,11.0923703125,10.211830625000001L12.4667903125,11.528320625C12.4872303125,11.547900625,12.5204403125,11.547900625,12.5383203125,11.528320625L13.9127203125,10.211830625000001C14.1248203125,10.008730625,14.4032203125,9.905960624999999,14.6842203125,9.905960624999999C14.9652203125,9.905960624999999,15.2412203125,10.008730625,15.4557203125,10.211830625000001C15.8824203125,10.620480624999999,15.8824203125,11.281170625,15.4557203125,11.687370625L15.4532203125,11.689820625L15.7546203125,11.689820625C16.362720312500002,11.689820625,16.8736203125,12.166990625,16.8634203125,12.749370625000001C16.8557203125,13.317080625,16.3678203125,13.779560625,15.7725203125,13.779560625L13.6445003125,13.779560625C13.6164003125,13.779560625,13.5934003125,13.801580625,13.5934003125,13.828500625L13.5934003125,14.775490625C13.5934003125,14.802410625,13.6164003125,14.824430625,13.6445003125,14.824430625L15.7700203125,14.824430625Z" fill="#0079DE" fill-opacity="1"/></g></g></svg>