<svg xmlns="http://www.w3.org/2000/svg" xmlns:xlink="http://www.w3.org/1999/xlink" fill="none" version="1.1" width="25" height="25" viewBox="0 0 25 25"><defs><filter id="master_svg1_424_15627/424_15402" filterUnits="userSpaceOnUse" color-interpolation-filters="sRGB" x="9.56689453125" y="4.66796875" width="15.508334040641785" height="19.31666934490204"><feFlood flood-opacity="0" result="BackgroundImageFix"/><feBlend mode="normal" in="SourceGraphic" in2="BackgroundImageFix" result="shape"/><feGaussianBlur in="BackgroundImage" stdDeviation="0.6249999403953552"/><feComposite in2="SourceAlpha" operator="in" result="effect1_foregroundBlur"/><feBlend mode="normal" in="SourceGraphic" in2="effect1_foregroundBlur" result="shape"/></filter><linearGradient x1="0.5" y1="0" x2="0.5" y2="1" id="master_svg2_348_10397"><stop offset="0%" stop-color="#00D695" stop-opacity="1"/><stop offset="100%" stop-color="#00D695" stop-opacity="0.10000000149011612"/></linearGradient><linearGradient x1="0.9054054021835327" y1="1.0000001192092896" x2="0.5027027130126953" y2="0.05913979187607765" id="master_svg3_1_2527"><stop offset="0%" stop-color="#FFFFFF" stop-opacity="1"/><stop offset="100%" stop-color="#FFFFFF" stop-opacity="0"/></linearGradient></defs><clipPath id="master_svg0_424_15627/424_15400"><rect x="0" y="0" width="25" height="25" rx="0"/></clipPath><g clip-path="url(#master_svg0_424_15627/424_15400)"><g><path d="M19.2498046875,15.36796875C19.2498046875,14.95126875,19.1081046875,14.59296875,18.8165046875,14.27629875L10.2831346875,5.75963875C9.9831346875,5.45963575,9.5664746875,5.20130175,9.066474687500001,4.98463575C8.5498046875,4.76796865,8.0914746875,4.66796875,7.6748046875,4.66796875L2.7081346875000003,4.66796875C2.2914746875,4.66796875,1.9331376875,4.82630175,1.6331376875,5.12630275C1.3331376875,5.42630275,1.1748046875,5.78463875,1.1748046875,6.20129875L1.1748046875,11.151298749999999C1.1748046875,11.56796875,1.2748046875,12.04296875,1.4914716875,12.54296875C1.7081376874999998,13.05963875,1.9498046875,13.45963875,2.2664746874999997,13.75963875L10.7998046875,22.29296875C11.0998046875,22.59296875,11.4581046875,22.72626875,11.8748046875,22.72626875C12.2915046875,22.72626875,12.6498046875,22.58466875,12.9665046875,22.29296875L18.8165046875,16.44296875C19.0915046875,16.14296875,19.2498046875,15.78466875,19.2498046875,15.36796875ZM6.0664746875,9.57629875C5.7664746875,9.87629875,5.4081346875,10.01796875,4.9914746875,10.01796875C4.5748046875,10.01796875,4.2164746875,9.87629875,3.9164746875,9.57629875C3.6164746875,9.276298749999999,3.4748046875,8.91796875,3.4748046875,8.50129875C3.4748046875,8.08463875,3.6164746875,7.72629875,3.9164746875,7.42629875C4.2164746875,7.12629875,4.5748046875,6.98463875,4.9914746875,6.98463875C5.4081346875,6.98463875,5.7664746875,7.12629875,6.0664746875,7.42629875C6.3664746875,7.72629875,6.4998046875,8.08463875,6.4998046875,8.50129875C6.5248046875,8.92629875,6.3664746875,9.276298749999999,6.0664746875,9.57629875ZM23.3915046875,14.26796875L14.8581046875,5.75963875C14.5581046875,5.45963575,14.1415046875,5.20130175,13.6415046875,4.98463575C13.1248046875,4.76796875,12.6665046875,4.66796875,12.2498046875,4.66796875L9.5664746875,4.66796875C9.9831346875,4.66796875,10.4581346875,4.76796865,10.9581346875,4.98463575C11.4748046875,5.20130175,11.8748046875,5.44296875,12.1748046875,5.75963875L20.7081046875,14.26796875C21.0081046875,14.58463875,21.1498046875,14.94296875,21.1498046875,15.35966875C21.1498046875,15.77626875,21.0081046875,16.13466875,20.7081046875,16.43466875L15.1165046875,22.04296875C15.3581046875,22.28466875,15.5748046875,22.45966875,15.7498046875,22.57626875C15.9248046875,22.69296875,16.1665046875,22.73466875,16.4498046875,22.73466875C16.8665046875,22.73466875,17.2248046875,22.59296875,17.5415046875,22.29296875L23.3915046875,16.42626875C23.6915046875,16.12626875,23.8248046875,15.76796875,23.8248046875,15.35126875C23.8248046875,14.93466875,23.6831046875,14.59296875,23.3915046875,14.26796875Z" fill="#0079DE" fill-opacity="1"/><g filter="url(#master_svg1_424_15627/424_15402)" style="mix-blend-mode:passthrough"><path d="M23.39189453125,14.26796875L14.85856453125,5.75963875C14.55856453125,5.45963575,14.14189453125,5.20130175,13.64189453125,4.98463575C13.12522453125,4.76796875,12.66689453125,4.66796875,12.25022453125,4.66796875L9.56689453125,4.66796875C9.98356153125,4.66796875,10.45856053125,4.76796865,10.95856453125,4.98463575C11.47522453125,5.20130175,11.87522453125,5.44296875,12.17522453125,5.75963875L20.70859453125,14.26796875C21.00859453125,14.58463875,21.15019453125,14.94296875,21.15019453125,15.35966875C21.15019453125,15.77626875,21.00859453125,16.13466875,20.70859453125,16.43466875L15.11689453125,22.04296875C15.35856453125,22.28466875,15.57522453125,22.45966875,15.75022453125,22.57626875C15.925224531249999,22.69296875,16.16689453125,22.73466875,16.45022453125,22.73466875C16.86689453125,22.73466875,17.22522453125,22.59296875,17.54189453125,22.29296875L23.39189453125,16.42626875C23.69189453125,16.12626875,23.82519453125,15.76796875,23.82519453125,15.35126875C23.82519453125,14.93466875,23.68359453125,14.59296875,23.39189453125,14.26796875Z" fill="url(#master_svg2_348_10397)"/><path d="M20.70859453125,14.26796875C21.00859453125,14.58463875,21.15019453125,14.94296875,21.15019453125,15.35966875C21.15019453125,15.77626875,21.00859453125,16.13466875,20.70859453125,16.43466875L15.11689453125,22.04296875L15.12938453125,22.05546875C15.14008453125,22.06606875,15.150724531249999,22.07656875,15.16132453125,22.08696875C15.38512453125,22.30596875,15.58602453125,22.46686875,15.75022453125,22.57626875C15.925224531249999,22.69296875,16.16689453125,22.73466875,16.45022453125,22.73466875C16.86689453125,22.73466875,17.22522453125,22.59296875,17.54189453125,22.29296875L23.39189453125,16.42626875C23.69189453125,16.12626875,23.82519453125,15.76796875,23.82519453125,15.35126875C23.82519453125,14.93466875,23.68359453125,14.59296875,23.39189453125,14.26796875L14.85856453125,5.75963875C14.55856453125,5.45963575,14.14189453125,5.20130175,13.64189453125,4.98463575C13.12522453125,4.76796875,12.66689453125,4.66796875,12.25022453125,4.66796875L9.56689453125,4.66796875C9.75473853125,4.66796875,9.95443753125,4.68829305,10.16293853125,4.73046875C10.41692553125,4.7818457500000005,10.68397453125,4.86564775,10.95856453125,4.98463575C11.47522453125,5.20130175,11.87522453125,5.44296875,12.17522453125,5.75963875L20.70859453125,14.26796875ZM12.21998453125,5.71599875L20.75329453125,14.22433875L20.753894531249998,14.22498875Q21.21269453125,14.70926875,21.21269453125,15.35966875Q21.21269453125,16.01886875,20.75279453125,16.47886875L15.20544453125,22.04266875Q15.51001453125,22.34106875,15.78489453125,22.52426875Q16.00665453125,22.67216875,16.45022453125,22.67216875Q17.04991453125,22.67216875,17.49762453125,22.24886875L17.498894531250002,22.24756875L23.34759453125,16.382168749999998Q23.76269453125,15.96706875,23.76269453125,15.35126875Q23.76269453125,14.77556875,23.346494531250002,14.31100875L14.81443453125,5.80389875Q14.38553453125,5.37499375,13.61704453125,5.04198275Q12.87418453125,4.73046875,12.25022453125,4.73046875L10.43355553125,4.73046875Q10.70360453125,4.80603675,10.98341453125,4.92728775Q11.79475453125,5.26752575,12.21998453125,5.71599875Z" fill-rule="evenodd" fill="url(#master_svg3_1_2527)"/></g></g></g></svg>