<svg xmlns="http://www.w3.org/2000/svg" xmlns:xlink="http://www.w3.org/1999/xlink" fill="none" version="1.1" width="24" height="24" viewBox="0 0 24 24"><defs><clipPath id="master_svg0_735_13176"><rect x="0" y="0" width="24" height="24" rx="0"/></clipPath></defs><g clip-path="url(#master_svg0_735_13176)"><g><path d="M3.8199956775665282,2.0000000129989624L16.55004567756653,2.0000000129989624C17.610545677566527,1.8476336129989623,18.51824567756653,2.7603366129989624,18.36004567756653,3.8199996129989624L18.36004567756653,20.179999612998962C18.51824567756653,21.23969961299896,17.610545677566527,22.152399612998963,16.55004567756653,21.999999612998963L3.8199956775665282,21.999999612998963C2.7587516775665284,22.150399612998964,1.8495876775665283,21.24119961299896,1.9999999775665283,20.179999612998962L1.9999999775665283,3.8199996129989624C1.8495866775665284,2.7587516129989624,2.7587516775665284,1.8495866129989624,3.8199956775665282,2.0000000129989624Z" fill="#07C160" fill-opacity="1"/></g><g><path d="M20.639994784545898,11.090000126330567C21.4339847845459,10.974695426330566,22.1153047845459,11.656010426330566,22.000004784545897,12.450000426330567L22.000004784545897,20.640000426330566C22.1153047845459,21.434010426330566,21.4339847845459,22.115310426330566,20.639994784545898,22.00001042633057C19.8452457845459,22.113410426330567,19.162425984545898,21.435610426330566,19.2699985845459,20.640000426330566L19.2699985845459,12.450000426330567C19.1624278845459,11.654437426330567,19.8452467845459,10.976603426330566,20.639994784545898,11.090000126330567Z" fill="#9CE6BF" fill-opacity="1"/></g><g><path d="M6.550000402160644,7.449999812373047L13.819999402160645,7.449999812373047C14.349069402160644,7.379416432373047,14.800579402160645,7.830929432373047,14.729999402160644,8.359999432373048C14.800579402160645,8.889069432373047,14.349069402160644,9.340579432373048,13.819999402160645,9.269999432373046L6.550000402160644,9.269999432373046C6.017794402160645,9.349979432373047,5.560025702160645,8.892209432373047,5.640000342160644,8.359999432373048C5.569417002160645,7.830929432373047,6.020930402160644,7.379416432373047,6.550000402160644,7.449999812373047Z" fill="#FFFFFF" fill-opacity="1"/></g><g><path d="M6.550000402160644,14.729999537399902L13.819999402160645,14.729999537399902C14.349069402160644,14.659417147399902,14.800579402160645,15.110930647399902,14.729999402160644,15.639999647399902C14.800579402160645,16.169067647399903,14.349069402160644,16.6205776473999,13.819999402160645,16.549997647399902L6.550000402160644,16.549997647399902C6.020930402160644,16.6205776473999,5.569417002160645,16.169067647399903,5.640000342160644,15.639999647399902C5.560024302160644,15.107793647399902,6.017794402160645,14.650023447399903,6.550000402160644,14.729999537399902Z" fill="#FFFFFF" fill-opacity="1"/></g><g><path d="M6.549999925323486,11.090000151425782L13.819998925323487,11.090000151425782C14.349068925323486,11.019416811425781,14.800578925323487,11.470930211425781,14.729998925323486,12.000000211425782C14.800578925323487,12.529069211425782,14.349068925323486,12.98057921142578,13.819998925323487,12.90999921142578L6.549999925323486,12.90999921142578C6.017794925323487,12.989979211425782,5.560024225323486,12.532209211425782,5.639999865323486,12.000000211425782C5.560024225323486,11.467794211425781,6.0177939253234864,11.010024111425782,6.549999925323486,11.090000151425782Z" fill="#FFFFFF" fill-opacity="1"/></g></g></svg>