<svg xmlns="http://www.w3.org/2000/svg" xmlns:xlink="http://www.w3.org/1999/xlink" fill="none" version="1.1" width="30.5802001953125" height="9.343937873840332" viewBox="0 0 30.5802001953125 9.343937873840332"><g style="mix-blend-mode:passthrough"><path d="M9.56115,2.65359Q10.5806,2.65359,11.1199,3.40718Q11.6568,4.15045,11.6568,5.46665Q11.6568,6.85254,11.089,7.73259Q10.5212,8.59974,9.55599,8.59974Q7.9146,8.59974,7.71072,7.03061L8.614,7.03061Q8.78175,7.84873,9.59986,7.84873Q10.1573,7.84873,10.5083,7.28095Q10.8335,6.7364,10.8335,5.93636L10.8335,5.8641L10.7948,5.8641Q10.5419,6.20992,10.196,6.37767Q9.85536,6.5351,9.43727,6.5351Q8.59335,6.5351,8.0901,5.98281Q7.59975,5.46665,7.59975,4.62015Q7.59975,3.76075,8.15978,3.21362Q8.71207,2.65359,9.56115,2.65359ZM9.63341,3.4046Q9.13274,3.4046,8.82046,3.74526Q8.51851,4.07302,8.51851,4.61241Q8.51851,5.15438,8.82046,5.46149Q9.11725,5.78409,9.63341,5.78409Q10.1418,5.78409,10.4464,5.46149Q10.738,5.12341,10.738,4.58402Q10.738,4.03431,10.4309,3.72204Q10.1186,3.4046,9.63341,3.4046ZM12.9718,4.38788Q13.2247,4.38788,13.3899,4.54789Q13.5525,4.71564,13.5525,4.9634Q13.5525,5.22148,13.3822,5.38149Q13.217,5.54408,12.9718,5.54408Q12.7421,5.54408,12.5615,5.37633Q12.3963,5.21374,12.3963,4.9634Q12.3963,4.7079,12.5615,4.54789Q12.7344,4.38788,12.9718,4.38788ZM12.9718,7.36096Q13.2247,7.36096,13.3899,7.52355Q13.5525,7.6913,13.5525,7.93647Q13.5525,8.19455,13.3822,8.35456Q13.217,8.51715,12.9718,8.51715Q12.7421,8.51715,12.5615,8.3494Q12.3963,8.18681,12.3963,7.93647Q12.3963,7.68098,12.5615,7.52355Q12.7344,7.36096,12.9718,7.36096ZM16.7309,2.73617L17.6161,2.73617L17.6161,6.5351L18.4317,6.5351L18.4317,7.28611L17.6161,7.28611L17.6161,8.51715L16.6974,8.51715L16.6974,7.28611L13.972,7.28611L13.972,6.388L16.7309,2.73617ZM16.6741,3.93882L14.723,6.5351L16.6974,6.5351L16.6974,3.93882L16.6741,3.93882Z" fill="#000000" fill-opacity="1"/><path d="M21.5868,2.73617L21.5868,8.51715L20.6681,8.51715L20.6681,3.87688Q20.1416,4.35433,19.3467,4.58144L19.3467,3.64203Q19.7261,3.54654,20.1777,3.30395Q20.6035,3.04329,20.8952,2.73617L21.5868,2.73617Z" fill="#000000" fill-opacity="1"/></g></svg>