<svg xmlns="http://www.w3.org/2000/svg" xmlns:xlink="http://www.w3.org/1999/xlink" fill="none" version="1.1" width="24" height="24" viewBox="0 0 24 24"><g style="mix-blend-mode:passthrough"><g style="mix-blend-mode:passthrough"><g><path d="M1.5999757003785,3.2000244140625C1.5999755859375,2.7581964140625,1.9581475859375,2.4000244140625,2.3999755859375,2.4000244140625L21.5999755859375,2.4000244140625C22.0417755859375,2.4000244140625,22.3999755859375,2.7581964140625,22.3999755859375,3.2000244140625L22.3999755859375,20.8000244140625C22.3999755859375,21.2418244140625,22.0417755859375,21.6000244140625,21.5999755859375,21.6000244140625L2.3999755859375,21.6000244140625C1.9581485859375,21.6000244140625,1.5999757003785,21.2418244140625,1.5999758148195,20.8000244140625L1.5999757003785,3.2000244140625Z" fill="#FFAA44" fill-opacity="1"/></g><g><path d="M3.20001243591325,6.3999755859375C3.20001243591325,5.9581475859375,3.55818420703125,5.5999755859375,4.00001220703125,5.5999755859375L20.00001220703125,5.5999755859375C20.44181220703125,5.5999755859375,20.80001220703125,5.9581475859375,20.80001220703125,6.3999755859375L20.80001220703125,20.7999755859375C20.80001220703125,21.2417755859375,20.44181220703125,21.5999755859375,20.00001220703125,21.5999755859375L4.00001220703125,21.5999755859375C3.55818420703125,21.5999755859375,3.20001243591325,21.2417755859375,3.20001220703125,20.7999755859375L3.20001243591325,6.3999755859375Z" fill="#FFFFFF" fill-opacity="1"/></g><g><path d="M11.9999755859375,11.99998779296875C13.4803755859375,11.99925779296875,14.7671755859375,10.98367779296875,15.1119755859375,9.54398779296875C15.1999755859375,9.13198779296875,15.5279755859375,8.79998779296875,15.9503755859375,8.79998779296875L21.5999755859375,8.79998779296875C22.0417755859375,8.79998687744175,22.3999755859375,9.15815979296875,22.3999755859375,9.59998779296875L22.3999755859375,20.79998779296875C22.3999755859375,21.24178779296875,22.0417755859375,21.59998779296875,21.5999755859375,21.59998779296875L2.3999755859375,21.59998779296875C1.9581485859375,21.59998779296875,1.5999757003785,21.24178779296875,1.5999758148195,20.79998779296875L1.5999758148195,9.59998779296875C1.5999757003785,9.15815979296875,1.9581475859375,8.79998687744175,2.3999755859375,8.79998779296875L8.0495755859375,8.79998779296875C8.4719755859375,8.79998779296875,8.800775585937501,9.13198779296875,8.8879755859375,9.54398779296875C9.232735585937501,10.98367779296875,10.5195855859375,11.99925779296875,11.9999755859375,11.99998779296875Z" fill="#07C160" fill-opacity="1"/></g></g></g></svg>