<svg xmlns="http://www.w3.org/2000/svg" xmlns:xlink="http://www.w3.org/1999/xlink" fill="none" version="1.1" width="16" height="16" viewBox="0 0 16 16"><defs><clipPath id="master_svg0_906_07464"><rect x="0" y="0" width="16" height="16" rx="0"/></clipPath><filter id="master_svg1_906_07476" filterUnits="objectBoundingBox" color-interpolation-filters="sRGB" x="0" y="0" width="11.5" height="9.928569793701172"><feFlood flood-opacity="0" result="BackgroundImageFix"/><feColorMatrix in="SourceAlpha" type="matrix" values="0 0 0 0 0 0 0 0 0 0 0 0 0 0 0 0 0 0 127 0"/><feOffset dy="0.5" dx="0.5"/><feGaussianBlur stdDeviation="0"/><feColorMatrix type="matrix" values="0 0 0 0 0 0 0 0 0 0 0 0 0 0 0 0 0 0 0.3019607961177826 0"/><feBlend mode="normal" in2="BackgroundImageFix" result="effect1_dropShadow"/><feBlend mode="normal" in="SourceGraphic" in2="effect1_dropShadow" result="shape"/></filter></defs><g style="mix-blend-mode:passthrough" clip-path="url(#master_svg0_906_07464)"><rect x="0" y="0" width="16" height="16" rx="0" fill="#FFFFFF" fill-opacity="1"/><g style="mix-blend-mode:passthrough"><g style="mix-blend-mode:passthrough"><rect x="0" y="0" width="16" height="16" rx="2" fill="#86909C" fill-opacity="1"/></g></g><g filter="url(#master_svg1_906_07476)"><path d="M4.0206,11.69478L3.9369899999999998,11.69478C3.049738,11.69478,2.380818,11.03978,2.5178539,10.3198C2.733859,9.183959999999999,3.294776,8.33662,4.42822,8.0871C3.7953,7.77519,3.351681,7.06951,3.351681,6.24557C3.351681,5.13441,4.1564700000000006,4.233794,5.1505600000000005,4.233794C5.24115,4.233794,5.328250000000001,4.249389,5.416510000000001,4.26368C5.22489,4.6964500000000005,5.10643,5.1786,5.10643,5.69454C5.10643,6.545780000000001,5.40489,7.34503,5.91123,7.93764C4.92875,8.49257,4.29235,9.50236,4.01479,10.95271C3.96718,11.20223,3.97415,11.45305,4.0206,11.69478ZM13.4819,10.321100000000001C13.2647,9.18526,12.7049,8.33792,11.5715,8.0884C12.20441,7.77649,12.648,7.07081,12.648,6.2468699999999995C12.648,5.1357099999999996,11.84324,4.235094,10.85032,4.235094C10.76554,4.235094,10.68309,4.2506900000000005,10.60179,4.26368C10.79457,4.69775,10.91187,5.1799,10.91187,5.69714C10.91187,6.56137,10.60644,7.36972,10.08617,7.96493C11.03613,8.527660000000001,11.68298,9.52965,11.9768,10.91892C12.03254,11.178840000000001,12.03138,11.44135,11.9826,11.69608L12.06389,11.69608C12.9511,11.69478,13.6201,11.03978,13.4819,10.321100000000001ZM9.59377,12.67857C10.20927,12.67857,10.78064,12.41085,11.0849,11.98069C11.21845,11.79225,11.36013,11.48814,11.27884,11.10346C10.95367,9.56344,10.15701,8.634229999999999,8.91208,8.343119999999999L8.32329,8.205359999999999L8.87491,7.93764C9.67622,7.55036,10.193010000000001,6.67054,10.193010000000001,5.69454C10.193010000000001,4.3468599999999995,9.21286,3.25,8.008569999999999,3.25C6.80428,3.25,5.82413,4.3468599999999995,5.82413,5.69454C5.82413,6.662739999999999,6.3374299999999995,7.54127,7.13294,7.93114L7.69037,8.205359999999999L7.09229,8.33662C5.79742,8.62123,5.02166,9.53095,4.7185500000000005,11.12035C4.64539,11.50373,4.79055,11.80654,4.925269999999999,11.99238C5.23534,12.42125,5.789289999999999,12.67727,6.40595,12.67727L9.59377,12.67727L9.59377,12.67857Z" fill="#FFFFFF" fill-opacity="1"/></g></g></svg>