<svg xmlns="http://www.w3.org/2000/svg" xmlns:xlink="http://www.w3.org/1999/xlink" fill="none" version="1.1" width="40" height="40" viewBox="0 0 40 40"><g style="mix-blend-mode:passthrough"><g style="mix-blend-mode:passthrough"><rect x="0" y="0" width="40" height="40" rx="4" fill="#2C8CF0" fill-opacity="1"/></g><g><path d="M11.52331,14.23636C10.81496,14.23636,10.21865,14.48211,9.73798,14.97362C9.25732,15.46513,9.01879,16.0651,9.01879,16.777C9.01879,17.4637,9.25732,18.052799999999998,9.73798,18.5443C10.21865,19.035800000000002,10.81496,19.2815,11.52331,19.2815C12.20997,19.2815,12.79906,19.035800000000002,13.29057,18.5443C13.78207,18.052799999999998,14.02783,17.4637,14.02783,16.777C14.02783,16.0687,13.78207,15.46513,13.29057,14.97362C12.79906,14.48572,12.20997,14.23636,11.52331,14.23636ZM26.0408,10.25732L6.99133,10.25732C6.39501,10.25732,5.914348,10.47055,5.5493310000000005,10.89339C5.184315,11.316230000000001,5,11.86194,5,12.52331L5,31.815C5,32.433,5.216841,32.9714,5.650524,33.4268C6.08421,33.8858,6.57571,34.1135,7.12505,34.1135L26.3119,34.1135C26.9516,34.1135,27.4901,33.889399999999995,27.9237,33.444900000000004C28.3574,33.0004,28.5743,32.5125,28.5743,31.9848L28.5743,13.0365C28.5743,12.2125,28.3755,11.54391,27.9743,11.02711C27.5804,10.51391,26.9335,10.25732,26.0408,10.25732ZM26.4167,18.631C25.1337,18.678,24.0314,18.8659,23.1063,19.1984C22.1811,19.530900000000003,21.3571,19.9357,20.6343,20.4163C19.915100000000002,20.897,19.2573,21.406599999999997,18.661,21.9451C18.064700000000002,22.4836,17.461199999999998,22.9859,16.8432,23.4557C16.2252,23.9256,15.5566,24.3123,14.83375,24.6231C14.11456,24.9339,13.2725,25.0857,12.31117,25.0857C11.67149,25.0857,11.07517,24.9989,10.525839999999999,24.8291C9.976510000000001,24.6592,9.47777,24.4532,9.033249999999999,24.2111C8.58872,23.9725,8.198409999999999,23.7087,7.86592,23.4232C7.53343,23.1377,7.27683,22.8919,7.09252,22.6859L7.09252,13.48103C7.09252,13.275030000000001,7.15034,13.105170000000001,7.26238,12.967839999999999C7.37803,12.8305,7.515359999999999,12.72208,7.67438,12.64257C7.83339,12.56306,7.99602,12.50524,8.15504,12.469100000000001C8.31406,12.43657,8.44055,12.4185,8.530899999999999,12.4185L24.9024,12.4185C25.4301,12.4185,25.8132,12.56306,26.0517,12.848569999999999C26.2902,13.13408,26.4131,13.4738,26.4131,13.8605L26.4131,18.631L26.4167,18.631ZM34.1218,6.96133C33.5399,6.321648,32.7665,6,31.8052,6L15.506,6C14.97832,6,14.52656,6.184315,14.15071,6.5493310000000005C13.77485,6.914348,13.5833,7.36249,13.5833,7.88652L13.5833,8.19371L26.7962,8.19371C28.2165,8.19371,29.2212,8.45754,29.8175,8.98157C30.4138,9.50922,30.7102,10.41272,30.7102,11.69209L30.7102,14.57608L32.1847,14.57608C32.4377,14.57608,32.6545,14.66643,32.8352,14.85074C33.0195,15.03506,33.109899999999996,15.2519,33.109899999999996,15.50127C33.109899999999996,15.77593,33.0195,16.0036,32.8352,16.1879C32.6509,16.3722,32.434,16.462600000000002,32.1847,16.462600000000002L30.7102,16.462600000000002L30.7102,18.898400000000002L32.1847,18.898400000000002C32.4377,18.898400000000002,32.6545,18.996000000000002,32.8352,19.191200000000002C33.0195,19.3863,33.109899999999996,19.6104,33.109899999999996,19.8598C33.109899999999996,20.1128,33.0195,20.3296,32.8352,20.5103C32.6509,20.6946,32.434,20.785,32.1847,20.785L30.7102,20.785L30.7102,23.463L32.1847,23.463C32.4377,23.463,32.6545,23.5533,32.8352,23.7376C33.0195,23.9219,33.109899999999996,24.1388,33.109899999999996,24.3881C33.109899999999996,24.6628,33.0195,24.8905,32.8352,25.0748C32.6509,25.2591,32.434,25.3495,32.1847,25.3495L30.7102,25.3495L30.7102,29.502L33.0773,29.502C33.605000000000004,29.502,34.0567,29.3177,34.4326,28.9527C34.808499999999995,28.5876,35,28.1395,35,27.6155L35,9.14781C35,8.33466,34.707300000000004,7.6010100000000005,34.1218,6.96133Z" fill="#FFFFFF" fill-opacity="1"/></g></g></svg>