<svg xmlns="http://www.w3.org/2000/svg" xmlns:xlink="http://www.w3.org/1999/xlink" fill="none" version="1.1" width="40" height="40" viewBox="0 0 40 40"><g style="mix-blend-mode:passthrough"><g style="mix-blend-mode:passthrough"><rect x="0" y="0" width="40" height="40" rx="4" fill="#D24625" fill-opacity="1"/></g><g style="mix-blend-mode:passthrough"><g><path d="M14.718213359375,15.971810340881348L12.741943359375,15.971810340881348L12.741943359375,19.26297034088135L14.665573359375,19.26297034088135C15.832133359375,19.26297034088135,16.656543359375,18.814190340881346,16.656543359375,17.62371034088135C16.656203359375,16.42127334088135,15.786673359375,15.971810340881348,14.718213359375,15.971810340881348Z" fill="#FFFFFF" fill-opacity="1"/></g><g><path d="M33.9672,9.87871C34.0625,9.16221,33.4565,8.54819,32.7388,8.63423C29.341,8.56826,25.9397,8.63423,22.5351,8.60449L22.5351,6L20.6323,6C15.75591,6.8890139999999995,10.87642,7.73838,6,8.610990000000001L6,31.3958C10.85317,32.265,15.70635,33.0946,20.5599,33.986999999999995L22.5354,33.986999999999995L22.5354,31.4287L32.0839,31.4287C32.626999999999995,31.3958,33.2265,31.4287,33.6907,31.0995C34.0629,30.5103,33.9672,29.7826,34,29.1239C33.9672,22.7197,34.0232,16.2929,33.9672,9.87871ZM14.98276,21.2691L12.7416,21.2691L12.7416,25.6222L10.21914,25.6222L10.21914,13.96523L15.04155,13.96523C17.5186,13.96523,19.1999,15.35908,19.1999,17.575C19.1999,20.107300000000002,17.282400000000003,21.2691,14.98276,21.2691ZM33.032,30.4176L22.5351,30.4176L22.5351,27.8131L30.8059,27.8131L30.8059,26.4962L22.5351,26.4962L22.5351,24.8829L30.8059,24.8829L30.8059,23.5656L22.5351,23.5656L22.5351,21.9523L30.8059,21.9523L30.8059,20.6354L22.5351,20.6354L22.5351,18.9893L30.8059,18.9893L30.8059,17.721600000000002L22.5351,17.721600000000002L22.5351,16.075499999999998L30.8059,16.075499999999998L30.8059,14.79136L22.5351,14.79136L22.5351,13.16167L30.8059,13.16167L30.8059,11.86113L22.5351,11.86113L22.5351,9.582370000000001L33.032,9.582370000000001L33.032,30.4176Z" fill="#FFFFFF" fill-opacity="1"/></g></g></g></svg>