<svg xmlns="http://www.w3.org/2000/svg" xmlns:xlink="http://www.w3.org/1999/xlink" fill="none" version="1.1" width="16" height="16" viewBox="0 0 16 16"><defs><clipPath id="master_svg0_906_07564"><rect x="0" y="0" width="16" height="16" rx="0"/></clipPath><filter id="master_svg1_906_07569" filterUnits="objectBoundingBox" color-interpolation-filters="sRGB" x="0" y="0" width="10.25" height="10.252769470214844"><feFlood flood-opacity="0" result="BackgroundImageFix"/><feColorMatrix in="SourceAlpha" type="matrix" values="0 0 0 0 0 0 0 0 0 0 0 0 0 0 0 0 0 0 127 0"/><feOffset dy="0.5" dx="0.5"/><feGaussianBlur stdDeviation="0"/><feColorMatrix type="matrix" values="0 0 0 0 0 0 0 0 0 0 0 0 0 0 0 0 0 0 0.3019607961177826 0"/><feBlend mode="normal" in2="BackgroundImageFix" result="effect1_dropShadow"/><feBlend mode="normal" in="SourceGraphic" in2="effect1_dropShadow" result="shape"/></filter></defs><g style="mix-blend-mode:passthrough" clip-path="url(#master_svg0_906_07564)"><rect x="0" y="0" width="16" height="16" rx="0" fill="#FFFFFF" fill-opacity="1"/><g style="mix-blend-mode:passthrough"><g style="mix-blend-mode:passthrough"><rect x="0" y="0" width="16" height="16" rx="2" fill="#86909C" fill-opacity="1"/></g></g><g style="mix-blend-mode:passthrough" filter="url(#master_svg1_906_07569)"><g><path d="M7.285876128311157,3.142894514440918C7.685746128311157,3.0991426144409178,8.096896128311158,3.1670976144409178,8.462956128311157,3.341174114440918C8.823986128311157,3.511876114440918,9.140386128311157,3.783579114440918,9.369056128311158,4.121260114440918C9.622726128311157,4.493150114440918,9.765696128311157,4.945800114440918,9.771496128311156,5.4021601144409175C9.779086128311157,5.795810114440918,9.686126128311157,6.190630114440918,9.504986128311156,6.535990114440918C9.307456128311157,6.914400114440918,9.006686128311157,7.232760114440918,8.647656128311157,7.445820114440918C8.301686128311157,7.652820114440918,7.902036128311157,7.760110114440918,7.503276128311157,7.755690114440918C7.193126128311157,7.753360114440918,6.883316128311157,7.684240114440918,6.599956128311157,7.552640114440918C6.260017128311157,7.395430114440918,5.958577128311157,7.148750114440918,5.731688128311157,6.841670114440918C5.514285128311157,6.548440114440918,5.365964928311157,6.199700114440918,5.306033928311157,5.834210114440918C5.232710628311157,5.392390114440918,5.285610428311157,4.927640114440917,5.461385128311157,4.518050114440918C5.619638128311157,4.142440114440918,5.877888128311158,3.814182114440918,6.197185128311157,3.574943114440918C6.515256128311157,3.334425114440918,6.895036128311157,3.184202514440918,7.285876128311157,3.142894514440918Z" fill="#FFFFFF" fill-opacity="1"/></g><g><path d="M4.754070095367432,8.681223489868165C5.288650095367432,8.218454489868163,5.930820095367432,7.8912464898681645,6.610480095367432,7.739744236868164C6.915490095367431,7.9809614898681644,7.218380095367432,8.224970489868165,7.523840095367432,8.465489489868164C7.828070095367432,8.223341489868163,8.131410095367432,7.980030489868164,8.436750095367431,7.739511489868164C8.936840095367431,7.852651489868164,9.417430095367433,8.058616489868164,9.849140095367432,8.345078489868165C9.972540095367432,8.426967489868163,9.959880095367431,8.610273489868163,9.835620095367432,8.690869489868165C9.611950095367432,8.835951489868163,9.409290095367432,9.016251489868164,9.237730095367432,9.224741489868164C8.934170095367431,9.591861489868164,8.727930095367432,10.045791489868165,8.650360095367432,10.523801489868164C8.560990095367432,11.061371489868165,8.633120095367431,11.626391489868164,8.854260095367431,12.120731489868163C8.881100095367431,12.180741489868165,8.838350095367431,12.249101489868163,8.772610095367432,12.249111489868163C7.417290095367432,12.249261489868164,6.062010095367432,12.249301489868163,4.706760095367431,12.249231489868164C3.8455880953674315,12.249181489868164,3.1226124953674317,11.541921489868164,3.3948070953674314,10.724901489868165C3.3964530953674315,10.719961489868163,3.3981060953674316,10.715031489868164,3.3997680953674316,10.710101489868164C3.6633750953674316,9.922211489868165,4.137130095367431,9.212641489868163,4.754070095367432,8.681223489868165Z" fill="#FFFFFF" fill-opacity="1"/></g><g><path d="M10.90012009536743,8.880000114440918C9.797337095367432,8.880000114440918,8.900000095367432,9.778139114440918,8.900000095367432,10.881530114440917C8.900000095367432,11.984990114440919,9.797337095367432,12.882770114440918,10.90012009536743,12.882770114440918C12.002860095367431,12.882770114440918,12.900000095367432,11.984990114440919,12.900000095367432,10.881530114440917C12.900000095367432,9.778139114440918,12.002860095367431,8.880000114440918,10.90012009536743,8.880000114440918ZM11.654350095367432,11.018890114440918L11.042300095367432,11.018890114440918L11.042300095367432,11.636680114440917C11.042300095367432,11.694480114440918,10.959930095367431,11.742130114440918,10.901730095367432,11.742130114440918C10.843520095367431,11.742130114440918,10.761270095367431,11.694480114440918,10.761270095367431,11.636680114440917L10.761270095367431,11.018890114440918L10.145490095367432,11.018890114440918C10.087480095367432,11.018890114440918,10.040160095367431,10.936440114440918,10.040160095367431,10.878270114440918C10.040160095367431,10.820110114440919,10.087440095367432,10.737500114440918,10.145490095367432,10.737500114440918L10.761270095367431,10.737500114440918L10.761270095367431,10.126650114440919C10.761270095367431,10.068130114440917,10.843520095367431,10.021000114440918,10.901730095367432,10.021000114440918C10.959930095367431,10.021000114440918,11.042300095367432,10.068130114440917,11.042300095367432,10.126650114440919L11.042300095367432,10.737540114440918L11.654350095367432,10.737540114440918C11.713080095367431,10.737540114440918,11.759880095367432,10.820150114440917,11.759880095367432,10.878310114440918C11.759880095367432,10.936440114440918,11.712760095367432,11.018890114440918,11.654350095367432,11.018890114440918Z" fill="#FFFFFF" fill-opacity="1"/></g></g></g></svg>