<svg xmlns="http://www.w3.org/2000/svg" xmlns:xlink="http://www.w3.org/1999/xlink" fill="none" version="1.1" width="400" height="400" viewBox="0 0 400 400"><g><g><rect x="0" y="0" width="400" height="399.9999694824219" rx="0" fill="#FFFFFF" fill-opacity="1"/></g><g><g><rect x="27.586212158203125" y="27.586181640625" width="11.890605926513672" height="11.890605926513672" rx="0" fill="#265626" fill-opacity="1"/></g><g><rect x="39.476806640625" y="27.586181640625" width="11.890605926513672" height="11.890605926513672" rx="0" fill="#265626" fill-opacity="1"/></g><g><rect x="51.367431640625" y="27.586181640625" width="11.890605926513672" height="11.890605926513672" rx="0" fill="#265626" fill-opacity="1"/></g><g><rect x="63.258026123046875" y="27.586181640625" width="11.890605926513672" height="11.890605926513672" rx="0" fill="#265626" fill-opacity="1"/></g><g><rect x="75.14865112304688" y="27.586181640625" width="11.890605926513672" height="11.890605926513672" rx="0" fill="#265626" fill-opacity="1"/></g><g><rect x="87.03924560546875" y="27.586181640625" width="11.890605926513672" height="11.890605926513672" rx="0" fill="#265626" fill-opacity="1"/></g><g><rect x="98.92984008789062" y="27.586181640625" width="11.890605926513672" height="11.890605926513672" rx="0" fill="#265626" fill-opacity="1"/></g><g><rect x="122.71104431152344" y="27.586181640625" width="11.890605926513672" height="11.890605926513672" rx="0" fill="#265626" fill-opacity="1"/></g><g><rect x="158.3828582763672" y="27.586181640625" width="11.890605926513672" height="11.890605926513672" rx="0" fill="#265626" fill-opacity="1"/></g><g><rect x="241.61712646484375" y="27.586181640625" width="11.890605926513672" height="11.890605926513672" rx="0" fill="#265626" fill-opacity="1"/></g><g><rect x="289.17950439453125" y="27.586181640625" width="11.890605926513672" height="11.890605926513672" rx="0" fill="#265626" fill-opacity="1"/></g><g><rect x="301.07012939453125" y="27.586181640625" width="11.890605926513672" height="11.890605926513672" rx="0" fill="#265626" fill-opacity="1"/></g><g><rect x="312.96075439453125" y="27.586181640625" width="11.890605926513672" height="11.890605926513672" rx="0" fill="#265626" fill-opacity="1"/></g><g><rect x="324.851318359375" y="27.586181640625" width="11.890605926513672" height="11.890605926513672" rx="0" fill="#265626" fill-opacity="1"/></g><g><rect x="336.7419738769531" y="27.586181640625" width="11.890605926513672" height="11.890605926513672" rx="0" fill="#265626" fill-opacity="1"/></g><g><rect x="348.632568359375" y="27.586181640625" width="11.890605926513672" height="11.890605926513672" rx="0" fill="#265626" fill-opacity="1"/></g><g><rect x="360.523193359375" y="27.586181640625" width="11.890605926513672" height="11.890605926513672" rx="0" fill="#265626" fill-opacity="1"/></g><g><rect x="27.586212158203125" y="39.476806640625" width="11.890605926513672" height="11.890605926513672" rx="0" fill="#265626" fill-opacity="1"/></g><g><rect x="98.92984008789062" y="39.476806640625" width="11.890605926513672" height="11.890605926513672" rx="0" fill="#265626" fill-opacity="1"/></g><g><rect x="134.60166931152344" y="39.476806640625" width="11.890605926513672" height="11.890605926513672" rx="0" fill="#265626" fill-opacity="1"/></g><g><rect x="146.49227905273438" y="39.476806640625" width="11.890605926513672" height="11.890605926513672" rx="0" fill="#265626" fill-opacity="1"/></g><g><rect x="158.3828582763672" y="39.476806640625" width="11.890605926513672" height="11.890605926513672" rx="0" fill="#265626" fill-opacity="1"/></g><g><rect x="170.2734832763672" y="39.476806640625" width="11.890605926513672" height="11.890605926513672" rx="0" fill="#265626" fill-opacity="1"/></g><g><rect x="217.83590698242188" y="39.476806640625" width="11.890605926513672" height="11.890605926513672" rx="0" fill="#265626" fill-opacity="1"/></g><g><rect x="241.61712646484375" y="39.476806640625" width="11.890605926513672" height="11.890605926513672" rx="0" fill="#265626" fill-opacity="1"/></g><g><rect x="253.50770568847656" y="39.476806640625" width="11.890605926513672" height="11.890605926513672" rx="0" fill="#265626" fill-opacity="1"/></g><g><rect x="289.17950439453125" y="39.476806640625" width="11.890605926513672" height="11.890605926513672" rx="0" fill="#265626" fill-opacity="1"/></g><g><rect x="360.523193359375" y="39.476806640625" width="11.890605926513672" height="11.890605926513672" rx="0" fill="#265626" fill-opacity="1"/></g><g><rect x="27.586212158203125" y="51.367431640625" width="11.890605926513672" height="11.890605926513672" rx="0" fill="#265626" fill-opacity="1"/></g><g><rect x="51.367431640625" y="51.367431640625" width="11.890605926513672" height="11.890605926513672" rx="0" fill="#265626" fill-opacity="1"/></g><g><rect x="63.258026123046875" y="51.367431640625" width="11.890605926513672" height="11.890605926513672" rx="0" fill="#265626" fill-opacity="1"/></g><g><rect x="75.14865112304688" y="51.367431640625" width="11.890605926513672" height="11.890605926513672" rx="0" fill="#265626" fill-opacity="1"/></g><g><rect x="98.92984008789062" y="51.367431640625" width="11.890605926513672" height="11.890605926513672" rx="0" fill="#265626" fill-opacity="1"/></g><g><rect x="134.60166931152344" y="51.367431640625" width="11.890605926513672" height="11.890605926513672" rx="0" fill="#265626" fill-opacity="1"/></g><g><rect x="158.3828582763672" y="51.367431640625" width="11.890605926513672" height="11.890605926513672" rx="0" fill="#265626" fill-opacity="1"/></g><g><rect x="182.16409301757812" y="51.367431640625" width="11.890605926513672" height="11.890605926513672" rx="0" fill="#265626" fill-opacity="1"/></g><g><rect x="205.94529724121094" y="51.367431640625" width="11.890605926513672" height="11.890605926513672" rx="0" fill="#265626" fill-opacity="1"/></g><g><rect x="217.83590698242188" y="51.367431640625" width="11.890605926513672" height="11.890605926513672" rx="0" fill="#265626" fill-opacity="1"/></g><g><rect x="229.7264862060547" y="51.367431640625" width="11.890605926513672" height="11.890605926513672" rx="0" fill="#265626" fill-opacity="1"/></g><g><rect x="241.61712646484375" y="51.367431640625" width="11.890605926513672" height="11.890605926513672" rx="0" fill="#265626" fill-opacity="1"/></g><g><rect x="253.50770568847656" y="51.367431640625" width="11.890605926513672" height="11.890605926513672" rx="0" fill="#265626" fill-opacity="1"/></g><g><rect x="265.3983459472656" y="51.367431640625" width="11.890605926513672" height="11.890605926513672" rx="0" fill="#265626" fill-opacity="1"/></g><g><rect x="289.17950439453125" y="51.367431640625" width="11.890605926513672" height="11.890605926513672" rx="0" fill="#265626" fill-opacity="1"/></g><g><rect x="312.96075439453125" y="51.367431640625" width="11.890605926513672" height="11.890605926513672" rx="0" fill="#265626" fill-opacity="1"/></g><g><rect x="324.851318359375" y="51.367431640625" width="11.890605926513672" height="11.890605926513672" rx="0" fill="#265626" fill-opacity="1"/></g><g><rect x="336.7419738769531" y="51.367431640625" width="11.890605926513672" height="11.890605926513672" rx="0" fill="#265626" fill-opacity="1"/></g><g><rect x="360.523193359375" y="51.367431640625" width="11.890605926513672" height="11.890605926513672" rx="0" fill="#265626" fill-opacity="1"/></g><g><rect x="27.586212158203125" y="63.2579345703125" width="11.890605926513672" height="11.890605926513672" rx="0" fill="#265626" fill-opacity="1"/></g><g><rect x="51.367431640625" y="63.2579345703125" width="11.890605926513672" height="11.890605926513672" rx="0" fill="#265626" fill-opacity="1"/></g><g><rect x="63.258026123046875" y="63.2579345703125" width="11.890605926513672" height="11.890605926513672" rx="0" fill="#265626" fill-opacity="1"/></g><g><rect x="75.14865112304688" y="63.2579345703125" width="11.890605926513672" height="11.890605926513672" rx="0" fill="#265626" fill-opacity="1"/></g><g><rect x="98.92984008789062" y="63.2579345703125" width="11.890605926513672" height="11.890605926513672" rx="0" fill="#265626" fill-opacity="1"/></g><g><rect x="122.71104431152344" y="63.2579345703125" width="11.890605926513672" height="11.890605926513672" rx="0" fill="#265626" fill-opacity="1"/></g><g><rect x="146.49227905273438" y="63.2579345703125" width="11.890605926513672" height="11.890605926513672" rx="0" fill="#265626" fill-opacity="1"/></g><g><rect x="194.05470275878906" y="63.2579345703125" width="11.890605926513672" height="11.890605926513672" rx="0" fill="#265626" fill-opacity="1"/></g><g><rect x="205.94529724121094" y="63.2579345703125" width="11.890605926513672" height="11.890605926513672" rx="0" fill="#265626" fill-opacity="1"/></g><g><rect x="217.83590698242188" y="63.2579345703125" width="11.890605926513672" height="11.890605926513672" rx="0" fill="#265626" fill-opacity="1"/></g><g><rect x="253.50770568847656" y="63.2579345703125" width="11.890605926513672" height="11.890605926513672" rx="0" fill="#265626" fill-opacity="1"/></g><g><rect x="289.17950439453125" y="63.2579345703125" width="11.890605926513672" height="11.890605926513672" rx="0" fill="#265626" fill-opacity="1"/></g><g><rect x="312.96075439453125" y="63.2579345703125" width="11.890605926513672" height="11.890605926513672" rx="0" fill="#265626" fill-opacity="1"/></g><g><rect x="324.851318359375" y="63.2579345703125" width="11.890605926513672" height="11.890605926513672" rx="0" fill="#265626" fill-opacity="1"/></g><g><rect x="336.7419738769531" y="63.2579345703125" width="11.890605926513672" height="11.890605926513672" rx="0" fill="#265626" fill-opacity="1"/></g><g><rect x="360.523193359375" y="63.2579345703125" width="11.890605926513672" height="11.890605926513672" rx="0" fill="#265626" fill-opacity="1"/></g><g><rect x="27.586212158203125" y="75.1485595703125" width="11.890605926513672" height="11.890605926513672" rx="0" fill="#265626" fill-opacity="1"/></g><g><rect x="51.367431640625" y="75.1485595703125" width="11.890605926513672" height="11.890605926513672" rx="0" fill="#265626" fill-opacity="1"/></g><g><rect x="63.258026123046875" y="75.1485595703125" width="11.890605926513672" height="11.890605926513672" rx="0" fill="#265626" fill-opacity="1"/></g><g><rect x="75.14865112304688" y="75.1485595703125" width="11.890605926513672" height="11.890605926513672" rx="0" fill="#265626" fill-opacity="1"/></g><g><rect x="98.92984008789062" y="75.1485595703125" width="11.890605926513672" height="11.890605926513672" rx="0" fill="#265626" fill-opacity="1"/></g><g><rect x="122.71104431152344" y="75.1485595703125" width="11.890605926513672" height="11.890605926513672" rx="0" fill="#265626" fill-opacity="1"/></g><g><rect x="134.60166931152344" y="75.1485595703125" width="11.890605926513672" height="11.890605926513672" rx="0" fill="#265626" fill-opacity="1"/></g><g><rect x="146.49227905273438" y="75.1485595703125" width="11.890605926513672" height="11.890605926513672" rx="0" fill="#265626" fill-opacity="1"/></g><g><rect x="170.2734832763672" y="75.1485595703125" width="11.890605926513672" height="11.890605926513672" rx="0" fill="#265626" fill-opacity="1"/></g><g><rect x="182.16409301757812" y="75.1485595703125" width="11.890605926513672" height="11.890605926513672" rx="0" fill="#265626" fill-opacity="1"/></g><g><rect x="194.05470275878906" y="75.1485595703125" width="11.890605926513672" height="11.890605926513672" rx="0" fill="#265626" fill-opacity="1"/></g><g><rect x="217.83590698242188" y="75.1485595703125" width="11.890605926513672" height="11.890605926513672" rx="0" fill="#265626" fill-opacity="1"/></g><g><rect x="229.7264862060547" y="75.1485595703125" width="11.890605926513672" height="11.890605926513672" rx="0" fill="#265626" fill-opacity="1"/></g><g><rect x="241.61712646484375" y="75.1485595703125" width="11.890605926513672" height="11.890605926513672" rx="0" fill="#265626" fill-opacity="1"/></g><g><rect x="265.3983459472656" y="75.1485595703125" width="11.890605926513672" height="11.890605926513672" rx="0" fill="#265626" fill-opacity="1"/></g><g><rect x="289.17950439453125" y="75.1485595703125" width="11.890605926513672" height="11.890605926513672" rx="0" fill="#265626" fill-opacity="1"/></g><g><rect x="312.96075439453125" y="75.1485595703125" width="11.890605926513672" height="11.890605926513672" rx="0" fill="#265626" fill-opacity="1"/></g><g><rect x="324.851318359375" y="75.1485595703125" width="11.890605926513672" height="11.890605926513672" rx="0" fill="#265626" fill-opacity="1"/></g><g><rect x="336.7419738769531" y="75.1485595703125" width="11.890605926513672" height="11.890605926513672" rx="0" fill="#265626" fill-opacity="1"/></g><g><rect x="360.523193359375" y="75.1485595703125" width="11.890605926513672" height="11.890605926513672" rx="0" fill="#265626" fill-opacity="1"/></g><g><rect x="27.586212158203125" y="87.039306640625" width="11.890605926513672" height="11.890605926513672" rx="0" fill="#265626" fill-opacity="1"/></g><g><rect x="98.92984008789062" y="87.039306640625" width="11.890605926513672" height="11.890605926513672" rx="0" fill="#265626" fill-opacity="1"/></g><g><rect x="122.71104431152344" y="87.039306640625" width="11.890605926513672" height="11.890605926513672" rx="0" fill="#265626" fill-opacity="1"/></g><g><rect x="134.60166931152344" y="87.039306640625" width="11.890605926513672" height="11.890605926513672" rx="0" fill="#265626" fill-opacity="1"/></g><g><rect x="146.49227905273438" y="87.039306640625" width="11.890605926513672" height="11.890605926513672" rx="0" fill="#265626" fill-opacity="1"/></g><g><rect x="170.2734832763672" y="87.039306640625" width="11.890605926513672" height="11.890605926513672" rx="0" fill="#265626" fill-opacity="1"/></g><g><rect x="182.16409301757812" y="87.039306640625" width="11.890605926513672" height="11.890605926513672" rx="0" fill="#265626" fill-opacity="1"/></g><g><rect x="194.05470275878906" y="87.039306640625" width="11.890605926513672" height="11.890605926513672" rx="0" fill="#265626" fill-opacity="1"/></g><g><rect x="205.94529724121094" y="87.039306640625" width="11.890605926513672" height="11.890605926513672" rx="0" fill="#265626" fill-opacity="1"/></g><g><rect x="229.7264862060547" y="87.039306640625" width="11.890605926513672" height="11.890605926513672" rx="0" fill="#265626" fill-opacity="1"/></g><g><rect x="253.50770568847656" y="87.039306640625" width="11.890605926513672" height="11.890605926513672" rx="0" fill="#265626" fill-opacity="1"/></g><g><rect x="265.3983459472656" y="87.039306640625" width="11.890605926513672" height="11.890605926513672" rx="0" fill="#265626" fill-opacity="1"/></g><g><rect x="289.17950439453125" y="87.039306640625" width="11.890605926513672" height="11.890605926513672" rx="0" fill="#265626" fill-opacity="1"/></g><g><rect x="360.523193359375" y="87.039306640625" width="11.890605926513672" height="11.890605926513672" rx="0" fill="#265626" fill-opacity="1"/></g><g><rect x="27.586212158203125" y="98.929931640625" width="11.890605926513672" height="11.890605926513672" rx="0" fill="#265626" fill-opacity="1"/></g><g><rect x="39.476806640625" y="98.929931640625" width="11.890605926513672" height="11.890605926513672" rx="0" fill="#265626" fill-opacity="1"/></g><g><rect x="51.367431640625" y="98.929931640625" width="11.890605926513672" height="11.890605926513672" rx="0" fill="#265626" fill-opacity="1"/></g><g><rect x="63.258026123046875" y="98.929931640625" width="11.890605926513672" height="11.890605926513672" rx="0" fill="#265626" fill-opacity="1"/></g><g><rect x="75.14865112304688" y="98.929931640625" width="11.890605926513672" height="11.890605926513672" rx="0" fill="#265626" fill-opacity="1"/></g><g><rect x="87.03924560546875" y="98.929931640625" width="11.890605926513672" height="11.890605926513672" rx="0" fill="#265626" fill-opacity="1"/></g><g><rect x="98.92984008789062" y="98.929931640625" width="11.890605926513672" height="11.890605926513672" rx="0" fill="#265626" fill-opacity="1"/></g><g><rect x="122.71104431152344" y="98.929931640625" width="11.890605926513672" height="11.890605926513672" rx="0" fill="#265626" fill-opacity="1"/></g><g><rect x="146.49227905273438" y="98.929931640625" width="11.890605926513672" height="11.890605926513672" rx="0" fill="#265626" fill-opacity="1"/></g><g><rect x="170.2734832763672" y="98.929931640625" width="11.890605926513672" height="11.890605926513672" rx="0" fill="#265626" fill-opacity="1"/></g><g><rect x="194.05470275878906" y="98.929931640625" width="11.890605926513672" height="11.890605926513672" rx="0" fill="#265626" fill-opacity="1"/></g><g><rect x="217.83590698242188" y="98.929931640625" width="11.890605926513672" height="11.890605926513672" rx="0" fill="#265626" fill-opacity="1"/></g><g><rect x="241.61712646484375" y="98.929931640625" width="11.890605926513672" height="11.890605926513672" rx="0" fill="#265626" fill-opacity="1"/></g><g><rect x="265.3983459472656" y="98.929931640625" width="11.890605926513672" height="11.890605926513672" rx="0" fill="#265626" fill-opacity="1"/></g><g><rect x="289.17950439453125" y="98.929931640625" width="11.890605926513672" height="11.890605926513672" rx="0" fill="#265626" fill-opacity="1"/></g><g><rect x="301.07012939453125" y="98.929931640625" width="11.890605926513672" height="11.890605926513672" rx="0" fill="#265626" fill-opacity="1"/></g><g><rect x="312.96075439453125" y="98.929931640625" width="11.890605926513672" height="11.890605926513672" rx="0" fill="#265626" fill-opacity="1"/></g><g><rect x="324.851318359375" y="98.929931640625" width="11.890605926513672" height="11.890605926513672" rx="0" fill="#265626" fill-opacity="1"/></g><g><rect x="336.7419738769531" y="98.929931640625" width="11.890605926513672" height="11.890605926513672" rx="0" fill="#265626" fill-opacity="1"/></g><g><rect x="348.632568359375" y="98.929931640625" width="11.890605926513672" height="11.890605926513672" rx="0" fill="#265626" fill-opacity="1"/></g><g><rect x="360.523193359375" y="98.929931640625" width="11.890605926513672" height="11.890605926513672" rx="0" fill="#265626" fill-opacity="1"/></g><g><rect x="122.71104431152344" y="110.8204345703125" width="11.890605926513672" height="11.890605926513672" rx="0" fill="#265626" fill-opacity="1"/></g><g><rect x="146.49227905273438" y="110.8204345703125" width="11.890605926513672" height="11.890605926513672" rx="0" fill="#265626" fill-opacity="1"/></g><g><rect x="194.05470275878906" y="110.8204345703125" width="11.890605926513672" height="11.890605926513672" rx="0" fill="#265626" fill-opacity="1"/></g><g><rect x="229.7264862060547" y="110.8204345703125" width="11.890605926513672" height="11.890605926513672" rx="0" fill="#265626" fill-opacity="1"/></g><g><rect x="241.61712646484375" y="110.8204345703125" width="11.890605926513672" height="11.890605926513672" rx="0" fill="#265626" fill-opacity="1"/></g><g><rect x="253.50770568847656" y="110.8204345703125" width="11.890605926513672" height="11.890605926513672" rx="0" fill="#265626" fill-opacity="1"/></g><g><rect x="265.3983459472656" y="110.8204345703125" width="11.890605926513672" height="11.890605926513672" rx="0" fill="#265626" fill-opacity="1"/></g><g><rect x="27.586212158203125" y="122.7110595703125" width="11.890605926513672" height="11.890605926513672" rx="0" fill="#265626" fill-opacity="1"/></g><g><rect x="75.14865112304688" y="122.7110595703125" width="11.890605926513672" height="11.890605926513672" rx="0" fill="#265626" fill-opacity="1"/></g><g><rect x="98.92984008789062" y="122.7110595703125" width="11.890605926513672" height="11.890605926513672" rx="0" fill="#265626" fill-opacity="1"/></g><g><rect x="110.82044982910156" y="122.7110595703125" width="11.890605926513672" height="11.890605926513672" rx="0" fill="#265626" fill-opacity="1"/></g><g><rect x="122.71104431152344" y="122.7110595703125" width="11.890605926513672" height="11.890605926513672" rx="0" fill="#265626" fill-opacity="1"/></g><g><rect x="158.3828582763672" y="122.7110595703125" width="11.890605926513672" height="11.890605926513672" rx="0" fill="#265626" fill-opacity="1"/></g><g><rect x="182.16409301757812" y="122.7110595703125" width="11.890605926513672" height="11.890605926513672" rx="0" fill="#265626" fill-opacity="1"/></g><g><rect x="194.05470275878906" y="122.7110595703125" width="11.890605926513672" height="11.890605926513672" rx="0" fill="#265626" fill-opacity="1"/></g><g><rect x="205.94529724121094" y="122.7110595703125" width="11.890605926513672" height="11.890605926513672" rx="0" fill="#265626" fill-opacity="1"/></g><g><rect x="217.83590698242188" y="122.7110595703125" width="11.890605926513672" height="11.890605926513672" rx="0" fill="#265626" fill-opacity="1"/></g><g><rect x="265.3983459472656" y="122.7110595703125" width="11.890605926513672" height="11.890605926513672" rx="0" fill="#265626" fill-opacity="1"/></g><g><rect x="277.2889099121094" y="122.7110595703125" width="11.890605926513672" height="11.890605926513672" rx="0" fill="#265626" fill-opacity="1"/></g><g><rect x="289.17950439453125" y="122.7110595703125" width="11.890605926513672" height="11.890605926513672" rx="0" fill="#265626" fill-opacity="1"/></g><g><rect x="301.07012939453125" y="122.7110595703125" width="11.890605926513672" height="11.890605926513672" rx="0" fill="#265626" fill-opacity="1"/></g><g><rect x="312.96075439453125" y="122.7110595703125" width="11.890605926513672" height="11.890605926513672" rx="0" fill="#265626" fill-opacity="1"/></g><g><rect x="324.851318359375" y="122.7110595703125" width="11.890605926513672" height="11.890605926513672" rx="0" fill="#265626" fill-opacity="1"/></g><g><rect x="360.523193359375" y="122.7110595703125" width="11.890605926513672" height="11.890605926513672" rx="0" fill="#265626" fill-opacity="1"/></g><g><rect x="27.586212158203125" y="134.6016845703125" width="11.890605926513672" height="11.890605926513672" rx="0" fill="#265626" fill-opacity="1"/></g><g><rect x="39.476806640625" y="134.6016845703125" width="11.890605926513672" height="11.890605926513672" rx="0" fill="#265626" fill-opacity="1"/></g><g><rect x="51.367431640625" y="134.6016845703125" width="11.890605926513672" height="11.890605926513672" rx="0" fill="#265626" fill-opacity="1"/></g><g><rect x="63.258026123046875" y="134.6016845703125" width="11.890605926513672" height="11.890605926513672" rx="0" fill="#265626" fill-opacity="1"/></g><g><rect x="122.71104431152344" y="134.6016845703125" width="11.890605926513672" height="11.890605926513672" rx="0" fill="#265626" fill-opacity="1"/></g><g><rect x="146.49227905273438" y="134.6016845703125" width="11.890605926513672" height="11.890605926513672" rx="0" fill="#265626" fill-opacity="1"/></g><g><rect x="170.2734832763672" y="134.6016845703125" width="11.890605926513672" height="11.890605926513672" rx="0" fill="#265626" fill-opacity="1"/></g><g><rect x="241.61712646484375" y="134.6016845703125" width="11.890605926513672" height="11.890605926513672" rx="0" fill="#265626" fill-opacity="1"/></g><g><rect x="289.17950439453125" y="134.6016845703125" width="11.890605926513672" height="11.890605926513672" rx="0" fill="#265626" fill-opacity="1"/></g><g><rect x="301.07012939453125" y="134.6016845703125" width="11.890605926513672" height="11.890605926513672" rx="0" fill="#265626" fill-opacity="1"/></g><g><rect x="312.96075439453125" y="134.6016845703125" width="11.890605926513672" height="11.890605926513672" rx="0" fill="#265626" fill-opacity="1"/></g><g><rect x="324.851318359375" y="134.6016845703125" width="11.890605926513672" height="11.890605926513672" rx="0" fill="#265626" fill-opacity="1"/></g><g><rect x="336.7419738769531" y="134.6016845703125" width="11.890605926513672" height="11.890605926513672" rx="0" fill="#265626" fill-opacity="1"/></g><g><rect x="348.632568359375" y="134.6016845703125" width="11.890605926513672" height="11.890605926513672" rx="0" fill="#265626" fill-opacity="1"/></g><g><rect x="360.523193359375" y="134.6016845703125" width="11.890605926513672" height="11.890605926513672" rx="0" fill="#265626" fill-opacity="1"/></g><g><rect x="39.476806640625" y="146.4923095703125" width="11.890605926513672" height="11.890605926513672" rx="0" fill="#265626" fill-opacity="1"/></g><g><rect x="63.258026123046875" y="146.4923095703125" width="11.890605926513672" height="11.890605926513672" rx="0" fill="#265626" fill-opacity="1"/></g><g><rect x="98.92984008789062" y="146.4923095703125" width="11.890605926513672" height="11.890605926513672" rx="0" fill="#265626" fill-opacity="1"/></g><g><rect x="146.49227905273438" y="146.4923095703125" width="11.890605926513672" height="11.890605926513672" rx="0" fill="#265626" fill-opacity="1"/></g><g><rect x="170.2734832763672" y="146.4923095703125" width="11.890605926513672" height="11.890605926513672" rx="0" fill="#265626" fill-opacity="1"/></g><g><rect x="182.16409301757812" y="146.4923095703125" width="11.890605926513672" height="11.890605926513672" rx="0" fill="#265626" fill-opacity="1"/></g><g><rect x="194.05470275878906" y="146.4923095703125" width="11.890605926513672" height="11.890605926513672" rx="0" fill="#265626" fill-opacity="1"/></g><g><rect x="205.94529724121094" y="146.4923095703125" width="11.890605926513672" height="11.890605926513672" rx="0" fill="#265626" fill-opacity="1"/></g><g><rect x="229.7264862060547" y="146.4923095703125" width="11.890605926513672" height="11.890605926513672" rx="0" fill="#265626" fill-opacity="1"/></g><g><rect x="265.3983459472656" y="146.4923095703125" width="11.890605926513672" height="11.890605926513672" rx="0" fill="#265626" fill-opacity="1"/></g><g><rect x="277.2889099121094" y="146.4923095703125" width="11.890605926513672" height="11.890605926513672" rx="0" fill="#265626" fill-opacity="1"/></g><g><rect x="360.523193359375" y="146.4923095703125" width="11.890605926513672" height="11.890605926513672" rx="0" fill="#265626" fill-opacity="1"/></g><g><rect x="39.476806640625" y="158.3828125" width="11.890605926513672" height="11.890605926513672" rx="0" fill="#265626" fill-opacity="1"/></g><g><rect x="51.367431640625" y="158.3828125" width="11.890605926513672" height="11.890605926513672" rx="0" fill="#265626" fill-opacity="1"/></g><g><rect x="87.03924560546875" y="158.3828125" width="11.890605926513672" height="11.890605926513672" rx="0" fill="#265626" fill-opacity="1"/></g><g><rect x="146.49227905273438" y="158.3828125" width="11.890605926513672" height="11.890605926513672" rx="0" fill="#265626" fill-opacity="1"/></g><g><rect x="182.16409301757812" y="158.3828125" width="11.890605926513672" height="11.890605926513672" rx="0" fill="#265626" fill-opacity="1"/></g><g><rect x="205.94529724121094" y="158.3828125" width="11.890605926513672" height="11.890605926513672" rx="0" fill="#265626" fill-opacity="1"/></g><g><rect x="217.83590698242188" y="158.3828125" width="11.890605926513672" height="11.890605926513672" rx="0" fill="#265626" fill-opacity="1"/></g><g><rect x="229.7264862060547" y="158.3828125" width="11.890605926513672" height="11.890605926513672" rx="0" fill="#265626" fill-opacity="1"/></g><g><rect x="241.61712646484375" y="158.3828125" width="11.890605926513672" height="11.890605926513672" rx="0" fill="#265626" fill-opacity="1"/></g><g><rect x="253.50770568847656" y="158.3828125" width="11.890605926513672" height="11.890605926513672" rx="0" fill="#265626" fill-opacity="1"/></g><g><rect x="277.2889099121094" y="158.3828125" width="11.890605926513672" height="11.890605926513672" rx="0" fill="#265626" fill-opacity="1"/></g><g><rect x="324.851318359375" y="158.3828125" width="11.890605926513672" height="11.890605926513672" rx="0" fill="#265626" fill-opacity="1"/></g><g><rect x="348.632568359375" y="158.3828125" width="11.890605926513672" height="11.890605926513672" rx="0" fill="#265626" fill-opacity="1"/></g><g><rect x="360.523193359375" y="158.3828125" width="11.890605926513672" height="11.890605926513672" rx="0" fill="#265626" fill-opacity="1"/></g><g><rect x="27.586212158203125" y="170.2734375" width="11.890605926513672" height="11.890605926513672" rx="0" fill="#265626" fill-opacity="1"/></g><g><rect x="63.258026123046875" y="170.2734375" width="11.890605926513672" height="11.890605926513672" rx="0" fill="#265626" fill-opacity="1"/></g><g><rect x="98.92984008789062" y="170.2734375" width="11.890605926513672" height="11.890605926513672" rx="0" fill="#265626" fill-opacity="1"/></g><g><rect x="122.71104431152344" y="170.2734375" width="11.890605926513672" height="11.890605926513672" rx="0" fill="#265626" fill-opacity="1"/></g><g><rect x="134.60166931152344" y="170.2734375" width="11.890605926513672" height="11.890605926513672" rx="0" fill="#265626" fill-opacity="1"/></g><g><rect x="158.3828582763672" y="170.2734375" width="11.890605926513672" height="11.890605926513672" rx="0" fill="#265626" fill-opacity="1"/></g><g><rect x="182.16409301757812" y="170.2734375" width="11.890605926513672" height="11.890605926513672" rx="0" fill="#265626" fill-opacity="1"/></g><g><rect x="253.50770568847656" y="170.2734375" width="11.890605926513672" height="11.890605926513672" rx="0" fill="#265626" fill-opacity="1"/></g><g><rect x="265.3983459472656" y="170.2734375" width="11.890605926513672" height="11.890605926513672" rx="0" fill="#265626" fill-opacity="1"/></g><g><rect x="277.2889099121094" y="170.2734375" width="11.890605926513672" height="11.890605926513672" rx="0" fill="#265626" fill-opacity="1"/></g><g><rect x="348.632568359375" y="170.2734375" width="11.890605926513672" height="11.890605926513672" rx="0" fill="#265626" fill-opacity="1"/></g><g><rect x="51.367431640625" y="182.1640625" width="11.890605926513672" height="11.890605926513672" rx="0" fill="#265626" fill-opacity="1"/></g><g><rect x="75.14865112304688" y="182.1640625" width="11.890605926513672" height="11.890605926513672" rx="0" fill="#265626" fill-opacity="1"/></g><g><rect x="87.03924560546875" y="182.1640625" width="11.890605926513672" height="11.890605926513672" rx="0" fill="#265626" fill-opacity="1"/></g><g><rect x="110.82044982910156" y="182.1640625" width="11.890605926513672" height="11.890605926513672" rx="0" fill="#265626" fill-opacity="1"/></g><g><rect x="122.71104431152344" y="182.1640625" width="11.890605926513672" height="11.890605926513672" rx="0" fill="#265626" fill-opacity="1"/></g><g><rect x="146.49227905273438" y="182.1640625" width="11.890605926513672" height="11.890605926513672" rx="0" fill="#265626" fill-opacity="1"/></g><g><rect x="182.16409301757812" y="182.1640625" width="11.890605926513672" height="11.890605926513672" rx="0" fill="#265626" fill-opacity="1"/></g><g><rect x="194.05470275878906" y="182.1640625" width="11.890605926513672" height="11.890605926513672" rx="0" fill="#265626" fill-opacity="1"/></g><g><rect x="217.83590698242188" y="182.1640625" width="11.890605926513672" height="11.890605926513672" rx="0" fill="#265626" fill-opacity="1"/></g><g><rect x="229.7264862060547" y="182.1640625" width="11.890605926513672" height="11.890605926513672" rx="0" fill="#265626" fill-opacity="1"/></g><g><rect x="241.61712646484375" y="182.1640625" width="11.890605926513672" height="11.890605926513672" rx="0" fill="#265626" fill-opacity="1"/></g><g><rect x="289.17950439453125" y="182.1640625" width="11.890605926513672" height="11.890605926513672" rx="0" fill="#265626" fill-opacity="1"/></g><g><rect x="301.07012939453125" y="182.1640625" width="11.890605926513672" height="11.890605926513672" rx="0" fill="#265626" fill-opacity="1"/></g><g><rect x="312.96075439453125" y="182.1640625" width="11.890605926513672" height="11.890605926513672" rx="0" fill="#265626" fill-opacity="1"/></g><g><rect x="324.851318359375" y="182.1640625" width="11.890605926513672" height="11.890605926513672" rx="0" fill="#265626" fill-opacity="1"/></g><g><rect x="336.7419738769531" y="182.1640625" width="11.890605926513672" height="11.890605926513672" rx="0" fill="#265626" fill-opacity="1"/></g><g><rect x="348.632568359375" y="182.1640625" width="11.890605926513672" height="11.890605926513672" rx="0" fill="#265626" fill-opacity="1"/></g><g><rect x="360.523193359375" y="182.1640625" width="11.890605926513672" height="11.890605926513672" rx="0" fill="#265626" fill-opacity="1"/></g><g><rect x="63.258026123046875" y="194.0546875" width="11.890605926513672" height="11.890605926513672" rx="0" fill="#265626" fill-opacity="1"/></g><g><rect x="75.14865112304688" y="194.0546875" width="11.890605926513672" height="11.890605926513672" rx="0" fill="#265626" fill-opacity="1"/></g><g><rect x="87.03924560546875" y="194.0546875" width="11.890605926513672" height="11.890605926513672" rx="0" fill="#265626" fill-opacity="1"/></g><g><rect x="98.92984008789062" y="194.0546875" width="11.890605926513672" height="11.890605926513672" rx="0" fill="#265626" fill-opacity="1"/></g><g><rect x="134.60166931152344" y="194.0546875" width="11.890605926513672" height="11.890605926513672" rx="0" fill="#265626" fill-opacity="1"/></g><g><rect x="217.83590698242188" y="194.0546875" width="11.890605926513672" height="11.890605926513672" rx="0" fill="#265626" fill-opacity="1"/></g><g><rect x="241.61712646484375" y="194.0546875" width="11.890605926513672" height="11.890605926513672" rx="0" fill="#265626" fill-opacity="1"/></g><g><rect x="277.2889099121094" y="194.0546875" width="11.890605926513672" height="11.890605926513672" rx="0" fill="#265626" fill-opacity="1"/></g><g><rect x="301.07012939453125" y="194.0546875" width="11.890605926513672" height="11.890605926513672" rx="0" fill="#265626" fill-opacity="1"/></g><g><rect x="324.851318359375" y="194.0546875" width="11.890605926513672" height="11.890605926513672" rx="0" fill="#265626" fill-opacity="1"/></g><g><rect x="336.7419738769531" y="194.0546875" width="11.890605926513672" height="11.890605926513672" rx="0" fill="#265626" fill-opacity="1"/></g><g><rect x="360.523193359375" y="194.0546875" width="11.890605926513672" height="11.890605926513672" rx="0" fill="#265626" fill-opacity="1"/></g><g><rect x="27.586212158203125" y="205.9451904296875" width="11.890605926513672" height="11.890605926513672" rx="0" fill="#265626" fill-opacity="1"/></g><g><rect x="39.476806640625" y="205.9451904296875" width="11.890605926513672" height="11.890605926513672" rx="0" fill="#265626" fill-opacity="1"/></g><g><rect x="110.82044982910156" y="205.9451904296875" width="11.890605926513672" height="11.890605926513672" rx="0" fill="#265626" fill-opacity="1"/></g><g><rect x="146.49227905273438" y="205.9451904296875" width="11.890605926513672" height="11.890605926513672" rx="0" fill="#265626" fill-opacity="1"/></g><g><rect x="158.3828582763672" y="205.9451904296875" width="11.890605926513672" height="11.890605926513672" rx="0" fill="#265626" fill-opacity="1"/></g><g><rect x="170.2734832763672" y="205.9451904296875" width="11.890605926513672" height="11.890605926513672" rx="0" fill="#265626" fill-opacity="1"/></g><g><rect x="194.05470275878906" y="205.9451904296875" width="11.890605926513672" height="11.890605926513672" rx="0" fill="#265626" fill-opacity="1"/></g><g><rect x="229.7264862060547" y="205.9451904296875" width="11.890605926513672" height="11.890605926513672" rx="0" fill="#265626" fill-opacity="1"/></g><g><rect x="253.50770568847656" y="205.9451904296875" width="11.890605926513672" height="11.890605926513672" rx="0" fill="#265626" fill-opacity="1"/></g><g><rect x="265.3983459472656" y="205.9451904296875" width="11.890605926513672" height="11.890605926513672" rx="0" fill="#265626" fill-opacity="1"/></g><g><rect x="277.2889099121094" y="205.9451904296875" width="11.890605926513672" height="11.890605926513672" rx="0" fill="#265626" fill-opacity="1"/></g><g><rect x="348.632568359375" y="205.9451904296875" width="11.890605926513672" height="11.890605926513672" rx="0" fill="#265626" fill-opacity="1"/></g><g><rect x="360.523193359375" y="205.9451904296875" width="11.890605926513672" height="11.890605926513672" rx="0" fill="#265626" fill-opacity="1"/></g><g><rect x="27.586212158203125" y="217.8359375" width="11.890605926513672" height="11.890605926513672" rx="0" fill="#265626" fill-opacity="1"/></g><g><rect x="51.367431640625" y="217.8359375" width="11.890605926513672" height="11.890605926513672" rx="0" fill="#265626" fill-opacity="1"/></g><g><rect x="63.258026123046875" y="217.8359375" width="11.890605926513672" height="11.890605926513672" rx="0" fill="#265626" fill-opacity="1"/></g><g><rect x="75.14865112304688" y="217.8359375" width="11.890605926513672" height="11.890605926513672" rx="0" fill="#265626" fill-opacity="1"/></g><g><rect x="98.92984008789062" y="217.8359375" width="11.890605926513672" height="11.890605926513672" rx="0" fill="#265626" fill-opacity="1"/></g><g><rect x="110.82044982910156" y="217.8359375" width="11.890605926513672" height="11.890605926513672" rx="0" fill="#265626" fill-opacity="1"/></g><g><rect x="122.71104431152344" y="217.8359375" width="11.890605926513672" height="11.890605926513672" rx="0" fill="#265626" fill-opacity="1"/></g><g><rect x="134.60166931152344" y="217.8359375" width="11.890605926513672" height="11.890605926513672" rx="0" fill="#265626" fill-opacity="1"/></g><g><rect x="146.49227905273438" y="217.8359375" width="11.890605926513672" height="11.890605926513672" rx="0" fill="#265626" fill-opacity="1"/></g><g><rect x="182.16409301757812" y="217.8359375" width="11.890605926513672" height="11.890605926513672" rx="0" fill="#265626" fill-opacity="1"/></g><g><rect x="194.05470275878906" y="217.8359375" width="11.890605926513672" height="11.890605926513672" rx="0" fill="#265626" fill-opacity="1"/></g><g><rect x="205.94529724121094" y="217.8359375" width="11.890605926513672" height="11.890605926513672" rx="0" fill="#265626" fill-opacity="1"/></g><g><rect x="229.7264862060547" y="217.8359375" width="11.890605926513672" height="11.890605926513672" rx="0" fill="#265626" fill-opacity="1"/></g><g><rect x="265.3983459472656" y="217.8359375" width="11.890605926513672" height="11.890605926513672" rx="0" fill="#265626" fill-opacity="1"/></g><g><rect x="348.632568359375" y="217.8359375" width="11.890605926513672" height="11.890605926513672" rx="0" fill="#265626" fill-opacity="1"/></g><g><rect x="27.586212158203125" y="229.7265625" width="11.890605926513672" height="11.890605926513672" rx="0" fill="#265626" fill-opacity="1"/></g><g><rect x="63.258026123046875" y="229.7265625" width="11.890605926513672" height="11.890605926513672" rx="0" fill="#265626" fill-opacity="1"/></g><g><rect x="110.82044982910156" y="229.7265625" width="11.890605926513672" height="11.890605926513672" rx="0" fill="#265626" fill-opacity="1"/></g><g><rect x="229.7264862060547" y="229.7265625" width="11.890605926513672" height="11.890605926513672" rx="0" fill="#265626" fill-opacity="1"/></g><g><rect x="241.61712646484375" y="229.7265625" width="11.890605926513672" height="11.890605926513672" rx="0" fill="#265626" fill-opacity="1"/></g><g><rect x="265.3983459472656" y="229.7265625" width="11.890605926513672" height="11.890605926513672" rx="0" fill="#265626" fill-opacity="1"/></g><g><rect x="289.17950439453125" y="229.7265625" width="11.890605926513672" height="11.890605926513672" rx="0" fill="#265626" fill-opacity="1"/></g><g><rect x="301.07012939453125" y="229.7265625" width="11.890605926513672" height="11.890605926513672" rx="0" fill="#265626" fill-opacity="1"/></g><g><rect x="312.96075439453125" y="229.7265625" width="11.890605926513672" height="11.890605926513672" rx="0" fill="#265626" fill-opacity="1"/></g><g><rect x="324.851318359375" y="229.7265625" width="11.890605926513672" height="11.890605926513672" rx="0" fill="#265626" fill-opacity="1"/></g><g><rect x="348.632568359375" y="229.7265625" width="11.890605926513672" height="11.890605926513672" rx="0" fill="#265626" fill-opacity="1"/></g><g><rect x="360.523193359375" y="229.7265625" width="11.890605926513672" height="11.890605926513672" rx="0" fill="#265626" fill-opacity="1"/></g><g><rect x="63.258026123046875" y="241.6171875" width="11.890605926513672" height="11.890605926513672" rx="0" fill="#265626" fill-opacity="1"/></g><g><rect x="75.14865112304688" y="241.6171875" width="11.890605926513672" height="11.890605926513672" rx="0" fill="#265626" fill-opacity="1"/></g><g><rect x="87.03924560546875" y="241.6171875" width="11.890605926513672" height="11.890605926513672" rx="0" fill="#265626" fill-opacity="1"/></g><g><rect x="98.92984008789062" y="241.6171875" width="11.890605926513672" height="11.890605926513672" rx="0" fill="#265626" fill-opacity="1"/></g><g><rect x="122.71104431152344" y="241.6171875" width="11.890605926513672" height="11.890605926513672" rx="0" fill="#265626" fill-opacity="1"/></g><g><rect x="158.3828582763672" y="241.6171875" width="11.890605926513672" height="11.890605926513672" rx="0" fill="#265626" fill-opacity="1"/></g><g><rect x="182.16409301757812" y="241.6171875" width="11.890605926513672" height="11.890605926513672" rx="0" fill="#265626" fill-opacity="1"/></g><g><rect x="194.05470275878906" y="241.6171875" width="11.890605926513672" height="11.890605926513672" rx="0" fill="#265626" fill-opacity="1"/></g><g><rect x="205.94529724121094" y="241.6171875" width="11.890605926513672" height="11.890605926513672" rx="0" fill="#265626" fill-opacity="1"/></g><g><rect x="241.61712646484375" y="241.6171875" width="11.890605926513672" height="11.890605926513672" rx="0" fill="#265626" fill-opacity="1"/></g><g><rect x="265.3983459472656" y="241.6171875" width="11.890605926513672" height="11.890605926513672" rx="0" fill="#265626" fill-opacity="1"/></g><g><rect x="301.07012939453125" y="241.6171875" width="11.890605926513672" height="11.890605926513672" rx="0" fill="#265626" fill-opacity="1"/></g><g><rect x="312.96075439453125" y="241.6171875" width="11.890605926513672" height="11.890605926513672" rx="0" fill="#265626" fill-opacity="1"/></g><g><rect x="336.7419738769531" y="241.6171875" width="11.890605926513672" height="11.890605926513672" rx="0" fill="#265626" fill-opacity="1"/></g><g><rect x="360.523193359375" y="241.6171875" width="11.890605926513672" height="11.890605926513672" rx="0" fill="#265626" fill-opacity="1"/></g><g><rect x="63.258026123046875" y="253.5076904296875" width="11.890605926513672" height="11.890605926513672" rx="0" fill="#265626" fill-opacity="1"/></g><g><rect x="75.14865112304688" y="253.5076904296875" width="11.890605926513672" height="11.890605926513672" rx="0" fill="#265626" fill-opacity="1"/></g><g><rect x="87.03924560546875" y="253.5076904296875" width="11.890605926513672" height="11.890605926513672" rx="0" fill="#265626" fill-opacity="1"/></g><g><rect x="122.71104431152344" y="253.5076904296875" width="11.890605926513672" height="11.890605926513672" rx="0" fill="#265626" fill-opacity="1"/></g><g><rect x="146.49227905273438" y="253.5076904296875" width="11.890605926513672" height="11.890605926513672" rx="0" fill="#265626" fill-opacity="1"/></g><g><rect x="158.3828582763672" y="253.5076904296875" width="11.890605926513672" height="11.890605926513672" rx="0" fill="#265626" fill-opacity="1"/></g><g><rect x="182.16409301757812" y="253.5076904296875" width="11.890605926513672" height="11.890605926513672" rx="0" fill="#265626" fill-opacity="1"/></g><g><rect x="229.7264862060547" y="253.5076904296875" width="11.890605926513672" height="11.890605926513672" rx="0" fill="#265626" fill-opacity="1"/></g><g><rect x="265.3983459472656" y="253.5076904296875" width="11.890605926513672" height="11.890605926513672" rx="0" fill="#265626" fill-opacity="1"/></g><g><rect x="277.2889099121094" y="253.5076904296875" width="11.890605926513672" height="11.890605926513672" rx="0" fill="#265626" fill-opacity="1"/></g><g><rect x="312.96075439453125" y="253.5076904296875" width="11.890605926513672" height="11.890605926513672" rx="0" fill="#265626" fill-opacity="1"/></g><g><rect x="348.632568359375" y="253.5076904296875" width="11.890605926513672" height="11.890605926513672" rx="0" fill="#265626" fill-opacity="1"/></g><g><rect x="360.523193359375" y="253.5076904296875" width="11.890605926513672" height="11.890605926513672" rx="0" fill="#265626" fill-opacity="1"/></g><g><rect x="27.586212158203125" y="265.3983154296875" width="11.890605926513672" height="11.890605926513672" rx="0" fill="#265626" fill-opacity="1"/></g><g><rect x="39.476806640625" y="265.3983154296875" width="11.890605926513672" height="11.890605926513672" rx="0" fill="#265626" fill-opacity="1"/></g><g><rect x="98.92984008789062" y="265.3983154296875" width="11.890605926513672" height="11.890605926513672" rx="0" fill="#265626" fill-opacity="1"/></g><g><rect x="110.82044982910156" y="265.3983154296875" width="11.890605926513672" height="11.890605926513672" rx="0" fill="#265626" fill-opacity="1"/></g><g><rect x="122.71104431152344" y="265.3983154296875" width="11.890605926513672" height="11.890605926513672" rx="0" fill="#265626" fill-opacity="1"/></g><g><rect x="134.60166931152344" y="265.3983154296875" width="11.890605926513672" height="11.890605926513672" rx="0" fill="#265626" fill-opacity="1"/></g><g><rect x="146.49227905273438" y="265.3983154296875" width="11.890605926513672" height="11.890605926513672" rx="0" fill="#265626" fill-opacity="1"/></g><g><rect x="158.3828582763672" y="265.3983154296875" width="11.890605926513672" height="11.890605926513672" rx="0" fill="#265626" fill-opacity="1"/></g><g><rect x="170.2734832763672" y="265.3983154296875" width="11.890605926513672" height="11.890605926513672" rx="0" fill="#265626" fill-opacity="1"/></g><g><rect x="182.16409301757812" y="265.3983154296875" width="11.890605926513672" height="11.890605926513672" rx="0" fill="#265626" fill-opacity="1"/></g><g><rect x="205.94529724121094" y="265.3983154296875" width="11.890605926513672" height="11.890605926513672" rx="0" fill="#265626" fill-opacity="1"/></g><g><rect x="253.50770568847656" y="265.3983154296875" width="11.890605926513672" height="11.890605926513672" rx="0" fill="#265626" fill-opacity="1"/></g><g><rect x="265.3983459472656" y="265.3983154296875" width="11.890605926513672" height="11.890605926513672" rx="0" fill="#265626" fill-opacity="1"/></g><g><rect x="277.2889099121094" y="265.3983154296875" width="11.890605926513672" height="11.890605926513672" rx="0" fill="#265626" fill-opacity="1"/></g><g><rect x="289.17950439453125" y="265.3983154296875" width="11.890605926513672" height="11.890605926513672" rx="0" fill="#265626" fill-opacity="1"/></g><g><rect x="301.07012939453125" y="265.3983154296875" width="11.890605926513672" height="11.890605926513672" rx="0" fill="#265626" fill-opacity="1"/></g><g><rect x="312.96075439453125" y="265.3983154296875" width="11.890605926513672" height="11.890605926513672" rx="0" fill="#265626" fill-opacity="1"/></g><g><rect x="324.851318359375" y="265.3983154296875" width="11.890605926513672" height="11.890605926513672" rx="0" fill="#265626" fill-opacity="1"/></g><g><rect x="360.523193359375" y="265.3983154296875" width="11.890605926513672" height="11.890605926513672" rx="0" fill="#265626" fill-opacity="1"/></g><g><rect x="122.71104431152344" y="277.2889404296875" width="11.890605926513672" height="11.890605926513672" rx="0" fill="#265626" fill-opacity="1"/></g><g><rect x="158.3828582763672" y="277.2889404296875" width="11.890605926513672" height="11.890605926513672" rx="0" fill="#265626" fill-opacity="1"/></g><g><rect x="182.16409301757812" y="277.2889404296875" width="11.890605926513672" height="11.890605926513672" rx="0" fill="#265626" fill-opacity="1"/></g><g><rect x="194.05470275878906" y="277.2889404296875" width="11.890605926513672" height="11.890605926513672" rx="0" fill="#265626" fill-opacity="1"/></g><g><rect x="205.94529724121094" y="277.2889404296875" width="11.890605926513672" height="11.890605926513672" rx="0" fill="#265626" fill-opacity="1"/></g><g><rect x="265.3983459472656" y="277.2889404296875" width="11.890605926513672" height="11.890605926513672" rx="0" fill="#265626" fill-opacity="1"/></g><g><rect x="312.96075439453125" y="277.2889404296875" width="11.890605926513672" height="11.890605926513672" rx="0" fill="#265626" fill-opacity="1"/></g><g><rect x="360.523193359375" y="277.2889404296875" width="11.890605926513672" height="11.890605926513672" rx="0" fill="#265626" fill-opacity="1"/></g><g><rect x="27.586212158203125" y="289.179443359375" width="11.890605926513672" height="11.890605926513672" rx="0" fill="#265626" fill-opacity="1"/></g><g><rect x="39.476806640625" y="289.179443359375" width="11.890605926513672" height="11.890605926513672" rx="0" fill="#265626" fill-opacity="1"/></g><g><rect x="51.367431640625" y="289.179443359375" width="11.890605926513672" height="11.890605926513672" rx="0" fill="#265626" fill-opacity="1"/></g><g><rect x="63.258026123046875" y="289.179443359375" width="11.890605926513672" height="11.890605926513672" rx="0" fill="#265626" fill-opacity="1"/></g><g><rect x="75.14865112304688" y="289.179443359375" width="11.890605926513672" height="11.890605926513672" rx="0" fill="#265626" fill-opacity="1"/></g><g><rect x="87.03924560546875" y="289.179443359375" width="11.890605926513672" height="11.890605926513672" rx="0" fill="#265626" fill-opacity="1"/></g><g><rect x="98.92984008789062" y="289.179443359375" width="11.890605926513672" height="11.890605926513672" rx="0" fill="#265626" fill-opacity="1"/></g><g><rect x="122.71104431152344" y="289.179443359375" width="11.890605926513672" height="11.890605926513672" rx="0" fill="#265626" fill-opacity="1"/></g><g><rect x="134.60166931152344" y="289.179443359375" width="11.890605926513672" height="11.890605926513672" rx="0" fill="#265626" fill-opacity="1"/></g><g><rect x="146.49227905273438" y="289.179443359375" width="11.890605926513672" height="11.890605926513672" rx="0" fill="#265626" fill-opacity="1"/></g><g><rect x="205.94529724121094" y="289.179443359375" width="11.890605926513672" height="11.890605926513672" rx="0" fill="#265626" fill-opacity="1"/></g><g><rect x="229.7264862060547" y="289.179443359375" width="11.890605926513672" height="11.890605926513672" rx="0" fill="#265626" fill-opacity="1"/></g><g><rect x="253.50770568847656" y="289.179443359375" width="11.890605926513672" height="11.890605926513672" rx="0" fill="#265626" fill-opacity="1"/></g><g><rect x="265.3983459472656" y="289.179443359375" width="11.890605926513672" height="11.890605926513672" rx="0" fill="#265626" fill-opacity="1"/></g><g><rect x="289.17950439453125" y="289.179443359375" width="11.890605926513672" height="11.890605926513672" rx="0" fill="#265626" fill-opacity="1"/></g><g><rect x="312.96075439453125" y="289.179443359375" width="11.890605926513672" height="11.890605926513672" rx="0" fill="#265626" fill-opacity="1"/></g><g><rect x="324.851318359375" y="289.179443359375" width="11.890605926513672" height="11.890605926513672" rx="0" fill="#265626" fill-opacity="1"/></g><g><rect x="336.7419738769531" y="289.179443359375" width="11.890605926513672" height="11.890605926513672" rx="0" fill="#265626" fill-opacity="1"/></g><g><rect x="360.523193359375" y="289.179443359375" width="11.890605926513672" height="11.890605926513672" rx="0" fill="#265626" fill-opacity="1"/></g><g><rect x="27.586212158203125" y="301.070068359375" width="11.890605926513672" height="11.890605926513672" rx="0" fill="#265626" fill-opacity="1"/></g><g><rect x="98.92984008789062" y="301.070068359375" width="11.890605926513672" height="11.890605926513672" rx="0" fill="#265626" fill-opacity="1"/></g><g><rect x="134.60166931152344" y="301.070068359375" width="11.890605926513672" height="11.890605926513672" rx="0" fill="#265626" fill-opacity="1"/></g><g><rect x="146.49227905273438" y="301.070068359375" width="11.890605926513672" height="11.890605926513672" rx="0" fill="#265626" fill-opacity="1"/></g><g><rect x="158.3828582763672" y="301.070068359375" width="11.890605926513672" height="11.890605926513672" rx="0" fill="#265626" fill-opacity="1"/></g><g><rect x="170.2734832763672" y="301.070068359375" width="11.890605926513672" height="11.890605926513672" rx="0" fill="#265626" fill-opacity="1"/></g><g><rect x="194.05470275878906" y="301.070068359375" width="11.890605926513672" height="11.890605926513672" rx="0" fill="#265626" fill-opacity="1"/></g><g><rect x="205.94529724121094" y="301.070068359375" width="11.890605926513672" height="11.890605926513672" rx="0" fill="#265626" fill-opacity="1"/></g><g><rect x="229.7264862060547" y="301.070068359375" width="11.890605926513672" height="11.890605926513672" rx="0" fill="#265626" fill-opacity="1"/></g><g><rect x="253.50770568847656" y="301.070068359375" width="11.890605926513672" height="11.890605926513672" rx="0" fill="#265626" fill-opacity="1"/></g><g><rect x="265.3983459472656" y="301.070068359375" width="11.890605926513672" height="11.890605926513672" rx="0" fill="#265626" fill-opacity="1"/></g><g><rect x="312.96075439453125" y="301.070068359375" width="11.890605926513672" height="11.890605926513672" rx="0" fill="#265626" fill-opacity="1"/></g><g><rect x="348.632568359375" y="301.070068359375" width="11.890605926513672" height="11.890605926513672" rx="0" fill="#265626" fill-opacity="1"/></g><g><rect x="360.523193359375" y="301.070068359375" width="11.890605926513672" height="11.890605926513672" rx="0" fill="#265626" fill-opacity="1"/></g><g><rect x="27.586212158203125" y="312.960693359375" width="11.890605926513672" height="11.890605926513672" rx="0" fill="#265626" fill-opacity="1"/></g><g><rect x="51.367431640625" y="312.960693359375" width="11.890605926513672" height="11.890605926513672" rx="0" fill="#265626" fill-opacity="1"/></g><g><rect x="63.258026123046875" y="312.960693359375" width="11.890605926513672" height="11.890605926513672" rx="0" fill="#265626" fill-opacity="1"/></g><g><rect x="75.14865112304688" y="312.960693359375" width="11.890605926513672" height="11.890605926513672" rx="0" fill="#265626" fill-opacity="1"/></g><g><rect x="98.92984008789062" y="312.960693359375" width="11.890605926513672" height="11.890605926513672" rx="0" fill="#265626" fill-opacity="1"/></g><g><rect x="122.71104431152344" y="312.960693359375" width="11.890605926513672" height="11.890605926513672" rx="0" fill="#265626" fill-opacity="1"/></g><g><rect x="134.60166931152344" y="312.960693359375" width="11.890605926513672" height="11.890605926513672" rx="0" fill="#265626" fill-opacity="1"/></g><g><rect x="146.49227905273438" y="312.960693359375" width="11.890605926513672" height="11.890605926513672" rx="0" fill="#265626" fill-opacity="1"/></g><g><rect x="158.3828582763672" y="312.960693359375" width="11.890605926513672" height="11.890605926513672" rx="0" fill="#265626" fill-opacity="1"/></g><g><rect x="170.2734832763672" y="312.960693359375" width="11.890605926513672" height="11.890605926513672" rx="0" fill="#265626" fill-opacity="1"/></g><g><rect x="182.16409301757812" y="312.960693359375" width="11.890605926513672" height="11.890605926513672" rx="0" fill="#265626" fill-opacity="1"/></g><g><rect x="194.05470275878906" y="312.960693359375" width="11.890605926513672" height="11.890605926513672" rx="0" fill="#265626" fill-opacity="1"/></g><g><rect x="229.7264862060547" y="312.960693359375" width="11.890605926513672" height="11.890605926513672" rx="0" fill="#265626" fill-opacity="1"/></g><g><rect x="253.50770568847656" y="312.960693359375" width="11.890605926513672" height="11.890605926513672" rx="0" fill="#265626" fill-opacity="1"/></g><g><rect x="265.3983459472656" y="312.960693359375" width="11.890605926513672" height="11.890605926513672" rx="0" fill="#265626" fill-opacity="1"/></g><g><rect x="277.2889099121094" y="312.960693359375" width="11.890605926513672" height="11.890605926513672" rx="0" fill="#265626" fill-opacity="1"/></g><g><rect x="289.17950439453125" y="312.960693359375" width="11.890605926513672" height="11.890605926513672" rx="0" fill="#265626" fill-opacity="1"/></g><g><rect x="301.07012939453125" y="312.960693359375" width="11.890605926513672" height="11.890605926513672" rx="0" fill="#265626" fill-opacity="1"/></g><g><rect x="312.96075439453125" y="312.960693359375" width="11.890605926513672" height="11.890605926513672" rx="0" fill="#265626" fill-opacity="1"/></g><g><rect x="324.851318359375" y="312.960693359375" width="11.890605926513672" height="11.890605926513672" rx="0" fill="#265626" fill-opacity="1"/></g><g><rect x="27.586212158203125" y="324.851318359375" width="11.890605926513672" height="11.890605926513672" rx="0" fill="#265626" fill-opacity="1"/></g><g><rect x="51.367431640625" y="324.851318359375" width="11.890605926513672" height="11.890605926513672" rx="0" fill="#265626" fill-opacity="1"/></g><g><rect x="63.258026123046875" y="324.851318359375" width="11.890605926513672" height="11.890605926513672" rx="0" fill="#265626" fill-opacity="1"/></g><g><rect x="75.14865112304688" y="324.851318359375" width="11.890605926513672" height="11.890605926513672" rx="0" fill="#265626" fill-opacity="1"/></g><g><rect x="98.92984008789062" y="324.851318359375" width="11.890605926513672" height="11.890605926513672" rx="0" fill="#265626" fill-opacity="1"/></g><g><rect x="134.60166931152344" y="324.851318359375" width="11.890605926513672" height="11.890605926513672" rx="0" fill="#265626" fill-opacity="1"/></g><g><rect x="170.2734832763672" y="324.851318359375" width="11.890605926513672" height="11.890605926513672" rx="0" fill="#265626" fill-opacity="1"/></g><g><rect x="217.83590698242188" y="324.851318359375" width="11.890605926513672" height="11.890605926513672" rx="0" fill="#265626" fill-opacity="1"/></g><g><rect x="229.7264862060547" y="324.851318359375" width="11.890605926513672" height="11.890605926513672" rx="0" fill="#265626" fill-opacity="1"/></g><g><rect x="241.61712646484375" y="324.851318359375" width="11.890605926513672" height="11.890605926513672" rx="0" fill="#265626" fill-opacity="1"/></g><g><rect x="253.50770568847656" y="324.851318359375" width="11.890605926513672" height="11.890605926513672" rx="0" fill="#265626" fill-opacity="1"/></g><g><rect x="265.3983459472656" y="324.851318359375" width="11.890605926513672" height="11.890605926513672" rx="0" fill="#265626" fill-opacity="1"/></g><g><rect x="360.523193359375" y="324.851318359375" width="11.890605926513672" height="11.890605926513672" rx="0" fill="#265626" fill-opacity="1"/></g><g><rect x="27.586212158203125" y="336.741943359375" width="11.890605926513672" height="11.890605926513672" rx="0" fill="#265626" fill-opacity="1"/></g><g><rect x="51.367431640625" y="336.741943359375" width="11.890605926513672" height="11.890605926513672" rx="0" fill="#265626" fill-opacity="1"/></g><g><rect x="63.258026123046875" y="336.741943359375" width="11.890605926513672" height="11.890605926513672" rx="0" fill="#265626" fill-opacity="1"/></g><g><rect x="75.14865112304688" y="336.741943359375" width="11.890605926513672" height="11.890605926513672" rx="0" fill="#265626" fill-opacity="1"/></g><g><rect x="98.92984008789062" y="336.741943359375" width="11.890605926513672" height="11.890605926513672" rx="0" fill="#265626" fill-opacity="1"/></g><g><rect x="134.60166931152344" y="336.741943359375" width="11.890605926513672" height="11.890605926513672" rx="0" fill="#265626" fill-opacity="1"/></g><g><rect x="146.49227905273438" y="336.741943359375" width="11.890605926513672" height="11.890605926513672" rx="0" fill="#265626" fill-opacity="1"/></g><g><rect x="205.94529724121094" y="336.741943359375" width="11.890605926513672" height="11.890605926513672" rx="0" fill="#265626" fill-opacity="1"/></g><g><rect x="241.61712646484375" y="336.741943359375" width="11.890605926513672" height="11.890605926513672" rx="0" fill="#265626" fill-opacity="1"/></g><g><rect x="265.3983459472656" y="336.741943359375" width="11.890605926513672" height="11.890605926513672" rx="0" fill="#265626" fill-opacity="1"/></g><g><rect x="324.851318359375" y="336.741943359375" width="11.890605926513672" height="11.890605926513672" rx="0" fill="#265626" fill-opacity="1"/></g><g><rect x="336.7419738769531" y="336.741943359375" width="11.890605926513672" height="11.890605926513672" rx="0" fill="#265626" fill-opacity="1"/></g><g><rect x="348.632568359375" y="336.741943359375" width="11.890605926513672" height="11.890605926513672" rx="0" fill="#265626" fill-opacity="1"/></g><g><rect x="360.523193359375" y="336.741943359375" width="11.890605926513672" height="11.890605926513672" rx="0" fill="#265626" fill-opacity="1"/></g><g><rect x="27.586212158203125" y="348.632568359375" width="11.890605926513672" height="11.890605926513672" rx="0" fill="#265626" fill-opacity="1"/></g><g><rect x="98.92984008789062" y="348.632568359375" width="11.890605926513672" height="11.890605926513672" rx="0" fill="#265626" fill-opacity="1"/></g><g><rect x="134.60166931152344" y="348.632568359375" width="11.890605926513672" height="11.890605926513672" rx="0" fill="#265626" fill-opacity="1"/></g><g><rect x="158.3828582763672" y="348.632568359375" width="11.890605926513672" height="11.890605926513672" rx="0" fill="#265626" fill-opacity="1"/></g><g><rect x="170.2734832763672" y="348.632568359375" width="11.890605926513672" height="11.890605926513672" rx="0" fill="#265626" fill-opacity="1"/></g><g><rect x="182.16409301757812" y="348.632568359375" width="11.890605926513672" height="11.890605926513672" rx="0" fill="#265626" fill-opacity="1"/></g><g><rect x="217.83590698242188" y="348.632568359375" width="11.890605926513672" height="11.890605926513672" rx="0" fill="#265626" fill-opacity="1"/></g><g><rect x="229.7264862060547" y="348.632568359375" width="11.890605926513672" height="11.890605926513672" rx="0" fill="#265626" fill-opacity="1"/></g><g><rect x="241.61712646484375" y="348.632568359375" width="11.890605926513672" height="11.890605926513672" rx="0" fill="#265626" fill-opacity="1"/></g><g><rect x="253.50770568847656" y="348.632568359375" width="11.890605926513672" height="11.890605926513672" rx="0" fill="#265626" fill-opacity="1"/></g><g><rect x="265.3983459472656" y="348.632568359375" width="11.890605926513672" height="11.890605926513672" rx="0" fill="#265626" fill-opacity="1"/></g><g><rect x="289.17950439453125" y="348.632568359375" width="11.890605926513672" height="11.890605926513672" rx="0" fill="#265626" fill-opacity="1"/></g><g><rect x="324.851318359375" y="348.632568359375" width="11.890605926513672" height="11.890605926513672" rx="0" fill="#265626" fill-opacity="1"/></g><g><rect x="348.632568359375" y="348.632568359375" width="11.890605926513672" height="11.890605926513672" rx="0" fill="#265626" fill-opacity="1"/></g><g><rect x="360.523193359375" y="348.632568359375" width="11.890605926513672" height="11.890605926513672" rx="0" fill="#265626" fill-opacity="1"/></g><g><rect x="27.586212158203125" y="360.5233154296875" width="11.890605926513672" height="11.890605926513672" rx="0" fill="#265626" fill-opacity="1"/></g><g><rect x="39.476806640625" y="360.5233154296875" width="11.890605926513672" height="11.890605926513672" rx="0" fill="#265626" fill-opacity="1"/></g><g><rect x="51.367431640625" y="360.5233154296875" width="11.890605926513672" height="11.890605926513672" rx="0" fill="#265626" fill-opacity="1"/></g><g><rect x="63.258026123046875" y="360.5233154296875" width="11.890605926513672" height="11.890605926513672" rx="0" fill="#265626" fill-opacity="1"/></g><g><rect x="75.14865112304688" y="360.5233154296875" width="11.890605926513672" height="11.890605926513672" rx="0" fill="#265626" fill-opacity="1"/></g><g><rect x="87.03924560546875" y="360.5233154296875" width="11.890605926513672" height="11.890605926513672" rx="0" fill="#265626" fill-opacity="1"/></g><g><rect x="98.92984008789062" y="360.5233154296875" width="11.890605926513672" height="11.890605926513672" rx="0" fill="#265626" fill-opacity="1"/></g><g><rect x="122.71104431152344" y="360.5233154296875" width="11.890605926513672" height="11.890605926513672" rx="0" fill="#265626" fill-opacity="1"/></g><g><rect x="134.60166931152344" y="360.5233154296875" width="11.890605926513672" height="11.890605926513672" rx="0" fill="#265626" fill-opacity="1"/></g><g><rect x="158.3828582763672" y="360.5233154296875" width="11.890605926513672" height="11.890605926513672" rx="0" fill="#265626" fill-opacity="1"/></g><g><rect x="170.2734832763672" y="360.5233154296875" width="11.890605926513672" height="11.890605926513672" rx="0" fill="#265626" fill-opacity="1"/></g><g><rect x="182.16409301757812" y="360.5233154296875" width="11.890605926513672" height="11.890605926513672" rx="0" fill="#265626" fill-opacity="1"/></g><g><rect x="194.05470275878906" y="360.5233154296875" width="11.890605926513672" height="11.890605926513672" rx="0" fill="#265626" fill-opacity="1"/></g><g><rect x="217.83590698242188" y="360.5233154296875" width="11.890605926513672" height="11.890605926513672" rx="0" fill="#265626" fill-opacity="1"/></g><g><rect x="229.7264862060547" y="360.5233154296875" width="11.890605926513672" height="11.890605926513672" rx="0" fill="#265626" fill-opacity="1"/></g><g><rect x="241.61712646484375" y="360.5233154296875" width="11.890605926513672" height="11.890605926513672" rx="0" fill="#265626" fill-opacity="1"/></g><g><rect x="253.50770568847656" y="360.5233154296875" width="11.890605926513672" height="11.890605926513672" rx="0" fill="#265626" fill-opacity="1"/></g><g><rect x="265.3983459472656" y="360.5233154296875" width="11.890605926513672" height="11.890605926513672" rx="0" fill="#265626" fill-opacity="1"/></g><g><rect x="277.2889099121094" y="360.5233154296875" width="11.890605926513672" height="11.890605926513672" rx="0" fill="#265626" fill-opacity="1"/></g><g><rect x="301.07012939453125" y="360.5233154296875" width="11.890605926513672" height="11.890605926513672" rx="0" fill="#265626" fill-opacity="1"/></g><g><rect x="312.96075439453125" y="360.5233154296875" width="11.890605926513672" height="11.890605926513672" rx="0" fill="#265626" fill-opacity="1"/></g><g><rect x="324.851318359375" y="360.5233154296875" width="11.890605926513672" height="11.890605926513672" rx="0" fill="#265626" fill-opacity="1"/></g><g><rect x="348.632568359375" y="360.5233154296875" width="11.890605926513672" height="11.890605926513672" rx="0" fill="#265626" fill-opacity="1"/></g></g></g></svg>