<svg xmlns="http://www.w3.org/2000/svg" xmlns:xlink="http://www.w3.org/1999/xlink" fill="none" version="1.1" width="9.62663459777832" height="6.04337739944458" viewBox="0 0 9.62663459777832 6.04337739944458"><g style="mix-blend-mode:passthrough"><path d="M8.49403,0L9.06033,0C9.37309,0,9.62663,0.253541,9.62663,0.566299L9.62663,5.47423C9.62663,5.78701,9.37309,6.04054,9.06033,6.04054L8.49403,6.04054C8.18128,6.04054,7.92773,5.78701,7.92773,5.47423L7.92773,0.566299C7.92773,0.253541,8.18128,0,8.49403,0ZM5.85146,1.32422L6.41776,1.32422C6.73051,1.32422,6.98406,1.57776,6.98406,1.89052L6.98406,5.47708C6.98406,5.78984,6.73051,6.04338,6.41776,6.04338L5.85146,6.04338C5.5387,6.04338,5.28516,5.78984,5.28516,5.47708L5.28516,1.89052C5.28516,1.57776,5.5387,1.32422,5.85146,1.32422ZM3.20888,2.64453L3.77518,2.64453C4.08793,2.64453,4.34148,2.89807,4.34148,3.21083L4.34148,5.47603C4.34148,5.78878,4.08793,6.04233,3.77518,6.04233L3.20888,6.04233C2.89612,6.04233,2.64258,5.78878,2.64258,5.47603L2.64258,3.21083C2.64258,2.89807,2.89612,2.64453,3.20888,2.64453ZM0.5663,3.77734L1.1326,3.77734C1.44536,3.77734,1.6989,4.03088,1.6989,4.34364L1.6989,5.47624C1.6989,5.789,1.44536,6.04254,1.1326,6.04254L0.5663,6.04254C0.253541,6.04254,0,5.789,0,5.47624L0,4.34364C0,4.03088,0.253541,3.77734,0.5663,3.77734Z" fill-rule="evenodd" fill="#000000" fill-opacity="1"/></g></svg>