<svg xmlns="http://www.w3.org/2000/svg" xmlns:xlink="http://www.w3.org/1999/xlink" fill="none" version="1.1" width="16" height="16" viewBox="0 0 16 16"><defs><clipPath id="master_svg0_906_07496"><rect x="0" y="0" width="16" height="16" rx="0"/></clipPath><filter id="master_svg1_906_07504" filterUnits="objectBoundingBox" color-interpolation-filters="sRGB" x="0" y="0" width="11" height="10.5"><feFlood flood-opacity="0" result="BackgroundImageFix"/><feColorMatrix in="SourceAlpha" type="matrix" values="0 0 0 0 0 0 0 0 0 0 0 0 0 0 0 0 0 0 127 0"/><feOffset dy="0.5" dx="0.5"/><feGaussianBlur stdDeviation="0"/><feColorMatrix type="matrix" values="0 0 0 0 0 0 0 0 0 0 0 0 0 0 0 0 0 0 0.3019607961177826 0"/><feBlend mode="normal" in2="BackgroundImageFix" result="effect1_dropShadow"/><feBlend mode="normal" in="SourceGraphic" in2="effect1_dropShadow" result="shape"/></filter></defs><g style="mix-blend-mode:passthrough" clip-path="url(#master_svg0_906_07496)"><rect x="0" y="0" width="16" height="16" rx="0" fill="#FFFFFF" fill-opacity="1"/><g style="mix-blend-mode:passthrough"><g style="mix-blend-mode:passthrough"><rect x="0" y="0" width="16" height="16" rx="2" fill="#86909C" fill-opacity="1"/></g><g filter="url(#master_svg1_906_07504)"><path d="M13.1263,5.51785C13.295,5.8962699999999995,13.2909,6.33625,13.1154,6.71111C13.0284,6.89687,12.9032,7.05938,12.74914,7.18657C12.59422,7.3145,12.41451,7.40408,12.22305,7.44882C12.03116,7.49368,11.83232,7.4927,11.64082,7.44596C11.44977,7.39944,11.27084,7.30819,11.11702,7.17883C10.964,7.0502,10.84013,6.8865099999999995,10.75463,6.6999200000000005C10.66958,6.51412,10.6253,6.31015,10.625119999999999,6.10344C10.62473,6.47026,10.486239999999999,6.82158,10.240649999999999,7.07875C9.99311,7.33798,9.659749999999999,7.48307,9.31259,7.48266C8.965440000000001,7.48307,8.63208,7.33798,8.38453,7.07875C8.1389,6.82161,8.00036,6.47028,7.99993,6.10344C7.99954,6.47026,7.86104,6.82158,7.61546,7.07875C7.36791,7.33798,7.03455,7.48307,6.6874,7.48266C6.34025,7.48307,6.006880000000001,7.33798,5.75934,7.07875C5.51375,6.82158,5.37526,6.47026,5.37487,6.10344C5.37469,6.31015,5.3304100000000005,6.51412,5.24536,6.6999200000000005C5.15986,6.8865099999999995,5.036,7.0502,4.88297,7.17883C4.72919,7.30817,4.55031,7.39942,4.3593,7.44596C4.16777,7.49272,3.96888,7.4937,3.7769399999999997,7.44882C3.585481,7.40408,3.405771,7.31449,3.250854,7.18657C3.09675,7.05939,2.971509,6.8968799999999995,2.884423,6.71111C2.7090516,6.3362,2.7050811,5.89628,2.873653,5.51785L3.291913,3.53999C3.324587,3.386352,3.405745,3.249297,3.521841,3.1517020000000002C3.6387739999999997,3.0533571,3.7834399999999997,2.9999075261,3.93243,3.00000010666L12.06743,3.00000010666C12.21685,3.00000010666,12.36157,3.0534829,12.47801,3.1517020000000002C12.59411,3.249297,12.67527,3.386352,12.70794,3.53999L13.1263,5.51785ZM12.58504,8.057929999999999C12.59096,8.09521,12.59392,8.13335,12.59392,8.17235L12.59392,12.31017C12.59372,12.49358,12.52448,12.66924,12.40168,12.79782C12.27795,12.92752,12.11126,13.0001,11.93766,13L4.06234,13C3.88873,13.0001,3.722045,12.92752,3.598305,12.79782C3.475547,12.66928,3.406302,12.49367,3.40607,12.31031L3.40607,8.17221C3.40607,8.1332,3.4093,8.09492,3.414954,8.057780000000001C3.623075,8.13378,3.8419600000000003,8.17249,4.06234,8.17221C4.54561,8.173359999999999,5.0125399999999996,7.9859,5.37487,7.64526C5.73719,7.9859,6.20412,8.173359999999999,6.6874,8.17221C7.17066,8.1734,7.63758,7.98599,7.99993,7.64541C8.36225,7.98604,8.829180000000001,8.1735,9.31246,8.17235C9.79574,8.1735,10.26266,7.98604,10.62499,7.64541C10.98732,7.98604,11.45424,8.1735,11.93752,8.17235C12.16422,8.17235,12.38217,8.13206,12.58504,8.057929999999999ZM5.5390999999999995,9.55172C5.40852,9.55172,5.283329999999999,9.606200000000001,5.19098,9.70313C5.09896,9.79957,5.047079999999999,9.93127,5.04694,10.06877L5.04694,11.1033C5.04694,11.24051,5.09876,11.37214,5.19098,11.46907C5.28382,11.56634,5.40887,11.62078,5.5390999999999995,11.62063C5.66968,11.62063,5.79488,11.56614,5.887090000000001,11.46907C5.97916,11.37266,6.03109,11.24096,6.03127,11.10344L6.03127,10.068909999999999C6.03127,9.93169,5.97944,9.80021,5.88722,9.70328C5.79438,9.606010000000001,5.66933,9.55157,5.5390999999999995,9.55172Z" fill="#FFFFFF" fill-opacity="1"/></g></g></g></svg>