<svg xmlns="http://www.w3.org/2000/svg" xmlns:xlink="http://www.w3.org/1999/xlink" fill="none" version="1.1" width="8.648763656616211" height="6.21170711517334" viewBox="0 0 8.648763656616211 6.21170711517334"><g style="mix-blend-mode:passthrough"><path d="M7.69579,2.6365C6.78637,1.77187,5.57947,1.2897,4.32461,1.28965C3.06963,1.28965,1.86261,1.77182,0.953049,2.6365C0.884606,2.70336,0.775055,2.70251,0.707654,2.63461L0.0528202,1.97393C0.0186925,1.93951,-0.000314896,1.89292,0.00000394755,1.84446C0.000322791,1.796,0.0199416,1.74966,0.0545191,1.7157C2.44153,-0.571899,6.20733,-0.571899,8.59434,1.7157C8.62888,1.74968,8.64848,1.79604,8.64876,1.8445C8.64904,1.89296,8.62996,1.93954,8.59581,1.97393L7.94117,2.63461C7.87372,2.70241,7.76426,2.70325,7.69579,2.6365ZM4.3242,3.44096C5.01367,3.44092,5.67853,3.69719,6.1896,4.15997C6.25872,4.22565,6.36761,4.22423,6.435,4.15676L7.08888,3.49608C7.12332,3.46142,7.14242,3.41442,7.14193,3.36556C7.14143,3.31671,7.12137,3.27009,7.08624,3.23615C5.52994,1.78847,3.1198,1.78847,1.56349,3.23615C1.52834,3.27009,1.50828,3.31673,1.50782,3.3656C1.50736,3.41447,1.52653,3.46148,1.56104,3.49608L2.21474,4.15676C2.28212,4.22423,2.39101,4.22565,2.46014,4.15997C2.97087,3.69749,3.6352,3.44125,4.3242,3.44096ZM5.58223,5.01781C5.6172,4.98349,5.63646,4.93625,5.63546,4.88727C5.63446,4.83828,5.61329,4.79187,5.57694,4.75901C4.85459,4.14804,3.79663,4.14804,3.07428,4.75901C3.03791,4.79185,3.0167,4.83824,3.01566,4.88723C3.01463,4.93621,3.03385,4.98346,3.0688,5.01781L4.20008,6.15928C4.23324,6.19283,4.27844,6.21171,4.32561,6.21171C4.37277,6.21171,4.41798,6.19283,4.45114,6.15928L5.58223,5.01781Z" fill-rule="evenodd" fill="#000000" fill-opacity="1"/></g></svg>