<svg xmlns="http://www.w3.org/2000/svg" xmlns:xlink="http://www.w3.org/1999/xlink" fill="none" version="1.1" width="16" height="16" viewBox="0 0 16 16"><defs><clipPath id="master_svg0_906_05455"><rect x="0" y="0" width="16" height="16" rx="0"/></clipPath><filter id="master_svg1_906_05591" filterUnits="objectBoundingBox" color-interpolation-filters="sRGB" x="0" y="0" width="9.5" height="9.5"><feFlood flood-opacity="0" result="BackgroundImageFix"/><feColorMatrix in="SourceAlpha" type="matrix" values="0 0 0 0 0 0 0 0 0 0 0 0 0 0 0 0 0 0 127 0"/><feOffset dy="0.5" dx="0.5"/><feGaussianBlur stdDeviation="0"/><feColorMatrix type="matrix" values="0 0 0 0 0 0 0 0 0 0 0 0 0 0 0 0 0 0 0.3019607961177826 0"/><feBlend mode="normal" in2="BackgroundImageFix" result="effect1_dropShadow"/><feBlend mode="normal" in="SourceGraphic" in2="effect1_dropShadow" result="shape"/></filter></defs><g style="mix-blend-mode:passthrough" clip-path="url(#master_svg0_906_05455)"><rect x="0" y="0" width="16" height="16" rx="0" fill="#FFFFFF" fill-opacity="1"/><g><path d="M2,0L14,0C15.1046,0,16,0.895431,16,2L16,14C16,15.1046,15.1046,16,14,16L2,16C0.895431,16,0,15.1046,0,14L0,2C0,0.895431,0.895431,0,2,0" fill="#86909C" fill-opacity="1"/></g><g filter="url(#master_svg1_906_05591)"><path d="M10.7,5.3L10.7,6.2L12.5,6.2L12.5,3.5L3.5,3.5L3.5,6.2L5.3,6.2L5.3,5.3L7.1,5.3L7.1,10.7L6.2,10.7L6.2,12.5L9.8,12.5L9.8,10.7L8.9,10.7L8.9,5.3L10.7,5.3Z" fill="#FFFFFF" fill-opacity="1"/></g></g></svg>