<svg xmlns="http://www.w3.org/2000/svg" xmlns:xlink="http://www.w3.org/1999/xlink" fill="none" version="1.1" width="80" height="80" viewBox="0 0 80 80"><defs><clipPath id="master_svg0_146_8846"><rect x="0" y="0" width="80" height="80" rx="8"/></clipPath></defs><g style="mix-blend-mode:passthrough" clip-path="url(#master_svg0_146_8846)"><rect x="0" y="0" width="80" height="80" rx="8" fill="#347AFF" fill-opacity="1"/><g style="mix-blend-mode:passthrough"><g><path d="M33,16C39.7655,16.00000160217,45.25,21.48451,45.25,28.25L45.25,31.75C45.25,38.5155,39.7655,44,33,44C26.2345,44,20.75,38.5155,20.75,31.75L20.75,28.25C20.75,21.48451,26.2345,16.00000320435,33,16ZM23.371499999999997,44.215199999999996C26.1268,46.3497,29.5147,47.5055,33,47.5C36.626000000000005,47.5,39.9667,46.275,42.6285,44.215199999999996C46.7062,45.964,50.2223,48.7774,52.8184,52.3431C53.6372,53.4677,54,54.8589,54,56.25C54,60.116,50.866,63.25,47,63.25L19,63.25C15.134,63.25,11.99999839783,60.116,12,56.25C12,54.8589,12.362776,53.4677,13.18157,52.3431C15.777660000000001,48.7774,19.29381,45.964,23.371499999999997,44.215199999999996Z" fill="#FFFFFF" fill-opacity="1"/></g><g style="opacity:0.5;"><path d="M60.99999237060547,49.24999237060547L66.24999237060547,49.24999237060547C67.21649237060547,49.24999237060547,67.99998237060547,50.03349337060547,68.00000237060547,50.99999237060547L68.00000237060547,54.49999237060547C67.99998237060547,55.466492370605465,67.21649237060547,56.24999237060547,66.24999237060547,56.24999237060547L60.99999237060547,56.24999237060547C60.03349337060547,56.24999237060547,59.24999237060547,55.466492370605465,59.24999237060547,54.49999237060547L59.24999237060547,50.99999237060547C59.24999237060547,50.03349337060547,60.03349337060547,49.24999237060547,60.99999237060547,49.24999237060547Z" fill="#FFFFFF" fill-opacity="1"/></g><g style="opacity:0.800000011920929;"><path d="M55.74999237060547,35.24999809265137L66.24999237060547,35.24999809265137C67.21649237060547,35.24999809265137,67.99999237060547,36.03349909265137,67.99999237060547,36.999988092651364L67.99999237060547,40.49999809265137C67.99999237060547,41.46648809265137,67.21649237060547,42.24999809265137,66.24999237060547,42.24999809265137L55.74999237060547,42.24999809265137C54.78349337060547,42.24999809265137,53.99999237060547,41.46648809265137,53.99999237060547,40.49999809265137L53.99999237060547,36.999988092651364C53.99999237060547,36.03349909265137,54.78349337060547,35.24999809265137,55.74999237060547,35.24999809265137Z" fill="#FFFFFF" fill-opacity="1"/></g><g><path d="M52.25,21.25L66.25,21.25C67.2165,21.25,68,22.033501,68,23L68,26.5C68,27.4665,67.2165,28.25,66.25,28.25L52.25,28.25C51.283501,28.25,50.5,27.4665,50.5,26.5L50.5,23C50.5,22.033502,51.283501,21.250000953674,52.25,21.25Z" fill="#FFFFFF" fill-opacity="1"/></g></g></g></svg>