<svg xmlns="http://www.w3.org/2000/svg" xmlns:xlink="http://www.w3.org/1999/xlink" fill="none" version="1.1" width="80" height="80" viewBox="0 0 80 80"><defs><clipPath id="master_svg0_146_8828"><rect x="0" y="0" width="80" height="80" rx="8"/></clipPath></defs><g style="mix-blend-mode:passthrough" clip-path="url(#master_svg0_146_8828)"><rect x="0" y="0" width="80" height="80" rx="8" fill="#347AFF" fill-opacity="1"/><g style="mix-blend-mode:passthrough"><g style="opacity:0.800000011920929;"><path d="M38.6721810546875,15.0472809C40.102581054687505,14.9146489,41.5910810546875,15.0450886,42.911381054687496,15.643029C48.556481054687495,18.09179,54.2020810546875,20.54109,59.8471810546875,22.9904C60.1447810546875,23.124679999999998,60.4560810546875,23.233739999999997,60.7322810546875,23.41186C61.3127810546875,23.76427,61.8624810546875,24.2367,62.1243810546875,24.87958C62.3995810546875,25.5411,62.3041810546875,26.3352,61.8887810546875,26.9178C61.4519810546875,27.5372,60.7953810546875,27.9712,60.1058810546875,28.2633C57.4154810546875,29.4768,54.7254810546875,30.6907,52.0350810546875,31.9036C50.9263810546875,30.263199999999998,49.4843810546875,28.848100000000002,47.815481054687496,27.781599999999997C46.149381054687495,26.711199999999998,44.2601810546875,25.9911,42.304181054687504,25.6809C40.1858810546875,25.3438,37.9924810546875,25.477,35.9339810546875,26.080399999999997C32.5419810546875,27.0598,29.5555810546875,29.3403,27.6976810546875,32.3393C24.6860310546875,30.9998,21.6771510546875,29.6538,18.6649810546875,28.316000000000003C18.0451210546875,28.1187,17.4153910546875,27.832,17.0092740546875,27.3031C16.5362934546875,26.7134,16.4732660546875,25.8535,16.7977210546875,25.1794C17.138618054687498,24.47128,17.7984910546875,23.97582,18.4863110546875,23.63109C24.3769310546875,20.97407,30.2675810546875,18.31759,36.1581810546875,15.660019C36.9462810546875,15.292266,37.8127810546875,15.133875,38.6721810546875,15.0472809Z" fill="#FFFFFF" fill-opacity="1"/></g><g><path d="M15.528336,31.860388608825684C16.08298,31.184074608825682,16.99496,30.885927508825684,17.84939,30.926484038825684C18.64354,30.989511208825682,19.36973,31.341370608825684,20.08057,31.672950608825683C22.23228,32.66002060882568,24.385080000000002,33.645990608825684,26.5368,34.63306060882569C25.2543,37.841980608825686,25.1765,41.51185060882568,26.322499999999998,44.772250608825686C27.4362,47.98395060882568,29.7265,50.764250608825684,32.658100000000005,52.48355060882568C34.4476,53.54185060882568,36.4694,54.20065060882568,38.537800000000004,54.410050608825685C38.5383,57.03965060882568,38.536699999999996,59.669250608825685,38.5383,62.298350608825686C38.5526,62.89625060882568,38.3635,63.501850608825684,37.982,63.96605060882568C37.460300000000004,64.61605060882567,36.629400000000004,64.97725060882568,35.8024,64.98445060882568L35.7448,64.98445060882568C35.126599999999996,64.96305060882568,34.5385,64.74925060882569,33.9598,64.55085060882568C28.7307,62.124050608825684,23.503239999999998,59.69445060882568,18.27524,57.26485060882568C17.40327,56.842850608825685,16.62337,56.232850608825686,15.998577000000001,55.493550608825686C15.488327,54.88405060882569,15.074537,54.156850608825685,15,53.35165060882568L15,33.32701060882568C15.0290475,32.800320608825686,15.184698,32.26924060882568,15.528336,31.860388608825684ZM59.6909,31.798456608825685C60.4725,31.430157608825684,61.2573,31.006501508825682,62.1342,30.931416408825683C62.9163,30.887023108825684,63.7411,31.124336608825683,64.31219999999999,31.677333608825684C64.7633,32.110310608825685,65.0077,32.736740608825684,64.9995,33.359350608825686C65.00059999999999,39.917500608825684,64.9995,46.475150608825686,64.9995,53.03275060882568C65.0116,53.78905060882568,64.7227,54.523450608825684,64.281,55.128550608825684C63.6162,56.04325060882569,62.6467,56.698750608825684,61.6081,57.12125060882568C56.2551,59.63855060882568,50.9044,62.160250608825685,45.553,64.68025060882567C45.122299999999996,64.87425060882569,44.6515,64.96465060882568,44.181200000000004,64.98445060882568L44.0343,64.98445060882568C43.3662,64.94655060882567,42.685,64.72955060882569,42.1939,64.25985060882569C41.7286,63.833450608825686,41.471000000000004,63.203750608825686,41.4754,62.57515060882568C41.4743,59.85345060882568,41.474900000000005,57.132250608825686,41.474900000000005,54.41055060882569C44.2969,54.12995060882568,47.0229,52.99215060882568,49.2086,51.185750608825686C51.9276,48.962250608825684,53.7927,45.720450608825686,54.3232,42.24625060882568C54.7189,39.721300608825686,54.4399,37.092780608825684,53.5071,34.711980608825684C55.5678,33.73971060882568,57.6297,32.769630608825686,59.6909,31.798456608825685Z" fill="#FFFFFF" fill-opacity="1"/></g><g><path d="M34.069748549804686,31.929438521118165C36.36230854980469,30.113148521118163,39.219888549804686,29.168832521118166,42.075388549804686,28.700237121118164C42.25678854980469,28.630633221118163,42.383388549804685,28.910146521118165,42.211288549804685,28.996740521118163C40.78138854980469,29.854468521118164,39.44028854980469,30.904008521118165,38.425788549804686,32.23854852111816C37.720488549804685,33.16324852111816,37.18810854980469,34.20785852111816,36.854468549804686,35.321968521118166C36.371078549804686,36.89656852111816,36.299288549804686,38.55500852111817,36.229128549804685,40.189918521118166C36.861048549804686,40.18551852111816,37.492988549804686,40.199718521118164,38.124388549804685,40.181118521118165C38.48988854980469,40.199718521118164,38.774388549804684,40.57631852111817,38.717888549804684,40.933018521118164C38.70148854980469,41.13861852111816,38.55788854980469,41.29701852111816,38.43778854980469,41.45321852111816C37.02272854980469,43.288118521118164,35.60816854980469,45.12361852111816,34.19415854980469,46.95961852111816C34.04179854980469,47.17391852111817,33.85107854980469,47.370118521118165,33.603348549804686,47.47151852111816C33.11392854980469,47.68851852111817,32.49296854980469,47.53181852111817,32.16905854980469,47.10481852111816C30.65036854980469,45.169118521118165,29.134968549804686,43.23111852111816,27.616824549804686,41.29481852111817C27.450212549804686,41.10241852111817,27.38718444980469,40.82011852111816,27.485836749804687,40.58171852111816C27.579007549804686,40.333518521118165,27.830570549804687,40.15701852111816,28.095833549804688,40.15531852111816C28.700348549804687,40.14991852111817,29.30541854980469,40.15531852111816,29.910478549804687,40.15321852111816C29.945558549804687,38.427308521118164,30.42730854980469,36.71734852111817,31.262558549804687,35.20906852111816C31.965178549804687,33.941388521118164,32.93470854980469,32.827718521118165,34.069748549804686,31.929438521118165Z" fill="#FFFFFF" fill-opacity="1"/></g><g style="opacity:0.5;"><path d="M46.3586796875,32.543602061401366C46.8579696875,32.27504906140137,47.5298896875,32.423027761401364,47.8719296875,32.874086061401364C49.3768296875,34.78683606140137,50.8807296875,36.70068606140137,52.3852296875,38.613436061401366C52.5173296875,38.82334606140137,52.626329687500004,39.08093606140137,52.5496296875,39.33084606140137C52.4756296875,39.624066061401365,52.1912296875,39.84877606140137,51.887029687500004,39.840556061401365C51.2945296875,39.84274606140137,50.7021296875,39.839456061401364,50.109629687500004,39.84164606140137C50.0526296875,42.08816606140137,49.2667296875,44.310066061401365,47.8993296875,46.09396606140137C46.8612596875,47.45486606140137,45.4960296875,48.54606606140136,43.9915896875,49.35166606140137C42.1018496875,50.36556606140137,40.0131796875,50.95856606140137,37.9047666875,51.30336606140136C37.7551441875,51.36086606140137,37.6241575875,51.16136606140137,37.7271934875,51.045766061401366C37.9201136875,50.90436606140137,38.1355016875,50.79856606140137,38.3360936875,50.66866606140137C39.7994296875,49.75066606140137,41.1515096875,48.59976606140137,42.1002096875,47.141866061401366C42.7732396875,46.120866061401365,43.2281296875,44.96276606140137,43.4621596875,43.76416606140137C43.724129687499996,42.46796606140137,43.7405696875,41.14001606140137,43.7383796875,39.82301606140137C43.1009796875,39.815886061401365,42.4635796875,39.83452606140137,41.8272696875,39.81424606140137C41.3499096875,39.75724606140137,41.0961496875,39.134096061401365,41.3899196875,38.756476061401365C42.8143396875,36.912236061401366,44.2486296875,35.07511606140137,45.6768896875,33.233615061401366C45.8791196875,32.981505061401364,46.0550496875,32.68609706140137,46.3586796875,32.543602061401366Z" fill="#FFFFFF" fill-opacity="1"/></g></g></g></svg>