<svg xmlns="http://www.w3.org/2000/svg" xmlns:xlink="http://www.w3.org/1999/xlink" fill="none" version="1.1" width="80" height="80" viewBox="0 0 80 80"><defs><clipPath id="master_svg0_146_8850"><rect x="0" y="0" width="80" height="80" rx="8"/></clipPath></defs><g style="mix-blend-mode:passthrough" clip-path="url(#master_svg0_146_8850)"><rect x="0" y="0" width="80" height="80" rx="8" fill="#347AFF" fill-opacity="1"/><g style="mix-blend-mode:passthrough"><g style="opacity:0.800000011920929;"><path d="M18.43066,37.9844970703125C16.86126,39.7474570703125,15.302326,42.4834370703125,15.103535,45.2194270703125C14.324067,49.9171970703125,18.03831,54.4160970703125,23.1284,57.157297070312495Q23.52074,58.7266970703125,21.76302,61.4574970703125Q20.98355,61.849797070312505,22.155369999999998,61.849797070312505C24.89658,61.849797070312505,28.024900000000002,59.5009970703125,29.589100000000002,58.3290970703125C33.6957,58.721497070312495,37.4204,57.743197070312505,40.5487,55.9802970703125C28.605600000000003,55.3943970703125,18.43066,47.3747370703125,18.43066,37.9844970703125Z" fill="#FFFFFF" fill-opacity="1"/></g><g><path d="M64.99995470733643,37.1946C64.99995470733643,27.218420000000002,55.023854707336426,19,42.30645470733643,19C29.589134707336427,19,19.607754707336426,27.02486,19.607754707336426,37.1946C19.607754707336426,46.7836,29.583904707336426,55.002,41.90895470733643,55.002C43.865454707336426,56.9585,49.54145470733643,61.0651,53.846854707336426,61.0651Q55.803354707336425,61.4575,55.018654707336424,60.2857Q51.497954707336426,55.9855,52.277454707336425,53.4378C59.909954707336425,50.3095,64.99995470733643,44.2464,64.99995470733643,37.1946ZM34.135154707336426,43.4722C33.46555470733642,43.4722,32.87965470733643,43.4042,32.38265470733643,43.2629C31.88565470733643,43.121700000000004,31.461954707336425,42.9386,31.121954707336428,42.7136C30.776654707336426,42.4834,30.520354707336423,42.2271,30.347654707336424,41.9394C30.175054707336425,41.651700000000005,30.091354707336425,41.3639,30.091354707336425,41.071C30.091354707336425,40.7257,30.269154707336426,40.448499999999996,30.630154707336423,40.2392C30.991154707336428,40.024699999999996,31.388754707336425,39.831199999999995,31.817654707336423,39.6481C32.25185470733643,39.4702,32.649454707336425,39.2819,33.00515470733642,39.0831C33.36615470733643,38.884299999999996,33.54405470733643,38.6332,33.54405470733643,38.3245C33.54405470733643,38.0159,33.444654707336426,37.7282,33.25105470733642,37.4666C33.052254707336424,37.205,32.83775470733643,36.906800000000004,32.602354707336424,36.572C32.366954707336426,36.2372,32.14725470733643,35.844899999999996,31.953654707336426,35.394999999999996C31.754854707336428,34.9451,31.660754707336427,34.3696,31.660754707336427,33.663399999999996C31.660754707336427,33.156,31.713054707336426,32.6642,31.817654707336423,32.1934C31.92225470733643,31.7226,32.08445470733643,31.3041,32.293754707336426,30.9431C32.50825470733643,30.5822,32.77505470733642,30.2997,33.104554707336426,30.0852C33.434154707336425,29.8707,33.81605470733643,29.7661,34.255454707336426,29.7661C34.84665470733643,29.7661,35.333154707336426,29.8655,35.725454707336425,30.058999999999997C35.62605470733642,30.650199999999998,35.57895470733642,31.2622,35.57895470733642,31.9005C35.57895470733642,32.931,35.662754707336425,33.8047,35.83535470733642,34.5266C36.007954707336424,35.2485,36.222454707336425,35.8658,36.484054707336426,36.3889C36.23815470733643,36.7185,36.007954707336424,37.0219,35.79875470733643,37.3097C35.58425470733643,37.5974,35.47965470733642,37.9374,35.47965470733642,38.3298C35.47965470733642,38.544200000000004,35.594654707336424,38.7273,35.82485470733643,38.8791C36.055054707336424,39.036,36.32705470733643,39.182500000000005,36.64615470733642,39.3185C36.96535470733643,39.4597,37.30535470733643,39.601,37.66625470733642,39.7475C38.027254707336425,39.8939,38.34635470733643,40.0509,38.62365470733643,40.213C38.63935470733642,40.2967,38.64975470733643,40.427499999999995,38.64975470733643,40.6054C38.64975470733643,40.914,38.513754707336425,41.1704,38.24695470733643,41.3639C37.980154707336425,41.557500000000005,37.64015470733642,41.7458,37.22685470733643,41.9289C36.81885470733643,42.1068,36.37415470733643,42.3108,35.903354707336426,42.541C35.43255470733642,42.7712,34.998354707336425,43.0798,34.60595470733642,43.4722L34.135154707336426,43.4722ZM49.41585470733642,46.6476C48.955554707336425,46.898700000000005,48.35395470733643,47.134100000000004,47.60055470733643,47.348600000000005C46.847254707336425,47.5631,45.98415470733643,47.7305,45.00065470733642,47.8508C44.01715470733643,47.9711,43.01275470733643,48.0339,41.98215470733643,48.0339C40.805054707336424,48.0339,39.76405470733643,47.9711,38.853854707336424,47.8508C37.943554707336425,47.7305,37.18505470733643,47.5631,36.57295470733642,47.359C35.96085470733642,47.155,35.49525470733643,46.9196,35.17615470733642,46.658C34.857054707336424,46.3965,34.700154707336424,46.1349,34.700154707336424,45.8733C34.700154707336424,45.4653,34.85185470733643,45.1096,35.155254707336425,44.806200000000004C35.45865470733642,44.502700000000004,35.83535470733642,44.2307,36.295654707336425,43.9848C36.756054707336425,43.739000000000004,37.247754707336426,43.513999999999996,37.781354707336426,43.31C38.314954707336426,43.106,38.806754707336424,42.8915,39.26705470733643,42.6613C39.72745470733643,42.4311,40.10405470733643,42.1853,40.40755470733643,41.9132C40.71095470733643,41.6412,40.862654707336425,41.3221,40.862654707336425,40.9454C40.862654707336425,40.568799999999996,40.78415470733643,40.2183,40.62725470733643,39.8887C40.47025470733642,39.5591,40.27675470733642,39.229600000000005,40.036054707336426,38.8947C39.80065470733643,38.5599,39.53915470733642,38.1937,39.261854707336425,37.8014C38.98455470733643,37.409,38.728254707336426,36.9696,38.487654707336425,36.477900000000005C38.24695470733643,35.9861,38.05345470733643,35.421099999999996,37.896454707336424,34.7829C37.739554707336424,34.1447,37.661054707336426,33.4071,37.661054707336426,32.5753C37.661054707336426,30.759999999999998,38.001154707336426,29.316200000000002,38.681154707336425,28.24376C39.36125470733643,27.17134,40.412754707336425,26.63774,41.83045470733643,26.63774C43.02315470733643,26.63774,43.96485470733643,26.81561,44.650154707336426,27.176569999999998C45.335454707336424,27.53753,45.858554707336424,27.997889999999998,46.20905470733642,28.56287C46.559554707336424,29.1279,46.77925470733643,29.7504,46.87345470733642,30.4252C46.96235470733643,31.1053,47.00945470733643,31.7697,47.00945470733643,32.4236C47.00945470733643,33.3077,46.930954707336426,34.0662,46.774054707336425,34.704499999999996C46.617154707336425,35.3427,46.428754707336424,35.8972,46.19855470733643,36.3732C45.96845470733643,36.8493,45.72255470733643,37.2678,45.46095470733643,37.634C45.19945470733643,38.0002,44.95355470733642,38.3559,44.723354707336426,38.6907C44.49315470733643,39.0255,44.304854707336425,39.3708,44.147954707336424,39.7213C43.99095470733643,40.071799999999996,43.912554707336426,40.4694,43.912554707336426,40.9088C43.912554707336426,41.2541,44.064254707336424,41.5523,44.36765470733643,41.8138C44.671054707336424,42.0754,45.04775470733642,42.326499999999996,45.50805470733643,42.5619C45.96845470733643,42.7973,46.46535470733643,43.0223,47.00425470733643,43.2368C47.543054707336424,43.4512,48.040054707336424,43.6814,48.50035470733643,43.9377C48.96075470733643,44.188900000000004,49.33735470733643,44.4713,49.64085470733643,44.7695C49.94425470733643,45.0677,50.095954707336425,45.4287,50.095954707336425,45.8367C50.10115470733643,46.1297,49.87625470733643,46.3965,49.41585470733642,46.6476ZM51.85885470733643,43.153C51.32535470733643,43.2524,50.78125470733643,43.31,50.226754707336426,43.3257C49.766354707336426,43.016999999999996,49.279854707336426,42.776399999999995,48.75675470733643,42.6038C48.233554707336424,42.4311,47.73665470733643,42.2742,47.271054707336425,42.1382C46.80545470733642,41.9969,46.402654707336424,41.8452,46.06785470733642,41.6726C45.73305470733642,41.5,45.53425470733643,41.2541,45.466254707336425,40.924499999999995C45.53425470733643,40.615899999999996,45.743454707336426,40.3595,46.10445470733643,40.166C46.46535470733643,39.9672,46.852554707336424,39.784099999999995,47.271054707336425,39.6167C47.68955470733643,39.444,48.06615470733642,39.2609,48.400954707336425,39.0674C48.735754707336426,38.8686,48.90315470733643,38.628,48.90315470733643,38.3298C48.90315470733643,37.9845,48.77245470733642,37.6706,48.51085470733642,37.3829C48.249254707336426,37.0952,47.97725470733643,36.7656,47.699954707336424,36.3889C47.961554707336425,35.8187,48.17605470733643,35.1387,48.34865470733642,34.354C48.52135470733643,33.5693,48.60505470733642,32.643299999999996,48.60505470733642,31.5813C48.60505470733642,31.3512,48.59455470733643,31.121000000000002,48.568354707336425,30.896C48.542254707336426,30.6659,48.51605470733642,30.4357,48.484654707336425,30.2107C48.908454707336425,29.9178,49.29555470733642,29.7713,49.635554707336425,29.7713C50.40455470733643,29.7713,51.01665470733643,29.896900000000002,51.47705470733642,30.1532C51.937354707336425,30.4043,52.28265470733643,30.723399999999998,52.518054707336425,31.100099999999998C52.753454707336424,31.4767,52.910354707336424,31.8795,52.98365470733643,32.3137C53.05685470733643,32.7479,53.09345470733643,33.1455,53.09345470733643,33.5012C53.09345470733643,34.2389,52.97315470733643,34.83,52.73775470733643,35.2799C52.50235470733642,35.7298,52.24075470733643,36.1169,51.95305470733643,36.4465C51.66535470733643,36.7761,51.403754707336425,37.074200000000005,51.16835470733643,37.3515C50.93295470733642,37.6288,50.81265470733642,37.9583,50.81265470733642,38.335C50.81265470733642,38.5129,50.906754707336425,38.6803,51.09515470733643,38.8267C51.283454707336425,38.9732,51.51365470733643,39.1145,51.79615470733643,39.2452C52.07335470733643,39.376000000000005,52.38205470733642,39.501599999999996,52.716854707336424,39.6271C53.051654707336425,39.7475,53.36025470733642,39.8782,53.63755470733643,40.0195C53.914854707336424,40.1607,54.15025470733642,40.3124,54.33855470733643,40.4851C54.526854707336426,40.6577,54.62105470733643,40.8565,54.62105470733643,41.0867C54.62105470733643,41.4476,54.50075470733643,41.7667,54.25485470733643,42.044C54.00895470733643,42.3213,53.68465470733643,42.5567,53.27135470733643,42.745000000000005C52.85805470733643,42.912400000000005,52.387254707336425,43.0537,51.85885470733643,43.153Z" fill="#FFFFFF" fill-opacity="1"/></g><g style="opacity:0.5;"><path d="M34.135314560241696,43.47214156570435C33.4657045602417,43.47214156570435,32.8797945602417,43.40414156570435,32.3828145602417,43.262941565704345C31.885834560241697,43.121641565704344,31.4621045602417,42.93854156570434,31.1220645602417,42.71364156570435C30.7767995602417,42.48344156570435,30.5204625602417,42.22714156570434,30.347828560241698,41.939341565704346C30.175195660241698,41.651641565704345,30.0914945602417,41.363941565704344,30.0914945602417,41.070941565704345C30.0914945602417,40.72574156570435,30.2693595602417,40.44844156570434,30.6303215602417,40.23924156570435C30.9912825602417,40.024741565704346,31.3888645602417,39.83114156570434,31.8178345602417,39.64804156570435C32.2520345602417,39.47024156570434,32.6496145602417,39.28184156570435,33.005344560241696,39.08304156570435C33.3663045602417,38.88424156570434,33.5441745602417,38.63314156570435,33.5441745602417,38.324541565704344C33.5441745602417,38.01584156570435,33.4447745602417,37.72814156570435,33.2512145602417,37.46664156570435C33.0524245602417,37.20504156570435,32.8379445602417,36.90684156570435,32.6025345602417,36.572041565704346C32.3671245602417,36.23723156570435,32.1474045602417,35.84488156570435,31.9538445602417,35.394991565704345C31.7550545602417,34.945091565704345,31.6608945602417,34.36964156570435,31.6608945602417,33.66342156570435C31.6608945602417,33.155981565704344,31.7132045602417,32.66423156570435,31.8178345602417,32.193411565704345C31.9224645602417,31.722591565704345,32.084634560241696,31.304091565704347,32.2938845602417,30.943121565704345C32.5083645602417,30.582161565704347,32.7751645602417,30.299671565704344,33.1047445602417,30.085191565704346C33.4343145602417,29.870701565704344,33.8162045602417,29.766081565704347,34.2556345602417,29.766081565704347C34.8467745602417,29.766081565704347,35.3332845602417,29.865471565704347,35.7256345602417,30.059031565704345C35.6262445602417,30.650171565704348,35.5791645602417,31.262241565704347,35.5791645602417,31.900461565704347C35.5791645602417,32.931031565704345,35.6628645602417,33.80466156570434,35.8354945602417,34.52658156570435C36.0081245602417,35.24851156570435,36.2226145602417,35.86581156570435,36.4841745602417,36.38894156570434C36.2383045602417,36.71854156570434,36.0081245602417,37.021941565704346,35.7988745602417,37.30964156570435C35.5843945602417,37.59734156570435,35.4797645602417,37.93744156570435,35.4797645602417,38.329741565704346C35.4797645602417,38.54424156570435,35.5948545602417,38.72734156570435,35.8250345602417,38.87904156570435C36.0552145602417,39.036041565704345,36.3272445602417,39.182441565704345,36.6463545602417,39.31844156570435C36.9654645602417,39.45974156570435,37.3054945602417,39.600941565704346,37.6664645602417,39.74744156570435C38.0274245602417,39.893941565704345,38.3465345602417,40.050841565704346,38.6237945602417,40.213041565704344C38.6394845602417,40.296741565704345,38.6499445602417,40.427541565704345,38.6499445602417,40.605441565704346C38.6499445602417,40.914041565704345,38.5139345602417,41.17034156570435,38.2471345602417,41.363941565704344C37.9803345602417,41.55754156570435,37.6403045602417,41.745841565704346,37.2270245602417,41.92894156570435C36.8189845602417,42.10674156570435,36.374324560241696,42.310841565704344,35.9035045602417,42.540941565704344C35.4326845602417,42.77114156570435,34.9984845602417,43.07984156570434,34.6061345602417,43.47214156570435L34.135314560241696,43.47214156570435ZM49.4159945602417,46.647541565704344C48.955694560241696,46.898641565704345,48.3540945602417,47.13404156570435,47.600794560241695,47.348541565704345C46.847394560241696,47.563041565704346,45.9842945602417,47.730441565704346,45.0007945602417,47.85074156570435C44.0172945602417,47.97114156570434,43.0128945602417,48.03384156570435,41.9822945602417,48.03384156570435C40.8052945602417,48.03384156570435,39.7642245602417,47.97114156570434,38.853974560241696,47.85074156570435C37.9437245602417,47.730441565704346,37.1851745602417,47.563041565704346,36.5731145602417,47.359041565704345C35.9610445602417,47.155041565704344,35.4954545602417,46.919641565704346,35.1763445602417,46.658041565704345C34.8572345602417,46.39644156570435,34.7002945602417,46.134941565704345,34.7002945602417,45.87334156570435C34.7002945602417,45.46534156570435,34.852004560241696,45.10954156570435,35.1554245602417,44.806141565704344C35.4588345602417,44.50274156570434,35.8354945602417,44.23074156570435,36.2958545602417,43.98484156570434C36.7562045602417,43.738941565704344,37.2479545602417,43.514041565704346,37.7815445602417,43.30994156570435C38.3151445602417,43.10594156570434,38.8068845602417,42.89144156570434,39.2672445602417,42.66134156570435C39.7276045602417,42.431141565704344,40.1042945602417,42.185241565704345,40.4076945602417,41.91324156570435C40.7110945602417,41.64124156570435,40.862794560241696,41.322041565704346,40.862794560241696,40.94544156570434C40.862794560241696,40.56874156570434,40.7842945602417,40.218241565704346,40.6273945602417,39.88874156570434C40.4704945602417,39.559141565704344,40.2768945602417,39.229541565704345,40.0362545602417,38.894741565704344C39.8008445602417,38.55994156570435,39.5392745602417,38.19374156570434,39.262014560241695,37.801441565704344C38.9847545602417,37.40904156570434,38.7284245602417,36.96964156570434,38.487774560241704,36.47787156570435C38.2471345602417,35.98613156570435,38.0535745602417,35.421141565704346,37.8966345602417,34.78292156570434C37.7396945602417,34.144701565704345,37.6612245602417,33.407081565704345,37.6612245602417,32.57530156570434C37.6612245602417,30.760031565704345,38.0012645602417,29.316181565704348,38.6813345602417,28.243761565704347C39.3614145602417,27.171337565704345,40.412894560241696,26.637741565704346,41.8305945602417,26.637741565704346C43.0232945602417,26.637741565704346,43.9649945602417,26.815606565704346,44.6502945602417,27.176568565704347C45.3355945602417,27.537529565704347,45.8586945602417,27.997891565704347,46.2091945602417,28.562871565704345C46.559694560241695,29.127851565704347,46.7793945602417,29.750381565704345,46.8735945602417,30.425221565704344C46.962494560241694,31.105301565704345,47.009594560241695,31.769671565704346,47.009594560241695,32.42359156570434C47.009594560241695,33.307691565704346,46.931094560241704,34.06623156570434,46.774194560241696,34.704451565704346C46.6172945602417,35.34267156570434,46.4288945602417,35.89719156570435,46.198794560241694,36.37324156570435C45.9685945602417,36.84934156570435,45.7226945602417,37.267841565704344,45.4610945602417,37.634041565704344C45.1995945602417,38.00014156570435,44.9536945602417,38.35594156570434,44.7234945602417,38.69074156570434C44.4933945602417,39.025541565704344,44.304994560241695,39.370841565704346,44.1480945602417,39.72134156570435C43.9910945602417,40.07184156570435,43.9126945602417,40.46934156570435,43.9126945602417,40.90884156570435C43.9126945602417,41.25404156570435,44.064394560241695,41.55224156570435,44.3677945602417,41.813841565704344C44.6711945602417,42.075441565704345,45.0478945602417,42.326541565704346,45.5081945602417,42.561941565704345C45.9685945602417,42.79734156570434,46.4655945602417,43.02224156570435,47.0043945602417,43.23674156570435C47.5431945602417,43.45124156570435,48.0401945602417,43.68144156570435,48.5004945602417,43.93774156570434C48.9608945602417,44.18884156570435,49.3375945602417,44.47134156570435,49.640994560241694,44.769541565704344C49.944394560241705,45.067741565704345,50.096094560241696,45.428641565704346,50.096094560241696,45.836741565704344C50.1012945602417,46.12964156570435,49.8763945602417,46.39644156570435,49.4159945602417,46.647541565704344ZM51.8590945602417,43.15304156570434C51.3254945602417,43.252441565704345,50.7813945602417,43.30994156570435,50.2268945602417,43.325641565704345C49.766494560241696,43.017041565704346,49.279994560241704,42.776441565704346,48.756894560241705,42.60374156570435C48.2337945602417,42.431141565704344,47.7367945602417,42.27414156570435,47.271194560241696,42.138141565704345C46.8055945602417,41.99694156570435,46.4027945602417,41.84524156570434,46.0679945602417,41.67254156570435C45.7331945602417,41.49994156570435,45.5343945602417,41.25404156570435,45.466394560241696,40.924541565704345C45.5343945602417,40.61584156570434,45.743594560241704,40.35954156570435,46.1045945602417,40.165941565704344C46.4655945602417,39.967141565704345,46.8526945602417,39.78404156570434,47.271194560241696,39.61664156570434C47.6896945602417,39.444041565704346,48.0662945602417,39.26094156570434,48.4011945602417,39.067341565704346C48.7359945602417,38.868641565704344,48.9033945602417,38.62794156570435,48.9033945602417,38.329741565704346C48.9033945602417,37.98454156570435,48.7725945602417,37.670641565704344,48.5109945602417,37.38294156570434C48.2493945602417,37.095141565704346,47.9773945602417,36.76564156570434,47.7001945602417,36.38894156570434C47.961694560241696,35.818721565704344,48.1761945602417,35.13865156570434,48.3487945602417,34.35395156570435C48.5214945602417,33.56925156570435,48.6051945602417,32.643311565704344,48.6051945602417,31.581351565704345C48.6051945602417,31.351171565704345,48.5946945602417,31.120991565704344,48.5685945602417,30.896041565704344C48.5423945602417,30.665861565704347,48.5161945602417,30.435691565704346,48.4848945602417,30.210741565704346C48.908594560241696,29.917781565704345,49.2956945602417,29.771311565704345,49.6356945602417,29.771311565704345C50.4047945602417,29.771311565704345,51.0167945602417,29.896861565704345,51.4771945602417,30.153191565704347C51.9374945602417,30.404301565704344,52.2827945602417,30.723411565704346,52.518194560241696,31.100061565704344C52.753594560241694,31.476721565704345,52.9105945602417,31.879531565704347,52.9837945602417,32.313731565704344C53.0569945602417,32.74793156570435,53.0936945602417,33.145511565704346,53.0936945602417,33.50124156570435C53.0936945602417,34.23886156570435,52.9732945602417,34.83000156570434,52.7378945602417,35.27990156570435C52.5024945602417,35.729791565704346,52.2408945602417,36.11691156570434,51.9531945602417,36.446481565704346C51.6654945602417,36.77604156570435,51.403894560241696,37.07424156570435,51.1684945602417,37.351541565704345C50.9330945602417,37.628741565704345,50.8127945602417,37.958341565704345,50.8127945602417,38.335041565704344C50.8127945602417,38.51284156570435,50.9069945602417,38.68024156570435,51.0952945602417,38.826741565704346C51.283594560241696,38.97324156570434,51.5137945602417,39.11444156570435,51.7962945602417,39.24524156570435C52.0734945602417,39.37604156570435,52.3821945602417,39.50154156570434,52.7169945602417,39.62714156570435C53.0517945602417,39.74744156570435,53.3604945602417,39.87824156570434,53.6376945602417,40.01944156570435C53.914994560241695,40.16074156570434,54.1503945602417,40.31244156570435,54.3386945602417,40.48504156570435C54.526994560241704,40.65774156570434,54.6211945602417,40.85654156570435,54.6211945602417,41.08664156570435C54.6211945602417,41.447641565704345,54.500894560241704,41.76674156570434,54.2549945602417,42.04404156570435C54.0090945602417,42.32124156570435,53.6847945602417,42.556641565704346,53.2714945602417,42.74504156570434C52.8581945602417,42.91244156570434,52.3873945602417,43.053641565704346,51.8590945602417,43.15304156570434Z" fill="#FFFFFF" fill-opacity="1"/></g></g></g></svg>