<svg xmlns="http://www.w3.org/2000/svg" xmlns:xlink="http://www.w3.org/1999/xlink" fill="none" version="1.1" width="80" height="80" viewBox="0 0 80 80"><defs><clipPath id="master_svg0_146_8835"><rect x="0" y="0" width="80" height="80" rx="8"/></clipPath></defs><g style="mix-blend-mode:passthrough" clip-path="url(#master_svg0_146_8835)"><rect x="0" y="0" width="80" height="80" rx="8" fill="#347AFF" fill-opacity="1"/><g style="mix-blend-mode:passthrough"><g><path d="M19.82066,18C17.101770000000002,18.0327342,14.9341939,20.2816,15.00152985,22.999850000000002L15.00152985,50.499C14.9341968,53.2173,17.101770000000002,55.4661,19.82066,55.4988L32.4709,55.4988L47.2295,55.4988L59.8797,55.4988C62.6547,55.4838,64.91890000000001,53.2729,65,50.499L65,22.999850000000002C64.91890000000001,20.22597,62.6547,18.0150429,59.8797,18L19.82066,18Z" fill="#FFFFFF" fill-opacity="1"/></g><g style="opacity:0.5;"><path d="M28.25413682720947,58.51080796142578C27.26078582720947,59.42006796142578,27.129859827209472,60.938817961425784,27.952940827209474,62.004677961425784C28.699058827209473,63.10513796142578,30.222578827209475,63.34058796142578,31.266088827209472,62.51670796142578L40.000758827209474,56.13136296142578L48.434258827209476,62.51670796142578C49.47775882720947,63.34058796142578,51.00125882720947,63.10513796142578,51.74735882720947,62.004677961425784C52.57045882720947,60.938817961425784,52.439558827209474,59.42006796142578,51.44615882720947,58.51080796142578L47.22945882720947,55.49884796142578L32.470878827209475,55.49884796142578L28.25413682720947,58.51080796142578Z" fill="#FFFFFF" fill-opacity="1"/></g><g><path d="M31.868483388671876,35.49946165100098C30.138483388671876,35.49946165100098,28.736053388671877,36.901901651000976,28.736053388671877,38.63185165100098C28.736053388671877,40.361851651000975,30.138483388671876,41.76435165100098,31.868483388671876,41.76435165100098C33.59848338867187,41.76435165100098,35.00092338867188,40.361851651000975,35.00092338867188,38.63185165100098C35.00092338867188,36.901901651000976,33.59847338867188,35.49946165100098,31.868483388671876,35.49946165100098ZM31.868483388671876,45.49915165100097C28.047293388671875,45.63335165100098,24.852408388671876,42.620651651000976,24.762175558671874,38.79815165100098C24.671941788671877,34.97571165100098,27.721113388671874,31.815661651000976,31.544373388671875,31.769371651000977C35.36762338867187,31.72307165100098,38.492423388671874,34.80836165100098,38.494823388671875,38.63185165100098C38.51292338867188,42.338751651000976,35.57362338867188,45.38485165100097,31.868483388671876,45.49915165100097ZM47.229423388671876,42.999251651000975C47.318623388671874,44.379351651000974,46.20232338867187,45.53745165100098,44.819923388671874,45.49915165100097C43.48142338867187,45.435451651000974,42.42472338867188,44.339151651000975,42.41032338867187,42.999251651000975L42.41032338867187,36.73436165100098C42.42472338867188,35.39445165100098,43.48142338867187,34.29817165100098,44.819923388671874,34.23444165100098C46.20232338867187,34.19610165100097,47.318623388671874,35.35427165100098,47.229423388671876,36.73436165100098L47.229423388671876,42.999251651000975ZM54.75932338867187,42.999251651000975C54.75932338867187,44.329951651000975,53.68052338867187,45.408751651000976,52.34982338867188,45.408751651000976C51.019023388671876,45.408751651000976,49.940223388671875,44.329951651000975,49.940223388671875,42.999251651000975L49.940223388671875,30.499621651000975C49.940223388671875,29.168851651000978,51.019023388671876,28.090051651000977,52.34982338867188,28.090051651000977C53.68052338867187,28.090051651000977,54.75932338867187,29.168851651000978,54.75932338867187,30.499621651000975L54.75932338867187,42.999251651000975Z" fill="#8CB4FF" fill-opacity="1"/></g></g></g></svg>