<svg xml:space="preserve" style="enable-background:new 0 0 400 400;" viewBox="0 0 400 400" y="0px" x="0px" xmlns:xlink="http://www.w3.org/1999/xlink" xmlns="http://www.w3.org/2000/svg" id="图层_1" version="1.1">
<style type="text/css">
	.st0{fill:url(#SVGID_1_);}
	.st1{fill:url(#SVGID_2_);}
	.st2{fill:#93B28A;}
	.st3{fill:url(#SVGID_3_);}
	.st4{fill:#F7F7F7;}
	.st5{fill:#D3E1E5;}
	.st6{fill:url(#SVGID_4_);}
	.st7{fill:url(#SVGID_5_);}
	.st8{fill:url(#SVGID_6_);}
	.st9{fill:url(#SVGID_7_);}
	.st10{fill:#E7F4E4;}
	.st11{fill:url(#SVGID_8_);}
	.st12{fill:#C9D8C5;}
	.st13{fill:url(#SVGID_9_);}
	.st14{fill:url(#SVGID_10_);}
	.st15{fill:url(#SVGID_11_);}
	.st16{fill:url(#SVGID_12_);}
	.st17{fill:url(#SVGID_13_);}
	.st18{fill:#EBF2F7;}
	.st19{fill:url(#SVGID_14_);}
	.st20{fill:url(#SVGID_15_);}
</style>
<g>
	<g>
		<linearGradient y2="337.4593" x2="173.8801" y1="252.268" x1="173.8801" gradientUnits="userSpaceOnUse" id="SVGID_1_">
			<stop style="stop-color:#3CD3B4" offset="0"></stop>
			<stop style="stop-color:#71CFEE" offset="1"></stop>
		</linearGradient>
		<path d="M36,283.1c-18.2,9.1-56,26-22.8,39s79.2-0.7,123.5,6.5s53.5,15.6,93.8,0s57-0.7,67.5-15.6
			c10.5-15,88.6-15.3,24.9-49S43.8,279.2,36,283.1z" class="st0"></path>
	</g>
	<g>
		<linearGradient y2="216.781" x2="400" y1="216.781" x1="207.4266" gradientUnits="userSpaceOnUse" id="SVGID_2_">
			<stop style="stop-color:#99DB8D" offset="0"></stop>
			<stop style="stop-color:#D2BE9A" offset="1"></stop>
		</linearGradient>
		<path d="M221.7,238.7c39-37.1,23.4-43,76.1-68.3s50.8-17.6,74.2-27.3c22.6-9.4,46.9,33.2,5.9,62.5
			s-15.6,66.4-64.4,72.2s-101.5,23.4-105.4,7.8S221.7,238.7,221.7,238.7z" class="st1"></path>
		<g>
			<g>
				<path d="M224.2,278.6l-1.1-1.6c1.9-1.2,5.2-3.4,9.6-6.3c22.6-14.7,75.5-49.2,91.8-63.9
					c19.3-17.4,60.2-46.6,60.6-46.9l1.1,1.6c-0.4,0.3-41.2,29.5-60.4,46.8c-16.5,14.8-69.4,49.4-92.1,64.1
					C229.3,275.1,226,277.3,224.2,278.6z" class="st2"></path>
			</g>
			<g>
				<path d="M299.2,228.3l-0.2-1.9c0.4-0.1,42.5-5.2,50.1-9l0.9,1.7C342.1,223,301,228.1,299.2,228.3z" class="st2"></path>
			</g>
			<g>
				
					<rect height="2" width="47.5" class="st2" transform="matrix(0.9512 -0.3086 0.3086 0.9512 -39.7834 121.4418)" y="185.5" x="340.3"></rect>
			</g>
			<g>
				<path d="M242.7,266.3l0-2c14.1-0.1,51.6-0.7,56-3.1l0.9,1.7C294,265.9,247.9,266.2,242.7,266.3z" class="st2"></path>
			</g>
			<g>
				<path d="M326.1,207.6l-1.9-0.2c0.5-4.4,5.2-42.7,15.3-46.7l0.7,1.8C332.6,165.5,327.4,196.1,326.1,207.6z" class="st2"></path>
			</g>
		</g>
	</g>
	<radialGradient gradientUnits="userSpaceOnUse" r="130.8838" cy="175.7737" cx="181.6892" id="SVGID_3_">
		<stop style="stop-color:#5296A8" offset="0"></stop>
		<stop style="stop-color:#7CB4EE" offset="0.505"></stop>
		<stop style="stop-color:#5398AA" offset="1"></stop>
	</radialGradient>
	<path d="M312.5,62.5H50.9c-8.6,0-15.6,7-15.6,15.6v164c0,8.6,7,15.6,15.6,15.6h123.4l2.6,21.5h-32.2
		c-2.7,0-4.9,2.2-4.9,4.9c0,2.7,2.2,4.9,4.9,4.9h74.2c2.7,0,4.9-2.2,4.9-4.9c0-2.7-2.2-4.9-4.9-4.9h-32.2l2.6-21.5h123.4
		c8.6,0,15.6-7,15.6-15.6v-164C328.1,69.5,321.1,62.5,312.5,62.5z" class="st3"></path>
	<g>
		<path d="M310.3,248H53c-4.4,0-8-3.6-8-8V80.3c0-4.4,3.6-8,8-8h257.3c4.4,0,8,3.6,8,8V240
			C318.3,244.4,314.8,248,310.3,248z" class="st4"></path>
	</g>
	<g>
		<g>
			<g>
				<path d="M186,121.1H79.7c-1.4,0-2.5-1.1-2.5-2.5v-4.8c0-1.4,1.1-2.5,2.5-2.5H186c1.4,0,2.5,1.1,2.5,2.5v4.8
					C188.5,120,187.4,121.1,186,121.1z" class="st5"></path>
			</g>
			<g>
				<path d="M283.6,121.1H234c-1.4,0-2.5-1.1-2.5-2.5v-4.8c0-1.4,1.1-2.5,2.5-2.5h49.7c1.4,0,2.5,1.1,2.5,2.5v4.8
					C286.1,120,285,121.1,283.6,121.1z" class="st5"></path>
			</g>
		</g>
		<g>
			<g>
				<path d="M283.6,167H234c-1.4,0-2.5-1.1-2.5-2.5v-4.8c0-1.4,1.1-2.5,2.5-2.5h49.7c1.4,0,2.5,1.1,2.5,2.5v4.8
					C286.1,165.9,285,167,283.6,167z" class="st5"></path>
			</g>
			<g>
				<path d="M100.1,167H79.7c-1.4,0-2.5-1.1-2.5-2.5v-4.8c0-1.4,1.1-2.5,2.5-2.5h20.4c1.4,0,2.5,1.1,2.5,2.5v4.8
					C102.6,165.9,101.5,167,100.1,167z" class="st5"></path>
			</g>
			<g>
				<path d="M143.1,167h-20.4c-1.4,0-2.5-1.1-2.5-2.5v-4.8c0-1.4,1.1-2.5,2.5-2.5h20.4c1.4,0,2.5,1.1,2.5,2.5v4.8
					C145.6,165.9,144.5,167,143.1,167z" class="st5"></path>
			</g>
			<g>
				<path d="M186,167h-20.4c-1.4,0-2.5-1.1-2.5-2.5v-4.8c0-1.4,1.1-2.5,2.5-2.5H186c1.4,0,2.5,1.1,2.5,2.5v4.8
					C188.5,165.9,187.4,167,186,167z" class="st5"></path>
			</g>
		</g>
		<g>
			<g>
				<path d="M283.6,212.9H234c-1.4,0-2.5-1.1-2.5-2.5v-4.8c0-1.4,1.1-2.5,2.5-2.5h49.7c1.4,0,2.5,1.1,2.5,2.5v4.8
					C286.1,211.7,285,212.9,283.6,212.9z" class="st5"></path>
			</g>
			<g>
				<path d="M186,212.9H79.7c-1.4,0-2.5-1.1-2.5-2.5v-4.8c0-1.4,1.1-2.5,2.5-2.5H186c1.4,0,2.5,1.1,2.5,2.5v4.8
					C188.5,211.7,187.4,212.9,186,212.9z" class="st5"></path>
			</g>
		</g>
	</g>
	<g>
		<linearGradient y2="160.1553" x2="227.4094" y1="160.1553" x1="135.9691" gradientUnits="userSpaceOnUse" id="SVGID_4_">
			<stop style="stop-color:#BBD6B4" offset="0"></stop>
			<stop style="stop-color:#63EDE7" offset="1"></stop>
		</linearGradient>
		<path d="M181.7,114.4c-25.3,0-45.7,20.5-45.7,45.7c0,25.3,20.5,45.7,45.7,45.7c25.3,0,45.7-20.5,45.7-45.7
			C227.4,134.9,206.9,114.4,181.7,114.4z M181.7,185c-13.7,0-24.8-11.1-24.8-24.8c0-13.7,11.1-24.8,24.8-24.8
			c13.7,0,24.8,11.1,24.8,24.8C206.5,173.9,195.4,185,181.7,185z" class="st6"></path>
		<g>
			<linearGradient y2="170.8634" x2="210.0715" y1="170.8634" x1="135.9691" gradientUnits="userSpaceOnUse" id="SVGID_5_">
				<stop style="stop-color:#5486B4" offset="0"></stop>
				<stop style="stop-color:#72CBE2" offset="1"></stop>
			</linearGradient>
			<path d="M194.2,181.6c-4,2.3-8.7,3.6-13.7,3.3c-12.6-0.6-22.8-10.7-23.5-23.3c-0.2-4,0.5-7.8,1.9-11.3
				c1.7-4,0.7-8.7-2.6-11.6l-0.6-0.5c-5.2-4.5-13.2-2.7-15.9,3.6c-2.5,5.7-3.8,11.9-3.8,18.5c0.2,24.8,20.4,45.1,45.2,45.4
				c8.7,0.1,16.9-2.3,23.9-6.4c5.9-3.5,6.7-11.7,1.5-16.3l-0.6-0.5C202.8,179.7,198,179.4,194.2,181.6z" class="st7"></path>
		</g>
		<linearGradient y2="161.8006" x2="188.2699" y1="161.8006" x1="178.3989" gradientUnits="userSpaceOnUse" id="SVGID_6_">
			<stop style="stop-color:#5486B4" offset="0"></stop>
			<stop style="stop-color:#72CBE2" offset="1"></stop>
		</linearGradient>
		<polygon points="188.3,161.8 178.4,156.1 178.4,167.5" class="st8"></polygon>
	</g>
	<g>
		<g>
			<linearGradient y2="283.1499" x2="117.2635" y1="283.1499" x1="7.9351" gradientUnits="userSpaceOnUse" id="SVGID_7_">
				<stop style="stop-color:#78AA6D" offset="0"></stop>
				<stop style="stop-color:#6DCDAD" offset="1"></stop>
			</linearGradient>
			<polygon points="11.8,267.5 7.9,298.8 117.3,298.8 111.4,267.5" class="st9"></polygon>
			<polygon points="13,267.5 11.8,294.9 112.5,294.9 110.4,267.5" class="st10"></polygon>
			<linearGradient y2="263.627" x2="115.3112" y1="263.627" x1="9.8874" gradientUnits="userSpaceOnUse" id="SVGID_8_">
				<stop style="stop-color:#BBD6B4" offset="0"></stop>
				<stop style="stop-color:#63EDE7" offset="1"></stop>
			</linearGradient>
			<polygon points="13.8,248 9.9,279.2 115.3,279.2 109.5,248" class="st11"></polygon>
			<rect height="1.4" width="95.7" class="st12" y="283.4" x="14.4"></rect>
			<rect height="1.4" width="97.6" class="st12" y="289" x="13.4"></rect>
		</g>
		<g>
			<linearGradient y2="257.7701" x2="115.3112" y1="257.7701" x1="5.9828" gradientUnits="userSpaceOnUse" id="SVGID_9_">
				<stop style="stop-color:#5595CE" offset="0"></stop>
				<stop style="stop-color:#AFCBE2" offset="1"></stop>
			</linearGradient>
			<polygon points="9.9,242.2 6,273.4 115.3,273.4 109.5,242.2" class="st13"></polygon>
			<polygon points="11.1,242.2 9.9,269.5 110.6,269.5 108.4,242.2" class="st10"></polygon>
			<linearGradient y2="238.2471" x2="113.359" y1="238.2471" x1="7.9351" gradientUnits="userSpaceOnUse" id="SVGID_10_">
				<stop style="stop-color:#5486B4" offset="0"></stop>
				<stop style="stop-color:#72CBE2" offset="1"></stop>
			</linearGradient>
			<polygon points="11.8,222.6 7.9,253.9 113.4,253.9 107.5,222.6" class="st14"></polygon>
			<rect height="1.4" width="95.7" class="st12" y="258.1" x="12.4"></rect>
			<rect height="1.4" width="97.6" class="st12" y="263.6" x="11.4"></rect>
		</g>
		<g>
			<linearGradient y2="228.203" x2="119.2158" y1="228.203" x1="9.8874" gradientUnits="userSpaceOnUse" id="SVGID_11_">
				<stop style="stop-color:#F48577" offset="0"></stop>
				<stop style="stop-color:#93BEE7" offset="1"></stop>
			</linearGradient>
			<polygon points="13.8,212.6 9.9,243.8 119.2,243.8 113.4,212.6" class="st15"></polygon>
			<polygon points="15,212.6 13.8,239.9 114.5,239.9 112.3,212.6" class="st10"></polygon>
			<linearGradient y2="208.6801" x2="117.2635" y1="208.6801" x1="11.8397" gradientUnits="userSpaceOnUse" id="SVGID_12_">
				<stop style="stop-color:#F4AE77" offset="0"></stop>
				<stop style="stop-color:#98EDE7" offset="1"></stop>
			</linearGradient>
			<polygon points="15.7,193.1 11.8,224.3 117.3,224.3 111.4,193.1" class="st16"></polygon>
			<rect height="1.4" width="95.7" class="st12" y="228.5" x="16.3"></rect>
			<rect height="1.4" width="97.6" class="st12" y="234.1" x="15.3"></rect>
		</g>
	</g>
	<g>
		<linearGradient y2="275.0297" x2="327.4573" y1="275.0297" x1="194.8463" gradientUnits="userSpaceOnUse" id="SVGID_13_">
			<stop style="stop-color:#89CDDA" offset="0"></stop>
			<stop style="stop-color:#EEEEEE" offset="1"></stop>
		</linearGradient>
		<path d="M208.2,264.5c18.5-6.2,24.6-34.7,57.1-24.1c30.6,10,40.9,5.2,49.4,22.9s20.7,21.3,5.9,32.5
			c-14.8,11.2-14.9,17.1-50,16.2c-28.3-0.8-65.4,0.9-72.4-9.2C191,292.7,195.9,268.6,208.2,264.5z" class="st17"></path>
		<g>
			<path d="M264,275.9V255c0-1.7-1.4-3.1-3.1-3.1c-1.7,0-3.1,1.4-3.1,3.1v21l-8.9-4.9l12.3,17.5l12.3-17.5L264,275.9z" class="st18"></path>
			<path d="M272.3,298.2H250c-0.8,0-1.4-0.6-1.4-1.4V294c0-0.8,0.6-1.4,1.4-1.4h22.2c0.8,0,1.4,0.6,1.4,1.4v2.8
				C273.7,297.5,273.1,298.2,272.3,298.2z" class="st18"></path>
		</g>
	</g>
	<linearGradient y2="284.1909" x2="209.9723" y1="284.1909" x1="194.8463" gradientUnits="userSpaceOnUse" id="SVGID_14_">
		<stop style="stop-color:#89CDDA" offset="0"></stop>
		<stop style="stop-color:#A9D8E0" offset="1"></stop>
	</linearGradient>
	<path d="M206.5,267.5c1.4-1.1,2.5-2.3,3.5-3.7c-0.6,0.2-1.2,0.5-1.8,0.7c-12.2,4.1-17.2,28.2-10.1,38.3
		c0.5,0.7,1,1.3,1.7,1.8C198.9,292.6,197.6,274.5,206.5,267.5z" class="st19"></path>
	<linearGradient y2="253.2554" x2="197.7143" y1="253.2554" x1="165.6642" gradientUnits="userSpaceOnUse" id="SVGID_15_">
		<stop style="stop-color:#4396CC" offset="0"></stop>
		<stop style="stop-color:#86BAEE" offset="1"></stop>
	</linearGradient>
	<path d="M196.7,255.2h-30c-0.6,0-1-0.5-1-1v-1.9c0-0.6,0.5-1,1-1h30c0.6,0,1,0.5,1,1v1.9
		C197.7,254.8,197.3,255.2,196.7,255.2z" class="st20"></path>
</g>
</svg>
